<svg width="186" height="189" viewBox="0 0 186 189" fill="none" xmlns="http://www.w3.org/2000/svg">
<g clip-path="url(#clip0_2557_50083)" filter="url(#filter0_d_2557_50083)">
<rect width="186" height="186" fill="#D6F2DC"/>
<g clip-path="url(#clip1_2557_50083)">
<g clip-path="url(#clip2_2557_50083)" filter="url(#filter1_i_2557_50083)">
<ellipse cx="75.375" cy="68.2582" rx="4.67769" ry="6.97988" fill="#EFE2D0"/>
<path d="M21.0143 120.981C32.5464 116.353 30.9332 110.437 28.6851 108.058L60.7773 108.786C59.3508 111.315 62.7026 118.047 64.5568 121.097C56.4056 121.494 36.2855 122.027 21.0143 120.981Z" fill="#F4E6D4"/>
<path d="M27.7793 119.768C30.2356 116.873 49.6126 112.624 58.9941 110.861C59.5057 108.355 38.5256 108.077 29.3146 108.634C32.1803 114.424 27.4382 117.356 24.709 118.098C23.1739 119.026 21.6387 120.659 27.7793 119.768Z" fill="#E2D5C3"/>
<ellipse cx="13.2373" cy="71.81" rx="4.67769" ry="6.97988" fill="#F4E6D4"/>
<g filter="url(#filter2_i_2557_50083)">
<path d="M75.0543 104.264C84.517 94.5962 72.8922 54.3362 69.484 37.938C55.9483 37.4255 24.7869 36.4006 20.9891 40.3977C17.1913 44.3948 10.1433 97.2383 19.3013 105.536C28.4592 113.833 65.5917 113.931 75.0543 104.264Z" fill="#F4E6D4"/>
</g>
<path d="M59.4532 75.0065C58.182 75.0065 57.1514 72.7284 57.1514 69.9183C57.1514 67.1081 58.182 64.8301 59.4532 64.8301C60.7244 64.8301 61.7549 67.1081 61.7549 69.9183C61.7549 72.7284 60.7244 75.0065 59.4532 75.0065Z" fill="#121617"/>
<path d="M36.9473 75.0065C35.6761 75.0065 34.6456 72.7284 34.6456 69.9183C34.6456 67.1081 35.6761 64.8301 36.9473 64.8301C38.2185 64.8301 39.249 67.1081 39.249 69.9183C39.249 72.7284 38.2185 75.0065 36.9473 75.0065Z" fill="#121617"/>
<path d="M60.465 89.198H34.4453V97.0504L58.7108 100.54C59.6853 99.377 58.7108 94.4329 60.465 89.198Z" fill="#A89D8F"/>
<path d="M54.3255 93.8513L55.4949 89.198H34.4453V93.2696L54.3255 93.8513Z" fill="white"/>
<path d="M54.3255 94.4331L52.5714 99.668L34.4453 97.0505V93.5606L54.3255 94.4331Z" fill="white"/>
<path d="M52.8646 82.7996L47.8945 61.2783L49.941 80.1822L45.5557 82.7996H52.8646Z" fill="#E4D7C6"/>
<g filter="url(#filter3_i_2557_50083)">
<path d="M65.9962 53.6605L52.5479 52.1094V58.3137L64.8268 60.2526L65.9962 53.6605Z" fill="#9B6036"/>
</g>
<g filter="url(#filter4_i_2557_50083)">
<path d="M42.6319 54.825L26.8447 53.717V58.1487L41.2591 59.5336L42.6319 54.825Z" fill="#9B6036"/>
</g>
<g filter="url(#filter5_i_2557_50083)">
<path d="M73.5199 54.3994C73.5199 54.3994 75.0543 35.8274 68.6514 31.6142C62.2485 27.401 30.0428 27.6862 22.8819 31.6142C15.721 35.5421 16.2326 60.5052 16.2326 60.5052C16.2326 60.5052 30.5544 38.1171 48.9683 39.1347C67.3821 40.1523 66.9906 52.8483 73.5199 54.3994Z" fill="#A96B3E"/>
</g>
<path d="M16.7459 75.2997C12.536 77.3937 11.0937 73.0701 10.8988 70.6465C9.43706 73.2639 9.72988 75.2997 10.8988 77.0447C11.7255 78.2787 15.2842 78.4989 16.7459 75.2997Z" fill="#EFE2D0"/>
<g filter="url(#filter6_i_2557_50083)">
<ellipse cx="47.3104" cy="73.5685" rx="64.3182" ry="61.6556" fill="url(#paint0_linear_2557_50083)" fill-opacity="0.7"/>
</g>
<path d="M47.3105 13.3914C82.0754 13.3914 110.15 40.3916 110.15 73.5681C110.15 106.745 82.0755 133.746 47.3105 133.746C12.5455 133.746 -15.5293 106.745 -15.5293 73.5681C-15.5291 40.3916 12.5457 13.3914 47.3105 13.3914Z" stroke="url(#paint1_linear_2557_50083)" stroke-opacity="0.4" stroke-width="2.95681"/>
<g filter="url(#filter7_i_2557_50083)">
<path d="M80.6382 124.754C76.5455 128.826 47.3094 124.754 47.3094 124.754L18.366 123.009H16.3201C17.4895 123.009 9.06925 115.564 11.642 112.539C38.7726 119.985 68.9437 116.32 86.1927 112.539C86.1927 112.539 84.7309 120.683 80.6382 124.754Z" fill="#8CDED9"/>
</g>
<g filter="url(#filter8_i_2557_50083)">
<path d="M84.1887 238.491V151.361C84.1887 141.274 92.4901 133.021 102.635 133.021C112.78 133.021 121.081 141.274 121.081 151.361V238.491H84.1841H84.1887Z" fill="#EFF1F4"/>
</g>
<path d="M116.344 160.258C106.195 160.258 97.9339 152.05 97.9339 141.959C97.9339 138.667 98.6494 135.983 100.366 133.138L101.815 133.039C100.23 135.673 99.3152 138.919 99.3152 141.959C99.3152 151.293 106.951 158.885 116.339 158.885C117.902 158.885 119.482 158.66 121.036 158.219L121.081 159.633C119.401 160.11 118.033 160.263 116.339 160.263L116.344 160.258Z" fill="#D7D8D8"/>
<path d="M116.344 154.756C109.247 154.756 103.472 149.015 103.472 141.959C103.472 138.69 104.46 135.857 106.72 133.475L108.278 133.903C106.262 136.033 104.858 139.045 104.858 141.963C104.858 148.263 110.012 153.387 116.348 153.387C117.888 153.387 119.677 153.085 121.09 152.486V153.927C119.5 154.598 118.074 154.765 116.348 154.765L116.344 154.756Z" fill="#D7D8D8"/>
<g filter="url(#filter9_i_2557_50083)">
<path d="M21.5397 220.826H-7.20517C-22.9555 220.826 -35.7236 208.132 -35.7236 192.472L-35.7236 149.447C-35.7236 133.787 -22.9555 121.092 -7.20517 121.092H21.5397C37.29 121.092 50.0582 133.787 50.0582 149.447L50.0582 192.472C50.0582 208.132 37.29 220.826 21.5397 220.826Z" fill="#8CDED9"/>
</g>
<g filter="url(#filter10_i_2557_50083)">
<path d="M95.4883 155.872C95.4883 140.274 82.6534 127.518 66.9698 127.518H27.1608C19.5432 127.518 12.614 130.544 7.48276 135.425C13.0624 138.59 16.8485 144.552 16.8485 151.361V228.472H95.4883V155.877V155.872Z" fill="#F3F8FC"/>
</g>
<path d="M7.4819 135.425C2.05175 140.594 -1.36303 147.848 -1.36303 155.872V228.468H16.8477V151.356C16.8477 144.548 13.057 138.586 7.4819 135.42V135.425Z" fill="#E5EEF4"/>
<g filter="url(#filter11_i_2557_50083)">
<path d="M-25.407 243.994V151.361C-25.407 141.274 -17.1056 133.021 -6.96085 133.021C3.18388 133.021 11.4854 141.274 11.4854 151.361V243.994H-25.4116H-25.407Z" fill="#F3F8FC"/>
</g>
<path d="M79.1163 131.413H18.9318C15.8753 131.413 13.3975 128.95 13.3975 125.911C13.3975 122.872 15.8753 120.408 18.9318 120.408L79.1163 120.408C82.1728 120.408 84.6506 122.872 84.6506 125.911C84.6506 128.95 82.1728 131.413 79.1163 131.413Z" fill="#EFF1F4"/>
<path d="M-16.326 157.863C-19.6366 157.863 -22.5442 157.165 -25.4064 155.463V154.009C-22.757 155.585 -19.383 156.49 -16.326 156.49C-6.93758 156.49 0.698143 148.898 0.698143 139.563C0.698143 138.01 0.358484 135.894 -0.0853474 134.349L1.33672 134.966C1.81678 136.637 2.08398 137.884 2.08398 139.568C2.08398 149.659 -6.17219 157.872 -16.3214 157.872L-16.326 157.863Z" fill="#D7D8D8"/>
<path d="M31.9961 159.31V196.671H83.1729V159.31H31.9961Z" fill="#F4FCFF" stroke="#9FA6AE" stroke-width="2.95681"/>
<path d="M77.849 169.719C76.1556 169.719 74.7829 168.354 74.7829 166.671C74.7829 164.987 76.1556 163.622 77.849 163.622C79.5423 163.622 80.915 164.987 80.915 166.671C80.915 168.354 79.5423 169.719 77.849 169.719Z" fill="#D7D8D8"/>
<path d="M77.849 177.991C76.1556 177.991 74.7829 176.626 74.7829 174.942C74.7829 173.259 76.1556 171.894 77.849 171.894C79.5423 171.894 80.915 173.259 80.915 174.942C80.915 176.626 79.5423 177.991 77.849 177.991Z" fill="#D7D8D8"/>
<path d="M77.849 186.258C76.1556 186.258 74.7829 184.893 74.7829 183.21C74.7829 181.526 76.1556 180.161 77.849 180.161C79.5423 180.161 80.915 181.526 80.915 183.21C80.915 184.893 79.5423 186.258 77.849 186.258Z" fill="#D7D8D8"/>
<path d="M64.8373 171.894H35.4131V164.775H64.8373V171.894Z" fill="#D7D8D8"/>
<path d="M64.8373 183.723H35.4131V176.604H64.8373V183.723Z" fill="#D7D8D8"/>
<path d="M91.1835 39.832C96.7552 57.8563 103.148 98.0971 84.1455 114.866C98.2215 111.828 114.35 76.2857 91.1835 39.832Z" fill="white" fill-opacity="0.5"/>
<path d="M24.5258 20.8023C15.4606 26.2698 -4.02984 42.9794 -9.47031 66.0774C-10.5428 51.5141 4.36345 27.5099 24.5258 20.8023Z" fill="#8DB2EA" fill-opacity="0.2"/>
</g>
</g>
</g>
<defs>
<filter id="filter0_d_2557_50083" x="0" y="0" width="186" height="188.339" filterUnits="userSpaceOnUse" color-interpolation-filters="sRGB">
<feFlood flood-opacity="0" result="BackgroundImageFix"/>
<feColorMatrix in="SourceAlpha" type="matrix" values="0 0 0 0 0 0 0 0 0 0 0 0 0 0 0 0 0 0 127 0" result="hardAlpha"/>
<feOffset dy="2.33878"/>
<feComposite in2="hardAlpha" operator="out"/>
<feColorMatrix type="matrix" values="0 0 0 0 0.529412 0 0 0 0 0.529412 0 0 0 0 0.529412 0 0 0 1 0"/>
<feBlend mode="normal" in2="BackgroundImageFix" result="effect1_dropShadow_2557_50083"/>
<feBlend mode="normal" in="SourceGraphic" in2="effect1_dropShadow_2557_50083" result="shape"/>
</filter>
<filter id="filter1_i_2557_50083" x="-61.4219" y="11.9128" width="202.106" height="326.293" filterUnits="userSpaceOnUse" color-interpolation-filters="sRGB">
<feFlood flood-opacity="0" result="BackgroundImageFix"/>
<feBlend mode="normal" in="SourceGraphic" in2="BackgroundImageFix" result="shape"/>
<feColorMatrix in="SourceAlpha" type="matrix" values="0 0 0 0 0 0 0 0 0 0 0 0 0 0 0 0 0 0 127 0" result="hardAlpha"/>
<feOffset dx="-9" dy="4"/>
<feGaussianBlur stdDeviation="2"/>
<feComposite in2="hardAlpha" operator="arithmetic" k2="-1" k3="1"/>
<feColorMatrix type="matrix" values="0 0 0 0 1 0 0 0 0 1 0 0 0 0 1 0 0 0 0.25 0"/>
<feBlend mode="normal" in2="shape" result="effect1_innerShadow_2557_50083"/>
</filter>
<filter id="filter2_i_2557_50083" x="10.8037" y="37.4307" width="67.8828" height="78.2134" filterUnits="userSpaceOnUse" color-interpolation-filters="sRGB">
<feFlood flood-opacity="0" result="BackgroundImageFix"/>
<feBlend mode="normal" in="SourceGraphic" in2="BackgroundImageFix" result="shape"/>
<feColorMatrix in="SourceAlpha" type="matrix" values="0 0 0 0 0 0 0 0 0 0 0 0 0 0 0 0 0 0 127 0" result="hardAlpha"/>
<feOffset dx="-9" dy="4"/>
<feGaussianBlur stdDeviation="2"/>
<feComposite in2="hardAlpha" operator="arithmetic" k2="-1" k3="1"/>
<feColorMatrix type="matrix" values="0 0 0 0 1 0 0 0 0 1 0 0 0 0 1 0 0 0 0.25 0"/>
<feBlend mode="normal" in2="shape" result="effect1_innerShadow_2557_50083"/>
</filter>
<filter id="filter3_i_2557_50083" x="46.6342" y="52.1094" width="19.3619" height="11.1001" filterUnits="userSpaceOnUse" color-interpolation-filters="sRGB">
<feFlood flood-opacity="0" result="BackgroundImageFix"/>
<feBlend mode="normal" in="SourceGraphic" in2="BackgroundImageFix" result="shape"/>
<feColorMatrix in="SourceAlpha" type="matrix" values="0 0 0 0 0 0 0 0 0 0 0 0 0 0 0 0 0 0 127 0" result="hardAlpha"/>
<feOffset dx="-5.91363" dy="2.95681"/>
<feGaussianBlur stdDeviation="2.95681"/>
<feComposite in2="hardAlpha" operator="arithmetic" k2="-1" k3="1"/>
<feColorMatrix type="matrix" values="0 0 0 0 1 0 0 0 0 1 0 0 0 0 1 0 0 0 0.25 0"/>
<feBlend mode="normal" in2="shape" result="effect1_innerShadow_2557_50083"/>
</filter>
<filter id="filter4_i_2557_50083" x="20.9311" y="53.717" width="21.7007" height="8.77346" filterUnits="userSpaceOnUse" color-interpolation-filters="sRGB">
<feFlood flood-opacity="0" result="BackgroundImageFix"/>
<feBlend mode="normal" in="SourceGraphic" in2="BackgroundImageFix" result="shape"/>
<feColorMatrix in="SourceAlpha" type="matrix" values="0 0 0 0 0 0 0 0 0 0 0 0 0 0 0 0 0 0 127 0" result="hardAlpha"/>
<feOffset dx="-5.91363" dy="2.95681"/>
<feGaussianBlur stdDeviation="2.95681"/>
<feComposite in2="hardAlpha" operator="arithmetic" k2="-1" k3="1"/>
<feColorMatrix type="matrix" values="0 0 0 0 1 0 0 0 0 1 0 0 0 0 1 0 0 0 0.25 0"/>
<feBlend mode="normal" in2="shape" result="effect1_innerShadow_2557_50083"/>
</filter>
<filter id="filter5_i_2557_50083" x="12.2246" y="28.5603" width="61.4561" height="35.9448" filterUnits="userSpaceOnUse" color-interpolation-filters="sRGB">
<feFlood flood-opacity="0" result="BackgroundImageFix"/>
<feBlend mode="normal" in="SourceGraphic" in2="BackgroundImageFix" result="shape"/>
<feColorMatrix in="SourceAlpha" type="matrix" values="0 0 0 0 0 0 0 0 0 0 0 0 0 0 0 0 0 0 127 0" result="hardAlpha"/>
<feOffset dx="-9" dy="4"/>
<feGaussianBlur stdDeviation="2"/>
<feComposite in2="hardAlpha" operator="arithmetic" k2="-1" k3="1"/>
<feColorMatrix type="matrix" values="0 0 0 0 1 0 0 0 0 1 0 0 0 0 1 0 0 0 0.25 0"/>
<feBlend mode="normal" in2="shape" result="effect1_innerShadow_2557_50083"/>
</filter>
<filter id="filter6_i_2557_50083" x="-22.9214" y="11.9128" width="134.55" height="129.225" filterUnits="userSpaceOnUse" color-interpolation-filters="sRGB">
<feFlood flood-opacity="0" result="BackgroundImageFix"/>
<feBlend mode="normal" in="SourceGraphic" in2="BackgroundImageFix" result="shape"/>
<feColorMatrix in="SourceAlpha" type="matrix" values="0 0 0 0 0 0 0 0 0 0 0 0 0 0 0 0 0 0 127 0" result="hardAlpha"/>
<feOffset dx="-10.3488" dy="5.91363"/>
<feGaussianBlur stdDeviation="2.95681"/>
<feComposite in2="hardAlpha" operator="arithmetic" k2="-1" k3="1"/>
<feColorMatrix type="matrix" values="0 0 0 0 1 0 0 0 0 1 0 0 0 0 1 0 0 0 0.25 0"/>
<feBlend mode="normal" in2="shape" result="effect1_innerShadow_2557_50083"/>
</filter>
<filter id="filter7_i_2557_50083" x="11.1504" y="112.539" width="80.9556" height="19.938" filterUnits="userSpaceOnUse" color-interpolation-filters="sRGB">
<feFlood flood-opacity="0" result="BackgroundImageFix"/>
<feBlend mode="normal" in="SourceGraphic" in2="BackgroundImageFix" result="shape"/>
<feColorMatrix in="SourceAlpha" type="matrix" values="0 0 0 0 0 0 0 0 0 0 0 0 0 0 0 0 0 0 127 0" result="hardAlpha"/>
<feOffset dx="11.8273" dy="5.91363"/>
<feGaussianBlur stdDeviation="2.95681"/>
<feComposite in2="hardAlpha" operator="arithmetic" k2="-1" k3="1"/>
<feColorMatrix type="matrix" values="0 0 0 0 1 0 0 0 0 1 0 0 0 0 1 0 0 0 0.25 0"/>
<feBlend mode="normal" in2="shape" result="effect1_innerShadow_2557_50083"/>
</filter>
<filter id="filter8_i_2557_50083" x="78.2709" y="133.021" width="42.8101" height="111.384" filterUnits="userSpaceOnUse" color-interpolation-filters="sRGB">
<feFlood flood-opacity="0" result="BackgroundImageFix"/>
<feBlend mode="normal" in="SourceGraphic" in2="BackgroundImageFix" result="shape"/>
<feColorMatrix in="SourceAlpha" type="matrix" values="0 0 0 0 0 0 0 0 0 0 0 0 0 0 0 0 0 0 127 0" result="hardAlpha"/>
<feOffset dx="-8.87044" dy="5.91363"/>
<feGaussianBlur stdDeviation="2.95681"/>
<feComposite in2="hardAlpha" operator="arithmetic" k2="-1" k3="1"/>
<feColorMatrix type="matrix" values="0 0 0 0 0.779167 0 0 0 0 0.779167 0 0 0 0 0.779167 0 0 0 0.25 0"/>
<feBlend mode="normal" in2="shape" result="effect1_innerShadow_2557_50083"/>
</filter>
<filter id="filter9_i_2557_50083" x="-35.7236" y="121.092" width="91.6959" height="105.648" filterUnits="userSpaceOnUse" color-interpolation-filters="sRGB">
<feFlood flood-opacity="0" result="BackgroundImageFix"/>
<feBlend mode="normal" in="SourceGraphic" in2="BackgroundImageFix" result="shape"/>
<feColorMatrix in="SourceAlpha" type="matrix" values="0 0 0 0 0 0 0 0 0 0 0 0 0 0 0 0 0 0 127 0" result="hardAlpha"/>
<feOffset dx="11.8273" dy="5.91363"/>
<feGaussianBlur stdDeviation="2.95681"/>
<feComposite in2="hardAlpha" operator="arithmetic" k2="-1" k3="1"/>
<feColorMatrix type="matrix" values="0 0 0 0 1 0 0 0 0 1 0 0 0 0 1 0 0 0 0.25 0"/>
<feBlend mode="normal" in2="shape" result="effect1_innerShadow_2557_50083"/>
</filter>
<filter id="filter10_i_2557_50083" x="1.56879" y="127.518" width="93.9195" height="106.868" filterUnits="userSpaceOnUse" color-interpolation-filters="sRGB">
<feFlood flood-opacity="0" result="BackgroundImageFix"/>
<feBlend mode="normal" in="SourceGraphic" in2="BackgroundImageFix" result="shape"/>
<feColorMatrix in="SourceAlpha" type="matrix" values="0 0 0 0 0 0 0 0 0 0 0 0 0 0 0 0 0 0 127 0" result="hardAlpha"/>
<feOffset dx="-8.87044" dy="5.91363"/>
<feGaussianBlur stdDeviation="2.95681"/>
<feComposite in2="hardAlpha" operator="arithmetic" k2="-1" k3="1"/>
<feColorMatrix type="matrix" values="0 0 0 0 0.779167 0 0 0 0 0.779167 0 0 0 0 0.779167 0 0 0 0.25 0"/>
<feBlend mode="normal" in2="shape" result="effect1_innerShadow_2557_50083"/>
</filter>
<filter id="filter11_i_2557_50083" x="-31.3248" y="133.021" width="42.8101" height="116.887" filterUnits="userSpaceOnUse" color-interpolation-filters="sRGB">
<feFlood flood-opacity="0" result="BackgroundImageFix"/>
<feBlend mode="normal" in="SourceGraphic" in2="BackgroundImageFix" result="shape"/>
<feColorMatrix in="SourceAlpha" type="matrix" values="0 0 0 0 0 0 0 0 0 0 0 0 0 0 0 0 0 0 127 0" result="hardAlpha"/>
<feOffset dx="-8.87044" dy="5.91363"/>
<feGaussianBlur stdDeviation="2.95681"/>
<feComposite in2="hardAlpha" operator="arithmetic" k2="-1" k3="1"/>
<feColorMatrix type="matrix" values="0 0 0 0 0.779167 0 0 0 0 0.779167 0 0 0 0 0.779167 0 0 0 0.25 0"/>
<feBlend mode="normal" in2="shape" result="effect1_innerShadow_2557_50083"/>
</filter>
<linearGradient id="paint0_linear_2557_50083" x1="-14.3766" y1="61.0629" x2="49.6079" y2="77.5101" gradientUnits="userSpaceOnUse">
<stop stop-color="#DBF1F4"/>
<stop offset="1" stop-color="#C4ECF1" stop-opacity="0.28"/>
</linearGradient>
<linearGradient id="paint1_linear_2557_50083" x1="47.3104" y1="11.9128" x2="47.3104" y2="135.224" gradientUnits="userSpaceOnUse">
<stop stop-color="#F5F5F5"/>
<stop offset="1" stop-color="#F5F5F5" stop-opacity="0"/>
</linearGradient>
<clipPath id="clip0_2557_50083">
<rect width="186" height="186" fill="white"/>
</clipPath>
<clipPath id="clip1_2557_50083">
<rect width="198.107" height="322.293" fill="white" transform="translate(-57.4219 -2.87134)"/>
</clipPath>
<clipPath id="clip2_2557_50083">
<rect width="198.107" height="322.293" fill="white" transform="translate(-57.4219 11.9128)"/>
</clipPath>
</defs>
</svg>
