<svg width="186" height="189" viewBox="0 0 186 189" fill="none" xmlns="http://www.w3.org/2000/svg">
<g clip-path="url(#clip0_2557_50070)" filter="url(#filter0_d_2557_50070)">
<rect width="186" height="186" fill="#D6F2DC"/>
<g clip-path="url(#clip1_2557_50070)">
<g clip-path="url(#clip2_2557_50070)">
<g filter="url(#filter1_i_2557_50070)">
<path d="M77.295 34.4373C74.0055 31.9974 56.5802 43.7516 55.361 47.132C63.2301 46.7087 73.6093 63.4223 78.3169 72.5902C78.2034 70.5027 81.5063 44.1553 81.3928 42.0678C81.2793 39.9803 80.5845 36.8773 77.295 34.4373Z" fill="#413628"/>
</g>
<g filter="url(#filter2_i_2557_50070)">
<path d="M23.5876 111.126C27.7164 109.647 28.6633 101.257 28.6206 97.2467L37.4255 94.6795C43.754 98.1772 56.2352 105.81 55.532 108.36C54.653 111.548 47.5354 116.118 46.9541 115.103C46.3727 114.087 46.2592 112 42.7005 114.285C39.1417 116.57 37.4544 114.567 36.7596 111.464C35.2425 112.592 23.29 115.329 23.5876 111.126Z" fill="#413628"/>
</g>
<g filter="url(#filter3_i_2557_50070)">
<path d="M65.2733 123.014C64.6947 120.115 64.5593 113.108 64.564 109.968L51.1651 105.455L53.2356 124.185C53.6421 125.21 56.6187 126.411 65.2733 123.014Z" fill="#EEB491"/>
</g>
<g filter="url(#filter4_i_2557_50070)">
<path d="M77.9183 65.2845C76.8404 53.1997 76.1036 51.2505 67.3688 45.4396C58.6341 39.6288 35.7792 64.4111 32.1777 75.5962C32.745 79.5783 32.9068 87.0716 29.0162 85.1874C24.1528 82.832 17.4748 85.8083 17.7869 91.5488C18.099 97.2894 28.2367 99.8843 36.0491 98.4172C39.5089 103.988 55.7016 111.492 68.2922 110.814C80.8828 110.137 88.723 89.8261 87.7729 82.0263C86.8227 74.2265 79.2656 80.3904 77.9183 65.2845Z" fill="#FABD94"/>
</g>
<path d="M54.6995 63.9722C51.6268 63.908 45.2715 64.7548 44.4313 68.656C45.4069 62.4065 51.8525 59.994 54.6995 63.9722Z" fill="#571E00"/>
<g filter="url(#filter5_i_2557_50070)">
<path d="M65.5058 40.3054C65.8347 38.6128 66.328 36.0741 59.2811 32.2664C52.2334 28.4584 19.6087 38.0645 15.256 45.1028C10.9034 52.1411 10.4077 72.0567 11.0741 74.6379C11.7406 77.219 16.3347 84.2993 18.6601 88.3613C19.5674 85.6956 22.6583 84.4825 29.5634 85.6812C41.4168 90.8008 52.0643 64.0583 53.1558 55.1019C54.2473 46.1455 65.0946 42.4216 65.5057 40.3059L65.5058 40.3054Z" fill="#413628"/>
</g>
<path d="M70.4914 83.479C67.0885 82.8247 64.4416 75.4302 63.5436 71.8148C63.1892 74.9742 66.1527 81.0955 67.8684 83.6202C67.5124 85.2095 65.855 85.2987 63.8134 86.4553C65.4156 86.8925 69.0311 85.6512 70.4914 83.479Z" fill="#D6996E"/>
<path d="M62.7523 57.2581C65.8 56.8646 72.2102 57.0247 73.4684 60.813C71.8209 54.7045 65.1514 52.9977 62.7523 57.2581Z" fill="#571E00"/>
<ellipse cx="3.15171" cy="4.18177" rx="3.15171" ry="4.18177" transform="matrix(-0.983644 0.180122 0.181957 0.983307 54.5664 71.9314)" fill="#2B424F"/>
<ellipse cx="2.72787" cy="3.61939" rx="2.72787" ry="3.61939" transform="matrix(-0.983644 0.180122 0.181957 0.983306 70.8379 68.2822)" fill="#2B424F"/>
<path d="M52.5555 92.2953C62.3445 94.2809 73.2704 89.4362 77.5098 86.7656C76.6308 89.9533 72.746 95.9196 69.1305 97.1609C65.515 98.4022 60.7651 98.1343 52.5555 92.2953Z" fill="#5D2811"/>
<path d="M69.1309 97.1602C65.5154 98.4015 60.7655 98.1336 52.5559 92.2946C59.3121 93.665 66.6098 91.7819 71.877 89.6054C72.5186 91.7442 72.547 92.2661 72.9843 94.3361C71.7666 95.656 70.4313 96.7137 69.1309 97.1602Z" fill="white"/>
<path d="M24.1706 92.7755C22.8435 91.5907 23.1544 90.2132 23.4758 89.6725C20.4133 91.4074 22.7103 94.9476 23.7879 95.413C24.8485 95.8711 28.45 96.1925 31.0101 95.0728C31.0549 95.0569 31.0958 95.0387 31.1324 95.0179C31.0919 95.0366 31.0512 95.0549 31.0101 95.0728C29.8075 95.4998 25.77 94.2032 24.1706 92.7755Z" fill="#D6996E"/>
<g filter="url(#filter6_i_2557_50070)">
<path d="M111.904 75.2571C111.904 95.9537 101.906 111.641 84.2761 120.54C75.1198 128.52 69.5185 138.601 57.1739 138.601C44.8293 138.601 43.9643 128.52 34.8081 120.54C14.5472 113.473 2.44336 95.9537 2.44336 75.2571C2.44336 40.273 26.9471 11.9128 57.1739 11.9128C87.4007 11.9128 111.904 40.273 111.904 75.2571Z" fill="url(#paint0_linear_2557_50070)" fill-opacity="0.6"/>
</g>
<path d="M57.1738 13.3914C86.3887 13.3914 110.426 40.8798 110.426 75.2576C110.426 95.393 100.743 110.571 83.6094 119.22L83.4443 119.304L83.3047 119.426C80.962 121.467 78.854 123.638 76.8535 125.7C74.8376 127.778 72.9402 129.736 70.9561 131.443C67.0269 134.824 62.8703 137.123 57.1738 137.123C54.3016 137.123 52.182 136.54 50.4668 135.604C48.7371 134.66 47.3259 133.306 45.9355 131.622C44.5024 129.886 43.2447 128.003 41.6094 125.838C40.0178 123.731 38.1767 121.515 35.7793 119.426L35.5645 119.238L35.2949 119.144C15.6314 112.285 3.92205 95.3286 3.92188 75.2576C3.92188 40.8798 27.959 13.3914 57.1738 13.3914Z" stroke="url(#paint1_linear_2557_50070)" stroke-opacity="0.5" stroke-width="2.95681"/>
<g filter="url(#filter7_i_2557_50070)">
<path d="M73.4481 127.878C71.8696 131.981 60.5931 127.878 60.5931 127.878L49.4296 126.119H48.6405C49.0915 126.119 45.8438 118.615 46.8361 115.567C57.3005 123.071 68.9375 119.377 75.5905 115.567C75.5905 115.567 75.0267 123.774 73.4481 127.878Z" fill="#8CDED9"/>
</g>
<g filter="url(#filter8_i_2557_50070)">
<path d="M82.62 238.225V148.58C82.62 138.202 91.1611 129.71 101.599 129.71C112.036 129.71 120.577 138.202 120.577 148.58L100.062 238.225H82.62Z" fill="#A2D0B1"/>
</g>
<path d="M114.531 158.754C104.089 158.754 95.59 150.309 95.59 139.926C95.59 136.54 96.3263 133.779 98.0923 130.851L99.5833 130.749C97.9525 133.459 97.0112 136.799 97.0112 139.926C97.0112 149.53 104.867 157.341 114.527 157.341C116.134 157.341 117.76 157.11 119.359 156.656L119.405 158.11C117.677 158.601 116.269 158.759 114.527 158.759L114.531 158.754Z" fill="#66A77E"/>
<path d="M114.531 153.093C107.229 153.093 101.288 147.186 101.288 139.926C101.288 136.563 102.304 133.649 104.629 131.198L106.232 131.638C104.159 133.829 102.714 136.929 102.714 139.931C102.714 146.412 108.017 151.684 114.535 151.684C116.12 151.684 117.96 151.374 119.414 150.758V152.24C117.779 152.931 116.311 153.102 114.535 153.102L114.531 153.093Z" fill="#66A77E"/>
<g filter="url(#filter9_i_2557_50070)">
<path d="M42.4131 225.509H12.8386C-3.36628 225.509 -16.5029 212.447 -16.5029 196.336L-16.5029 152.069C-16.5029 135.957 -3.36628 122.896 12.8386 122.896L42.4131 122.896C58.618 122.896 71.7546 135.957 71.7546 152.069L71.7546 196.336C71.7546 212.447 58.618 225.509 42.4131 225.509Z" fill="#5A6D79"/>
</g>
<g filter="url(#filter10_i_2557_50070)">
<path d="M103.221 151.95C103.221 135.902 96.0396 130.854 79.9034 130.854H38.9455C31.108 130.854 20.6154 136.458 15.3361 141.48C21.0767 144.737 24.0193 148.61 24.0193 155.615L26.3874 234.722H95.3269L103.221 151.95Z" fill="#A6E7BB"/>
</g>
<g filter="url(#filter11_i_2557_50070)">
<path d="M86.3801 121.325L76.3812 135.46C71.7502 136.297 58.9271 136.158 46.3847 135.46C44.9813 133.977 36.228 125.094 34.5439 121.325C46.9636 125.094 73.0483 123.506 86.3801 121.325Z" fill="#93C7A2"/>
</g>
<g filter="url(#filter12_i_2557_50070)">
<path d="M40.8594 157.971H92.4324L84.0123 211.63H46.1219L40.8594 157.971Z" fill="#CAF1D3"/>
</g>
<g filter="url(#filter13_i_2557_50070)">
<path d="M16.4883 246.055L-5.2603 152.931C-6.81199 142.668 0.364282 133.007 10.6857 131.463C21.0071 129.918 30.7229 137.052 32.2746 147.314L38.6053 242.745L16.4883 246.055Z" fill="#A5E9B6"/>
</g>
<path d="M4.9898 158.169C1.62346 158.671 -1.44087 158.401 -4.61432 157.102L-4.83906 155.621C-1.90154 156.824 1.66913 157.234 4.77758 156.771C14.324 155.348 20.9151 146.46 19.4727 136.956C19.2327 135.375 18.5603 133.271 17.8703 131.766L19.4117 132.179C20.1579 133.807 20.6224 135.036 20.8826 136.751C22.4419 147.025 15.3159 156.639 4.9958 158.178L4.9898 158.169Z" fill="#7BB891"/>
<path d="M4.14084 152.566C0.567335 153.099 -2.57964 152.377 -5.4599 150.186L-5.40235 148.672C-2.83092 150.629 0.741944 151.643 3.92863 151.168C10.3711 150.208 14.8152 144.21 13.8418 137.796C13.5064 135.586 12.4454 133.156 10.9589 131.46L12.3841 131.201C14.0475 133.1 14.8706 135.111 15.2463 137.586C16.3366 144.771 11.3523 151.491 4.13623 152.567L4.14084 152.566Z" fill="#7BB891"/>
<g filter="url(#filter14_i_2557_50070)">
<path d="M-2.98481 135.101C-5.36777 135.101 -7.65717 133.778 -8.76131 131.51C-15.1523 118.393 -16.1161 106.836 -11.6184 97.161C-5.19934 83.3422 9.99363 79.2263 10.6393 79.0594C14.0609 78.1633 17.5698 80.1873 18.4744 83.5771C19.3758 86.9576 17.3484 90.4216 13.9455 91.3301C13.6991 91.398 3.78981 94.2533 -0.00921631 102.556C-2.77895 108.61 -1.83699 116.492 2.78859 125.985C4.32629 129.143 2.99132 132.941 -0.196362 134.464C-1.09465 134.894 -2.04596 135.098 -2.97857 135.098L-2.98481 135.101Z" fill="#5A6D79"/>
</g>
<path d="M82.4307 162.637C81.0927 162.637 80.0146 163.714 80.0146 165.034C80.0148 166.354 81.0928 167.431 82.4307 167.431C83.7684 167.431 84.8455 166.354 84.8457 165.034C84.8457 163.714 83.7685 162.637 82.4307 162.637Z" stroke="#66A77E" stroke-width="1.47841"/>
<path d="M82.1699 172.583C81.2667 172.583 80.5412 173.31 80.541 174.199C80.541 175.088 81.2666 175.816 82.1699 175.816C83.0732 175.816 83.7988 175.088 83.7988 174.199C83.7987 173.31 83.0731 172.583 82.1699 172.583Z" stroke="#66A77E" stroke-width="1.47841"/>
<path d="M81.3809 180.697C80.6232 180.698 80.0158 181.307 80.0156 182.052C80.0156 182.796 80.6231 183.407 81.3809 183.407C82.1388 183.407 82.7471 182.796 82.7471 182.052C82.7469 181.307 82.1387 180.697 81.3809 180.697Z" stroke="#66A77E" stroke-width="1.47841"/>
<path d="M73.1309 171.104L74.1807 165.254H49.667L50.9277 171.104H73.1309Z" stroke="#66A77E" stroke-width="1.47841"/>
<path d="M71.668 183.145L73.9785 177.294H51.2783L52.749 183.145H71.668Z" stroke="#66A77E" stroke-width="1.47841"/>
<path d="M94.0242 40.1821C97.7852 56.153 102.101 91.8092 89.2734 106.667C98.775 103.976 109.662 72.4827 94.0242 40.1821Z" fill="white" fill-opacity="0.5"/>
<path d="M39.5342 20.9831C31.7833 26.6085 15.1185 43.8003 10.4668 67.565C9.54979 52.5813 22.295 27.8843 39.5342 20.9831Z" fill="#8DB2EA" fill-opacity="0.2"/>
<path d="M20.6765 82.5413C19.1623 77.2926 13.1525 76.3198 10.3369 76.4895C16.3444 75.8746 22.1696 77.4114 23.1523 82.9989C24.135 88.5864 20.057 92.2033 16.1248 93.3168C17.2899 92.8421 22.5694 89.1021 20.6765 82.5413Z" fill="#5A6D79"/>
</g>
</g>
</g>
<defs>
<filter id="filter0_d_2557_50070" x="0" y="0" width="186" height="188.339" filterUnits="userSpaceOnUse" color-interpolation-filters="sRGB">
<feFlood flood-opacity="0" result="BackgroundImageFix"/>
<feColorMatrix in="SourceAlpha" type="matrix" values="0 0 0 0 0 0 0 0 0 0 0 0 0 0 0 0 0 0 127 0" result="hardAlpha"/>
<feOffset dy="2.33878"/>
<feComposite in2="hardAlpha" operator="out"/>
<feColorMatrix type="matrix" values="0 0 0 0 0.529412 0 0 0 0 0.529412 0 0 0 0 0.529412 0 0 0 1 0"/>
<feBlend mode="normal" in2="BackgroundImageFix" result="effect1_dropShadow_2557_50070"/>
<feBlend mode="normal" in="SourceGraphic" in2="effect1_dropShadow_2557_50070" result="shape"/>
</filter>
<filter id="filter1_i_2557_50070" x="51.3613" y="34.1067" width="30.0342" height="42.4834" filterUnits="userSpaceOnUse" color-interpolation-filters="sRGB">
<feFlood flood-opacity="0" result="BackgroundImageFix"/>
<feBlend mode="normal" in="SourceGraphic" in2="BackgroundImageFix" result="shape"/>
<feColorMatrix in="SourceAlpha" type="matrix" values="0 0 0 0 0 0 0 0 0 0 0 0 0 0 0 0 0 0 127 0" result="hardAlpha"/>
<feOffset dx="-9" dy="4"/>
<feGaussianBlur stdDeviation="2"/>
<feComposite in2="hardAlpha" operator="arithmetic" k2="-1" k3="1"/>
<feColorMatrix type="matrix" values="0 0 0 0 1 0 0 0 0 1 0 0 0 0 1 0 0 0 0.25 0"/>
<feBlend mode="normal" in2="shape" result="effect1_innerShadow_2557_50070"/>
</filter>
<filter id="filter2_i_2557_50070" x="19.582" y="94.6794" width="35.9785" height="24.5901" filterUnits="userSpaceOnUse" color-interpolation-filters="sRGB">
<feFlood flood-opacity="0" result="BackgroundImageFix"/>
<feBlend mode="normal" in="SourceGraphic" in2="BackgroundImageFix" result="shape"/>
<feColorMatrix in="SourceAlpha" type="matrix" values="0 0 0 0 0 0 0 0 0 0 0 0 0 0 0 0 0 0 127 0" result="hardAlpha"/>
<feOffset dx="-9" dy="4"/>
<feGaussianBlur stdDeviation="2"/>
<feComposite in2="hardAlpha" operator="arithmetic" k2="-1" k3="1"/>
<feColorMatrix type="matrix" values="0 0 0 0 1 0 0 0 0 1 0 0 0 0 1 0 0 0 0.25 0"/>
<feBlend mode="normal" in2="shape" result="effect1_innerShadow_2557_50070"/>
</filter>
<filter id="filter3_i_2557_50070" x="47.165" y="105.455" width="18.1084" height="23.8035" filterUnits="userSpaceOnUse" color-interpolation-filters="sRGB">
<feFlood flood-opacity="0" result="BackgroundImageFix"/>
<feBlend mode="normal" in="SourceGraphic" in2="BackgroundImageFix" result="shape"/>
<feColorMatrix in="SourceAlpha" type="matrix" values="0 0 0 0 0 0 0 0 0 0 0 0 0 0 0 0 0 0 127 0" result="hardAlpha"/>
<feOffset dx="-9" dy="4"/>
<feGaussianBlur stdDeviation="2"/>
<feComposite in2="hardAlpha" operator="arithmetic" k2="-1" k3="1"/>
<feColorMatrix type="matrix" values="0 0 0 0 1 0 0 0 0 1 0 0 0 0 1 0 0 0 0.25 0"/>
<feBlend mode="normal" in2="shape" result="effect1_innerShadow_2557_50070"/>
</filter>
<filter id="filter4_i_2557_50070" x="13.7764" y="44.5696" width="74.0742" height="70.2876" filterUnits="userSpaceOnUse" color-interpolation-filters="sRGB">
<feFlood flood-opacity="0" result="BackgroundImageFix"/>
<feBlend mode="normal" in="SourceGraphic" in2="BackgroundImageFix" result="shape"/>
<feColorMatrix in="SourceAlpha" type="matrix" values="0 0 0 0 0 0 0 0 0 0 0 0 0 0 0 0 0 0 127 0" result="hardAlpha"/>
<feOffset dx="-9" dy="4"/>
<feGaussianBlur stdDeviation="2"/>
<feComposite in2="hardAlpha" operator="arithmetic" k2="-1" k3="1"/>
<feColorMatrix type="matrix" values="0 0 0 0 1 0 0 0 0 1 0 0 0 0 1 0 0 0 0.25 0"/>
<feBlend mode="normal" in2="shape" result="effect1_innerShadow_2557_50070"/>
</filter>
<filter id="filter5_i_2557_50070" x="6.83105" y="31.4028" width="58.834" height="60.9585" filterUnits="userSpaceOnUse" color-interpolation-filters="sRGB">
<feFlood flood-opacity="0" result="BackgroundImageFix"/>
<feBlend mode="normal" in="SourceGraphic" in2="BackgroundImageFix" result="shape"/>
<feColorMatrix in="SourceAlpha" type="matrix" values="0 0 0 0 0 0 0 0 0 0 0 0 0 0 0 0 0 0 127 0" result="hardAlpha"/>
<feOffset dx="-9" dy="4"/>
<feGaussianBlur stdDeviation="2"/>
<feComposite in2="hardAlpha" operator="arithmetic" k2="-1" k3="1"/>
<feColorMatrix type="matrix" values="0 0 0 0 1 0 0 0 0 1 0 0 0 0 1 0 0 0 0.25 0"/>
<feBlend mode="normal" in2="shape" result="effect1_innerShadow_2557_50070"/>
</filter>
<filter id="filter6_i_2557_50070" x="-3.47027" y="11.9128" width="115.375" height="132.602" filterUnits="userSpaceOnUse" color-interpolation-filters="sRGB">
<feFlood flood-opacity="0" result="BackgroundImageFix"/>
<feBlend mode="normal" in="SourceGraphic" in2="BackgroundImageFix" result="shape"/>
<feColorMatrix in="SourceAlpha" type="matrix" values="0 0 0 0 0 0 0 0 0 0 0 0 0 0 0 0 0 0 127 0" result="hardAlpha"/>
<feOffset dx="-10.3488" dy="5.91363"/>
<feGaussianBlur stdDeviation="2.95681"/>
<feComposite in2="hardAlpha" operator="arithmetic" k2="-1" k3="1"/>
<feColorMatrix type="matrix" values="0 0 0 0 1 0 0 0 0 1 0 0 0 0 1 0 0 0 0.25 0"/>
<feBlend mode="normal" in2="shape" result="effect1_innerShadow_2557_50070"/>
</filter>
<filter id="filter7_i_2557_50070" x="46.6465" y="115.567" width="34.858" height="20.0484" filterUnits="userSpaceOnUse" color-interpolation-filters="sRGB">
<feFlood flood-opacity="0" result="BackgroundImageFix"/>
<feBlend mode="normal" in="SourceGraphic" in2="BackgroundImageFix" result="shape"/>
<feColorMatrix in="SourceAlpha" type="matrix" values="0 0 0 0 0 0 0 0 0 0 0 0 0 0 0 0 0 0 127 0" result="hardAlpha"/>
<feOffset dx="11.8273" dy="5.91363"/>
<feGaussianBlur stdDeviation="2.95681"/>
<feComposite in2="hardAlpha" operator="arithmetic" k2="-1" k3="1"/>
<feColorMatrix type="matrix" values="0 0 0 0 1 0 0 0 0 1 0 0 0 0 1 0 0 0 0.25 0"/>
<feBlend mode="normal" in2="shape" result="effect1_innerShadow_2557_50070"/>
</filter>
<filter id="filter8_i_2557_50070" x="76.7065" y="129.71" width="43.8707" height="114.428" filterUnits="userSpaceOnUse" color-interpolation-filters="sRGB">
<feFlood flood-opacity="0" result="BackgroundImageFix"/>
<feBlend mode="normal" in="SourceGraphic" in2="BackgroundImageFix" result="shape"/>
<feColorMatrix in="SourceAlpha" type="matrix" values="0 0 0 0 0 0 0 0 0 0 0 0 0 0 0 0 0 0 127 0" result="hardAlpha"/>
<feOffset dx="-8.87044" dy="5.91363"/>
<feGaussianBlur stdDeviation="2.95681"/>
<feComposite in2="hardAlpha" operator="arithmetic" k2="-1" k3="1"/>
<feColorMatrix type="matrix" values="0 0 0 0 0.779167 0 0 0 0 0.779167 0 0 0 0 0.779167 0 0 0 0.25 0"/>
<feBlend mode="normal" in2="shape" result="effect1_innerShadow_2557_50070"/>
</filter>
<filter id="filter9_i_2557_50070" x="-16.5029" y="122.896" width="94.1714" height="108.526" filterUnits="userSpaceOnUse" color-interpolation-filters="sRGB">
<feFlood flood-opacity="0" result="BackgroundImageFix"/>
<feBlend mode="normal" in="SourceGraphic" in2="BackgroundImageFix" result="shape"/>
<feColorMatrix in="SourceAlpha" type="matrix" values="0 0 0 0 0 0 0 0 0 0 0 0 0 0 0 0 0 0 127 0" result="hardAlpha"/>
<feOffset dx="11.8273" dy="5.91363"/>
<feGaussianBlur stdDeviation="2.95681"/>
<feComposite in2="hardAlpha" operator="arithmetic" k2="-1" k3="1"/>
<feColorMatrix type="matrix" values="0 0 0 0 1 0 0 0 0 1 0 0 0 0 1 0 0 0 0.25 0"/>
<feBlend mode="normal" in2="shape" result="effect1_innerShadow_2557_50070"/>
</filter>
<filter id="filter10_i_2557_50070" x="9.42231" y="130.854" width="93.7984" height="109.782" filterUnits="userSpaceOnUse" color-interpolation-filters="sRGB">
<feFlood flood-opacity="0" result="BackgroundImageFix"/>
<feBlend mode="normal" in="SourceGraphic" in2="BackgroundImageFix" result="shape"/>
<feColorMatrix in="SourceAlpha" type="matrix" values="0 0 0 0 0 0 0 0 0 0 0 0 0 0 0 0 0 0 127 0" result="hardAlpha"/>
<feOffset dx="-8.87044" dy="5.91363"/>
<feGaussianBlur stdDeviation="2.95681"/>
<feComposite in2="hardAlpha" operator="arithmetic" k2="-1" k3="1"/>
<feColorMatrix type="matrix" values="0 0 0 0 0.779167 0 0 0 0 0.779167 0 0 0 0 0.779167 0 0 0 0.25 0"/>
<feBlend mode="normal" in2="shape" result="effect1_innerShadow_2557_50070"/>
</filter>
<filter id="filter11_i_2557_50070" x="30.5439" y="121.325" width="55.8359" height="18.7117" filterUnits="userSpaceOnUse" color-interpolation-filters="sRGB">
<feFlood flood-opacity="0" result="BackgroundImageFix"/>
<feBlend mode="normal" in="SourceGraphic" in2="BackgroundImageFix" result="shape"/>
<feColorMatrix in="SourceAlpha" type="matrix" values="0 0 0 0 0 0 0 0 0 0 0 0 0 0 0 0 0 0 127 0" result="hardAlpha"/>
<feOffset dx="-9" dy="4"/>
<feGaussianBlur stdDeviation="2"/>
<feComposite in2="hardAlpha" operator="arithmetic" k2="-1" k3="1"/>
<feColorMatrix type="matrix" values="0 0 0 0 1 0 0 0 0 1 0 0 0 0 1 0 0 0 0.25 0"/>
<feBlend mode="normal" in2="shape" result="effect1_innerShadow_2557_50070"/>
</filter>
<filter id="filter12_i_2557_50070" x="36.8594" y="157.971" width="55.5732" height="57.6594" filterUnits="userSpaceOnUse" color-interpolation-filters="sRGB">
<feFlood flood-opacity="0" result="BackgroundImageFix"/>
<feBlend mode="normal" in="SourceGraphic" in2="BackgroundImageFix" result="shape"/>
<feColorMatrix in="SourceAlpha" type="matrix" values="0 0 0 0 0 0 0 0 0 0 0 0 0 0 0 0 0 0 127 0" result="hardAlpha"/>
<feOffset dx="-9" dy="4"/>
<feGaussianBlur stdDeviation="2"/>
<feComposite in2="hardAlpha" operator="arithmetic" k2="-1" k3="1"/>
<feColorMatrix type="matrix" values="0 0 0 0 1 0 0 0 0 1 0 0 0 0 1 0 0 0 0.25 0"/>
<feBlend mode="normal" in2="shape" result="effect1_innerShadow_2557_50070"/>
</filter>
<filter id="filter13_i_2557_50070" x="-11.3853" y="131.252" width="49.9908" height="120.716" filterUnits="userSpaceOnUse" color-interpolation-filters="sRGB">
<feFlood flood-opacity="0" result="BackgroundImageFix"/>
<feBlend mode="normal" in="SourceGraphic" in2="BackgroundImageFix" result="shape"/>
<feColorMatrix in="SourceAlpha" type="matrix" values="0 0 0 0 0 0 0 0 0 0 0 0 0 0 0 0 0 0 127 0" result="hardAlpha"/>
<feOffset dx="-8.87044" dy="5.91363"/>
<feGaussianBlur stdDeviation="2.95681"/>
<feComposite in2="hardAlpha" operator="arithmetic" k2="-1" k3="1"/>
<feColorMatrix type="matrix" values="0 0 0 0 0.779167 0 0 0 0 0.779167 0 0 0 0 0.779167 0 0 0 0.25 0"/>
<feBlend mode="normal" in2="shape" result="effect1_innerShadow_2557_50070"/>
</filter>
<filter id="filter14_i_2557_50070" x="-14.3984" y="78.8472" width="37.0869" height="60.2537" filterUnits="userSpaceOnUse" color-interpolation-filters="sRGB">
<feFlood flood-opacity="0" result="BackgroundImageFix"/>
<feBlend mode="normal" in="SourceGraphic" in2="BackgroundImageFix" result="shape"/>
<feColorMatrix in="SourceAlpha" type="matrix" values="0 0 0 0 0 0 0 0 0 0 0 0 0 0 0 0 0 0 127 0" result="hardAlpha"/>
<feOffset dx="8" dy="4"/>
<feGaussianBlur stdDeviation="2"/>
<feComposite in2="hardAlpha" operator="arithmetic" k2="-1" k3="1"/>
<feColorMatrix type="matrix" values="0 0 0 0 1 0 0 0 0 1 0 0 0 0 1 0 0 0 0.25 0"/>
<feBlend mode="normal" in2="shape" result="effect1_innerShadow_2557_50070"/>
</filter>
<linearGradient id="paint0_linear_2557_50070" x1="4.68234" y1="62.409" x2="60.2096" y2="74.2308" gradientUnits="userSpaceOnUse">
<stop stop-color="#DBF1F4"/>
<stop offset="1" stop-color="#C4ECF1" stop-opacity="0.28"/>
</linearGradient>
<linearGradient id="paint1_linear_2557_50070" x1="57.1739" y1="11.9128" x2="57.1739" y2="138.601" gradientUnits="userSpaceOnUse">
<stop stop-color="#F5F5F5"/>
<stop offset="1" stop-color="#F5F5F5" stop-opacity="0"/>
</linearGradient>
<clipPath id="clip0_2557_50070">
<rect width="186" height="186" fill="white"/>
</clipPath>
<clipPath id="clip1_2557_50070">
<rect width="198.107" height="322.293" fill="white" transform="translate(-57.4219 -2.87134)"/>
</clipPath>
<clipPath id="clip2_2557_50070">
<rect width="198.107" height="322.293" fill="white" transform="translate(-57.4219 11.9128)"/>
</clipPath>
</defs>
</svg>
