<svg width="186" height="189" viewBox="0 0 186 189" fill="none" xmlns="http://www.w3.org/2000/svg">
<g clip-path="url(#clip0_2557_50096)" filter="url(#filter0_d_2557_50096)">
<rect width="186" height="186" fill="#D6F2DC"/>
<g clip-path="url(#clip1_2557_50096)">
<g filter="url(#filter1_i_2557_50096)">
<ellipse cx="71.1638" cy="56.4119" rx="3.94112" ry="5.9378" fill="#F1B68A"/>
</g>
<g filter="url(#filter2_i_2557_50096)">
<path d="M22.8051 98.9282C32.5214 92.6537 31.1622 84.6331 29.2681 81.407L56.3069 82.3946C55.1051 85.8233 57.9291 94.9497 59.4913 99.0844C52.6236 99.6228 35.6717 100.345 22.8051 98.9282Z" fill="#FBBC8D"/>
</g>
<path d="M28.6344 97.1166C30.6791 93.181 46.8094 87.4036 54.619 85.0068C55.0448 81.601 37.58 81.2225 29.9125 81.9794C32.2979 89.8508 28.3505 93.8369 26.0786 94.8461C24.8006 96.1075 23.5227 98.3276 28.6344 97.1166Z" fill="#E2AB81"/>
<ellipse cx="17.1804" cy="56.8638" rx="3.94112" ry="5.9378" fill="#F1B57D"/>
<g filter="url(#filter3_i_2557_50096)">
<path d="M20.1352 59.8326C16.5882 61.6139 15.373 57.9358 15.2088 55.874C13.9772 58.1007 14.2239 59.8326 15.2088 61.317C15.9053 62.3668 18.9036 62.554 20.1352 59.8326Z" fill="#D09D77"/>
</g>
<g filter="url(#filter4_i_2557_50096)">
<path d="M66.6358 84.8148C74.6456 72.6149 69.5074 43.4746 66.6358 29.5246C55.2315 29.0886 25.9836 27.5949 22.7838 30.9952C19.5841 34.3955 16.5799 67.7303 20.4371 77.1334C24.2944 86.5364 58.626 97.0149 66.6358 84.8148Z" fill="#FBBC8D"/>
</g>
<path d="M57.7677 59.7082C56.6794 59.7082 55.7972 57.7144 55.7972 55.2549C55.7972 52.7953 56.6794 50.8015 57.7677 50.8015C58.856 50.8015 59.7383 52.7953 59.7383 55.2549C59.7383 57.7144 58.856 59.7082 57.7677 59.7082Z" fill="#121617"/>
<path d="M34.1212 59.7082C33.0329 59.7082 32.1507 57.7144 32.1507 55.2549C32.1507 52.7953 33.0329 50.8015 34.1212 50.8015C35.2095 50.8015 36.0918 52.7953 36.0918 55.2549C36.0918 57.7144 35.2095 59.7082 34.1212 59.7082Z" fill="#121617"/>
<path d="M49.6394 67.0668L45.452 48.7585L47.1762 64.8401L43.4814 67.0668H49.6394Z" fill="#CE8C60"/>
<g filter="url(#filter5_i_2557_50096)">
<path d="M60.415 41.6381L49.3926 44.5864L51.3207 49.4963L61.5471 47.218L60.415 41.6381Z" fill="#9B6036"/>
</g>
<g filter="url(#filter6_i_2557_50096)">
<path d="M41.4153 43.3182L28.3867 40.4104L27.7904 44.7726L39.6359 47.795L41.4153 43.3182Z" fill="#9B6036"/>
</g>
<g filter="url(#filter7_i_2557_50096)">
<path d="M73.4542 102.262C70.0059 105.726 45.3734 102.262 45.3734 102.262L20.9876 100.778H19.2639C20.2491 100.778 13.1548 94.4444 15.3224 91.8713C38.1809 98.205 63.6011 95.0876 78.134 91.8713C78.134 91.8713 76.9024 98.7988 73.4542 102.262Z" fill="#5F6CA5"/>
</g>
<g filter="url(#filter8_i_2557_50096)">
<path d="M71.2121 133.303C67.0384 124.852 69.8886 114.815 77.5454 111C85.2023 107.184 94.8834 110.977 99.0572 119.428L141.061 200.819L120.223 210.796L71.2121 133.303Z" fill="#C1CDDE"/>
</g>
<path d="M98.1414 126.588C90.4736 130.412 81.148 127.274 77.3562 119.59C76.1193 117.083 75.6515 114.77 75.8789 111.956L76.9366 111.335C76.7289 113.938 77.2577 116.755 78.3998 119.069C81.9073 126.177 90.5289 129.081 97.6219 125.544C98.8024 124.955 99.9119 124.188 100.92 123.267L101.485 124.326C100.395 125.323 99.4194 125.955 98.1397 126.593L98.1414 126.588Z" fill="#A6B1C1"/>
<path d="M96.0699 122.398C90.7081 125.072 84.1881 122.876 81.5367 117.503C80.3082 115.014 79.9899 112.485 80.8022 109.82L82.14 109.558C81.4177 111.94 81.489 114.763 82.5854 116.984C84.9526 121.781 90.772 123.742 95.5589 121.354C96.7223 120.774 97.9605 119.87 98.803 118.882L99.3444 119.979C98.3956 121.089 97.3803 121.753 96.0767 122.404L96.0699 122.398Z" fill="#A6B1C1"/>
<g filter="url(#filter9_i_2557_50096)">
<path d="M23.2464 184.486H-0.972174C-14.2424 184.486 -25 173.687 -25 160.365L-25 123.764C-25 110.442 -14.2424 99.6423 -0.972174 99.6423H23.2464C36.5166 99.6423 47.2743 110.442 47.2743 123.764L47.2743 160.365C47.2743 173.687 36.5166 184.486 23.2464 184.486Z" fill="#5F6CA5"/>
</g>
<g filter="url(#filter10_i_2557_50096)">
<path d="M85.5498 129.23C85.5498 115.961 74.7359 105.109 61.522 105.109H27.9815C21.5634 105.109 15.7253 107.683 11.402 111.835C16.103 114.528 19.293 119.6 19.293 125.392V190.991H85.5498V129.234V129.23Z" fill="#D2DCEB"/>
</g>
<rect x="29.1934" y="130.962" width="30.5437" height="34.6372" rx="7" fill="white"/>
<path d="M35.5977 155.708C36.9518 155.708 38.0536 156.811 38.0537 158.177C38.0537 159.542 36.9518 160.645 35.5977 160.646C34.2434 160.646 33.1416 159.542 33.1416 158.177C33.1417 156.811 34.2435 155.708 35.5977 155.708Z" stroke="#2AB527"/>
<path d="M44.958 155.708C46.3121 155.708 47.414 156.811 47.4141 158.177C47.4141 159.542 46.3122 160.645 44.958 160.646C43.6038 160.646 42.502 159.542 42.502 158.177C42.502 156.811 43.6038 155.708 44.958 155.708Z" stroke="#FF8F76"/>
<path d="M54.3184 155.708C55.6725 155.708 56.7743 156.811 56.7744 158.177C56.7744 159.542 55.6725 160.645 54.3184 160.646C52.9641 160.646 51.8623 159.542 51.8623 158.177C51.8624 156.811 52.9642 155.708 54.3184 155.708Z" stroke="#7694FF"/>
<path d="M11.402 111.835C6.82689 116.233 3.94981 122.404 3.94981 129.23V190.987H19.293V125.388C19.293 119.596 16.0992 114.524 11.402 111.831V111.835Z" fill="#BFC9D8"/>
<g filter="url(#filter11_i_2557_50096)">
<path d="M-16.3078 204.195V125.392C-16.3078 116.811 -9.3135 109.79 -0.766197 109.79C7.7811 109.79 14.7754 116.811 14.7754 125.392V204.195H-16.3116H-16.3078Z" fill="#D2DCEB"/>
</g>
<g filter="url(#filter12_i_2557_50096)">
<path d="M71.7562 108.422H21.0486C18.4734 108.422 16.3857 106.326 16.3857 103.741C16.3857 101.156 18.4734 99.0601 21.0486 99.0601H71.7562C74.3314 99.0601 76.4191 101.156 76.4191 103.741C76.4191 106.326 74.3314 108.422 71.7562 108.422Z" fill="#92B8B4"/>
</g>
<path d="M-8.65656 130.923C-11.4459 130.923 -13.8956 130.329 -16.3071 128.881V127.644C-14.0749 128.985 -11.2322 129.754 -8.65656 129.754C-0.746495 129.754 5.68687 123.296 5.68687 115.355C5.68687 114.034 5.4007 112.233 5.02675 110.919L6.22489 111.444C6.62936 112.865 6.85449 113.926 6.85449 115.359C6.85449 123.943 -0.101628 130.93 -8.65274 130.93L-8.65656 130.923Z" fill="#A6B1C1"/>
<path d="M-8.65698 126.238C-11.618 126.238 -14.0792 125.265 -16.1435 123.124L-15.9107 121.894C-14.0677 123.806 -11.2975 125.07 -8.65698 125.07C-3.31873 125.07 1.01979 120.711 1.01979 115.352C1.01979 113.505 0.458869 111.391 -0.537044 109.824L0.649663 109.786C1.76386 111.54 2.18359 113.283 2.18359 115.352C2.18359 121.354 -2.6815 126.238 -8.6608 126.238H-8.65698Z" fill="#A6B1C1"/>
<ellipse cx="68.8514" cy="136.157" rx="5.17272" ry="5.19557" fill="white"/>
<ellipse cx="68.8514" cy="148.033" rx="5.17272" ry="5.19557" fill="white"/>
<ellipse cx="68.8514" cy="159.909" rx="5.17272" ry="5.19557" fill="white"/>
<path d="M68.7253 138.623C67.2986 138.623 66.1421 137.462 66.1421 136.029C66.1421 134.597 67.2986 133.436 68.7253 133.436C70.152 133.436 71.3086 134.597 71.3086 136.029C71.3086 137.462 70.152 138.623 68.7253 138.623Z" fill="#99B6B8"/>
<path d="M68.7253 150.608C67.2986 150.608 66.1421 149.446 66.1421 148.014C66.1421 146.582 67.2986 145.421 68.7253 145.421C70.152 145.421 71.3086 146.582 71.3086 148.014C71.3086 149.446 70.152 150.608 68.7253 150.608Z" fill="#99B6B8"/>
<path d="M68.7253 162.374C67.2986 162.374 66.1421 161.213 66.1421 159.781C66.1421 158.348 67.2986 157.187 68.7253 157.187C70.152 157.187 71.3086 158.348 71.3086 159.781C71.3086 161.213 70.152 162.374 68.7253 162.374Z" fill="#99B6B8"/>
<path d="M56.9414 141.471H32.1504V135.415H56.9414V141.471Z" fill="#99B6B8"/>
<path d="M56.9414 150.873H32.1504V144.817H56.9414V150.873Z" fill="#99B6B8"/>
<g filter="url(#filter13_i_2557_50096)">
<path d="M64.523 34.7201C67.5308 34.7201 71.0686 56.1222 71.0686 56.1222C71.0686 56.1222 69.224 37.9615 72.3957 34.7201C75.5673 31.4787 80.2317 28.8318 82.3994 21.1126C84.567 13.3935 77.2266 9.15457 73.2855 8C75.0919 8.74222 78.4582 12.008 77.4729 19.1334C76.4877 26.2587 29.2085 17.9407 18.6024 24.8238C7.99636 31.7068 18.6025 59.5111 18.6025 59.5111C18.6025 59.5111 19.0867 34.7201 24.2601 34.7201H64.523Z" fill="#60312D"/>
</g>
<path d="M54.0729 71.5839C49.9768 71.7335 41.8414 72.7108 39.1877 75.4021C38.9568 75.6874 38.745 75.9819 38.5547 76.2846C38.7013 75.9718 38.9157 75.6779 39.1877 75.4021C42.5421 71.2559 49.9246 69.0376 54.0729 71.5839Z" fill="#CE8C60"/>
<g filter="url(#filter14_i_2557_50096)">
<path d="M85.3622 161.405C88.2676 153.916 102.7 149.258 111.849 145.806C122.958 148.048 126.812 159.173 127.19 168.334C123.783 175.318 115.969 182.977 98.3366 183.203C92.8012 179.057 82.4567 168.893 85.3622 161.405Z" fill="#94B7B2"/>
</g>
</g>
</g>
<defs>
<filter id="filter0_d_2557_50096" x="0" y="0" width="186" height="188.339" filterUnits="userSpaceOnUse" color-interpolation-filters="sRGB">
<feFlood flood-opacity="0" result="BackgroundImageFix"/>
<feColorMatrix in="SourceAlpha" type="matrix" values="0 0 0 0 0 0 0 0 0 0 0 0 0 0 0 0 0 0 127 0" result="hardAlpha"/>
<feOffset dy="2.33878"/>
<feComposite in2="hardAlpha" operator="out"/>
<feColorMatrix type="matrix" values="0 0 0 0 0.529412 0 0 0 0 0.529412 0 0 0 0 0.529412 0 0 0 1 0"/>
<feBlend mode="normal" in2="BackgroundImageFix" result="effect1_dropShadow_2557_50096"/>
<feBlend mode="normal" in="SourceGraphic" in2="effect1_dropShadow_2557_50096" result="shape"/>
</filter>
<filter id="filter1_i_2557_50096" x="63.2227" y="50.4741" width="11.8818" height="15.8755" filterUnits="userSpaceOnUse" color-interpolation-filters="sRGB">
<feFlood flood-opacity="0" result="BackgroundImageFix"/>
<feBlend mode="normal" in="SourceGraphic" in2="BackgroundImageFix" result="shape"/>
<feColorMatrix in="SourceAlpha" type="matrix" values="0 0 0 0 0 0 0 0 0 0 0 0 0 0 0 0 0 0 127 0" result="hardAlpha"/>
<feOffset dx="-9" dy="4"/>
<feGaussianBlur stdDeviation="2"/>
<feComposite in2="hardAlpha" operator="arithmetic" k2="-1" k3="1"/>
<feColorMatrix type="matrix" values="0 0 0 0 1 0 0 0 0 1 0 0 0 0 1 0 0 0 0.25 0"/>
<feBlend mode="normal" in2="shape" result="effect1_innerShadow_2557_50096"/>
</filter>
<filter id="filter2_i_2557_50096" x="18.8047" y="81.407" width="40.6865" height="22.3472" filterUnits="userSpaceOnUse" color-interpolation-filters="sRGB">
<feFlood flood-opacity="0" result="BackgroundImageFix"/>
<feBlend mode="normal" in="SourceGraphic" in2="BackgroundImageFix" result="shape"/>
<feColorMatrix in="SourceAlpha" type="matrix" values="0 0 0 0 0 0 0 0 0 0 0 0 0 0 0 0 0 0 127 0" result="hardAlpha"/>
<feOffset dx="-9" dy="4"/>
<feGaussianBlur stdDeviation="2"/>
<feComposite in2="hardAlpha" operator="arithmetic" k2="-1" k3="1"/>
<feColorMatrix type="matrix" values="0 0 0 0 1 0 0 0 0 1 0 0 0 0 1 0 0 0 0.25 0"/>
<feBlend mode="normal" in2="shape" result="effect1_innerShadow_2557_50096"/>
</filter>
<filter id="filter3_i_2557_50096" x="10.375" y="55.874" width="9.75977" height="10.1582" filterUnits="userSpaceOnUse" color-interpolation-filters="sRGB">
<feFlood flood-opacity="0" result="BackgroundImageFix"/>
<feBlend mode="normal" in="SourceGraphic" in2="BackgroundImageFix" result="shape"/>
<feColorMatrix in="SourceAlpha" type="matrix" values="0 0 0 0 0 0 0 0 0 0 0 0 0 0 0 0 0 0 127 0" result="hardAlpha"/>
<feOffset dx="-9" dy="4"/>
<feGaussianBlur stdDeviation="2"/>
<feComposite in2="hardAlpha" operator="arithmetic" k2="-1" k3="1"/>
<feColorMatrix type="matrix" values="0 0 0 0 1 0 0 0 0 1 0 0 0 0 1 0 0 0 0.25 0"/>
<feBlend mode="normal" in2="shape" result="effect1_innerShadow_2557_50096"/>
</filter>
<filter id="filter4_i_2557_50096" x="14.6201" y="28.8213" width="56.3027" height="65.5178" filterUnits="userSpaceOnUse" color-interpolation-filters="sRGB">
<feFlood flood-opacity="0" result="BackgroundImageFix"/>
<feBlend mode="normal" in="SourceGraphic" in2="BackgroundImageFix" result="shape"/>
<feColorMatrix in="SourceAlpha" type="matrix" values="0 0 0 0 0 0 0 0 0 0 0 0 0 0 0 0 0 0 127 0" result="hardAlpha"/>
<feOffset dx="-9" dy="4"/>
<feGaussianBlur stdDeviation="2"/>
<feComposite in2="hardAlpha" operator="arithmetic" k2="-1" k3="1"/>
<feColorMatrix type="matrix" values="0 0 0 0 1 0 0 0 0 1 0 0 0 0 1 0 0 0 0.25 0"/>
<feBlend mode="normal" in2="shape" result="effect1_innerShadow_2557_50096"/>
</filter>
<filter id="filter5_i_2557_50096" x="47.3926" y="41.6379" width="14.1543" height="10.8584" filterUnits="userSpaceOnUse" color-interpolation-filters="sRGB">
<feFlood flood-opacity="0" result="BackgroundImageFix"/>
<feBlend mode="normal" in="SourceGraphic" in2="BackgroundImageFix" result="shape"/>
<feColorMatrix in="SourceAlpha" type="matrix" values="0 0 0 0 0 0 0 0 0 0 0 0 0 0 0 0 0 0 127 0" result="hardAlpha"/>
<feOffset dx="-2" dy="3"/>
<feGaussianBlur stdDeviation="2"/>
<feComposite in2="hardAlpha" operator="arithmetic" k2="-1" k3="1"/>
<feColorMatrix type="matrix" values="0 0 0 0 1 0 0 0 0 1 0 0 0 0 1 0 0 0 0.25 0"/>
<feBlend mode="normal" in2="shape" result="effect1_innerShadow_2557_50096"/>
</filter>
<filter id="filter6_i_2557_50096" x="25.79" y="40.4104" width="15.625" height="10.3845" filterUnits="userSpaceOnUse" color-interpolation-filters="sRGB">
<feFlood flood-opacity="0" result="BackgroundImageFix"/>
<feBlend mode="normal" in="SourceGraphic" in2="BackgroundImageFix" result="shape"/>
<feColorMatrix in="SourceAlpha" type="matrix" values="0 0 0 0 0 0 0 0 0 0 0 0 0 0 0 0 0 0 127 0" result="hardAlpha"/>
<feOffset dx="-2" dy="3"/>
<feGaussianBlur stdDeviation="2"/>
<feComposite in2="hardAlpha" operator="arithmetic" k2="-1" k3="1"/>
<feColorMatrix type="matrix" values="0 0 0 0 1 0 0 0 0 1 0 0 0 0 1 0 0 0 0.25 0"/>
<feBlend mode="normal" in2="shape" result="effect1_innerShadow_2557_50096"/>
</filter>
<filter id="filter7_i_2557_50096" x="14.9082" y="91.8713" width="67.2256" height="15.9307" filterUnits="userSpaceOnUse" color-interpolation-filters="sRGB">
<feFlood flood-opacity="0" result="BackgroundImageFix"/>
<feBlend mode="normal" in="SourceGraphic" in2="BackgroundImageFix" result="shape"/>
<feColorMatrix in="SourceAlpha" type="matrix" values="0 0 0 0 0 0 0 0 0 0 0 0 0 0 0 0 0 0 127 0" result="hardAlpha"/>
<feOffset dx="8" dy="4"/>
<feGaussianBlur stdDeviation="2"/>
<feComposite in2="hardAlpha" operator="arithmetic" k2="-1" k3="1"/>
<feColorMatrix type="matrix" values="0 0 0 0 1 0 0 0 0 1 0 0 0 0 1 0 0 0 0.25 0"/>
<feBlend mode="normal" in2="shape" result="effect1_innerShadow_2557_50096"/>
</filter>
<filter id="filter8_i_2557_50096" x="66.2891" y="109.514" width="74.7725" height="105.281" filterUnits="userSpaceOnUse" color-interpolation-filters="sRGB">
<feFlood flood-opacity="0" result="BackgroundImageFix"/>
<feBlend mode="normal" in="SourceGraphic" in2="BackgroundImageFix" result="shape"/>
<feColorMatrix in="SourceAlpha" type="matrix" values="0 0 0 0 0 0 0 0 0 0 0 0 0 0 0 0 0 0 127 0" result="hardAlpha"/>
<feOffset dx="-3" dy="4"/>
<feGaussianBlur stdDeviation="2"/>
<feComposite in2="hardAlpha" operator="arithmetic" k2="-1" k3="1"/>
<feColorMatrix type="matrix" values="0 0 0 0 1 0 0 0 0 1 0 0 0 0 1 0 0 0 0.25 0"/>
<feBlend mode="normal" in2="shape" result="effect1_innerShadow_2557_50096"/>
</filter>
<filter id="filter9_i_2557_50096" x="-25" y="99.6423" width="76.2744" height="88.844" filterUnits="userSpaceOnUse" color-interpolation-filters="sRGB">
<feFlood flood-opacity="0" result="BackgroundImageFix"/>
<feBlend mode="normal" in="SourceGraphic" in2="BackgroundImageFix" result="shape"/>
<feColorMatrix in="SourceAlpha" type="matrix" values="0 0 0 0 0 0 0 0 0 0 0 0 0 0 0 0 0 0 127 0" result="hardAlpha"/>
<feOffset dx="8" dy="4"/>
<feGaussianBlur stdDeviation="2"/>
<feComposite in2="hardAlpha" operator="arithmetic" k2="-1" k3="1"/>
<feColorMatrix type="matrix" values="0 0 0 0 1 0 0 0 0 1 0 0 0 0 1 0 0 0 0.25 0"/>
<feBlend mode="normal" in2="shape" result="effect1_innerShadow_2557_50096"/>
</filter>
<filter id="filter10_i_2557_50096" x="8.40234" y="105.109" width="77.1475" height="89.8821" filterUnits="userSpaceOnUse" color-interpolation-filters="sRGB">
<feFlood flood-opacity="0" result="BackgroundImageFix"/>
<feBlend mode="normal" in="SourceGraphic" in2="BackgroundImageFix" result="shape"/>
<feColorMatrix in="SourceAlpha" type="matrix" values="0 0 0 0 0 0 0 0 0 0 0 0 0 0 0 0 0 0 127 0" result="hardAlpha"/>
<feOffset dx="-3" dy="4"/>
<feGaussianBlur stdDeviation="2"/>
<feComposite in2="hardAlpha" operator="arithmetic" k2="-1" k3="1"/>
<feColorMatrix type="matrix" values="0 0 0 0 1 0 0 0 0 1 0 0 0 0 1 0 0 0 0.25 0"/>
<feBlend mode="normal" in2="shape" result="effect1_innerShadow_2557_50096"/>
</filter>
<filter id="filter11_i_2557_50096" x="-19.3115" y="109.79" width="34.0869" height="98.4053" filterUnits="userSpaceOnUse" color-interpolation-filters="sRGB">
<feFlood flood-opacity="0" result="BackgroundImageFix"/>
<feBlend mode="normal" in="SourceGraphic" in2="BackgroundImageFix" result="shape"/>
<feColorMatrix in="SourceAlpha" type="matrix" values="0 0 0 0 0 0 0 0 0 0 0 0 0 0 0 0 0 0 127 0" result="hardAlpha"/>
<feOffset dx="-3" dy="4"/>
<feGaussianBlur stdDeviation="2"/>
<feComposite in2="hardAlpha" operator="arithmetic" k2="-1" k3="1"/>
<feColorMatrix type="matrix" values="0 0 0 0 1 0 0 0 0 1 0 0 0 0 1 0 0 0 0.25 0"/>
<feBlend mode="normal" in2="shape" result="effect1_innerShadow_2557_50096"/>
</filter>
<filter id="filter12_i_2557_50096" x="12.3857" y="99.0601" width="64.0332" height="13.3621" filterUnits="userSpaceOnUse" color-interpolation-filters="sRGB">
<feFlood flood-opacity="0" result="BackgroundImageFix"/>
<feBlend mode="normal" in="SourceGraphic" in2="BackgroundImageFix" result="shape"/>
<feColorMatrix in="SourceAlpha" type="matrix" values="0 0 0 0 0 0 0 0 0 0 0 0 0 0 0 0 0 0 127 0" result="hardAlpha"/>
<feOffset dx="-9" dy="4"/>
<feGaussianBlur stdDeviation="2"/>
<feComposite in2="hardAlpha" operator="arithmetic" k2="-1" k3="1"/>
<feColorMatrix type="matrix" values="0 0 0 0 1 0 0 0 0 1 0 0 0 0 1 0 0 0 0.25 0"/>
<feBlend mode="normal" in2="shape" result="effect1_innerShadow_2557_50096"/>
</filter>
<filter id="filter13_i_2557_50096" x="13.8887" y="8" width="72.9033" height="55.5112" filterUnits="userSpaceOnUse" color-interpolation-filters="sRGB">
<feFlood flood-opacity="0" result="BackgroundImageFix"/>
<feBlend mode="normal" in="SourceGraphic" in2="BackgroundImageFix" result="shape"/>
<feColorMatrix in="SourceAlpha" type="matrix" values="0 0 0 0 0 0 0 0 0 0 0 0 0 0 0 0 0 0 127 0" result="hardAlpha"/>
<feOffset dx="5" dy="4"/>
<feGaussianBlur stdDeviation="2"/>
<feComposite in2="hardAlpha" operator="arithmetic" k2="-1" k3="1"/>
<feColorMatrix type="matrix" values="0 0 0 0 1 0 0 0 0 1 0 0 0 0 1 0 0 0 0.25 0"/>
<feBlend mode="normal" in2="shape" result="effect1_innerShadow_2557_50096"/>
</filter>
<filter id="filter14_i_2557_50096" x="80.8574" y="145.806" width="46.333" height="41.3967" filterUnits="userSpaceOnUse" color-interpolation-filters="sRGB">
<feFlood flood-opacity="0" result="BackgroundImageFix"/>
<feBlend mode="normal" in="SourceGraphic" in2="BackgroundImageFix" result="shape"/>
<feColorMatrix in="SourceAlpha" type="matrix" values="0 0 0 0 0 0 0 0 0 0 0 0 0 0 0 0 0 0 127 0" result="hardAlpha"/>
<feOffset dx="-9" dy="4"/>
<feGaussianBlur stdDeviation="2"/>
<feComposite in2="hardAlpha" operator="arithmetic" k2="-1" k3="1"/>
<feColorMatrix type="matrix" values="0 0 0 0 1 0 0 0 0 1 0 0 0 0 1 0 0 0 0.25 0"/>
<feBlend mode="normal" in2="shape" result="effect1_innerShadow_2557_50096"/>
</filter>
<clipPath id="clip0_2557_50096">
<rect width="186" height="186" fill="white"/>
</clipPath>
<clipPath id="clip1_2557_50096">
<rect width="166" height="183" fill="white" transform="translate(-25 8)"/>
</clipPath>
</defs>
</svg>
