<svg width="186" height="189" viewBox="0 0 186 189" fill="none" xmlns="http://www.w3.org/2000/svg">
<g clip-path="url(#clip0_2557_47063)" filter="url(#filter0_d_2557_47063)">
<rect width="186" height="186" fill="#C9E1FB"/>
<g clip-path="url(#clip1_2557_47063)">
<path d="M49.8271 185.088L35.5097 191.128C26.7917 194.797 16.7308 190.718 13.0661 181.966L1.34353 154.138C-2.3212 145.409 1.75325 135.336 10.494 131.666L15.4561 129.569L19.1664 128.02L24.8342 125.627C32.5278 122.39 41.2458 125.194 45.7299 131.894C46.3217 132.783 46.8453 133.763 47.2778 134.789L56.3371 156.326L58.9776 162.616C62.6423 171.345 58.5678 181.396 49.8271 185.088Z" fill="#F73737"/>
<path d="M123.485 192.632C111.922 191.561 102.248 186.547 102.248 186.547C103.796 184.724 105.344 182.741 106.937 180.553C113.697 171.3 118.318 161.386 120.89 152.064C122.461 146.366 123.485 140.623 124.191 135.381C123.963 155.483 132.294 174.377 135.322 179.596C142.173 191.379 135.071 193.726 123.508 192.632H123.485Z" fill="#333A95"/>
<path d="M135.253 127.837C134.775 142.15 131.407 155.779 124.76 168.542C121.664 174.491 118.182 180.188 113.789 185.271C112.104 187.231 110.352 189.077 108.508 190.832C103.386 195.732 97.6502 199.834 91.1857 203.002C87.7714 204.666 84.1522 205.646 80.3737 206.01C79.577 206.079 78.7575 206.238 77.9609 206.238C74.979 206.284 72.0882 205.919 69.2884 205.213C65.8058 204.324 62.4598 202.888 59.2731 200.996C48.0513 194.364 39.1967 185.362 32.6184 174.103C28.7944 167.539 25.5394 160.702 23.3314 153.409C21.7609 148.235 20.5545 142.993 19.8943 137.637C19.5529 134.789 19.3253 131.917 19.166 129.068C19.0294 126.675 18.9383 124.282 19.0066 121.912C19.2115 115.393 19.4163 108.898 20.8731 102.494C22.7396 94.3344 25.7898 86.7222 30.6381 79.8621C32.7778 76.8309 35.3727 74.2099 38.0814 71.7029C40.6763 69.3098 43.3622 67.0535 46.0254 64.7516C47.8009 63.2246 48.8024 61.3786 48.5748 59.0083C48.5293 58.4841 48.4382 57.9599 48.2789 57.4585C48.1651 57.0255 48.0057 56.6152 47.8236 56.205C47.7554 56.0455 47.6643 55.8631 47.5732 55.7036C47.505 55.5896 47.4367 55.4757 47.3684 55.3617C46.5262 53.9259 45.5247 52.6268 44.4548 51.3961C44.4548 51.3961 44.4548 51.3961 44.4321 51.3733C43.6581 50.4617 42.8159 49.5956 41.9282 48.7979C41.6095 48.5016 41.3136 48.2053 40.995 47.9318C40.4942 47.476 39.8796 47.1342 39.3333 46.7239C39.1512 46.5872 39.0829 46.4048 39.0829 46.2225C39.0829 45.9034 39.3106 45.6072 39.6747 45.5616C39.7658 45.5616 39.8796 45.5616 39.9707 45.5616C42.2014 45.5388 44.341 45.8807 46.3441 46.7467C46.8676 46.9974 47.3684 47.2481 47.8692 47.5216C50.1454 48.8435 52.285 50.2793 54.015 52.2166C54.0605 52.2621 54.106 52.3305 54.1515 52.3761C54.2426 52.4673 54.3109 52.5584 54.3792 52.6496C54.4475 52.718 54.5157 52.8091 54.5613 52.8775C54.6296 52.9459 54.6751 53.037 54.7434 53.1054C54.8116 53.1738 54.8572 53.265 54.9255 53.3333C55.0165 53.4473 55.1076 53.584 55.1986 53.698C55.1986 53.698 55.1986 53.698 55.1986 53.7208C55.3579 53.9259 55.5173 54.1538 55.7221 54.3589C55.8359 54.4729 55.9953 54.4273 56.0636 54.3133C56.0636 54.2905 56.0863 54.245 56.0636 54.1994C56.0636 54.0626 56.0408 53.9487 55.9953 53.8119C55.9042 53.4473 55.8359 53.0826 55.7677 52.718C55.5628 51.4873 55.3579 50.2793 55.2669 49.0486C55.2214 48.3877 55.1986 47.7267 55.1986 47.0886C55.1986 47.043 55.1986 46.9974 55.1986 46.9518C55.1986 46.9518 55.1986 46.929 55.1986 46.9063C55.1986 46.7695 55.1986 46.61 55.2214 46.4732C55.2214 46.3821 55.2214 46.2909 55.2214 46.1997C55.2441 45.8123 55.2897 45.4248 55.3352 45.0602C55.3352 44.969 55.3352 44.8779 55.3807 44.8095C55.3807 44.6955 55.4035 44.5816 55.4262 44.4676C55.5856 43.442 55.8587 42.4392 56.2229 41.482C56.2684 41.368 56.314 41.2769 56.3367 41.1629C56.405 41.0262 56.4505 40.8666 56.5416 40.7071C56.5643 40.6387 56.5871 40.5931 56.6326 40.5248C56.7692 40.2057 56.9285 39.9094 57.1106 39.6131C57.2017 39.4536 57.3155 39.2713 57.4065 39.1117C57.4748 38.9978 57.5431 38.8838 57.6114 38.7926C57.6797 38.7015 57.748 38.6103 57.8163 38.5191C57.8163 38.5191 57.839 38.4736 57.8618 38.4736C57.9301 38.3824 57.9984 38.2912 58.0667 38.2001C58.1349 38.1089 58.2032 38.0177 58.2943 37.9266C58.5219 37.6531 58.7495 37.3796 59.0227 37.1289C59.1137 37.0377 59.2048 36.9466 59.2731 36.8782C59.6828 36.468 60.3201 35.9666 60.8664 35.9666C60.9347 35.9666 61.003 35.9666 61.0485 36.0121C61.3672 36.24 61.1851 37.0833 61.1851 37.448C61.094 40.7983 61.6176 44.0574 62.6874 47.2481C63.0971 48.4788 63.5751 49.664 64.1442 50.8035C64.3718 51.2821 64.6222 51.738 64.8726 52.1938C64.9409 52.3077 65.0091 52.4217 65.0774 52.5356C65.123 52.6268 65.1685 52.6952 65.2368 52.7863C65.2823 52.8775 65.3506 52.9687 65.3961 53.0598C65.4871 53.1966 65.5554 53.3333 65.6465 53.4473C65.7148 53.5612 65.7831 53.6524 65.8513 53.7664C65.9424 53.9031 66.0334 54.0399 66.1245 54.1766C66.1245 54.1994 66.17 54.245 66.1928 54.2678C66.3521 54.4729 66.5114 54.678 66.6935 54.9287C66.7618 55.0427 66.9212 55.0427 66.9895 54.9515C67.035 54.9287 67.0577 54.8831 67.0577 54.8375C67.0577 54.7008 67.0805 54.5868 67.0805 54.4501C67.0805 54.4045 67.1488 53.7664 67.1716 53.5157C67.2854 50.9859 67.6723 48.5244 68.9242 46.2681C69.1063 45.9262 69.3112 45.5844 69.5388 45.2425C70.6087 43.6471 72.1337 42.029 73.8864 41.5731C73.9547 41.5731 74.0458 41.5731 74.114 41.5731C74.2961 41.5731 74.4555 41.6871 74.4782 41.8694C74.4782 42.1201 74.2734 42.7811 74.0458 43.7611C73.8864 44.4448 73.7043 45.2881 73.5677 46.2681C73.2263 48.8891 73.2491 51.3049 74.2279 53.9715C74.4782 54.6552 74.9562 55.2478 75.5708 55.658C76.0261 55.9543 76.5951 56.2278 77.0731 56.2506C80.4192 56.4101 83.788 56.5469 87.1113 57.1166C91.4361 57.8687 95.6244 59.0995 99.6305 60.9C103.773 62.746 107.779 64.934 111.421 67.6461C113.22 68.9908 114.881 70.5634 116.566 72.0904C119.274 74.5062 121.642 77.1728 123.667 80.0216C126.763 84.3519 129.153 89.1381 130.974 94.2888C132.158 97.6391 133.068 101.035 133.728 104.499C134.024 106.072 134.275 107.667 134.457 109.263C134.958 113.616 135.208 118.014 135.231 122.39C135.231 124.213 135.231 126.014 135.162 127.837H135.253Z" fill="#2B5AA6"/>
<path d="M130.314 150.628C129.836 155.642 128.47 160.428 126.558 165.078C123.394 172.758 118.91 179.573 113.242 185.613C111.49 187.481 106.095 192.951 98.4014 195.276C94.9188 196.051 92.7791 195.891 92.7791 195.891C92.7791 195.891 84.6758 196.529 74.5238 189.669C54.3565 176.04 50.9194 157.58 52.1258 147.438C52.1713 147.05 52.2168 146.685 52.2851 146.321C54.0606 135.153 61.6404 129.866 61.6404 129.866C80.7379 127.701 85.2676 112.271 85.2676 112.271H92.7336C92.7336 112.271 92.5971 124.806 121.664 129.547C121.778 129.547 121.892 129.592 122.006 129.615C123.872 130.868 125.284 132.646 126.513 134.583C129.608 139.506 130.906 144.885 130.36 150.651L130.314 150.628Z" fill="#C9E1FB"/>
<path d="M69.9488 152.338C72.174 152.338 73.9778 150.97 73.9778 149.284C73.9778 147.597 72.174 146.23 69.9488 146.23C67.7237 146.23 65.9199 147.597 65.9199 149.284C65.9199 150.97 67.7237 152.338 69.9488 152.338Z" fill="#395D97"/>
<path d="M94.9869 152.406C97.212 152.406 99.0158 151.039 99.0158 149.352C99.0158 147.665 97.212 146.298 94.9869 146.298C92.7618 146.298 90.958 147.665 90.958 149.352C90.958 151.039 92.7618 152.406 94.9869 152.406Z" fill="#395D97"/>
<path d="M117.112 152.338C119.337 152.338 121.141 150.97 121.141 149.284C121.141 147.597 119.337 146.23 117.112 146.23C114.887 146.23 113.083 147.597 113.083 149.284C113.083 150.97 114.887 152.338 117.112 152.338Z" fill="#395D97"/>
<path d="M95.0553 180.211C97.2804 180.211 99.0842 178.844 99.0842 177.157C99.0842 175.47 97.2804 174.103 95.0553 174.103C92.8302 174.103 91.0264 175.47 91.0264 177.157C91.0264 178.844 92.8302 180.211 95.0553 180.211Z" fill="#395D97"/>
<path d="M106.027 166.308C108.252 166.308 110.056 164.941 110.056 163.254C110.056 161.568 108.252 160.2 106.027 160.2C103.802 160.2 101.998 161.568 101.998 163.254C101.998 164.941 103.802 166.308 106.027 166.308Z" fill="#395D97"/>
<path d="M81.0563 166.308C83.2814 166.308 85.0852 164.941 85.0852 163.254C85.0852 161.568 83.2814 160.2 81.0563 160.2C78.8312 160.2 77.0273 161.568 77.0273 163.254C77.0273 164.941 78.8312 166.308 81.0563 166.308Z" fill="#395D97"/>
<path d="M56.3132 156.326C55.5393 157.921 54.4922 159.585 53.1037 161.317C48.0277 167.653 39.1049 174.035 26.5629 180.302C26.0621 180.553 25.5158 180.667 24.9923 180.667C23.6949 180.667 22.4429 179.937 21.8284 178.707C20.9634 176.952 21.669 174.832 23.4217 173.943C35.0305 168.132 43.1794 162.388 47.5952 156.873C50.8502 152.816 51.8745 149.101 50.6454 145.842C49.2114 142.036 44.4996 138.481 38.0806 136.384C31.6844 134.287 24.4005 133.877 19.0741 135.29C17.1849 135.791 15.2501 134.674 14.7493 132.783C14.4306 131.62 14.7493 130.412 15.4777 129.569L19.1879 128.019C25.5614 126.789 33.2778 127.358 40.2885 129.66C42.2233 130.299 44.0443 131.028 45.7287 131.871C47.4814 132.76 49.0975 133.74 50.5543 134.834C53.8321 137.295 56.0856 140.167 57.292 143.335C58.4528 146.389 58.9991 150.879 56.3587 156.303L56.3132 156.326Z" fill="#F73737"/>
<path d="M61.8908 157.579C59.0682 162.799 55.0848 167.083 50.4186 170.821C37.9449 180.826 25.1752 182.786 24.8338 182.832C23.0128 183.014 20.031 181.464 19.0522 179.755C12.0869 167.699 11.9276 152.315 13.9762 143.13C15.9793 134.15 24.0144 129.182 31.5487 146.822C41.86 149.238 54.6979 144.976 57.3155 144.748C64.0304 144.155 68.378 145.614 61.8908 157.602V157.579Z" fill="#333A95"/>
<path d="M106.458 53.1739C108.006 60.1024 106.959 67.122 103.886 73.4807L34.6888 88.933C29.2031 84.4888 25.288 78.5859 23.7401 71.6574C19.5291 52.7181 34.6433 33.2317 57.4738 28.1265C80.3043 23.0213 102.247 34.2345 106.481 53.1739H106.458Z" fill="#C49A6C"/>
<path d="M125.715 68.5807L12.8828 93.8104L22.8982 67.7374L105.593 49.2539L125.715 68.5807Z" fill="#A97C50"/>
<path d="M143.653 95.9071C142.059 82.1413 130.519 70.8141 115.541 70.723C100.791 70.6318 88.0444 82.0729 87.0429 97.5024C84.8577 89.6851 80.3963 83.6683 73.3628 79.7482C66.3293 75.8281 58.8632 75.0305 51.1468 77.3779C37.8081 81.4347 28.6122 95.1094 31.6851 110.311C34.371 123.553 46.1619 133.33 60.2517 132.942C61.5264 132.897 62.7783 132.783 64.0075 132.601C71.906 131.347 78.6664 126.88 82.9912 120.499C85.7682 116.396 87.5209 111.496 87.8623 106.163C89.1598 111.496 92.0278 116.191 95.8747 119.815C102.567 126.105 112.263 129.182 122.188 126.766C122.893 126.584 123.576 126.401 124.259 126.174C137.416 121.889 145.155 108.921 143.653 95.9298V95.9071ZM83.5603 102.403C84.6984 115.644 74.9562 127.404 61.7313 128.612C48.4154 129.843 36.6473 120.02 35.4181 106.619C34.2117 93.4228 44.0222 81.6627 57.2699 80.4091C70.7451 79.1556 82.4449 89.2293 83.583 102.38L83.5603 102.403ZM118.204 123.165C118.045 123.165 117.863 123.211 117.704 123.211C115.928 123.37 114.176 123.347 112.514 123.142C101.156 121.775 92.4148 112.522 91.4133 101.377C90.2069 88.0441 99.9036 76.284 113.22 75.0305C126.467 73.777 138.281 83.5315 139.533 96.7275C140.785 109.924 131.293 121.684 118.227 123.142L118.204 123.165Z" fill="#F19725"/>
<path d="M62.7324 92.1465H47.163C44.4543 95.1321 42.8154 99.0978 42.8154 103.451C42.8154 112.772 50.3497 120.316 59.6367 120.316C67.3987 120.316 73.9314 115.051 75.889 107.895C76.2759 106.482 76.4808 105.001 76.4808 103.474C76.4808 99.1205 74.8419 95.1549 72.1105 92.1693H62.7324V92.1465Z" fill="white"/>
<path d="M62.7323 92.1465C62.4591 93.1949 62.2998 94.3116 62.2998 95.4512C62.2998 102.334 67.8766 107.941 74.7735 107.941C75.1377 107.941 75.5247 107.941 75.8889 107.872C76.2758 106.459 76.4807 104.978 76.4807 103.451C76.4807 99.0978 74.8418 95.1321 72.1103 92.1465H62.7323Z" fill="black"/>
<path d="M131.474 98.3228C131.474 100.214 131.179 102.038 130.587 103.724C128.356 110.334 122.096 115.097 114.744 115.097C105.503 115.097 97.9912 107.599 97.9912 98.3228C97.9912 94.4712 99.2887 90.9157 101.474 88.0897L117.248 85.9929L124.851 84.9673C128.857 88.0213 131.452 92.8758 131.452 98.3L131.474 98.3228Z" fill="white"/>
<path d="M131.474 98.323C131.474 100.215 131.178 102.038 130.587 103.724C122.938 103.497 116.815 97.229 116.815 89.5257C116.815 88.3177 116.975 87.1326 117.248 86.0158L124.851 84.9902C128.857 88.0442 131.452 92.8987 131.452 98.323H131.474Z" fill="black"/>
<path d="M101.201 117.764C100.2 129.114 90.6166 128.749 90.6166 128.749C90.6166 128.749 80.9654 129.045 79.9639 117.718C79.9639 117.718 101.201 117.764 101.201 117.786V117.764Z" fill="#F28006"/>
<path d="M102.157 117.422C101.725 117.604 97.6047 119.427 95.943 119.724C94.4407 119.997 80.4192 117.969 79.0762 117.422C78.8486 117.331 78.6437 117.24 78.4616 117.126C77.5967 116.579 77.3008 115.758 77.3463 114.505C77.4146 112.567 80.3964 104.499 90.5939 104.157C100.791 104.499 103.773 112.567 103.842 114.505C103.91 116.009 103.455 116.898 102.134 117.445L102.157 117.422Z" fill="#FFBF00"/>
<path d="M97.582 111.086C96.5121 112.476 95.1236 111.929 94.4863 111.519C92.2101 110.129 90.6167 110.197 90.6167 110.197C90.6167 110.197 89.0233 110.129 86.7471 111.519C86.087 111.907 84.7213 112.476 83.6515 111.086C83.0596 110.311 82.9231 108.875 84.3116 107.827C87.2707 105.571 90.6167 105.707 90.6167 105.707C90.6167 105.707 93.9855 105.571 96.9219 107.827C98.3104 108.898 98.1738 110.311 97.582 111.086Z" fill="#FFDC2B"/>
</g>
</g>
<defs>
<filter id="filter0_d_2557_47063" x="0" y="0" width="186" height="188.339" filterUnits="userSpaceOnUse" color-interpolation-filters="sRGB">
<feFlood flood-opacity="0" result="BackgroundImageFix"/>
<feColorMatrix in="SourceAlpha" type="matrix" values="0 0 0 0 0 0 0 0 0 0 0 0 0 0 0 0 0 0 127 0" result="hardAlpha"/>
<feOffset dy="2.33878"/>
<feComposite in2="hardAlpha" operator="out"/>
<feColorMatrix type="matrix" values="0 0 0 0 0.529412 0 0 0 0 0.529412 0 0 0 0 0.529412 0 0 0 1 0"/>
<feBlend mode="normal" in2="BackgroundImageFix" result="effect1_dropShadow_2557_47063"/>
<feBlend mode="normal" in="SourceGraphic" in2="effect1_dropShadow_2557_47063" result="shape"/>
</filter>
<clipPath id="clip0_2557_47063">
<rect width="186" height="186" fill="white"/>
</clipPath>
<clipPath id="clip1_2557_47063">
<rect width="143.835" height="192.949" fill="white" transform="translate(0 26.8958)"/>
</clipPath>
</defs>
</svg>
