<svg width="186" height="189" viewBox="0 0 186 189" fill="none" xmlns="http://www.w3.org/2000/svg">
<g clip-path="url(#clip0_2557_47138)" filter="url(#filter0_d_2557_47138)">
<rect width="186" height="186" fill="#C9E1FB"/>
<g clip-path="url(#clip1_2557_47138)">
<path d="M-1.79725 114.643C-1.61868 117.445 -1.3285 120.628 -0.904396 124.035C-0.882072 123.99 -0.859756 123.923 -0.837433 123.878C-0.859756 123.967 -0.882072 124.057 -0.904396 124.169C-0.859749 124.595 -0.792786 125.021 -0.748146 125.447C-0.703506 125.693 -0.681175 125.962 -0.636536 126.209C0.100067 131.566 1.17149 137.393 2.75629 143.176C5.36789 152.746 10.0107 162.877 16.7741 172.403C17.0196 172.761 17.2651 173.098 17.533 173.434C19.2071 175.742 20.8812 177.849 22.5106 179.799C23.8499 181.391 25.1669 182.87 26.4615 184.215C31.8409 189.885 36.8632 193.651 41.2605 196.183C49.4971 200.935 59.4747 200.868 59.4747 200.868C59.4747 200.868 69.4523 200.913 77.6889 196.183C84.4299 192.306 92.6218 185.47 101.394 173.434C108.559 163.594 113.448 153.082 116.171 143.153C121.55 123.542 121.081 103.168 121.081 103.168C121.081 74.0753 101.037 49.6671 74.0728 43.1C73.8943 43.0327 73.4032 42.8534 73.4478 42.4052C74.0505 36.2863 82.1085 31.7812 82.8897 31.3778C83.671 30.9743 83.0014 30.0554 82.421 30.145C82.421 30.145 71.9077 28.9571 65.5907 40.5C65.5015 40.6569 64.5193 42.181 64.7872 40.8811C67.6666 27.0072 61.0818 20.3728 61.0818 20.3728C61.0818 20.3728 59.5863 18.9384 59.631 20.8659C59.6756 22.39 60.1667 31.6916 54.3855 40.6793C53.6488 41.8224 53.6712 41.15 53.6488 40.6121C53.1801 30.7726 47.3096 26.7158 46.7962 26.3124C46.5284 26.1106 45.4569 25.7072 45.6578 26.7382C45.881 27.8813 48.2025 34.7398 45.0105 40.8811C43.9391 42.9207 42.3096 43.7724 42.198 43.8172C16.6178 51.3257 -2.08743 75.0615 -2.10975 103.168C-2.10975 103.168 -2.22134 107.74 -1.75259 114.621L-1.79725 114.643Z" fill="#2B5AA6"/>
<path d="M39.9664 183.094C50.7029 190.378 59.2966 189.706 59.2966 189.706C59.2966 189.706 67.8903 190.378 78.6268 183.094C100.814 168.055 103.872 147.501 102.198 137.057C100.323 125.2 92.2875 119.597 92.2875 119.597C72.0421 117.288 67.2653 100.904 67.2653 100.904H51.3056C51.3056 100.904 46.5288 117.311 26.2834 119.597C26.2834 119.597 18.2701 125.2 16.3727 137.057C14.6987 147.501 17.7567 168.077 39.944 183.094H39.9664Z" fill="#C9DCFC"/>
<path d="M74.3178 89.697C74.2732 99.6709 82.3089 107.785 92.2865 107.852C102.264 107.919 110.478 99.7382 110.456 89.7418C110.456 79.7678 102.353 71.5645 92.465 71.587C81.349 71.6094 74.3402 80.6195 74.3178 89.697Z" fill="white"/>
<path d="M26.3494 107.852C36.26 107.964 44.452 99.9178 44.5412 89.9214C44.6305 79.8578 36.6618 71.6769 26.6173 71.5649C16.7066 71.4528 8.51468 79.544 8.4254 89.518C8.33611 99.5816 16.2825 107.718 26.3494 107.852Z" fill="white"/>
<path d="M99.4747 77.8853C97.9345 78.8939 96.372 79.1405 94.8765 77.9974C93.2917 76.7871 93.0908 75.1509 93.7381 73.3802C90.3229 71.4079 83.6489 72.1251 79.8989 77.0112C76.0596 82.0318 76.707 89.2041 81.3944 93.5523C85.948 97.7884 93.0015 97.8108 97.555 93.6195C102.51 89.0472 102.488 81.8973 99.4747 77.8853Z" fill="black"/>
<path d="M25.1222 83.6455C25.7248 85.3713 25.6802 86.9403 24.2516 88.1954C22.6892 89.5626 21.0151 89.2937 19.4079 88.3075C16.6178 91.8712 16.2383 98.7969 20.8588 103.526C25.1222 107.874 31.8632 108.345 36.7069 104.624C41.506 100.926 42.9122 94.0229 39.9435 88.8006C36.9971 83.6455 30.6132 81.3593 25.1222 83.6455Z" fill="black"/>
<path d="M144.116 175.137C126.639 178.97 101.55 169.803 101.55 169.803C102.175 167.337 112.353 130.153 119.741 123.855C128.849 143.153 144.429 158.753 150.232 161.51C152.643 162.653 157.018 172.291 144.116 175.137Z" fill="#252C7F"/>
<path d="M29.4298 173.86C28.8048 171.394 2.17553 128.831 -0.837843 123.878C-14.3422 137.057 -24.677 138.738 -32.4001 138.267C-37.7573 137.931 -40.3465 140.598 -33.8733 147.098C2.37643 183.497 29.4521 173.86 29.4521 173.86H29.4298Z" fill="#252C7F"/>
<path d="M141.394 149.989V179.642C141.394 183.99 143.358 187.532 145.791 187.532C148.224 187.532 150.188 183.99 150.188 179.642V149.989H141.416H141.394Z" fill="#58E876"/>
<path d="M151.728 122.891C148.042 122.891 145.054 119.891 145.054 116.19C145.054 112.489 148.042 109.488 151.728 109.488C155.414 109.488 158.402 112.489 158.402 116.19C158.402 119.891 155.414 122.891 151.728 122.891Z" fill="#58E876"/>
<path d="M160.3 101.644C158.414 101.644 156.885 100.108 156.885 98.2144C156.885 96.3205 158.414 94.7852 160.3 94.7852C162.186 94.7852 163.715 96.3205 163.715 98.2144C163.715 100.108 162.186 101.644 160.3 101.644Z" fill="#58E876"/>
<path d="M146.885 92.4095C144.234 92.4095 142.085 90.252 142.085 87.5906C142.085 84.9292 144.234 82.7717 146.885 82.7717C149.535 82.7717 151.684 84.9292 151.684 87.5906C151.684 90.252 149.535 92.4095 146.885 92.4095Z" fill="#58E876"/>
<path d="M82.8665 143.445C80.5119 143.445 78.6032 142 78.6032 140.217C78.6032 138.435 80.5119 136.99 82.8665 136.99C85.2211 136.99 87.1299 138.435 87.1299 140.217C87.1299 142 85.2211 143.445 82.8665 143.445Z" fill="#395D97"/>
<path d="M59.4515 143.512C57.0969 143.512 55.1881 142.067 55.1881 140.284C55.1881 138.502 57.0969 137.057 59.4515 137.057C61.8061 137.057 63.7148 138.502 63.7148 140.284C63.7148 142.067 61.8061 143.512 59.4515 143.512Z" fill="#395D97"/>
<path d="M36.014 143.445C33.6594 143.445 31.7506 142 31.7506 140.217C31.7506 138.435 33.6594 136.99 36.014 136.99C38.3686 136.99 40.2773 138.435 40.2773 140.217C40.2773 142 38.3686 143.445 36.014 143.445Z" fill="#395D97"/>
<path d="M59.3841 173.053C57.0295 173.053 55.1207 171.608 55.1207 169.825C55.1207 168.043 57.0295 166.598 59.3841 166.598C61.7387 166.598 63.6475 168.043 63.6475 169.825C63.6475 171.608 61.7387 173.053 59.3841 173.053Z" fill="#395D97"/>
<path d="M47.7552 158.282C45.4006 158.282 43.4918 156.837 43.4918 155.055C43.4918 153.272 45.4006 151.827 47.7552 151.827C50.1098 151.827 52.0186 153.272 52.0186 155.055C52.0186 156.837 50.1098 158.282 47.7552 158.282Z" fill="#395D97"/>
<path d="M71.1253 158.282C68.7707 158.282 66.8619 156.837 66.8619 155.055C66.8619 153.272 68.7707 151.827 71.1253 151.827C73.4799 151.827 75.3887 153.272 75.3887 155.055C75.3887 156.837 73.4799 158.282 71.1253 158.282Z" fill="#395D97"/>
<path d="M49.7646 154.382V183.004C49.7646 185.739 47.5548 187.958 44.8316 187.958H3.0685C0.881012 187.958 -0.882362 186.187 -0.882362 183.99V123.9H30.613C30.613 123.878 49.7423 154.382 49.7423 154.382H49.7646Z" fill="white"/>
<path d="M0.479237 125.245V183.99C0.479237 185.425 1.63993 186.59 3.0685 186.59H44.8316C46.8182 186.59 48.4254 184.977 48.4254 182.982V154.741C42.5102 145.327 32.0192 128.585 29.8987 125.223H0.479237M30.6353 123.9L49.7646 154.382V183.004C49.7646 185.739 47.5548 187.958 44.8316 187.958H3.0685C0.881012 187.958 -0.882362 186.187 -0.882362 183.99V123.9H30.613H30.6353Z" fill="black"/>
<path d="M49.7646 154.382C38.3808 142.1 28.3362 138.738 22.7782 137.886C20.5461 137.55 19.363 135.017 20.5461 133.067C25.5237 124.864 30.6353 123.922 30.6353 123.922C30.6353 123.9 49.7646 154.405 49.7646 154.405V154.382Z" fill="#E8E8E8"/>
<path d="M30.0773 125.514C29.5862 125.716 28.8719 126.074 28.046 126.635C26.4612 127.71 24.0728 129.817 21.7068 133.74C21.372 134.278 21.3496 134.905 21.6175 135.488C21.8854 136.048 22.3764 136.429 23.0014 136.541C27.9344 137.303 34.988 139.679 43.1129 146.246C37.8004 137.796 31.8853 128.36 30.0996 125.514M30.6353 123.9L49.7646 154.382C38.3808 142.1 28.3362 138.738 22.7782 137.886C20.5461 137.55 19.363 135.017 20.5461 133.067C25.5237 124.864 30.6353 123.923 30.6353 123.923V123.9Z" fill="black"/>
<path d="M69.1167 154.382V183.004C69.1167 185.738 71.3265 187.957 74.0497 187.957H115.813C118 187.957 119.764 186.186 119.764 183.99V123.9H88.2683L69.139 154.382H69.1167Z" fill="white"/>
<path d="M88.9825 125.245C86.8619 128.607 76.3709 145.35 70.4558 154.763V183.004C70.4558 184.999 72.0629 186.613 74.0495 186.613H115.813C117.241 186.613 118.402 185.447 118.402 184.013V125.267H88.9825M88.2459 123.9H119.741V183.99C119.741 186.187 117.978 187.957 115.79 187.957H74.0272C71.304 187.957 69.0942 185.738 69.0942 183.004V154.382C69.0942 154.382 88.2012 123.9 88.2235 123.9H88.2459Z" fill="black"/>
<path d="M69.1165 154.382C80.5003 142.1 90.5449 138.738 96.1029 137.886C98.335 137.55 99.5181 135.017 98.335 133.067C93.3574 124.864 88.2458 123.923 88.2458 123.923C88.2458 123.9 69.1165 154.405 69.1165 154.405V154.382Z" fill="#E8E8E8"/>
<path d="M88.8262 125.514C87.0405 128.36 81.103 137.796 75.8129 146.246C83.9378 139.679 90.9913 137.303 95.9243 136.541C96.5493 136.452 97.0404 136.071 97.3083 135.488C97.5761 134.927 97.5315 134.277 97.219 133.74C94.8306 129.817 92.4422 127.71 90.8797 126.635C90.0538 126.074 89.3396 125.716 88.8485 125.514M88.2458 123.9C88.2458 123.9 93.3574 124.841 98.335 133.045C99.5181 134.995 98.335 137.527 96.1029 137.864C90.5226 138.715 80.5003 142.1 69.1165 154.36C69.1165 154.36 88.2235 123.878 88.2458 123.878V123.9Z" fill="black"/>
<path d="M26.9303 59.1929C43.3141 59.1929 56.6622 72.3271 57.064 88.6889H61.7961C62.1979 72.3271 75.546 59.1929 91.9299 59.1929C108.314 59.1929 122.086 72.753 122.086 89.4733C122.086 106.194 108.582 119.754 91.9299 119.754C76.3273 119.754 63.4925 107.852 61.9301 92.5888L56.9078 92.5216C55.3899 107.807 42.5329 119.754 26.9079 119.754C10.2563 119.754 -3.24813 106.194 -3.24813 89.4733C-3.24813 72.753 10.2563 59.1929 26.9079 59.1929H26.9303ZM91.9522 115.047C106.015 115.047 117.443 103.594 117.443 89.4509C117.443 75.3081 106.037 63.8549 91.9522 63.8549C77.8675 63.8549 66.4613 75.3081 66.4613 89.4509C66.4613 103.594 77.8675 115.047 91.9522 115.047ZM26.9303 115.047C40.9927 115.047 52.4212 103.594 52.4212 89.4509C52.4212 75.3081 41.015 63.8549 26.9303 63.8549C12.8455 63.8549 1.43935 75.3081 1.43935 89.4509C1.43935 103.594 12.8455 115.047 26.9303 115.047Z" fill="#F19725"/>
<path d="M48.2028 112.312C49.2743 124.371 56.7742 127.89 59.4751 127.89C62.0197 127.89 69.542 124.371 70.6134 112.312L71.417 104.423L59.676 100.792L47.6002 104.625L48.2028 112.312Z" fill="#F28006"/>
<path d="M50.7246 109.287C51.796 121.345 56.6844 124.393 59.3852 124.393C61.9299 124.393 66.9968 121.547 68.0682 109.488L68.5146 100.59L59.5861 97.2954L50.2558 100.59L50.7246 109.287Z" fill="#990600"/>
<path d="M51.6621 130.445C53.8496 133.74 59.4299 133.74 59.4299 133.74C59.4299 133.74 65.0102 133.74 67.1977 130.445C69.2067 127.419 66.4165 119.866 66.0817 118.745C65.7469 117.625 65.6576 116.369 64.2737 115.271C62.8897 114.173 55.9701 114.195 54.5862 115.271C53.2023 116.347 53.113 117.602 52.7782 118.745C52.4434 119.866 49.6532 127.419 51.6621 130.445Z" fill="#FF6A90"/>
<path d="M47.2198 106.373C47.6662 106.552 48.7823 106.888 50.1885 107.247C53.1126 107.987 57.3313 108.861 59.4519 108.861C62.5769 108.861 70.2554 106.956 71.6616 106.373C71.9071 106.283 72.108 106.171 72.3089 106.037C73.2241 105.454 73.5366 104.58 73.492 103.257C73.4027 101.195 70.2554 92.6335 59.4519 92.2749C48.6484 92.6335 45.5011 101.195 45.4118 103.257C45.3448 104.849 45.8136 105.79 47.2198 106.373Z" fill="#FFBF00"/>
<path d="M52.0642 99.6264C53.2026 101.106 54.6535 100.523 55.3455 100.097C57.7562 98.6178 59.4526 98.685 59.4526 98.685C59.4526 98.685 61.1267 98.6178 63.5597 100.097C64.2517 100.523 65.7025 101.128 66.8409 99.6264C67.4659 98.7971 67.6222 97.2954 66.149 96.1523C63.024 93.7541 59.4526 93.8886 59.4526 93.8886C59.4526 93.8886 55.9035 93.7541 52.7562 96.1523C51.283 97.273 51.4169 98.7971 52.0642 99.6264Z" fill="#FFDC2B"/>
<path d="M57.5545 70.9822C57.6884 70.9822 57.8223 70.9822 57.934 70.915C60.2554 70.2202 61.6839 69.0771 62.1973 67.553C62.9116 65.3565 61.4161 63.3393 60.3447 61.8376C60.1438 61.5462 59.8536 61.1876 59.6527 60.8738C59.9652 60.8738 60.4786 60.8962 61.2152 61.0083C62.4205 61.1876 63.8714 61.5238 65.3 61.86C67.0187 62.2634 68.8044 62.6669 70.233 62.8238C71.7062 63.0031 73.4919 63.0255 74.2508 61.6807C74.9651 60.4255 74.0722 59.0807 73.7821 58.6549C73.291 57.9152 72.6214 57.1532 71.8848 56.3463C71.2374 55.6291 70.5678 54.8894 70.0991 54.217C69.6526 53.567 69.5634 53.2308 69.541 53.1188C69.8089 52.917 71.5499 52.0429 80.3669 53.7239C81.1035 53.8584 81.7954 53.3877 81.9293 52.6481C82.0633 51.9084 81.5945 51.2136 80.8579 51.0791C77.3312 50.4067 74.5856 50.0481 72.4874 50.0257C70.5455 49.9809 67.8669 50.1602 67.041 52.0429C66.1705 54.0377 68.0455 56.1222 69.8758 58.1394C70.3892 58.7221 71.1928 59.6186 71.5946 60.2014C71.2821 60.2014 70.7687 60.2014 69.9874 60.0669C68.7821 59.8876 67.3089 59.5514 65.8803 59.2152C64.1616 58.8118 62.3759 58.4083 60.925 58.2514C59.9652 58.1394 57.7554 57.8928 56.9295 59.4393C56.2152 60.8066 57.1973 62.1289 58.1572 63.4289C58.9384 64.4823 59.9205 65.8271 59.6304 66.6789C59.4295 67.3064 58.5366 67.8892 57.1527 68.2926C56.4384 68.5168 56.0366 69.2564 56.2599 69.9736C56.4384 70.5564 56.9741 70.9374 57.5545 70.9374V70.9822Z" fill="black"/>
<path d="M138.269 132.529H141.55C142.22 132.529 142.755 133.067 142.755 133.74V183.139C142.755 184.82 144.117 186.187 145.791 186.187C147.465 186.187 148.827 184.82 148.827 183.139V133.784C148.827 133.784 148.827 133.762 148.827 133.74C148.827 133.067 149.362 132.529 150.032 132.529H153.313C153.983 132.529 154.519 133.067 154.519 133.74C154.519 134.412 153.983 134.95 153.313 134.95H151.528V183.139C151.528 186.321 148.961 188.899 145.791 188.899C142.621 188.899 140.054 186.321 140.054 183.139V134.95H138.269C137.599 134.95 137.063 134.412 137.063 133.74C137.063 133.067 137.599 132.529 138.269 132.529Z" fill="black"/>
<path d="M154.875 168.66C154.875 168.66 155.992 161.331 152.8 161.331C145.992 161.353 142.934 163.594 141.661 165.141C140.947 166.015 140.768 167.203 141.215 168.234C142.018 170.094 144.295 173.098 150.835 175.07C153.893 175.989 154.898 168.637 154.898 168.637L154.875 168.66Z" fill="#333A95"/>
</g>
</g>
<defs>
<filter id="filter0_d_2557_47138" x="0" y="0" width="186" height="188.339" filterUnits="userSpaceOnUse" color-interpolation-filters="sRGB">
<feFlood flood-opacity="0" result="BackgroundImageFix"/>
<feColorMatrix in="SourceAlpha" type="matrix" values="0 0 0 0 0 0 0 0 0 0 0 0 0 0 0 0 0 0 127 0" result="hardAlpha"/>
<feOffset dy="2.33878"/>
<feComposite in2="hardAlpha" operator="out"/>
<feColorMatrix type="matrix" values="0 0 0 0 0.529412 0 0 0 0 0.529412 0 0 0 0 0.529412 0 0 0 1 0"/>
<feBlend mode="normal" in2="BackgroundImageFix" result="effect1_dropShadow_2557_47138"/>
<feBlend mode="normal" in="SourceGraphic" in2="effect1_dropShadow_2557_47138" result="shape"/>
</filter>
<clipPath id="clip0_2557_47138">
<rect width="186" height="186" fill="white"/>
</clipPath>
<clipPath id="clip1_2557_47138">
<rect width="210.49" height="195.288" fill="white" transform="matrix(-1 0 0 1 163.715 19.8796)"/>
</clipPath>
</defs>
</svg>
