<svg width="186" height="189" viewBox="0 0 186 189" fill="none" xmlns="http://www.w3.org/2000/svg">
<rect x="0.584694" y="0.584694" width="184.831" height="184.831" stroke="#FFD5A0" stroke-width="1.16939"/>
<g clip-path="url(#clip0_2557_47323)" filter="url(#filter0_d_2557_47323)">
<rect width="186" height="186" fill="#C9E1FB"/>
<g clip-path="url(#clip1_2557_47323)">
<g clip-path="url(#clip2_2557_47323)">
<path d="M133.081 38.8762C168.741 80.2007 134.863 141.209 132.442 149.129C128.702 135.556 132.088 118.193 125.125 108.465C120.732 102.313 121.916 93.5708 117.264 88.6464C113.959 85.1521 110.763 82.0491 107.948 79.4317C109.131 75.0875 113.633 58.3445 115.388 49.9528C116.68 43.7872 119.522 23.1586 133.081 38.8762Z" fill="#333A95"/>
<path d="M153.59 194.487C153.59 194.487 152.434 196.444 150.721 197.388C147.661 199.075 142.139 199.236 137.202 193.624C134.904 191.007 135.488 186.446 137.651 183.586C138.276 182.763 138.984 182.008 139.704 181.279C145.498 175.41 151.292 169.528 157.126 163.686C157.915 162.904 158.826 162.202 159.792 161.663C161.043 160.948 162.417 160.988 163.736 161.636C166.252 162.863 166.674 165.265 166.538 167.154C166.456 168.422 166.102 169.65 165.531 170.783L153.577 194.487H153.59Z" fill="#F19725"/>
<path d="M139.731 125.465C140.33 130.025 140.738 134.599 140.806 139.186C140.847 142.289 140.738 145.392 140.411 148.508C140.099 151.463 139.663 154.377 139.079 157.237C137.46 165.238 134.727 172.901 130.66 180.173C128.511 184.005 125.723 187.323 122.351 190.157C121.63 190.764 120.963 191.425 120.202 191.965C117.373 193.975 114.381 195.54 111.253 196.714C107.35 198.184 103.215 199.034 98.8903 199.358C87.5342 200.221 76.5725 198.94 65.9916 195.58C62.4964 194.474 59.0284 193.125 55.6147 191.56C47.6043 187.89 39.961 183.586 32.9977 178.163C28.0609 174.331 23.4368 170.162 19.248 165.535C18.636 164.86 18.0376 164.185 17.4392 163.484C15.8616 161.663 14.3384 159.801 12.8423 157.912C11.1287 155.753 9.44232 153.554 7.9327 151.247C3.79827 144.96 -0.33617 138.673 -3.1922 131.671C-6.83703 122.74 -8.98585 113.525 -8.94505 103.865C-8.93145 99.5882 -8.19704 95.3923 -7.25863 91.2504C-6.37463 87.2839 -5.32742 83.3579 -4.29381 79.4318C-3.6138 76.828 -3.8722 74.413 -5.68102 72.3218C-6.08902 71.8496 -6.52423 71.4314 -6.98663 71.0401C-7.38103 70.7163 -7.80264 70.4195 -8.25144 70.1497C-8.44184 70.0418 -8.63225 69.9338 -8.82265 69.8394C-8.95865 69.7584 -9.10825 69.691 -9.24425 69.637C-10.9987 68.8545 -12.8211 68.2744 -14.6571 67.8291C-14.6571 67.8291 -14.6843 67.8291 -14.6979 67.8291C-16.0443 67.4784 -17.4043 67.222 -18.7915 67.0601C-19.2811 66.9792 -19.7707 66.9252 -20.274 66.8578C-21.0628 66.7633 -21.8652 66.8578 -22.6676 66.8173C-22.926 66.8173 -23.1164 66.6824 -23.2524 66.507C-23.4564 66.2102 -23.4564 65.7784 -23.1164 65.4951C-23.0212 65.4277 -22.926 65.3602 -22.8308 65.2927C-20.7228 63.7952 -18.4651 62.7159 -15.9627 62.2032C-15.3099 62.0952 -14.6571 61.9873 -14.0043 61.9199C-10.9715 61.6635 -7.96584 61.5961 -5.01461 62.2976C-4.93301 62.3111 -4.85141 62.3381 -4.78341 62.3516C-4.64741 62.3786 -4.51141 62.419 -4.37541 62.4595C-4.26661 62.4865 -4.15781 62.527 -4.03541 62.554C-3.92661 62.5809 -3.8178 62.6214 -3.709 62.6484C-3.6002 62.6889 -3.4914 62.7159 -3.3826 62.7563C-3.2194 62.8103 -3.0562 62.8643 -2.893 62.9182H-2.86579C-2.56659 63.0127 -2.26739 63.1071 -1.94098 63.1746C-1.76418 63.215 -1.62818 63.0531 -1.64178 62.9047C-1.64178 62.8643 -1.66898 62.8103 -1.69618 62.7698C-1.79139 62.6619 -1.90018 62.5405 -2.00899 62.446C-2.33539 62.1627 -2.64819 61.8659 -2.96099 61.5691C-3.981 60.5572 -4.97381 59.5319 -5.88502 58.4391C-6.37463 57.8454 -6.83703 57.2518 -7.25863 56.6312C-7.28584 56.5907 -7.31303 56.5502 -7.34023 56.5098C-7.34023 56.4963 -7.35384 56.4828 -7.36744 56.4693C-7.46264 56.3209 -7.54424 56.186 -7.63944 56.0376C-7.69384 55.9431 -7.74824 55.8622 -7.80264 55.7677C-8.03384 55.39 -8.25144 54.9987 -8.44184 54.6075C-8.49625 54.513 -8.53705 54.4321 -8.57785 54.3376C-8.64585 54.2162 -8.70025 54.0948 -8.75465 53.9734C-9.27145 52.894 -9.69306 51.7742 -9.97866 50.641C-10.0059 50.5195 -10.0331 50.3846 -10.0739 50.2632C-10.1147 50.0878 -10.1555 49.8989 -10.1827 49.71C-10.1963 49.6426 -10.2099 49.5616 -10.2235 49.4942C-10.2915 49.1029 -10.3459 48.7117 -10.3731 48.3204C-10.4003 48.1046 -10.4139 47.8752 -10.4139 47.6593C-10.4139 47.5109 -10.4139 47.3625 -10.4275 47.2006C-10.4275 47.0657 -10.4275 46.9443 -10.4275 46.8094C-10.4275 46.7824 -10.4275 46.7554 -10.4275 46.7284C-10.4275 46.5935 -10.4275 46.4586 -10.4275 46.3237C-10.4275 46.1888 -10.4139 46.0538 -10.4003 45.9189C-10.3731 45.5142 -10.3187 45.096 -10.2507 44.6777C-10.2235 44.5428 -10.1963 44.3944 -10.1691 44.2595C-10.0467 43.5984 -9.78826 42.708 -9.27145 42.3437C-9.20345 42.2897 -9.13545 42.2762 -9.06745 42.2762C-8.63225 42.2762 -8.22424 43.1936 -7.97944 43.5444C-5.84422 46.7824 -3.165 49.5077 -0.0369682 51.8012C1.17344 52.6782 2.42465 53.4877 3.71667 54.2027C4.24707 54.486 4.79107 54.7694 5.34868 55.0392C5.48468 55.1066 5.62068 55.1741 5.77028 55.2281C5.87909 55.2685 5.97429 55.3225 6.08309 55.363C6.19189 55.417 6.31429 55.4574 6.42309 55.5114C6.58629 55.5789 6.76309 55.6463 6.9263 55.7138C7.0623 55.7677 7.1983 55.8217 7.3343 55.8757C7.5111 55.9431 7.6879 56.0106 7.8647 56.078C7.9055 56.0915 7.9463 56.105 7.9871 56.1185C8.27271 56.213 8.55831 56.3074 8.91191 56.4153C9.06151 56.4558 9.19751 56.3749 9.22472 56.2399C9.23832 56.186 9.22471 56.132 9.21111 56.078C9.14311 55.9431 9.07511 55.8217 8.99351 55.7003C8.96631 55.6598 8.61271 55.0122 8.44951 54.7694C6.88549 52.2869 5.59348 49.7235 5.29428 46.7689C5.25348 46.3372 5.22628 45.865 5.21268 45.3928C5.17188 43.1802 5.53908 40.6303 6.9263 39.0652C6.9807 38.9978 7.0487 38.9438 7.1303 38.9033C7.3207 38.7954 7.5383 38.7819 7.6607 38.9438C7.8511 39.1732 8.0687 39.9287 8.49031 41.0215C8.77591 41.777 9.15672 42.681 9.70072 43.7063C11.1151 46.4181 12.7471 48.6712 15.4672 50.5465C16.1608 51.0322 17.004 51.2751 17.8608 51.2481C18.5 51.2211 19.2072 51.1267 19.6968 50.8163C22.988 48.7387 26.2929 46.661 29.8425 45.0015C34.4665 42.8429 39.2674 41.2509 44.2858 40.293C49.4811 39.3081 54.7171 38.7145 60.0076 38.8899C62.6324 38.9708 65.2436 39.3755 67.8548 39.6859C72.0573 40.185 76.0693 41.1429 79.9181 42.4921C85.739 44.5428 91.1926 47.4839 96.3743 51.1267C99.7335 53.4877 102.862 56.105 105.799 58.9517C107.132 60.2469 108.41 61.5826 109.662 62.9722C113.048 66.7498 116.19 70.7298 119.127 74.8582C120.351 76.5716 121.535 78.2986 122.677 80.0525C124.853 83.3714 126.839 86.7577 128.634 90.225C134.332 101.207 138.113 112.918 139.745 125.397L139.731 125.465Z" fill="#2B5AA6"/>
<path d="M132.252 103.676C135.204 108.87 137.148 114.456 138.44 120.257C140.576 129.863 140.848 139.523 139.433 149.25C138.998 152.259 137.461 161.231 131.491 168.692C128.621 171.795 126.391 173.103 126.391 173.103C126.391 173.103 118.87 179.228 104.25 179.458C75.1455 179.917 59.179 164.32 53.4125 153.676C53.1949 153.271 52.9909 152.866 52.8005 152.475C46.898 140.427 50.7197 130.16 50.7197 130.16C67.9646 115.076 61.8446 97.0112 61.8446 97.0112L69.1887 91.9654C69.1887 91.9654 78.8855 102.516 109.336 89.0512C109.459 88.9973 109.581 88.9433 109.703 88.8758C112.396 88.8219 114.98 89.5909 117.51 90.6567C123.888 93.328 128.852 97.6723 132.252 103.649V103.676Z" fill="#C9DCFC"/>
<path d="M76.7111 146.374C78.8295 144.906 79.6403 142.429 78.5221 140.841C77.4039 139.252 74.7802 139.154 72.6618 140.622C70.5434 142.09 69.7326 144.567 70.8508 146.155C71.969 147.744 74.5927 147.841 76.7111 146.374Z" fill="#395D97"/>
<path d="M100.623 129.906C102.742 128.438 103.552 125.961 102.434 124.372C101.316 122.784 98.6923 122.686 96.5739 124.154C94.4555 125.621 93.6447 128.099 94.7629 129.687C95.8811 131.275 98.5048 131.373 100.623 129.906Z" fill="#395D97"/>
<path d="M121.675 115.241C123.793 113.773 124.604 111.296 123.486 109.708C122.368 108.119 119.744 108.022 117.626 109.489C115.507 110.957 114.697 113.434 115.815 115.022C116.933 116.611 119.557 116.709 121.675 115.241Z" fill="#395D97"/>
<path d="M119.165 156.116C121.284 154.648 122.094 152.171 120.976 150.583C119.858 148.994 117.234 148.897 115.116 150.364C112.998 151.832 112.187 154.309 113.305 155.897C114.423 157.486 117.047 157.584 119.165 156.116Z" fill="#395D97"/>
<path d="M120.375 135.756C122.494 134.288 123.304 131.811 122.186 130.223C121.068 128.634 118.444 128.536 116.326 130.004C114.208 131.472 113.397 133.949 114.515 135.537C115.633 137.126 118.257 137.223 120.375 135.756Z" fill="#395D97"/>
<path d="M96.5744 152.241C98.6927 150.773 99.5035 148.296 98.3854 146.707C97.2672 145.119 94.6434 145.021 92.5251 146.489C90.4067 147.956 89.5959 150.434 90.7141 152.022C91.8323 153.61 94.456 153.708 96.5744 152.241Z" fill="#395D97"/>
<path d="M142.411 130.605C142.833 132.278 142.86 134.032 142.493 135.718L136.196 165.197L136.06 165.831C135.516 168.395 133.626 170.486 131.11 171.296L128.825 172.038L92.9614 183.667C90.4589 184.477 87.7525 183.182 86.8413 180.726L71.514 139.536C70.2355 136.11 71.922 132.346 75.2268 130.929C75.458 130.821 75.6892 130.74 75.934 130.673L112.967 119.448L114.586 118.962C117.714 118.004 120.134 115.589 121.073 112.54C121.195 112.135 121.304 111.73 121.372 111.312L125.37 88.0799L125.833 85.6784L125.887 85.4355C126.431 82.6293 130.443 82.5349 131.137 85.3006L142.398 130.619L142.411 130.605Z" fill="#E53659"/>
<path d="M125.846 85.6785L125.384 88.08L121.385 111.312C120.76 114.928 118.135 117.896 114.599 118.976L75.9474 130.7C75.7026 130.767 75.4578 130.862 75.2402 130.956L80.3811 122.119L113.375 111.299L117.305 88.9434L125.86 85.6785H125.846Z" fill="#F8FFFB"/>
<path d="M136.196 165.197L136.06 165.832C135.434 168.435 133.489 170.527 130.919 171.363L128.825 172.038L112.98 119.448L114.599 118.962C117.727 118.004 120.148 115.589 121.086 112.54L136.196 165.211V165.197Z" fill="#C12F52"/>
<path d="M81.2377 148.873C81.4009 155.942 79.8097 162.729 77.1713 169.366C70.1128 187.108 57.4103 192.14 57.0295 192.275C55.1391 193.003 50.787 193.381 49.155 192.531C34.3445 184.814 23.7364 171.606 20.3908 160.894C17.5211 151.706 21.3428 142.963 34.7117 150.235C39.2269 152.691 44.5582 153.23 49.359 151.409C57.5599 148.306 66.1824 144.245 70.752 141.925C72.1936 141.196 73.5264 140.306 74.8592 139.375C76.8721 137.972 80.9521 136.69 81.2241 148.873H81.2377Z" fill="#333A95"/>
<path d="M109.186 70.7568C109.186 70.7568 109.2 70.8782 109.214 70.9322C106.113 70.4195 102.876 70.6624 99.8295 71.7282C98.2654 72.2813 96.7558 73.0369 95.3278 74.0217C90.3094 77.5026 87.5213 82.9801 87.3173 88.6196C87.2629 90.0632 87.3853 91.5202 87.6709 92.9638C82.2853 92.3972 77.1444 89.6314 73.7444 84.9094C67.4068 76.0994 69.4604 63.9436 78.3413 57.6565C87.1133 51.437 99.4487 53.5012 105.718 62.2302C107.609 64.861 108.751 67.7887 109.186 70.7568Z" fill="white"/>
<path d="M99.8294 71.7416C98.2654 72.2947 96.7558 73.0503 95.3277 74.0351C90.3093 77.516 87.5213 82.9935 87.3173 88.633C87.1405 88.633 86.9501 88.633 86.7733 88.633C80.2044 88.3361 74.6692 83.1284 74.0707 76.693C73.4859 70.325 77.7836 64.3752 84.094 62.9856C84.6244 64.8744 85.658 66.237 87.6845 66.4529C89.9285 66.6958 91.2477 65.4276 92.0773 63.5522C95.3141 64.5236 98.5238 67.6132 99.8294 71.7416Z" fill="black"/>
<path d="M22.104 123.536C22.104 123.536 22.1992 123.603 22.24 123.644C23.3144 120.716 25.1232 118.045 27.5713 115.94C28.8225 114.861 30.2369 113.93 31.8009 113.201C37.3362 110.584 43.5106 110.881 48.5563 113.484C49.8483 114.146 51.0723 114.968 52.1875 115.926C54.3499 110.989 54.4587 105.187 51.9971 99.939C47.4002 90.1306 35.7313 85.8943 25.8304 90.4544C16.052 94.9471 11.7679 106.604 16.324 116.331C17.6976 119.259 19.6968 121.687 22.0904 123.536H22.104Z" fill="white"/>
<path d="M27.571 115.94C28.8222 114.861 30.2366 113.93 31.8006 113.201C37.3359 110.584 43.5103 110.881 48.556 113.484C48.6512 113.323 48.7328 113.174 48.8144 113.012C51.7928 107.197 49.9568 99.8446 44.6119 96.1614C39.3215 92.5187 31.9774 93.2877 27.6526 98.0502C29.0534 99.4398 29.7334 101.005 28.9174 102.867C28.0198 104.917 26.2518 105.43 24.2118 105.214C23.4774 108.493 24.5926 112.783 27.571 115.94Z" fill="black"/>
<path d="M69.1065 38.9438C55.248 49.7505 52.6639 69.5291 63.1496 83.4658L59.1512 86.5824C47.9719 73.1853 27.9933 70.9997 14.1348 81.8199C0.0586396 92.802 -2.38938 113.026 8.68112 126.989C19.7516 140.953 40.1382 143.382 54.2143 132.4C67.4065 122.106 70.3849 103.69 61.5856 89.9148L65.788 86.5554C77.1986 98.3335 95.9667 99.8445 109.186 89.5235C123.262 78.5414 125.71 58.3177 114.64 44.3539C103.569 30.3902 83.1826 27.9618 69.1065 38.9438ZM51.1135 128.474C39.2134 137.756 21.982 135.705 12.6252 123.9C3.26827 112.095 5.33549 95.0011 17.2356 85.7189C29.1357 76.4368 46.3671 78.4875 55.724 90.2925C65.0808 102.098 63.0136 119.191 51.1135 128.474ZM106.085 85.611C94.1851 94.8931 76.9538 92.8424 67.5969 81.0374C58.24 69.2323 60.3072 52.1385 72.2073 42.8564C84.1074 33.5742 101.339 35.6249 110.696 47.43C120.053 59.2351 117.985 76.3288 106.085 85.611Z" fill="#F19725"/>
<path d="M85.5352 98.0906C91.1657 107.993 86.7456 115.09 84.4608 116.668C82.312 118.166 74.0567 119.852 66.6174 111.204L61.667 105.605L69.6095 95.932L81.8904 91.8306C81.8904 91.8306 85.5352 98.0906 85.5488 98.0906H85.5352Z" fill="#F28006"/>
<path d="M81.7817 97.2136C87.4122 107.116 84.9369 112.311 82.6657 113.889C80.5169 115.387 74.696 116.142 67.2704 107.494L62.0615 100.91L67.8008 93.1527L77.4569 90.2385L81.7681 97.2001L81.7817 97.2136Z" fill="#990600"/>
<path d="M84.189 92.1408C83.8898 92.5861 81.1834 97.0383 79.7961 98.4144C78.5449 99.6556 63.8296 107.008 62.1976 107.386C61.9256 107.454 61.6672 107.481 61.4224 107.494C60.2256 107.548 59.3959 106.968 58.6207 105.754C57.4103 103.865 54.8807 94.2995 64.3736 87.2299C74.3289 80.808 82.5162 86.4609 83.8762 88.2418C84.937 89.6179 85.1002 90.7512 84.189 92.1408Z" fill="#FFBF00"/>
<path d="M75.6351 89.1592C75.5399 91.1829 73.8534 91.5607 72.9694 91.6146C69.8686 91.817 68.3998 92.9233 68.3998 92.9233C68.3998 92.9233 66.8494 93.9082 65.5982 96.7279C65.2446 97.5374 64.3062 98.9675 62.3477 98.3604C61.2597 98.0231 60.1853 96.7684 60.8109 94.8391C62.1301 90.7647 65.4078 88.66 65.4078 88.66C65.4078 88.66 68.5222 86.326 72.8334 86.5014C74.8735 86.5823 75.6895 88.0259 75.6351 89.1457V89.1592Z" fill="#FFDC2B"/>
<path d="M165.681 23.4555C166.606 23.4285 167.463 22.9563 167.966 22.1603L171.951 16.0352C173.23 14.0789 176.194 14.4162 176.983 16.6153L179.458 23.4825C179.771 24.3594 180.492 25.0205 181.403 25.2499L188.502 27.1117C190.76 27.7188 191.358 30.6195 189.509 32.0496L183.688 36.5018C182.94 37.0684 182.532 37.9454 182.6 38.8763L183.008 46.1617C183.13 48.4823 180.519 49.9393 178.588 48.6441L172.509 44.5292C171.747 44.0166 170.768 43.9086 169.897 44.2324L163.043 46.8768C160.853 47.7132 158.65 45.7165 159.303 43.4769L161.37 36.4748C161.629 35.5844 161.438 34.64 160.853 33.9249L156.216 28.272C154.733 26.4641 155.985 23.7658 158.324 23.6983L165.668 23.469L165.681 23.4555Z" fill="#F19725"/>
<path d="M153.985 65.0093L158.759 64.1054C159.371 63.984 159.874 63.5927 160.119 63.0396L162.077 58.6278C162.703 57.2247 164.688 57.1303 165.423 58.4794L167.762 62.7023C168.061 63.2419 168.605 63.5927 169.203 63.6467L174.032 64.1324C175.568 64.2808 176.276 66.1291 175.201 67.2489L171.883 70.7702C171.461 71.2154 171.284 71.836 171.42 72.4297L172.454 77.1382C172.78 78.6492 171.23 79.8635 169.829 79.2024L165.436 77.1517C164.879 76.8953 164.226 76.9088 163.695 77.2191L159.493 79.6476C158.147 80.4166 156.501 79.3373 156.691 77.8128L157.303 73.0233C157.371 72.4162 157.154 71.809 156.691 71.4043L153.06 68.1933C151.918 67.168 152.435 65.2657 153.958 64.9823L153.985 65.0093Z" fill="#F19725"/>
<path d="M95.1919 21.108L98.388 20.204C98.796 20.0961 99.1088 19.7858 99.2448 19.3945L100.306 16.278C100.646 15.2796 101.978 15.1042 102.577 15.9677L104.426 18.693C104.658 19.0438 105.052 19.2461 105.474 19.2461L108.792 19.2731C109.853 19.2731 110.438 20.4873 109.785 21.3238L107.758 23.9142C107.5 24.2515 107.418 24.6697 107.554 25.0745L108.547 28.218C108.874 29.2164 107.894 30.1338 106.888 29.783L103.787 28.6632C103.393 28.5283 102.958 28.5823 102.618 28.8116L99.9112 30.7139C99.0544 31.321 97.8576 30.6869 97.912 29.6346L98.0208 26.3562C98.0344 25.9379 97.844 25.5467 97.504 25.2903L94.8383 23.3341C93.9951 22.7134 94.2263 21.3913 95.2463 21.108H95.2191H95.1919Z" fill="#F19725"/>
</g>
</g>
</g>
<defs>
<filter id="filter0_d_2557_47323" x="0" y="0" width="186" height="188.339" filterUnits="userSpaceOnUse" color-interpolation-filters="sRGB">
<feFlood flood-opacity="0" result="BackgroundImageFix"/>
<feColorMatrix in="SourceAlpha" type="matrix" values="0 0 0 0 0 0 0 0 0 0 0 0 0 0 0 0 0 0 127 0" result="hardAlpha"/>
<feOffset dy="2.33878"/>
<feComposite in2="hardAlpha" operator="out"/>
<feColorMatrix type="matrix" values="0 0 0 0 0.529412 0 0 0 0 0.529412 0 0 0 0 0.529412 0 0 0 1 0"/>
<feBlend mode="normal" in2="BackgroundImageFix" result="effect1_dropShadow_2557_47323"/>
<feBlend mode="normal" in="SourceGraphic" in2="effect1_dropShadow_2557_47323" result="shape"/>
</filter>
<clipPath id="clip0_2557_47323">
<rect width="186" height="186" fill="white"/>
</clipPath>
<clipPath id="clip1_2557_47323">
<rect width="209.32" height="203.473" fill="white" transform="translate(-23.3877 -0.0305176)"/>
</clipPath>
<clipPath id="clip2_2557_47323">
<rect width="213.998" height="212.829" fill="white" transform="translate(-23.3877 14.7535)"/>
</clipPath>
</defs>
</svg>
