<svg width="186" height="189" viewBox="0 0 186 189" fill="none" xmlns="http://www.w3.org/2000/svg">
<g clip-path="url(#clip0_2557_47200)" filter="url(#filter0_d_2557_47200)">
<rect width="186" height="186" fill="#C9E1FB"/>
<g clip-path="url(#clip1_2557_47200)">
<path d="M149.823 65.6837C175.797 112.978 130.879 165.478 126.963 172.684C126.105 158.745 132.866 142.556 128.13 131.698C125.14 124.84 128.053 116.581 124.562 110.862C122.083 106.805 119.643 103.154 117.453 100.043C119.469 96.0634 127.176 80.6948 130.561 72.8898C133.04 67.1616 139.955 47.6877 149.832 65.674L149.823 65.6837Z" fill="#333A93"/>
<path d="M1.662 58.4581C2.31788 58.4774 2.96411 58.5161 3.61034 58.574C6.58107 58.9314 9.48429 59.4724 12.185 60.7475C12.2621 60.7764 12.3296 60.8151 12.3971 60.8537C12.5225 60.9117 12.6479 60.9793 12.7733 61.0373C12.8794 61.0855 12.9759 61.1435 13.082 61.2015C13.1784 61.2498 13.2749 61.3077 13.381 61.3657C13.4774 61.4236 13.5739 61.4816 13.6703 61.5396C13.815 61.6265 13.9597 61.7134 14.114 61.8004C14.114 61.8004 14.1333 61.81 14.1429 61.8197C14.4034 61.9742 14.6831 62.1191 14.9821 62.2544C15.146 62.322 15.31 62.2061 15.3197 62.0515C15.3197 62.0032 15.3197 61.9549 15.2907 61.9163C15.2136 61.781 15.1364 61.6555 15.0496 61.5396C14.7988 61.1918 14.548 60.8441 14.3069 60.4963C13.5353 59.3082 12.783 58.12 12.1271 56.8739C11.7702 56.1977 11.4519 55.5216 11.1722 54.8357C11.1529 54.7874 11.1336 54.7488 11.1143 54.7005C11.1143 54.6812 11.1047 54.6715 11.095 54.6522C11.0372 54.4976 10.9793 54.3431 10.9214 54.1789C10.8828 54.0823 10.8539 53.976 10.8153 53.8891C10.6707 53.4737 10.5453 53.0583 10.4295 52.6333C10.4006 52.5367 10.3716 52.4401 10.3524 52.3435C10.3138 52.2179 10.2848 52.0827 10.2559 51.9571L19.1006 51.6094C20.0844 52.7106 21.1261 53.7345 22.2353 54.6908C22.6886 55.0772 23.1516 55.4636 23.6435 55.821C23.7689 55.9176 23.8846 56.0045 24.01 56.0915C24.0968 56.1591 24.1933 56.2267 24.2801 56.2847C24.3765 56.3523 24.4826 56.4296 24.5791 56.4972C24.7238 56.6034 24.8781 56.7 25.0228 56.7966C25.1385 56.8739 25.2542 56.9512 25.3796 57.0285C25.5339 57.1251 25.6883 57.2313 25.8522 57.3279C25.8908 57.3472 25.9198 57.3666 25.9583 57.3955C26.2091 57.5404 26.4695 57.695 26.7878 57.8689C26.9132 57.9461 27.0675 57.8785 27.1254 57.7626C27.1544 57.7143 27.1543 57.666 27.1447 57.6081C27.1061 57.4632 27.0579 57.3279 27.0097 57.1927C26.9904 57.1444 26.7782 56.4489 26.6817 56.1784C25.6786 53.4544 24.9552 50.7014 25.2639 47.7745C25.3121 47.3398 25.3796 46.8858 25.4664 46.4221C25.8715 44.2584 26.7492 41.8627 28.3986 40.6166C28.4661 40.5684 28.5433 40.5297 28.6301 40.5007C28.8326 40.4428 29.0448 40.4621 29.1413 40.6456C29.2763 40.9161 29.3342 41.6889 29.5271 42.8384C29.6525 43.6305 29.8357 44.5868 30.1444 45.6976C30.9642 48.6149 32.0831 51.1264 34.3111 53.493C34.8898 54.1016 35.6421 54.517 36.4716 54.6618C37.0889 54.7681 37.8027 54.8164 38.3235 54.6136C41.9212 53.2612 45.5092 51.8992 49.2612 51.0008C54.1514 49.832 59.0897 49.2524 64.1052 49.3297C69.304 49.407 74.4642 49.89 79.5183 51.1167C82.0261 51.7253 84.4663 52.6333 86.9162 53.464C90.8514 54.7874 94.5263 56.5262 97.96 58.603C103.149 61.7617 107.808 65.7125 112.052 70.2912C114.81 73.2664 117.299 76.4348 119.536 79.7867C120.559 81.313 121.523 82.8778 122.44 84.4717C124.938 88.8282 127.156 93.32 129.153 97.918C129.982 99.8209 130.773 101.743 131.516 103.675C132.934 107.336 134.168 111.026 135.2 114.755C138.47 126.569 139.733 138.701 138.788 151.162C138.441 155.722 137.911 160.242 137.052 164.705C136.464 167.729 135.731 170.723 134.795 173.689C133.908 176.5 132.895 179.243 131.757 181.909C128.584 189.357 124.407 196.263 119.035 202.504C116.199 205.797 112.843 208.464 109.023 210.54C108.213 210.985 107.441 211.497 106.592 211.873C103.467 213.264 100.275 214.182 97.0244 214.694C92.9638 215.332 88.8163 215.332 84.6013 214.781C73.4997 213.342 63.2082 209.903 53.7077 204.513C50.5633 202.735 47.5058 200.736 44.5254 198.533C37.5519 193.365 31.0703 187.647 25.4664 180.982C21.4926 176.268 17.8756 171.293 14.7892 165.961C14.3358 165.188 13.8922 164.406 13.4678 163.614C12.32 161.527 11.2301 159.412 10.1691 157.286C8.9538 154.843 7.77708 152.37 6.78362 149.829C4.06367 142.894 1.363 135.958 0.022315 128.578C-1.68489 119.179 -1.88744 109.79 0.0994787 100.401C0.977195 96.2468 2.53008 92.325 4.26622 88.4804C5.91555 84.8098 7.71921 81.2067 9.50358 77.594C10.6899 75.1984 10.9214 72.8028 9.60003 70.4072C9.31067 69.8662 8.97309 69.3639 8.59692 68.9002C8.27863 68.5042 7.9314 68.1275 7.55524 67.7797C7.39127 67.6348 7.23695 67.4996 7.07298 67.3643C6.95723 67.2678 6.83185 67.1712 6.70646 67.0842C5.17287 65.9637 3.54283 65.046 1.85491 64.2443C1.84527 64.2443 1.82597 64.2346 1.81633 64.2249C0.591384 63.6164 -0.672141 63.0851 -1.97425 62.6504C-2.43722 62.4765 -2.89054 62.3123 -3.35352 62.1578L1.72953 58.4871L1.662 58.4581Z" fill="#2B5AA4"/>
<path d="M135.943 128.481C137.737 134.113 138.479 139.928 138.547 145.84C138.663 155.606 136.975 165.043 133.647 174.22C132.625 177.05 129.326 185.464 122.082 191.52C118.687 193.964 116.286 194.785 116.286 194.785C116.286 194.785 107.817 199.229 93.6868 196.524C65.5903 191.134 53.3601 172.771 49.965 161.276C49.8396 160.841 49.7142 160.407 49.6178 159.991C46.377 147.095 52.1159 137.89 52.1159 137.89C71.7632 126.694 74.9365 109.635 74.9365 109.635L77.5889 104.487C77.5889 104.487 84.7939 116.677 116.816 109.712C116.951 109.683 117.077 109.655 117.212 109.616C119.816 110.099 122.15 111.364 124.368 112.91C129.972 116.793 133.869 122 135.933 128.491L135.943 128.481Z" fill="#C7D9FA"/>
<path d="M73.875 158.833C76.2108 157.831 77.4925 155.588 76.7376 153.823C75.9828 152.057 73.4773 151.438 71.1415 152.439C68.8057 153.441 67.524 155.684 68.2789 157.45C69.0337 159.215 71.5392 159.835 73.875 158.833Z" fill="#395D95"/>
<path d="M100.212 147.619C102.548 146.618 103.829 144.374 103.075 142.609C102.32 140.843 99.8142 140.224 97.4784 141.226C95.1426 142.228 93.8609 144.471 94.6158 146.236C95.3706 148.002 97.8761 148.621 100.212 147.619Z" fill="#395D95"/>
<path d="M123.43 137.596C125.766 136.594 127.047 134.351 126.292 132.586C125.537 130.82 123.032 130.201 120.696 131.202C118.36 132.204 117.079 134.447 117.834 136.213C118.588 137.978 121.094 138.598 123.43 137.596Z" fill="#395D95"/>
<path d="M112.771 176.808C115.106 175.806 116.388 173.563 115.633 171.797C114.878 170.032 112.373 169.412 110.037 170.414C107.701 171.416 106.42 173.659 107.174 175.425C107.929 177.19 110.435 177.809 112.771 176.808Z" fill="#395D95"/>
<path d="M118.052 157.256C120.388 156.255 121.669 154.011 120.914 152.246C120.16 150.48 117.654 149.861 115.318 150.863C112.982 151.865 111.701 154.108 112.456 155.873C113.21 157.639 115.716 158.258 118.052 157.256Z" fill="#395D95"/>
<path d="M91.8086 168.516C94.1444 167.514 95.426 165.271 94.6712 163.505C93.9164 161.74 91.4109 161.12 89.0751 162.122C86.7393 163.124 85.4576 165.367 86.2125 167.133C86.9673 168.898 89.4728 169.517 91.8086 168.516Z" fill="#395D95"/>
<path d="M120.144 86.983C120.144 87.041 120.153 87.0893 120.163 87.1473C117.337 86.6739 114.385 86.8961 111.608 87.8814C110.19 88.3837 108.811 89.0889 107.508 89.9969C102.927 93.2039 100.39 98.2463 100.197 103.434C100.149 104.767 100.255 106.109 100.516 107.433C95.5966 106.911 90.9186 104.361 87.8225 100.024C82.045 91.9192 83.9162 80.7332 92.0182 74.9374C100.014 69.2189 111.251 71.1122 116.98 79.1394C118.707 81.564 119.748 84.2494 120.144 86.9927V86.983Z" fill="white"/>
<path d="M111.608 87.8814C110.19 88.3837 108.81 89.0888 107.508 89.9969C102.927 93.2039 100.39 98.2462 100.197 103.433C100.033 103.433 99.8693 103.433 99.7053 103.424C93.7156 103.153 88.6615 98.3525 88.131 92.4311C87.6006 86.5677 91.5165 81.0906 97.2651 79.8252C97.7473 81.5736 98.6829 82.8197 100.544 83.0226C102.589 83.2447 103.785 82.0759 104.547 80.3468C107.499 81.2452 110.431 84.0851 111.608 87.891V87.8814Z" fill="black"/>
<path d="M35.0835 134.248C35.0835 134.248 35.18 134.316 35.2282 134.354C36.2892 131.447 38.0639 128.8 40.4752 126.714C41.7001 125.641 43.0987 124.724 44.6323 123.99C50.0722 121.391 56.139 121.691 61.1063 124.279C62.3795 124.946 63.5852 125.757 64.6751 126.704C66.797 121.806 66.9031 116.049 64.4822 110.833C59.9586 101.096 48.5 96.9038 38.7583 101.425C29.142 105.887 24.9367 117.46 29.4121 127.1C30.7624 130.008 32.7301 132.423 35.0835 134.248Z" fill="white"/>
<path d="M40.4659 126.704C41.6909 125.632 43.0894 124.714 44.623 123.98C50.0629 121.381 56.1298 121.681 61.0971 124.27C61.1839 124.115 61.2707 123.961 61.3478 123.796C64.28 118.03 62.4763 110.727 57.21 107.075C52.0016 103.453 44.787 104.216 40.5431 108.949C41.9223 110.331 42.5879 111.876 41.7873 113.731C40.9096 115.769 39.1735 116.271 37.1576 116.069C36.4342 119.314 37.5338 123.584 40.4659 126.714V126.704Z" fill="black"/>
<path d="M-13.8285 93.9961C-13.8574 91.1658 -13.6356 88.3355 -13.163 85.5439C-12.7 82.8005 -11.9862 80.0958 -11.0603 77.478C-10.1344 74.8699 -8.98658 72.3294 -7.65554 69.9048C-6.3245 67.4802 -4.77162 65.1136 -3.0837 62.8919C-1.36685 60.6412 0.513974 58.5064 2.52018 56.5068C4.56497 54.4783 6.73514 52.585 9.01142 50.8269C11.3263 49.0399 13.7472 47.4074 16.2646 45.9101C18.782 44.4129 21.4345 43.0412 24.1351 41.8241C26.8551 40.607 29.6426 39.5444 32.4879 38.646C35.3333 37.7477 38.2461 37.0039 41.1879 36.434C44.1297 35.864 47.1101 35.468 50.0905 35.2651C53.0708 35.0623 56.0801 35.0333 59.0702 35.1975C62.0602 35.3617 65.0406 35.7288 67.9824 36.3084C70.9242 36.888 73.8563 37.6608 76.692 38.6557C79.5663 39.6603 82.373 40.8871 85.0641 42.3167C87.7551 43.7464 90.4654 45.4658 92.9635 47.3494C95.5581 49.3103 97.9983 51.4838 100.255 53.8311C104.036 57.7722 107.103 62.1964 110.045 66.7751C111.637 69.2576 113.257 71.7208 114.887 74.1744C115.08 74.4739 115.263 74.7733 115.437 75.0728C114.906 74.5511 105.628 68.4848 77.9652 76.5024C49.232 84.8194 22.0807 95.9473 18.9749 102.796C9.38758 123.98 32.6808 142.256 6.53259 150.129C-5.88082 134.055 -13.6356 113.982 -13.8574 93.9961H-13.8285Z" fill="#B41911"/>
<g style="mix-blend-mode:multiply">
<path d="M-10.4131 117.073C-3.83504 109.085 20.7892 81.4868 58.5985 65.9251C38.6233 41.1479 18.9374 45.6977 13.6421 47.562C23.8082 40.9644 35.884 36.7141 48.2492 35.6033C62.7653 38.791 73.4522 49.7257 80.1363 58.9218C86.7819 57.3183 93.7168 56.1205 100.951 55.5119C102.021 56.6904 103.063 57.9172 104.066 59.2019C90.4181 60.3031 44.7576 68.253 -8.30078 123.497C-9.08204 121.381 -9.7765 119.227 -10.4034 117.073H-10.4131Z" fill="#B41911"/>
</g>
<path d="M-6.89285 123.97C-2.58144 135.079 5.40482 142.942 13.2657 140.469C21.1265 137.996 24.0008 126.984 19.6894 115.875C15.378 104.767 5.51091 97.773 -2.34995 100.246C-10.2108 102.719 -11.1946 112.861 -6.88321 123.96L-6.89285 123.97Z" fill="#B41911"/>
<path opacity="0.15" d="M-6.28564 123.371C-3.59462 130.297 1.17978 135.272 5.72268 133.842C10.2656 132.413 11.7606 125.641 9.06957 118.715C6.37855 111.789 0.514249 107.326 -4.01901 108.756C-8.56191 110.186 -8.97665 116.445 -6.27599 123.371H-6.28564Z" fill="white"/>
<g style="mix-blend-mode:multiply">
<path d="M10.4591 140.421C17.9631 138.054 20.712 127.544 16.5935 116.928C12.475 106.322 3.04195 99.6374 -4.46204 102.004C-5.2433 102.255 -5.9474 102.593 -6.58398 102.999C-5.49407 101.763 -4.10516 100.806 -2.34973 100.256C5.51113 97.7828 15.3782 104.776 19.6896 115.885C24.001 126.994 21.1268 137.996 13.2659 140.479C11.7323 140.962 10.1987 141.039 8.68442 140.788C9.27277 140.72 9.86113 140.614 10.4495 140.43L10.4591 140.421Z" fill="#B41911"/>
</g>
<path d="M-103.249 145.154C-93.4108 136.335 -77.882 147.675 -33.4561 147.327C9.06975 146.989 20.6344 138.44 26.0646 132.384C27.3089 131.93 28.6206 132.278 28.6399 132.287C22.0715 148.39 -9.51662 172.114 -46.9401 180.035C-85.4535 188.188 -113.077 153.973 -103.249 145.154Z" fill="#7F110C"/>
<path d="M-33.3214 149.684C-77.7473 150.032 -93.2761 138.691 -103.114 147.52C-104.32 148.602 -104.956 150.071 -105.082 151.8C-105.526 149.047 -104.976 146.709 -103.249 145.154C-93.4112 136.335 -77.8823 147.675 -33.4564 147.327C9.06941 146.989 21.396 135.996 26.8263 129.93C28.0705 129.476 28.6203 132.277 28.6396 132.277C23.2093 138.334 9.20445 149.356 -33.3117 149.684H-33.3214Z" fill="#B41911"/>
<path opacity="0.9" d="M-80.8908 176.529C-99.7183 168.144 -109.788 151.027 -103.239 145.154C-93.4007 136.335 -77.8719 147.675 -33.4459 147.327C2.87801 147.037 19.8054 137.02 27.3576 130.326C27.3576 130.326 17.2976 141.676 -5.10825 145.617C-27.5141 149.559 -42.9754 149.143 -64.8219 146.39C-86.6683 143.637 -94.9632 140.672 -101.262 144.864C-107.541 149.047 -103.123 164.212 -80.8812 176.538L-80.8908 176.529Z" fill="white"/>
<path d="M71.0885 78.7626C71.0885 78.7626 65.3785 61.607 67.674 54.0338C69.9696 46.4606 73.6444 63.7225 73.6444 63.7225C73.6444 63.7225 77.8112 39.7857 82.7881 37.6606C87.7747 35.5355 79.8463 62.5536 79.8463 62.5536C79.8463 62.5536 96.0792 38.9743 97.8636 43.6979C99.648 48.4215 83.3379 66.234 83.3379 66.234C83.3379 66.234 92.3273 59.7427 92.4526 62.4184C92.578 65.0941 78.3899 80.6269 71.0885 78.7626Z" fill="#2B5AA4"/>
<path d="M80.3965 60.8438C80.3965 60.8438 96.6294 37.2645 98.4138 41.9881C99.2047 44.0842 96.4269 48.7692 93.0896 53.3285C95.6456 49.7062 98.9635 42.9057 97.1792 42.7319C95.2791 42.5483 80.3965 60.8341 80.3965 60.8341V60.8438Z" fill="#C7D9FA"/>
<path d="M92.5683 54.0339C92.5683 54.0339 92.6268 53.9469 92.6561 53.9082C92.6268 53.9469 92.5976 53.9952 92.5586 54.0339H92.5683Z" fill="#C7D9FA"/>
<path d="M83.3382 35.9509C85.4408 35.0526 85.2479 39.3608 84.3123 44.635C84.7367 39.8245 84.2448 36.6754 83.0778 37.6027C81.1873 39.1096 76.22 54.6521 74.5996 59.8297C75.7667 53.8793 79.2775 37.68 83.3382 35.9509Z" fill="#C7D9FA"/>
<path d="M68.2141 52.3338C70.2782 45.5333 73.4418 58.7478 74.0687 61.5201C74.0687 61.5201 71.0787 49.9188 69.5065 53.2901C67.9344 56.6613 71.6285 77.0626 71.6285 77.0626C71.6285 77.0626 65.9185 59.907 68.2141 52.3338Z" fill="#C7D9FA"/>
<path d="M12.89 134.779C13.0251 134.944 13.189 135.117 13.3337 135.282C23.8952 148.631 47.1017 154.524 62.3701 146.11C73.3367 140.063 78.9116 128.983 81.4869 121.874C84.149 115.209 84.8724 109.635 85.943 108.051C88.2386 104.651 90.5245 105.443 94.3054 107.954C98.0767 110.466 107.066 114.938 115.583 110.128C120.434 107.394 121.727 104.767 122.923 101.318C122.836 101.25 122.73 101.183 122.643 101.115C122.113 100.69 121.505 100.004 120.849 99.135C118.65 102.622 115.187 105.25 110.095 105.8C100.507 106.824 90.0712 98.1304 88.8269 89.7072C87.5827 81.2742 96.3309 74.5125 105.108 72.339C105.6 72.2134 106.362 72.0589 106.825 71.9623C106.757 71.7981 106.564 71.5083 106.468 71.4214C106.41 71.3924 106.343 71.3634 106.275 71.3344C105.205 70.3781 101.713 68.3399 94.5369 69.673C84.5348 71.518 82.6829 77.2848 61.039 80.2793C38.6621 83.3801 23.1815 91.2431 14.7516 101.434C3.53416 115.006 7.59479 128.327 12.8611 134.779H12.89ZM60.8558 130.983C45.433 140.894 31.6211 132.625 26.3355 123.845C21.0402 115.064 27.0106 104.747 39.8099 97.0775C52.6091 89.4077 67.3952 87.2826 72.6904 96.0632C77.976 104.844 73.4138 122.917 60.8654 130.983H60.8558Z" fill="#231612"/>
<path d="M21.2137 137.397L11.8289 124.54C11.2887 123.796 10.1892 123.777 9.62012 124.501L5.68487 129.534C5.3087 130.017 5.28942 130.693 5.65593 131.196L14.1823 143.029C14.6549 143.676 15.5712 143.792 16.1885 143.28L20.9822 139.261C21.5416 138.798 21.6477 137.977 21.2137 137.378V137.397Z" fill="#A4BAC3"/>
<path d="M14.2884 125.313L19.873 133.63C17.1048 137.774 12.7934 133.813 7.65251 138.073C6.63011 138.972 5.61736 139.667 4.61426 140.198C4.61426 140.198 5.26049 136.45 10.0638 132.017C11.5395 130.655 12.7548 128.694 14.2884 125.313Z" fill="#231612"/>
<g style="mix-blend-mode:multiply" opacity="0.57">
<path d="M17.7321 128.491C18.0407 129.215 18.4073 129.93 18.8316 130.635C25.4772 141.715 42.8386 152.157 62.2352 139.638C78.0244 129.457 83.7633 106.631 77.1178 95.5417C72.7581 88.2776 63.2576 86.9543 52.7057 89.6107L51.7894 87.3696C51.7894 87.3696 33.0969 88.5578 19.9408 101.608C12.051 109.432 12.9191 119.952 17.7321 128.491ZM26.3356 123.845C22.5451 117.556 24.5513 110.485 30.6856 104.158C32.904 102.072 35.5661 100.082 38.6333 98.2368C43.591 95.2616 48.5775 92.7114 53.4677 91.7165L53.4001 91.3301C61.7433 89.2726 69.228 90.3448 72.681 96.0634C77.9666 104.844 73.4044 122.917 60.8559 130.983C45.4332 140.894 31.6212 132.625 26.3356 123.845Z" fill="#231612"/>
</g>
<path d="M21.117 100.449C34.2731 87.3986 52.9656 86.2104 52.9656 86.2104L54.9139 90.9823C50.0238 91.9773 44.7671 94.1024 39.8095 97.0776C33.5015 100.855 28.8621 105.279 26.4026 109.848C22.9689 115.054 22.3516 120.522 25.3513 125.496C28.2834 130.365 33.8391 135.06 40.8319 136.605C38.2662 140.092 35.4498 141.812 32.4309 140.382C19.1397 134.055 7.95127 113.489 21.117 100.449Z" fill="#124D63"/>
<path d="M20.3845 129.447C26.7214 140.015 43.2726 149.964 61.7722 138.035C76.8188 128.327 82.2972 106.563 75.9603 95.9957C69.6234 85.428 51.8858 87.9878 36.5403 97.2224C21.1947 106.457 14.0476 118.879 20.3845 129.447ZM39.81 97.0775C52.6092 89.4077 67.3954 87.2826 72.6906 96.0633C77.9762 104.844 73.414 122.917 60.8655 130.983C45.4428 140.894 31.6308 132.625 26.3453 123.845C21.05 115.064 27.0204 104.747 39.8196 97.0775H39.81Z" fill="#124D63"/>
<path d="M22.1014 98.7969C35.2575 85.7467 53.3809 83.4187 53.3809 83.4187L56.313 90.364C56.313 90.364 56.2841 90.5186 56.2455 90.7504C53.6895 91.1658 51.0178 91.9096 48.3171 92.9432C48.1725 93.0011 48.0374 93.0494 47.8927 93.1074C46.6389 93.6 45.385 94.141 44.1407 94.7495C43.9478 94.8461 43.7646 94.9427 43.5717 95.0393C42.3081 95.6769 41.0446 96.3434 39.81 97.0872C37.4084 98.5265 35.2478 100.062 33.3574 101.656C32.0938 102.719 30.9557 103.82 29.943 104.931C25.3904 109.944 23.4324 115.383 24.8696 120.502C25.1879 121.642 25.6701 122.763 26.3356 123.854C26.6829 124.434 27.0783 125.013 27.5027 125.583C27.6281 125.747 27.7631 125.912 27.8885 126.076C28.2068 126.482 28.5348 126.887 28.882 127.283C29.0459 127.467 29.2196 127.631 29.3835 127.815C29.7404 128.191 30.0973 128.558 30.4831 128.916C30.6567 129.08 30.8496 129.235 31.0329 129.399C31.438 129.756 31.8624 130.114 32.2964 130.452C32.4797 130.597 32.6629 130.732 32.8558 130.867C33.3284 131.215 33.8203 131.543 34.3219 131.862C34.5051 131.978 34.6788 132.084 34.862 132.191C35.4118 132.509 35.9712 132.818 36.5499 133.099C36.7139 133.176 36.8682 133.263 37.0322 133.33C37.6688 133.63 38.3343 133.9 39.0191 134.142C39.1349 134.18 39.241 134.229 39.3567 134.267C40.1573 134.538 40.9771 134.779 41.8162 134.963C39.2506 138.45 36.4342 140.169 33.4152 138.74C20.1241 132.413 8.93565 111.847 22.1014 98.8066V98.7969Z" fill="#80949E"/>
<g style="mix-blend-mode:multiply" opacity="0.57">
<path d="M105.552 72.7157C104.559 72.9185 103.556 73.1794 102.533 73.5174C98.5979 74.8408 95.1545 77.0239 92.7143 79.69C91.8269 80.4628 91.0071 81.2742 90.3223 82.1436C90.2933 82.1822 88.7597 82.6459 88.7597 82.6459L85.4707 75.5267C85.4707 75.5267 96.8424 69.4893 105.552 72.706V72.7157Z" fill="#231612"/>
</g>
<g style="mix-blend-mode:multiply" opacity="0.57">
<path d="M84.1777 94.0541C82.6731 89.514 83.6955 85.1671 86.2997 81.4482C89.2897 77.5939 94.0159 74.4835 99.3979 72.6482C101.751 71.8464 104.037 71.3731 106.207 71.1992C106.294 71.2475 106.391 71.2765 106.478 71.3248C106.574 71.4117 106.805 71.7595 106.854 71.914C106.362 71.9623 105.6 72.1169 105.108 72.2425C96.3211 74.4159 87.5729 81.1777 88.8171 89.6106C90.0613 98.0435 100.507 106.737 110.094 105.704C115.187 105.153 118.65 102.526 120.849 99.0385C121.418 99.7919 121.929 100.372 122.411 100.797C121.997 101.743 121.524 102.651 120.955 103.511C118.93 106.245 116.055 108.428 112.052 109.616C101.095 112.852 87.38 103.714 84.1777 94.0541Z" fill="#231612"/>
</g>
<path d="M102.533 73.5176C98.144 74.9955 94.2859 77.507 91.8457 80.6271C91.6238 80.9459 91.4213 81.2646 91.2284 81.5834C91.1995 81.6124 91.1705 81.6414 91.1416 81.68C91.1127 81.7186 89.5791 82.1823 89.5791 82.1823L86.29 75.0631C86.29 75.0631 98.2983 68.6587 107.085 72.4936C105.609 72.6868 104.105 72.9863 102.542 73.5079L102.533 73.5176Z" fill="#124D63"/>
<path d="M86.2812 75.0632L86.9853 74.0103L89.5703 79.7288L86.2812 75.0632Z" fill="#124D63"/>
<path d="M108.108 72.3778C107.432 72.4261 106.748 72.5034 106.053 72.6193C105.802 72.6676 105.542 72.7256 105.291 72.7835C104.384 72.9767 103.468 73.1989 102.533 73.5177C98.144 74.9956 94.2859 77.5071 91.8457 80.6272C91.8168 80.6658 90.2832 81.1295 90.2832 81.1295L86.9941 74.0103C86.9941 74.0103 100.594 66.7559 109.439 72.3102C109.005 72.3102 108.561 72.3392 108.117 72.3778H108.108Z" fill="#80949E"/>
<path d="M109.429 72.3102C108.995 72.3102 108.551 72.3392 108.107 72.3778C106.873 71.3925 101.51 68.2725 86.9844 74.0103C86.9844 74.0103 100.584 66.7559 109.429 72.3102Z" fill="white"/>
<path d="M118.476 75.6136C118.322 75.4591 118.138 75.3431 117.965 75.1982C118.138 75.3335 118.302 75.4687 118.476 75.6136Z" fill="#124D63"/>
<path d="M110.114 72.3486C109.757 72.339 109.419 72.2907 109.053 72.3003C109.41 72.3003 109.766 72.3197 110.114 72.3486Z" fill="#124D63"/>
<path d="M100.555 73.7204C103.449 72.7447 106.227 72.2811 108.802 72.3004C106.825 72.3873 104.712 72.793 102.533 73.5272C98.144 75.0051 94.2859 77.5166 91.8457 80.6367C89.7141 83.6505 88.8846 87.157 90.1095 90.8277C92.7234 98.6327 103.922 106.013 112.853 103.395C116.113 102.439 118.467 100.671 120.116 98.4588C123.559 93.2716 123.386 85.9495 121.621 80.685C120.984 78.782 120.029 77.2075 118.852 75.9614C120.502 77.4973 121.804 79.4969 122.653 82.018C125.681 91.0499 124.707 105.298 111.995 109.017C101.645 112.04 88.6917 103.492 85.6631 94.4597C82.6345 85.4279 90.341 77.1592 100.555 73.73V73.7204Z" fill="#124D63"/>
<path d="M86.0586 93.5999C89.0872 102.632 102.041 111.181 112.39 108.157C125.102 104.438 126.077 90.1901 123.048 81.1582C120.019 72.1264 111.165 69.4314 100.951 72.8702C90.7365 76.3091 83.03 84.5778 86.0586 93.6096V93.5999ZM91.8361 80.627C94.2763 77.5165 98.1344 74.9954 102.523 73.5174C111.348 70.5519 118.997 72.8799 121.611 80.6753C123.376 85.9398 123.55 93.2618 120.106 98.4491C118.457 100.652 116.103 102.429 112.843 103.385C103.902 106.003 92.7138 98.6133 90.1 90.8179C88.8654 87.1473 89.7045 83.6408 91.8361 80.627Z" fill="#80949E"/>
<path d="M21.3388 127.805C27.4443 137.986 43.3878 147.569 61.2026 136.074C75.6994 126.723 80.9753 105.752 74.8699 95.5802C68.7644 85.3988 51.6827 87.8621 36.8966 96.7586C22.1104 105.655 15.2238 117.624 21.3388 127.805ZM39.8094 97.0774C52.6087 89.4076 67.3948 87.2825 72.69 96.0632C77.9756 104.844 73.4134 122.917 60.865 130.983C45.4423 140.894 31.6303 132.625 26.3447 123.844C21.0495 115.064 27.0199 104.747 39.8191 97.0774H39.8094Z" fill="#80949E"/>
<path d="M122.585 81.2743C119.759 72.8414 111.84 69.9338 102.494 72.3874C112.043 69.7116 120.174 72.5709 123.048 81.1391C126.077 90.1709 125.103 104.419 112.39 108.138C112.313 108.157 112.226 108.167 112.139 108.196C124.64 104.38 125.594 90.2578 122.585 81.2743Z" fill="white"/>
<g style="mix-blend-mode:multiply" opacity="0.69">
<path d="M91.8363 80.6271C92.5115 79.7674 93.3024 78.9753 94.1705 78.2122C93.7847 78.6179 93.3603 79.0043 93.0227 79.4389C90.8911 82.4528 90.0616 85.9689 91.2865 89.6299C93.9004 97.435 105.099 104.815 114.03 102.197C116.219 101.56 117.965 100.526 119.393 99.2703C117.801 101.086 115.689 102.555 112.844 103.385C103.903 106.003 92.714 98.6134 90.1002 90.8181C88.8656 87.1474 89.7047 83.6409 91.8363 80.6271Z" fill="#73C8F4"/>
</g>
<g style="mix-blend-mode:multiply" opacity="0.69">
<path d="M27.6862 107.761C24.8215 112.659 24.4357 117.749 27.2425 122.396C32.5377 131.176 46.34 139.445 61.7628 129.534C65.2543 127.293 68.0997 124.26 70.3181 120.879C68.0032 124.849 64.8299 128.423 60.8368 130.983C45.4141 140.894 31.6021 132.625 26.3165 123.845C23.2301 118.725 23.992 113.093 27.6765 107.761H27.6862Z" fill="#73C8F4"/>
</g>
<path d="M73.9542 95.619C68.2828 86.1621 52.4164 88.4515 38.6816 96.7202C28.477 102.864 22.333 110.582 22.1786 118.02C22.0918 110.437 28.2744 102.535 38.6816 96.2662C52.4164 87.9975 68.2828 85.7081 73.9542 95.165C75.4299 97.6282 76.1726 100.777 76.2594 104.235C76.1244 100.961 75.3721 97.9856 73.9542 95.6286V95.619Z" fill="white"/>
<g style="mix-blend-mode:hard-light" opacity="0.69">
<path d="M26.3347 123.845C31.6299 132.625 45.4323 140.894 60.855 130.983C73.4034 122.917 77.9753 104.834 72.68 96.0633C67.3848 87.2827 52.5987 89.4078 39.7994 97.0776C27.0002 104.747 21.0395 115.074 26.325 123.845H26.3347Z" fill="#73C8F4"/>
</g>
<path d="M22.0915 98.7969C35.2476 85.7467 53.3709 83.4187 53.3709 83.4187L55.6665 88.7798L53.1877 83.9403C53.1877 83.9403 36.376 86.9928 24.1362 98.1304C13.1696 108.109 18.243 122.009 19.4294 124.81C15.0311 116.436 14.4717 106.351 22.1011 98.7873L22.0915 98.7969Z" fill="white"/>
<path d="M73.7997 83.3608C73.2499 82.2403 72.0057 81.7187 71.0315 82.2017L70.3467 80.8493L75.8445 78.7725L76.6643 80.376C75.9506 80.9652 75.7287 82.0471 76.211 83.0324C76.7029 84.037 77.7446 84.52 78.6609 84.2688L79.5579 86.0269L73.9154 87.8429L73.1052 86.2297C74.0312 85.7274 74.3591 84.462 73.819 83.3608H73.7997Z" fill="#124D63"/>
<path d="M76.9823 79.6611L76.6641 80.3759L75.333 80.5595L76.9823 79.6611Z" fill="#124D63"/>
<path d="M79.8564 85.312L79.5477 86.0268L73.9053 87.8332L74.2139 87.128L79.8564 85.312Z" fill="#124D63"/>
<path d="M73.0957 86.22L73.4044 85.5149L74.2146 87.1281L73.9059 87.8332L73.0957 86.22Z" fill="#124D63"/>
<path d="M71.3498 81.4772L71.0411 82.192L70.3467 80.8397L70.665 80.1345L71.3498 81.4772Z" fill="#124D63"/>
<path d="M74.118 82.6459C73.5683 81.5254 72.4398 81.197 71.3498 81.4771L70.665 80.1247L76.3557 78.4536L76.9827 79.6514C75.9603 80.1634 76.0374 81.3225 76.5293 82.3078C77.0212 83.3124 78.0629 83.7954 78.9792 83.5443L79.8762 85.3023L74.2338 87.1184L73.4236 85.5052C74.3495 85.0029 74.6774 83.7375 74.1373 82.6363L74.118 82.6459Z" fill="#9AB0BB"/>
<path d="M69.1793 81.1294L72.5937 88.2776L69.7869 89.0793L66.5654 81.7669L69.1793 81.1294Z" fill="#124D63"/>
<path d="M83.8015 78.2217C90.8908 74.4544 97.4592 72.3293 103.989 72.1458L104.394 73.0248C103.777 73.1793 103.169 73.3049 102.542 73.5174C100.642 74.155 98.877 75.0243 97.247 76.0096C94.0255 76.85 89.9552 78.3569 85.2001 81.0906C82.5766 82.5975 83.2035 84.8483 83.2035 84.8483L80.7729 82.385L79.4805 77.9222C81.6024 79.1587 83.8208 78.212 83.8208 78.212L83.8015 78.2217Z" fill="#124D63"/>
<path d="M83.7151 77.7774C90.8044 74.0101 97.3728 71.885 103.903 71.7014L104.491 72.9958C103.845 73.16 103.198 73.2953 102.533 73.5174C101.694 73.7976 100.893 74.1453 100.102 74.5027C99.6008 74.7249 99.1186 74.9567 98.6363 75.2079C95.2219 75.942 90.6211 77.4779 85.0944 80.6463C82.4709 82.1532 83.1075 84.259 83.1075 84.259L80.6576 81.9407L79.3555 77.4876C81.4774 78.724 83.7055 77.7774 83.7055 77.7774H83.7151Z" fill="#9AB0BB"/>
<path d="M87.3999 92.7016C90.2453 101.192 102.418 109.22 112.14 106.38C124.09 102.883 125.007 89.4945 122.161 81.0037C119.316 72.5128 110.992 69.982 101.395 73.2083C91.7982 76.4346 84.5546 84.2107 87.3999 92.6919V92.7016ZM91.8367 80.6269C94.277 77.5165 98.1351 74.9953 102.524 73.5174C111.349 70.5519 118.998 72.8799 121.612 80.6752C123.377 85.9398 123.55 93.2618 120.107 98.4491C118.458 100.651 116.104 102.429 112.844 103.385C103.903 106.003 92.7145 98.6133 90.1006 90.8179C88.866 87.1472 89.7051 83.6408 91.8367 80.6269Z" fill="#124D63"/>
<g style="mix-blend-mode:hard-light" opacity="0.69">
<path d="M90.1002 90.8181C88.8656 87.1474 89.7047 83.641 91.8363 80.6271C94.2766 77.5167 98.1347 74.9955 102.523 73.5176C111.349 70.5521 118.997 72.8801 121.611 80.6754C123.376 85.94 123.55 93.262 120.107 98.4493C118.457 100.652 116.104 102.429 112.844 103.385C103.903 106.003 92.714 98.6135 90.1002 90.8181Z" fill="#73C8F4"/>
</g>
<path d="M88.0268 91.8034C90.8721 100.294 103.044 108.321 112.767 105.481C124.717 101.985 125.634 88.5963 122.779 80.1055C119.933 71.6146 111.609 69.0838 102.012 72.3101C92.4154 75.5364 85.1718 83.3125 88.0171 91.7937L88.0268 91.8034ZM91.8366 80.6271C94.2769 77.5167 98.135 74.9955 102.524 73.5176C111.349 70.552 118.998 72.88 121.611 80.6754C123.377 85.9399 123.55 93.262 120.107 98.4492C118.457 100.652 116.104 102.429 112.844 103.385C103.903 106.003 92.7143 98.6135 90.1005 90.8181C88.8659 87.1474 89.705 83.6409 91.8366 80.6271Z" fill="#A6A9AB"/>
<path d="M89.7432 85.3604C89.8013 85.0707 89.8789 84.7905 89.9564 84.5007C89.8789 84.7809 89.8013 85.0707 89.7432 85.3604Z" fill="#124D63"/>
<path d="M89.5693 86.6547C89.5791 86.4132 89.6281 86.1717 89.6574 85.9302C89.6183 86.1717 89.5889 86.4132 89.5693 86.6547Z" fill="#124D63"/>
<path d="M89.5502 87.4663C89.5502 87.6402 89.5502 87.8237 89.5502 87.9976C89.5405 87.8141 89.5502 87.6402 89.5502 87.4663Z" fill="#124D63"/>
<path d="M91.0542 81.8828C90.8709 82.2112 90.6973 82.5493 90.543 82.8874C90.6973 82.5493 90.8613 82.2112 91.0542 81.8828Z" fill="#124D63"/>
<path d="M89.7237 89.3787C89.7139 89.3111 89.7139 89.2532 89.6943 89.1855C89.7041 89.2532 89.7041 89.3111 89.7237 89.3787Z" fill="#124D63"/>
<path d="M115.457 102.332C115.968 102.072 116.47 101.792 116.923 101.482C116.47 101.792 115.978 102.072 115.457 102.332Z" fill="#124D63"/>
<path d="M112.853 103.385C113.624 103.163 114.338 102.883 115.013 102.564C114.338 102.873 113.634 103.153 112.862 103.385C111.743 103.714 110.596 103.878 109.419 103.917C110.586 103.888 111.734 103.714 112.853 103.385Z" fill="#124D63"/>
<path d="M91.7976 80.6946C91.5661 81.0327 91.3539 81.3708 91.1514 81.7088C91.3539 81.3611 91.5661 81.023 91.7976 80.6946Z" fill="#124D63"/>
<path d="M120.116 98.4589C123.559 93.2716 123.386 85.9495 121.621 80.685C119.007 72.88 111.358 70.552 102.533 73.5272C98.1442 75.0051 94.3054 77.507 91.8555 80.6174C94.2571 77.2268 98.2985 74.4835 102.976 72.909C111.792 69.9434 119.441 72.2714 122.064 80.0668C124.09 86.0944 124.022 94.8075 118.814 99.9464C119.287 99.4828 119.721 98.9901 120.116 98.4589Z" fill="#124D63"/>
<g style="mix-blend-mode:hard-light" opacity="0.53">
<path d="M96.2535 84.8195C97.6327 89.8909 103.063 94.3633 109.014 92.7405C114.965 91.1177 119.18 84.0081 117.801 78.9368C116.422 73.8654 111.888 73.0733 105.937 74.6962C99.9862 76.319 94.8742 79.7579 96.2535 84.8195Z" fill="white"/>
</g>
<path d="M122.624 80.3471C119.788 71.8948 111.513 69.3737 101.954 72.5903C93.6692 75.382 87.149 81.5739 87.4191 88.6834C87.014 81.4579 93.6113 75.1502 102.022 72.3199C111.619 69.0935 119.933 71.6244 122.788 80.1152C125.103 87.0219 124.929 97.1549 118.361 102.584C124.746 97.1549 124.91 87.1668 122.624 80.3471Z" fill="white"/>
<path d="M77.5031 78.135L83.1841 84.8485L80.8982 85.6213L77.2812 78.8305L77.5031 78.135Z" fill="#124D63"/>
<path d="M79.3654 77.4878L83.1174 84.2689L81.1305 84.9161L77.5039 78.135L79.3654 77.4878Z" fill="#9AB0BB"/>
<path d="M72.5939 88.2775L72.8157 87.582L70.0089 88.3838L69.7871 89.0793L72.5939 88.2775Z" fill="#124D63"/>
<path d="M66.7776 81.0618L66.5654 81.7669L67.2502 82.076L67.6361 81.6027L66.7776 81.0618Z" fill="#124D63"/>
<path d="M77.8311 77.9996L77.7733 77.8837C77.6865 77.7195 77.5128 77.6036 77.3489 77.6036C77.2428 77.6229 75.8828 78.0093 75.8828 78.0093C75.8056 78.0382 75.767 78.0962 75.7478 78.1445C75.7092 78.2314 75.7285 78.328 75.7767 78.4343L75.8635 78.5985L75.2848 78.7724C75.1208 78.4536 75.1015 78.1735 75.198 77.932C75.2848 77.7098 75.4584 77.5456 75.6802 77.4587L77.0402 77.0723C77.5128 76.8984 78.0626 77.1399 78.3038 77.6132L78.4099 77.8257L77.8311 77.9996Z" fill="#B7CED6"/>
<path d="M79.5001 85.766L79.9727 86.6933C80.0788 86.8962 80.3199 87.0121 80.5032 86.9445L81.8342 86.4518C81.9114 86.4229 81.95 86.3649 81.9693 86.3166C82.0078 86.2297 81.9885 86.1234 81.9403 86.0268L81.487 85.1381C81.4098 84.8966 81.9885 84.7227 82.0561 84.9546L82.4612 85.7563C82.5865 86.0075 82.6058 86.2876 82.5094 86.5291C82.4226 86.7513 82.249 86.9155 82.0271 87.0024L80.7057 87.4951C80.5996 87.5337 80.4935 87.553 80.3874 87.553C80.0113 87.553 79.6255 87.3212 79.4422 86.9541L78.931 85.9399C78.8538 85.6984 79.4229 85.5148 79.5001 85.7563V85.766Z" fill="#B7CED6"/>
<path d="M70.9444 79.9992C70.7708 79.7771 70.5875 79.6901 70.4621 79.6901C70.4043 79.6901 70.3657 79.6901 70.3464 79.6998C70.3464 79.6998 70.1631 79.7288 69.2951 79.9896C69.0732 80.0572 68.9285 80.1538 68.8803 80.2504C68.8321 80.3566 68.8996 80.4822 68.9092 80.5015C68.9092 80.5112 68.3498 80.6658 68.3498 80.6658C68.2919 80.5402 68.2148 80.318 68.3305 80.0379C68.4463 79.7481 68.7067 79.5452 69.1311 79.4197C70.1245 79.1202 70.221 79.1202 70.221 79.1202C70.52 79.0333 71.1662 79.0912 71.5617 79.835L70.9347 79.9992H70.9444Z" fill="#B7CED6"/>
<path d="M72.4881 87.9975C72.9993 88.9055 73.4623 88.7799 74.4172 88.4612L74.6197 88.3935C74.9284 88.2969 74.9862 88.1424 74.9959 88.0941C75.0923 87.8333 74.8801 87.4372 74.8126 87.3213C74.7065 87.0412 75.2852 86.8576 75.3528 87.0798C75.4685 87.273 75.7386 87.7946 75.5553 88.2969C75.4781 88.5191 75.2949 88.8089 74.7933 88.9635L74.5908 89.0311C74.176 89.1663 73.7613 89.3016 73.3658 89.3016C72.8353 89.3016 72.3338 89.0407 71.8805 88.1907C71.813 87.9685 72.3917 87.785 72.4688 87.9975H72.4881Z" fill="#B7CED6"/>
<path d="M40.4277 93.5808L39.7236 91.5812C39.6368 91.3204 39.7333 91.0403 39.984 90.9051C41.8456 89.9487 49.9668 86.1621 63.7209 84.8484C67.5887 84.4814 66.5566 81.7573 66.5566 81.7573L68.9969 83.071L69.7878 89.0697C68.5146 86.7417 64.917 87.6208 64.917 87.6208C56.1012 88.3935 48.1728 90.3931 41.2861 93.803C40.9678 93.9285 40.5917 94.0155 40.4277 93.5711V93.5808Z" fill="#124D63"/>
<path d="M40.6296 92.8465L40.0123 91.0595C39.8869 90.6924 40.0316 90.2867 40.3788 90.1128C42.5394 89.0309 50.5835 85.4182 63.9421 84.1528C67.8099 83.7857 66.7875 81.0617 66.7875 81.0617L69.3531 80.4531L72.8157 87.582L70.009 88.3837C68.7358 86.0557 65.1381 86.9348 65.1381 86.9348C56.2742 87.7172 48.3169 89.7264 41.4012 93.1653C40.9768 93.3681 40.755 93.1653 40.6296 92.8562V92.8465Z" fill="#9AB0BB"/>
<path d="M51.7794 90.5572L49.9757 86.5871C49.7635 86.1138 49.2523 85.8723 48.7508 86.0075C47.6223 86.3263 45.5871 86.9252 43.9281 87.582C43.4073 87.7849 43.1662 88.3838 43.3591 88.9151L44.8541 92.9045L51.7697 90.5476L51.7794 90.5572Z" fill="#A4BAC3"/>
<path d="M74.6098 95.9281C68.5043 85.7468 51.4226 88.21 36.6365 97.1066C30.2899 100.932 25.4095 105.317 22.3809 109.886C25.3902 105.172 30.3768 100.642 36.9066 96.7106C51.6927 87.814 68.7648 85.3508 74.8798 95.5321C79.471 103.183 77.6287 116.909 70.2791 127.235C77.3972 116.957 79.143 103.472 74.6098 95.9281Z" fill="white"/>
<path d="M22.9884 125.912C28.7949 135.581 43.9475 144.69 60.8749 133.775C74.6483 124.888 79.6638 104.96 73.8574 95.2905C68.051 85.6211 51.8277 87.9588 37.7746 96.411C23.7311 104.863 17.182 116.242 22.9884 125.912ZM39.8097 97.0775C52.6089 89.4077 67.3951 87.2826 72.6903 96.0632C77.9759 104.844 73.4137 122.917 60.8653 130.983C45.4425 140.894 31.6306 132.625 26.345 123.845C21.0497 115.064 27.0201 104.747 39.8194 97.0775H39.8097Z" fill="#124D63"/>
<g style="mix-blend-mode:hard-light" opacity="0.53">
<path d="M40.8995 107.346C42.2499 113.354 48.3553 118.87 55.4059 117.286C62.447 115.701 67.7615 107.616 66.4111 101.608C65.0608 95.5996 59.8042 94.4308 52.7632 96.015C45.7221 97.5992 39.5588 101.337 40.8995 107.346Z" fill="white"/>
</g>
<path d="M24.1942 125.091C29.8656 134.547 44.6807 143.454 61.2319 132.78C74.6966 124.086 79.5964 104.612 73.925 95.1552C68.2536 85.6984 52.3872 87.9877 38.6524 96.2564C24.9176 104.525 18.5228 115.643 24.1942 125.091ZM39.8098 97.0775C52.609 89.4077 67.3952 87.2825 72.6904 96.0632C77.976 104.844 73.4138 122.917 60.8654 130.983C45.4426 140.894 31.6307 132.625 26.3451 123.844C21.0498 115.064 27.0202 104.747 39.8195 97.0775H39.8098Z" fill="#A6A9AB"/>
<path d="M72.0729 96.8554C66.7777 88.0748 51.9916 90.1999 39.1923 97.8697C34.5819 100.632 30.8685 103.752 28.2354 107.008C30.8878 103.463 34.8134 100.072 39.8096 97.0776C52.6088 89.4078 67.395 87.2827 72.6902 96.0633C76.7798 102.844 74.9569 115.161 68.1473 124.134C74.4746 115.238 76.0468 103.434 72.0826 96.8554H72.0729Z" fill="#124D63"/>
<path d="M19.7863 123.68C19.7863 123.68 20.2107 123.217 20.6254 123.854C21.0498 124.482 23.1814 127.67 23.1814 127.67C23.1814 127.67 23.4225 128.047 22.9596 128.375C22.4966 128.703 22.294 128.385 22.1397 128.191C21.995 127.989 19.6898 124.472 19.6898 124.472C19.6898 124.472 19.3426 124.018 19.7863 123.68Z" fill="#B6CED6"/>
<path d="M11.4814 124.212L11.6068 124.357L21.445 137.89C21.0109 134.074 22.6024 131.601 23.5959 130.452C24.0106 129.969 24.0492 129.293 23.702 128.761L23.374 128.269L22.3998 129.003L19.0722 123.999L19.9982 123.236L19.5738 122.589C19.2652 122.125 18.6382 122.077 18.2138 122.425C15.0598 124.946 11.4911 124.212 11.4911 124.212H11.4814ZM14.0374 125.786C14.0374 125.786 16.7092 125.815 18.0595 124.84L21.5511 129.93C21.5511 129.93 20.1043 131.833 19.8824 133.63L14.0374 125.786Z" fill="#A4BAC3"/>
<path d="M96.5996 112.745C100.014 123.487 94.333 129.495 91.8155 130.577C89.4428 131.591 81.1576 131.582 75.7466 121.69L72.1104 115.257L81.6977 107.452L94.3426 105.926C94.3426 105.926 96.5899 112.736 96.5899 112.745H96.5996Z" fill="#F07F23"/>
<path d="M93.166 111.142C96.5804 121.883 93.166 126.443 90.6486 127.525C88.2759 128.539 82.5273 128.124 77.126 118.232L73.4512 110.794L80.5501 104.399L90.4364 103.511C90.4364 103.511 93.1853 111.132 93.1853 111.142H93.166Z" fill="#970A0D"/>
<path d="M96.5226 106.689C96.1465 107.065 92.6356 110.833 91.0345 111.895C89.5781 112.852 73.9335 117.044 72.2938 117.083C72.0141 117.083 71.7633 117.073 71.5222 117.034C70.3648 116.841 69.6799 116.117 69.1784 114.774C68.3875 112.697 67.8859 102.892 78.4475 97.937C89.3176 93.6964 96.0596 100.835 97.0145 102.835C97.7572 104.39 97.6897 105.52 96.5323 106.689H96.5226Z" fill="#FFBD2E"/>
<path d="M88.8834 102.091C88.3819 104.042 86.6843 104.071 85.8163 103.945C82.7877 103.52 81.1576 104.293 81.1576 104.293C81.1576 104.293 79.4601 104.94 77.6853 107.432C77.1741 108.147 75.9878 109.355 74.2323 108.369C73.2582 107.828 72.4769 106.389 73.4607 104.641C75.5537 100.941 79.1321 99.5598 79.1321 99.5598C79.1321 99.5598 82.6044 97.908 86.7229 98.9512C88.6616 99.4439 89.1632 101.009 88.8834 102.091Z" fill="#FFD934"/>
<path d="M93.157 163.594C93.1763 170.607 91.4787 177.321 88.7588 183.851C81.4766 201.315 68.88 206.058 68.5134 206.194C66.6423 206.879 62.3598 207.169 60.7683 206.29C46.3584 198.34 36.1923 185.029 33.1251 174.326C30.492 165.15 34.4079 156.562 47.4097 164.029C51.7983 166.55 57.026 167.197 61.7811 165.488C69.9024 162.561 78.448 158.707 83.0006 156.494C84.4377 155.799 85.7688 154.939 87.0902 154.051C89.0964 152.698 93.1281 151.51 93.157 163.604V163.594Z" fill="#333A93"/>
</g>
</g>
<defs>
<filter id="filter0_d_2557_47200" x="0" y="0" width="186" height="188.339" filterUnits="userSpaceOnUse" color-interpolation-filters="sRGB">
<feFlood flood-opacity="0" result="BackgroundImageFix"/>
<feColorMatrix in="SourceAlpha" type="matrix" values="0 0 0 0 0 0 0 0 0 0 0 0 0 0 0 0 0 0 127 0" result="hardAlpha"/>
<feOffset dy="2.33878"/>
<feComposite in2="hardAlpha" operator="out"/>
<feColorMatrix type="matrix" values="0 0 0 0 0.529412 0 0 0 0 0.529412 0 0 0 0 0.529412 0 0 0 1 0"/>
<feBlend mode="normal" in2="BackgroundImageFix" result="effect1_dropShadow_2557_47200"/>
<feBlend mode="normal" in="SourceGraphic" in2="effect1_dropShadow_2557_47200" result="shape"/>
</filter>
<clipPath id="clip0_2557_47200">
<rect width="186" height="186" fill="white"/>
</clipPath>
<clipPath id="clip1_2557_47200">
<rect width="263.112" height="180.086" fill="white" transform="translate(-105.245 35.0815)"/>
</clipPath>
</defs>
</svg>
