<svg width="186" height="189" viewBox="0 0 186 189" fill="none" xmlns="http://www.w3.org/2000/svg">
<g clip-path="url(#clip0_2557_47101)" filter="url(#filter0_d_2557_47101)">
<rect width="186" height="186" fill="#C9E1FB"/>
<g clip-path="url(#clip1_2557_47101)">
<path d="M125.504 130.49C125.291 133.79 124.939 137.614 124.404 141.716C123.655 147.515 122.509 153.868 120.797 160.16C118.092 170.107 113.278 180.656 106.278 190.556C106.018 190.911 105.758 191.281 105.498 191.636C103.756 194.026 102.044 196.231 100.348 198.251C93.2105 206.764 86.5927 212.038 80.9531 215.307C72.4249 220.242 62.0933 220.196 62.0933 220.196C62.0933 220.196 51.7769 220.258 43.2335 215.307C37.1048 211.761 29.8451 205.87 22.02 196.031C22.234 195.784 22.3409 195.599 22.3409 195.599C22.3409 195.599 46.5041 155.889 34.7817 128.701C28.4543 114.05 24.0068 123.334 22.3409 126.064C18.1533 132.942 12.6207 139.557 1.15804 150.291C1.15804 150.244 1.14275 150.214 1.12747 150.167C0.867652 148.764 0.623116 147.376 0.409147 146.019C-1.95979 131.029 -1.66941 118.584 -1.66941 118.584C-1.65412 88.3274 19.0703 62.9437 46.9779 56.112C47.1613 56.0503 47.681 55.8653 47.6351 55.4026C47.0085 49.049 38.6637 44.3609 37.869 43.9291C37.0742 43.4973 37.762 42.5566 38.358 42.6491C38.358 42.6491 49.2399 41.4154 55.7659 53.4133C55.8576 53.5829 56.8816 55.1713 56.6065 53.8142C53.6262 39.3952 60.4427 32.4864 60.4427 32.4864C60.4427 32.4864 61.9863 30.9905 61.9405 33.0107C61.8946 34.5991 61.3903 44.2684 67.3814 53.5983C68.1456 54.7858 68.115 54.0918 68.1456 53.5212C68.6346 43.2814 74.7022 39.0559 75.2371 38.6549C75.5122 38.439 76.6279 38.0227 76.4139 39.0868C76.1847 40.2742 73.7699 47.4143 77.0864 53.7988C78.1868 55.9115 79.8833 56.806 80.0055 56.8522C106.492 64.6555 125.841 89.3452 125.856 118.584C125.856 118.584 125.963 123.334 125.489 130.49H125.504Z" fill="#2A5AA4"/>
<path d="M22.3558 195.599C22.3558 195.599 22.2488 195.784 22.0348 196.031C20.9344 194.643 19.8187 193.193 18.703 191.651C11.2905 181.427 6.23169 170.477 3.41952 160.176C2.5178 156.876 1.78419 153.56 1.17285 150.306C12.6355 139.588 18.1681 132.957 22.3558 126.079C24.0217 123.349 28.4692 114.05 34.7965 128.716C46.5189 155.904 22.3558 195.614 22.3558 195.614V195.599Z" fill="#2A5AA4"/>
<path d="M82.2678 201.69C71.1567 209.262 62.2617 208.568 62.2617 208.568C62.2617 208.568 53.3667 209.262 42.2556 201.69C19.2998 186.053 16.1208 164.663 17.8631 153.807C19.8042 141.47 28.1184 135.64 28.1184 135.64C49.072 133.25 54.0239 116.194 54.0239 116.194H70.53C70.53 116.194 75.4819 133.25 96.4355 135.64C96.4355 135.64 104.734 141.47 106.691 153.807C108.433 164.679 105.269 186.053 82.2983 201.69H82.2678Z" fill="#C7DAFA"/>
<path d="M46.7329 104.782C46.687 109.886 44.6085 114.497 41.3072 117.859C40.864 116.518 40.2679 115.253 39.5496 114.066C36.2942 108.714 30.4712 105.137 23.7618 105.06C21.9889 105.044 20.2619 105.275 18.6112 105.738C15.4476 106.633 12.6048 108.344 10.3582 110.642C9.70097 108.668 9.34945 106.555 9.36474 104.35C9.47172 93.987 17.9541 85.5823 28.194 85.6902C38.5715 85.7982 46.8398 94.3108 46.7329 104.767V104.782Z" fill="white"/>
<path d="M43.5086 105.862C41.5676 105.769 39.9322 106.355 39.1833 108.36C38.4956 110.195 39.2139 111.66 40.6047 112.94C40.2837 113.341 39.9169 113.726 39.5349 114.081C36.2795 108.73 30.4565 105.152 23.747 105.075C21.9741 105.06 20.2471 105.291 18.5965 105.754C18.3672 102.731 19.1925 99.8472 20.6903 97.9195C22.3562 98.9528 24.0833 99.2303 25.7033 97.8116C27.1705 96.5162 27.2317 94.8815 26.605 93.0926C31.1901 91.1804 36.3712 92.337 39.81 95.6834C40.6353 96.4853 41.3536 97.4106 41.9496 98.4439C43.2487 100.726 43.7378 103.332 43.4933 105.862H43.5086Z" fill="black"/>
<path d="M77.5293 104.782C77.5752 109.886 79.6537 114.497 82.955 117.859C83.3982 116.518 83.9943 115.253 84.7126 114.066C87.968 108.714 93.791 105.137 100.5 105.06C102.273 105.044 104 105.275 105.651 105.738C108.815 106.633 111.657 108.344 113.904 110.642C114.561 108.668 114.913 106.555 114.897 104.35C114.79 93.987 106.308 85.5823 96.0682 85.6902C85.6907 85.7982 77.4224 94.3108 77.5293 104.767V104.782Z" fill="white"/>
<path d="M80.7701 105.862C82.7111 105.769 84.3464 106.355 85.0953 108.36C85.7831 110.195 85.0648 111.66 83.674 112.94C83.9949 113.341 84.3617 113.726 84.7438 114.081C87.9992 108.73 93.8222 105.152 100.532 105.075C102.305 105.06 104.032 105.291 105.682 105.754C105.911 102.731 105.086 99.8472 103.588 97.9195C101.922 98.9528 100.195 99.2303 98.5754 97.8116C97.1082 96.5162 97.047 94.8815 97.6737 93.0926C93.0886 91.1804 87.9075 92.337 84.4687 95.6834C83.6434 96.4853 82.9251 97.4106 82.329 98.4439C81.0299 100.726 80.5409 103.332 80.7854 105.862H80.7701Z" fill="black"/>
<path d="M161.375 30.1577C161.375 44.2837 145.938 51.4084 145.938 51.4084C145.938 51.4084 130.502 44.2837 130.502 30.1577C130.502 22.6628 135.958 22.4469 140.039 24.4826C143.661 26.2869 145.938 29.988 145.938 29.988C145.938 29.988 148.231 26.2869 151.838 24.4826C155.918 22.4469 161.375 22.6783 161.375 30.1577Z" fill="#FC8DAF"/>
<path d="M2.07509 63.3139C2.07509 71.7494 -7.14085 76.0057 -7.14085 76.0057C-7.15613 76.0057 -16.3721 71.7494 -16.3721 63.3139C-16.3721 58.8417 -13.1167 58.7029 -10.6713 59.9212C-8.51636 61.0007 -7.14085 63.2059 -7.14085 63.2059C-7.14085 63.2059 -5.78062 61.0007 -3.61036 59.9212C-1.18029 58.7029 2.09038 58.8417 2.09038 63.3139H2.07509Z" fill="#FC8DAF"/>
<path d="M123.884 45.9184C123.884 56.6517 112.162 62.0646 112.162 62.0646C112.162 62.0646 100.439 56.6517 100.439 45.9184C100.439 40.2279 104.581 40.0582 107.684 41.6004C110.435 42.9729 112.162 45.7796 112.162 45.7796C112.162 45.7796 113.904 42.9729 116.64 41.6004C119.742 40.0582 123.884 40.2279 123.884 45.9184Z" fill="#FC8DAF"/>
<path d="M37.8535 160.453C40.2929 160.453 42.2704 158.948 42.2704 157.091C42.2704 155.235 40.2929 153.729 37.8535 153.729C35.414 153.729 33.4365 155.235 33.4365 157.091C33.4365 158.948 35.414 160.453 37.8535 160.453Z" fill="#395E95"/>
<path d="M62.1083 160.53C64.5477 160.53 66.5253 159.025 66.5253 157.169C66.5253 155.312 64.5477 153.807 62.1083 153.807C59.6689 153.807 57.6914 155.312 57.6914 157.169C57.6914 159.025 59.6689 160.53 62.1083 160.53Z" fill="#395E95"/>
<path d="M86.3632 160.453C88.8026 160.453 90.7801 158.948 90.7801 157.091C90.7801 155.235 88.8026 153.729 86.3632 153.729C83.9238 153.729 81.9463 155.235 81.9463 157.091C81.9463 158.948 83.9238 160.453 86.3632 160.453Z" fill="#395E95"/>
<path d="M62.1845 191.234C64.6239 191.234 66.6014 189.729 66.6014 187.873C66.6014 186.016 64.6239 184.511 62.1845 184.511C59.7451 184.511 57.7676 186.016 57.7676 187.873C57.7676 189.729 59.7451 191.234 62.1845 191.234Z" fill="#395E95"/>
<path d="M74.1972 175.89C76.6366 175.89 78.6141 174.385 78.6141 172.528C78.6141 170.671 76.6366 169.166 74.1972 169.166C71.7578 169.166 69.7803 170.671 69.7803 172.528C69.7803 174.385 71.7578 175.89 74.1972 175.89Z" fill="#395E95"/>
<path d="M50.0185 175.89C52.4579 175.89 54.4354 174.385 54.4354 172.528C54.4354 170.671 52.4579 169.166 50.0185 169.166C47.5791 169.166 45.6016 170.671 45.6016 172.528C45.6016 174.385 47.5791 175.89 50.0185 175.89Z" fill="#395E95"/>
<path d="M95.7478 72.8289C78.7832 72.8289 64.9822 86.4923 64.5543 103.502H59.6635C59.2356 86.4923 45.4346 72.8135 28.47 72.8135C11.5053 72.8135 -2.72363 86.9087 -2.72363 104.289C-2.72363 121.669 11.2455 135.764 28.47 135.764C44.6246 135.764 57.9059 123.38 59.5107 107.512L64.7071 107.45C66.266 123.365 79.5779 135.779 95.7478 135.779C112.972 135.779 126.941 121.684 126.941 104.304C126.941 86.9241 112.972 72.8289 95.7478 72.8289ZM28.47 130.906C13.9048 130.906 2.10595 118.985 2.10595 104.304C2.10595 89.6228 13.9201 77.7021 28.47 77.7021C43.0198 77.7021 54.834 89.6228 54.834 104.304C54.834 118.985 43.0198 130.906 28.47 130.906ZM95.7478 130.921C81.1827 130.921 69.3838 119.001 69.3838 104.319C69.3838 89.6383 81.198 77.7175 95.7478 77.7175C110.298 77.7175 122.112 89.6383 122.112 104.319C122.112 119.001 110.298 130.921 95.7478 130.921Z" fill="#EF9525"/>
<path d="M101.953 194.966C101.953 194.966 102.06 195.152 102.274 195.398C102.9 196.154 104.429 197.48 106.568 195.969C127.247 181.288 127.247 157.724 127.048 152.295C126.88 147.669 124.572 145.834 123.885 145.387C123.671 146.744 123.426 148.132 123.166 149.535V149.674C123.166 149.674 123.151 149.674 123.136 149.674C111.673 138.956 106.14 132.325 101.953 125.447C100.287 122.717 95.8393 113.418 89.512 128.084C77.7895 155.272 101.953 194.982 101.953 194.982V194.966Z" fill="#333A93"/>
<path d="M22.3559 195.599C22.3559 195.599 22.2489 195.784 22.035 196.031C21.4084 196.786 19.88 198.113 17.7403 196.601C-2.93823 181.92 -2.93823 158.356 -2.73955 152.928C-2.57143 148.301 -0.263623 146.466 0.424134 146.019C0.638102 147.376 0.882638 148.764 1.14246 150.167V150.306C1.14246 150.306 1.15774 150.306 1.17302 150.306C12.6356 139.588 18.1683 132.957 22.3559 126.079C24.0218 123.349 28.4693 114.05 34.7967 128.716C46.5191 155.904 22.3559 195.614 22.3559 195.614V195.599Z" fill="#333A93"/>
<path d="M73.7388 128.068C72.6384 140.606 64.8591 144.261 62.0622 144.261C59.4182 144.261 51.6389 140.591 50.5232 128.068L49.6826 119.864L61.8483 116.071L74.3502 120.065L73.7235 128.053L73.7388 128.068Z" fill="#F08005"/>
<path d="M71.1412 124.923C70.0408 137.46 64.982 140.622 62.1851 140.622C59.541 140.622 54.3141 137.661 53.1984 125.123L52.7246 115.87L61.9711 112.431L71.6303 115.87C71.6303 115.87 71.1412 124.907 71.1412 124.923Z" fill="#970601"/>
<path d="M74.7632 121.884C74.2894 122.085 73.1432 122.409 71.6913 122.779C68.6498 123.55 64.294 124.46 62.1085 124.46C58.8837 124.46 50.921 122.47 49.4691 121.884C49.2245 121.776 48.9953 121.668 48.8119 121.545C47.8643 120.928 47.5433 120.018 47.5892 118.646C47.6809 116.502 50.9363 107.589 62.1238 107.219C73.3113 107.589 76.5667 116.502 76.6584 118.646C76.7195 120.311 76.2457 121.283 74.7785 121.884H74.7632Z" fill="#FDBD00"/>
<path d="M69.7504 114.883C68.5736 116.425 67.0605 115.809 66.3422 115.361C63.8357 113.835 62.0934 113.896 62.0934 113.896C62.0934 113.896 60.3511 113.819 57.8446 115.361C57.1263 115.809 55.6285 116.425 54.4364 114.883C53.7792 114.035 53.6264 112.447 55.1547 111.275C58.3948 108.776 62.0781 108.931 62.0781 108.931C62.0781 108.931 65.7614 108.792 69.0015 111.275C70.5299 112.447 70.3771 114.035 69.7199 114.883H69.7504Z" fill="#FFDA2C"/>
</g>
</g>
<defs>
<filter id="filter0_d_2557_47101" x="0" y="0" width="186" height="188.339" filterUnits="userSpaceOnUse" color-interpolation-filters="sRGB">
<feFlood flood-opacity="0" result="BackgroundImageFix"/>
<feColorMatrix in="SourceAlpha" type="matrix" values="0 0 0 0 0 0 0 0 0 0 0 0 0 0 0 0 0 0 127 0" result="hardAlpha"/>
<feOffset dy="2.33878"/>
<feComposite in2="hardAlpha" operator="out"/>
<feColorMatrix type="matrix" values="0 0 0 0 0.529412 0 0 0 0 0.529412 0 0 0 0 0.529412 0 0 0 1 0"/>
<feBlend mode="normal" in2="BackgroundImageFix" result="effect1_dropShadow_2557_47101"/>
<feBlend mode="normal" in="SourceGraphic" in2="effect1_dropShadow_2557_47101" result="shape"/>
</filter>
<clipPath id="clip0_2557_47101">
<rect width="186" height="186" fill="white"/>
</clipPath>
<clipPath id="clip1_2557_47101">
<rect width="177.747" height="211.659" fill="white" transform="translate(-16.3721 23.3877)"/>
</clipPath>
</defs>
</svg>
