<svg width="186" height="189" viewBox="0 0 186 189" fill="none" xmlns="http://www.w3.org/2000/svg">
<g clip-path="url(#clip0_2557_49274)" filter="url(#filter0_d_2557_49274)">
<rect width="186" height="186" fill="#D6F2DC"/>
<g clip-path="url(#clip1_2557_49274)">
<g clip-path="url(#clip2_2557_49274)">
<g filter="url(#filter1_i_2557_49274)">
<path d="M90.6137 110.137C90.6137 110.137 87.9142 112.283 87.5722 115.561C87.2302 118.838 88.9561 122.174 88.9561 122.174C99.0645 123.551 108.783 130.451 114.319 140.184C119.534 149.357 121.323 160.918 119.36 172.745C118.192 179.756 115.892 185.169 112.525 188.829C109.789 191.798 105.937 194.096 102.206 196.316L108.478 206.746C112.751 204.201 117.592 201.321 121.528 197.039C126.522 191.614 129.847 184.112 131.405 174.735C133.826 160.179 131.531 145.781 124.948 134.205C117.461 121.048 104.626 112.053 90.6137 110.142V110.137Z" fill="#F59971"/>
</g>
<g filter="url(#filter2_i_2557_49274)">
<path d="M-15.9902 88.5931C-15.9902 58.508 8.39864 34.1191 38.4838 34.1191C68.569 34.1191 92.9579 58.508 92.9579 88.5932V144.977C92.9579 171.71 71.2871 193.38 44.555 193.38H32.0493C5.5178 193.38 -15.9902 171.872 -15.9902 145.341V88.5931Z" fill="url(#paint0_linear_2557_49274)"/>
</g>
<path d="M-15.9902 91.6159C-15.9902 91.6159 19.1366 103.589 58.6011 103.314C90.9119 102.81 92.9579 100.266 92.9579 100.266V92.1248C60.4644 86.0543 18.1497 95.1879 -15.9902 91.6159Z" fill="black" fill-opacity="0.07"/>
<g filter="url(#filter3_i_2557_49274)">
<g clip-path="url(#clip3_2557_49274)">
<path d="M79.6494 52.6972L93.5172 40.1951C93.8253 39.9591 93.8608 39.4881 93.5979 39.1448C93.335 38.8014 92.8711 38.7154 92.5631 38.9514L77.0025 49.0732L79.6494 52.6972Z" fill="#F59971"/>
<path d="M89.4421 41.3501C89.4421 41.3501 85.9984 43.5478 85.8856 43.6577C85.7734 43.7687 87.1664 43.1728 87.5686 42.9896C87.9708 42.8064 89.278 41.9065 89.4058 41.7842C89.5336 41.662 89.4428 41.3511 89.4428 41.3511L89.4421 41.3501Z" fill="#DA8663"/>
<path d="M85.4039 43.6055L77.0961 49.0065L79.743 52.6305L93.5206 40.1937C93.8267 39.959 93.8608 39.4891 93.5979 39.1457C93.3351 38.8023 92.8727 38.7152 92.5666 38.9499L90.1011 40.5526C90.1011 40.5526 90.3737 41.261 90.8057 41.5942C90.8057 41.5942 87.7729 43.8908 87.3581 43.9934C86.781 44.1356 85.4046 43.6064 85.4046 43.6064L85.4039 43.6055Z" fill="#DA8663"/>
<path d="M82.1981 55.3313C85.7246 52.1175 86.1669 51.0276 86.8537 50.0964C88.2994 48.1521 83.3399 42.0998 81.508 42.5006C80.3858 42.8829 79.3479 43.1901 75.2695 45.845L82.1981 55.3313Z" fill="#DA8663"/>
<path d="M82.7417 43.1443C83.8311 43.8794 85.1317 45.2686 85.1473 45.8087C84.9156 46.0449 84.4577 46.4655 83.8274 47.0211C82.9054 45.9679 81.7992 45.0806 80.67 44.2398C81.2033 43.8199 82.6346 43.0633 82.7417 43.1443Z" fill="#F59971"/>
<path d="M82.8829 59.5427C84.5941 57.6052 85.2992 56.7128 85.6605 55.9795C87.1362 52.9795 79.3697 42.793 76.3167 43.2008C75.482 43.3126 73.7479 44.0236 71.4758 45.1787C71.4758 45.1787 73.6971 46.7336 77.6773 51.5188C81.6576 56.3041 82.6856 59.2247 82.6856 59.2247L82.8829 59.5427Z" fill="#C77756"/>
<path d="M79.0175 50.0045C77.8047 48.3994 76.0168 46.6198 75.0481 45.7691C75.4318 45.2572 77.8516 43.9864 78.1766 44.2326C79.0979 44.9323 80.6947 46.5466 81.7122 47.8925C80.8493 48.6402 79.9378 49.3274 79.0175 50.0045Z" fill="#F59971"/>
<path d="M97.0353 39.8376C96.6203 41.6556 94.8056 42.7729 92.9826 42.335C91.1598 41.8955 90.017 40.0665 90.4313 38.2475C90.8456 36.4286 92.6598 35.3086 94.4843 35.7484C96.3088 36.1883 97.4503 38.0197 97.036 39.8386L97.0353 39.8376Z" fill="#F59971"/>
<path d="M92.1167 37.9721C92.3731 38.6982 93.2155 39.0665 93.999 38.7945C94.7826 38.5225 95.2097 37.7133 94.955 36.9874C94.6987 36.2613 93.8563 35.8931 93.0727 36.1651C92.2892 36.4371 91.8621 37.2463 92.1167 37.9721Z" fill="#DA8663"/>
<path d="M90.673 39.103C91.1026 37.2148 92.9877 36.0525 94.8809 36.5084C95.2841 36.6054 95.6551 36.769 95.9852 36.9831C95.5795 36.5383 95.0408 36.2046 94.4131 36.0546C92.7583 35.6565 91.1118 36.6718 90.7371 38.3216C90.6744 38.5985 90.6524 38.8759 90.6651 39.1475C90.6682 39.1333 90.6706 39.1182 90.6737 39.104L90.673 39.103Z" fill="#DA8663"/>
<path d="M90.3567 39.258C90.4681 40.7 91.5008 41.9766 92.9822 42.3342C94.805 42.7737 96.619 41.6554 97.0349 39.8367C95.2832 41.7453 91.5942 41.6371 90.356 39.2571L90.3567 39.258Z" fill="#DA8663"/>
</g>
</g>
<path d="M38.2273 66.1749C42.1822 66.1749 45.3882 63.0996 45.3882 59.3059C45.3882 55.5122 42.1822 52.4368 38.2273 52.4368C34.2725 52.4368 31.0664 55.5122 31.0664 59.3059C31.0664 63.0996 34.2725 66.1749 38.2273 66.1749Z" fill="#DA8663"/>
<g filter="url(#filter4_i_2557_49274)">
<path d="M38.2278 65.1572C41.6176 65.1572 44.3657 62.5375 44.3657 59.3058C44.3657 56.0741 41.6176 53.4543 38.2278 53.4543C34.8379 53.4543 32.0898 56.0741 32.0898 59.3058C32.0898 62.5375 34.8379 65.1572 38.2278 65.1572Z" fill="white"/>
</g>
<path d="M40.7851 59.5604C40.7851 58.4364 39.7546 57.5251 38.4834 57.5251C37.2122 57.5251 36.1816 58.4364 36.1816 59.5604" stroke="black" stroke-width="2.95681" stroke-linecap="round"/>
<path d="M64.3142 65.6662C68.2691 65.6662 71.4751 62.5908 71.4751 58.7971C71.4751 55.0034 68.2691 51.928 64.3142 51.928C60.3594 51.928 57.1533 55.0034 57.1533 58.7971C57.1533 62.5908 60.3594 65.6662 64.3142 65.6662Z" fill="#DA8663"/>
<g filter="url(#filter5_i_2557_49274)">
<path d="M64.3137 64.6487C67.7036 64.6487 70.4516 62.0289 70.4516 58.7973C70.4516 55.5656 67.7036 52.9458 64.3137 52.9458C60.9238 52.9458 58.1758 55.5656 58.1758 58.7973C58.1758 62.0289 60.9238 64.6487 64.3137 64.6487Z" fill="white"/>
</g>
<path d="M66.87 59.0514C66.87 57.9273 65.8395 57.0161 64.5683 57.0161C63.2971 57.0161 62.2666 57.9273 62.2666 59.0514" stroke="black" stroke-width="2.95681" stroke-linecap="round"/>
<path d="M70.9631 44.8045C70.9631 46.7716 68.1006 48.3662 64.5694 48.3662C61.0383 48.3662 58.1758 46.7716 58.1758 44.8045" stroke="black" stroke-width="2.95681" stroke-linecap="round"/>
<path d="M26.75 69.2285C26.8521 69.2285 26.9536 69.2335 27.0537 69.2412C27.0013 69.4937 26.9746 69.7555 26.9746 70.0234C26.9747 72.0465 28.5438 73.7027 30.5371 73.8574C30.1743 75.6081 28.617 76.9248 26.75 76.9248C24.6141 76.9246 22.8828 75.2014 22.8828 73.0762C22.8829 70.9511 24.6142 69.2287 26.75 69.2285Z" fill="#FFC8C9"/>
<path d="M77.8193 68.2102C77.7171 68.2102 77.6159 68.2152 77.5156 68.2229C77.5681 68.4756 77.5957 68.7379 77.5957 69.0061C77.5955 71.0292 76.0257 72.6855 74.0322 72.8401C74.3952 74.5906 75.9525 75.9065 77.8193 75.9065C79.9552 75.9065 81.6863 74.184 81.6865 72.0588C81.6865 69.9335 79.9553 68.2102 77.8193 68.2102Z" fill="#FFC8C9"/>
<g filter="url(#filter6_i_2557_49274)">
<path d="M91.9214 84.9895C93.3323 85.9633 94.6946 86.9948 95.9654 88.1361C97.6616 89.6597 99.1586 91.4137 100.306 93.3509C96.8593 95.2043 90.5537 96.6808 79.348 97.5342C78.971 94.0001 78.481 90.4765 77.8779 86.9686C87.6675 86.8429 91.0006 86.2775 91.9161 84.9895H91.9214Z" fill="#FDF7FF"/>
<path d="M42.4682 86.6023C47.0614 86.6808 51.2184 86.7541 55.0147 86.8117C55.0093 90.6495 54.9986 94.4872 54.9932 98.325C50.9815 98.3354 46.6683 98.3093 41.9889 98.2412C35.9256 98.147 30.2985 98.0737 25.0322 97.9899C25.0753 94.126 25.113 90.2673 25.1561 86.4033C30.3093 86.4295 36.0495 86.4871 42.4682 86.597V86.6023Z" fill="#FDF7FF"/>
<path d="M91.9226 84.9896C92.138 84.686 92.2242 84.3456 92.2295 83.9582C92.2511 80.6754 91.8311 79.6806 91.8311 79.6806C91.8311 79.6806 104.281 76.5549 104.211 87.707C104.2 89.7646 103.371 91.7018 100.307 93.351C99.1598 91.4138 97.6574 89.6599 95.9666 88.1363C94.6958 86.9949 93.328 85.9635 91.9226 84.9896Z" fill="#DA8663"/>
<path d="M77.8839 86.969C78.487 90.4769 78.977 94.0005 79.3539 97.5346C72.9622 98.0215 64.9658 98.3042 54.9932 98.3304C54.9985 94.4927 55.0039 90.6549 55.0147 86.8171C65.0681 86.969 72.4722 87.037 77.8839 86.969Z" fill="#DA8663"/>
<path d="M-12.3381 86.241C-9.7803 86.5394 -5.30016 86.5289 1.81853 86.4766C0.267708 90.0002 -1.17003 93.5657 -2.50546 97.1678C-8.98874 96.7699 -14.1097 96.1626 -17.8359 95.2045C-17.7767 95.0997 -17.7175 94.9898 -17.6582 94.8851C-15.9943 91.9426 -14.2012 89.0735 -12.3381 86.241Z" fill="#FDF7FF"/>
<path d="M25.1558 86.4086C25.1127 90.2725 25.075 94.1312 25.0319 97.9951C14.117 97.8276 4.91437 97.6286 -2.50586 97.1679C-1.17043 93.5605 0.272689 90.0002 1.81812 86.4766C7.67138 86.4347 15.3178 86.3614 25.1558 86.4086Z" fill="#DA8663"/>
</g>
<g filter="url(#filter7_i_2557_49274)">
<path d="M79.8745 118.205L18.9032 117.854L18.6875 154.661L78.6642 155.011L79.8745 118.205Z" fill="#B71D1D"/>
</g>
<path d="M74.0009 121.508L75.69 121.519L74.6587 151.65L22.9434 151.352L22.9539 149.509L73.0327 149.802L74.0009 121.508Z" fill="#AE6E72"/>
<path d="M74.0002 121.509L73.0319 149.802L22.9531 149.509L23.1215 121.215L74.0002 121.509Z" fill="#FCA0A6"/>
<path d="M0.253209 107.262C1.07855 107.262 1.74762 106.596 1.74762 105.775C1.74762 104.954 1.07855 104.288 0.253209 104.288C-0.572135 104.288 -1.24121 104.954 -1.24121 105.775C-1.24121 106.596 -0.572135 107.262 0.253209 107.262Z" fill="#9A5D43"/>
<path d="M0.17508 120.514C1.00042 120.514 1.6695 119.848 1.6695 119.027C1.6695 118.206 1.00042 117.54 0.17508 117.54C-0.650264 117.54 -1.31934 118.206 -1.31934 119.027C-1.31934 119.848 -0.650264 120.514 0.17508 120.514Z" fill="#9A5D43"/>
<path d="M0.101842 133.771C0.927186 133.771 1.59626 133.105 1.59626 132.284C1.59626 131.463 0.927186 130.797 0.101842 130.797C-0.723502 130.797 -1.39258 131.463 -1.39258 132.284C-1.39258 133.105 -0.723502 133.771 0.101842 133.771Z" fill="#9A5D43"/>
<path d="M0.0227361 147.022C0.84808 147.022 1.51716 146.356 1.51716 145.535C1.51716 144.714 0.84808 144.048 0.0227361 144.048C-0.802608 144.048 -1.47168 144.714 -1.47168 145.535C-1.47168 146.356 -0.802608 147.022 0.0227361 147.022Z" fill="#9A5D43"/>
<path d="M-0.0573421 160.274C0.768002 160.274 1.43708 159.608 1.43708 158.787C1.43708 157.966 0.768002 157.3 -0.0573421 157.3C-0.882686 157.3 -1.55176 157.966 -1.55176 158.787C-1.55176 159.608 -0.882686 160.274 -0.0573421 160.274Z" fill="#9A5D43"/>
<g clip-path="url(#clip4_2557_49274)" filter="url(#filter8_i_2557_49274)">
<path d="M-14.6422 51.0061C-12.2812 57.8649 5.81567 61.1873 22.6759 51.5447C39.3268 42.0208 53.5082 35.4336 51.1472 28.5748C48.7861 21.7159 33.5974 27.9584 15.0098 27.9619C-4.1955 27.9683 -17.0033 44.1472 -14.6422 51.0061Z" fill="#F7AC29"/>
<path d="M14.713 29.5104C-3.67974 31.22 -14.9045 45.1865 -14.1519 52.0338C-14.3534 51.7089 -14.5184 51.3677 -14.6418 51.0062C-17.0029 44.1474 -4.15889 28.4568 13.976 27.3722C33.1451 26.2246 48.7865 21.716 51.1476 28.5749C51.2705 28.9336 51.3501 29.3044 51.392 29.6861C47.7692 23.8167 32.8299 27.8225 14.7125 29.5077L14.713 29.5104Z" fill="#BD7900"/>
<g filter="url(#filter9_d_2557_49274)">
<path d="M21.1016 48.0709C33.1976 32.337 52.2507 33.1811 51.0345 28.2797C51.0753 28.3764 51.114 28.4766 51.1466 28.5751C53.5077 35.434 38.7637 42.001 22.5261 52.2097C7.42658 61.706 -12.2817 57.8653 -14.6428 51.0064C-14.676 50.9051 -14.7086 50.8066 -14.7364 50.7042C-12.6773 55.3181 10.2095 62.2404 21.1016 48.0709Z" fill="#C98100"/>
</g>
<path d="M21.4668 48.6917C10.5748 62.8612 -12.3147 55.9394 -14.3711 51.325C-14.3434 51.4274 -14.3135 51.5265 -14.2775 51.6272C-14.2084 51.8292 -14.1228 52.0276 -14.0235 52.2232C-14.2913 51.8297 -14.4988 51.4234 -14.6428 51.0064C-14.676 50.9051 -14.7086 50.8066 -14.7364 50.7042C-12.6773 55.3181 10.2095 62.2404 21.1015 48.0709C33.1976 32.337 52.2507 33.1811 51.0345 28.2797C51.0753 28.3765 51.114 28.4766 51.1466 28.5751C51.2849 28.979 51.3628 29.3815 51.3863 29.7842C50.1762 33.759 32.7792 33.9739 21.4662 48.689L21.4668 48.6917Z" fill="#94050C"/>
<path d="M-12.7431 53.6357C-11.7392 54.1378 -10.6067 54.4786 -9.65121 54.7288C-8.78386 54.9549 -7.94039 55.2431 -7.12449 55.5229C-5.84853 55.9586 -4.64159 56.3663 -3.3374 56.5736C1.55909 57.3515 5.71927 57.2338 9.38796 56.2144C13.0512 55.1961 16.8686 53.19 21.054 50.0851C23.2092 48.4837 25.1487 46.4378 27.0259 44.4622C27.7428 43.7083 28.4824 42.9267 29.2242 42.1817C32.0616 39.332 35.3865 37.8982 38.9073 36.377C39.497 36.1234 40.0915 35.8659 40.6925 35.5984C41.2989 35.3298 41.9257 35.0625 42.569 34.7918C45.6331 33.4903 49.0331 32.0462 51.3808 29.6884C51.3895 29.8091 51.395 29.9277 51.3949 30.0474C49.0217 32.3394 45.6905 33.7575 42.6733 35.0376C42.0334 35.3105 41.406 35.575 40.8023 35.843C40.2013 36.1105 39.604 36.3686 39.0144 36.6223C35.5198 38.1321 32.2162 39.5586 29.4134 42.3696C28.6738 43.1112 27.9336 43.8901 27.2195 44.6434C25.333 46.6296 23.3865 48.6826 21.2139 50.2963C17.5227 53.0367 14.1156 54.9271 10.8397 56.0426C10.3784 56.2005 9.91686 56.3443 9.46003 56.4699C5.7536 57.5002 1.55333 57.6178 -3.38109 56.8367C-4.70894 56.6258 -5.98158 56.1922 -7.2112 55.7723C-8.02319 55.4973 -8.8606 55.2107 -9.71856 54.9883C-10.3859 54.8137 -11.1406 54.5921 -11.8814 54.3021C-12.1907 54.0884 -12.4765 53.8641 -12.7404 53.6351L-12.7431 53.6357Z" fill="#177A12"/>
<path d="M51.1462 32.9538C51.2618 33.2656 51.5087 33.4954 51.8292 33.6011C52.1497 33.7069 52.5431 33.686 52.9074 33.503C53.2718 33.3201 53.5329 33.0165 53.6418 32.6969C53.7527 32.374 53.7147 32.0371 53.5292 31.7601C53.3438 31.4831 53.0581 31.3129 52.7514 31.2442C52.4473 31.1748 52.1215 31.2042 51.8264 31.3496C51.2444 31.6387 50.9219 32.323 51.1456 32.9511L51.1462 32.9538Z" fill="#B81A23"/>
<path d="M51.1116 32.2571L51.1374 32.3372C51.2802 32.7088 51.5772 32.9849 51.9582 33.1063C52.3366 33.2283 52.8012 33.1922 53.2236 32.9599C53.3981 32.8658 53.5464 32.743 53.6692 32.6086C53.5795 32.964 53.3102 33.3092 52.9086 33.5058C52.5437 33.686 52.1509 33.7096 51.8304 33.6039C51.5099 33.4981 51.263 33.2684 51.1474 32.9566C51.0608 32.7269 51.057 32.4826 51.1122 32.2599L51.1116 32.2571Z" fill="#94050C"/>
<path d="M51.8946 31.5517C51.8946 31.5517 51.9132 31.5449 51.9208 31.5404C52.0245 31.4898 52.0662 31.3641 52.0154 31.2609L51.4195 30.0733C51.3687 29.9701 51.2424 29.9285 51.1388 29.979C51.0351 30.0296 50.9934 30.1553 51.0448 30.2613L51.6406 31.4489C51.6869 31.5445 51.799 31.5862 51.8952 31.5544L51.8946 31.5517Z" fill="#177A12"/>
<path d="M48.6935 34.579C48.8761 35.2158 49.6112 35.5727 50.3413 35.3063C51.0719 35.0426 51.4269 34.283 51.141 33.6852C50.8545 33.0847 50.1372 32.8239 49.5153 33.0473C48.8912 33.2741 48.513 33.9389 48.6968 34.5812L48.6935 34.579Z" fill="#B81A23"/>
<path d="M48.7065 33.8807L48.724 33.9625C48.9485 34.7273 49.8328 35.1522 50.6931 34.8125C50.8673 34.7441 51.0242 34.648 51.1578 34.5369C51.026 34.87 50.7346 35.1657 50.3384 35.307C49.6105 35.57 48.8732 35.2165 48.6906 34.5797C48.6226 34.3432 48.6309 34.102 48.7037 33.8813L48.7065 33.8807Z" fill="#94050C"/>
<path d="M49.58 33.2442C49.58 33.2442 49.58 33.2442 49.5827 33.2436C49.6915 33.2034 49.7486 33.0829 49.7082 32.9746L49.2516 31.729C49.2118 31.6234 49.0935 31.5659 48.9869 31.6028C48.9869 31.6028 48.9842 31.6034 48.9814 31.604C48.8727 31.6442 48.8155 31.7647 48.856 31.8729L49.3126 33.1186C49.353 33.2269 49.4707 33.2817 49.5773 33.2448L49.58 33.2442Z" fill="#177A12"/>
<path d="M45.9431 36.2009C46.1339 36.8359 46.8454 37.1893 47.5397 36.9562C48.2345 36.7258 48.6037 36.0058 48.3593 35.3878C48.1176 34.7693 47.4106 34.4635 46.7694 34.6768C46.1254 34.8906 45.7517 35.5631 45.9404 36.2015L45.9431 36.2009Z" fill="#B81A23"/>
<path d="M45.9481 35.5042L45.9657 35.586C46.201 36.3484 47.0535 36.7716 47.8821 36.4842C48.0499 36.4258 48.203 36.339 48.3356 36.2367C48.1982 36.5567 47.9136 36.831 47.5342 36.9573C46.8394 37.1877 46.1285 36.8371 45.9377 36.202C45.867 35.9662 45.8725 35.7255 45.9453 35.5048L45.9481 35.5042Z" fill="#94050C"/>
<path d="M46.8386 34.8759C46.9451 34.839 47.0056 34.7207 46.9679 34.6118L46.543 33.3537C46.508 33.2442 46.3864 33.1846 46.2771 33.2221C46.1778 33.266 46.1073 33.3779 46.145 33.4868L46.5699 34.7449C46.6076 34.8537 46.7259 34.9113 46.8358 34.8765L46.8386 34.8759Z" fill="#177A12"/>
<path d="M42.8891 37.6031C43.0854 38.237 43.7738 38.5895 44.4377 38.3885C45.1038 38.1842 45.4861 37.4985 45.2816 36.8664C45.0771 36.2342 44.3844 35.8883 43.7265 36.0909C43.0681 36.2907 42.6928 36.9692 42.8897 37.6058L42.8891 37.6031Z" fill="#B81A23"/>
<path d="M42.8913 36.9072L42.9088 36.989C43.1497 37.7503 43.9769 38.1759 44.7802 37.931C44.9465 37.8786 45.0937 37.8045 45.2275 37.7076C45.0829 38.0206 44.803 38.2768 44.4404 38.3881C43.7771 38.5919 43.0887 38.2393 42.8918 37.6027C42.8184 37.3674 42.8239 37.1268 42.894 36.9066L42.8913 36.9072Z" fill="#94050C"/>
<path d="M43.7944 36.2873C43.901 36.2504 43.9593 36.1354 43.9276 36.0281L43.535 34.7603C43.5 34.6508 43.3833 34.5873 43.2734 34.622C43.1498 34.6597 43.0997 34.773 43.1353 34.8852L43.5279 36.153C43.5629 36.2624 43.6796 36.326 43.7895 36.2912L43.795 36.2901L43.7944 36.2873Z" fill="#177A12"/>
<path d="M39.656 39.1769C39.9211 39.7847 40.6475 40.0608 41.2862 39.7825C41.6056 39.6433 41.8411 39.3937 41.9613 39.1001C42.0793 38.8099 42.0803 38.4818 41.9461 38.1768C41.6776 37.5668 40.9454 37.3034 40.3171 37.5767C39.686 37.8506 39.3875 38.5669 39.6527 39.1747L39.656 39.1769Z" fill="#B81A23"/>
<path d="M39.582 38.4829L39.6132 38.5618C39.9339 39.2947 40.8065 39.6252 41.5757 39.2877C41.7329 39.2201 41.8727 39.1248 41.9954 39.0161C41.8883 39.3439 41.6373 39.6281 41.2896 39.7819C40.6509 40.0602 39.9245 39.7842 39.6594 39.1763C39.5619 38.949 39.5395 38.7114 39.5853 38.485L39.582 38.4829Z" fill="#94050C"/>
<path d="M40.385 37.7762C40.385 37.7762 40.3959 37.7738 40.4014 37.7727C40.509 37.727 40.5567 37.6028 40.5086 37.499L39.9756 36.2838C39.9297 36.1767 39.8049 36.1291 39.7007 36.1769C39.5931 36.2226 39.5454 36.3468 39.5907 36.4512L40.1243 37.6691C40.1685 37.768 40.2823 37.818 40.3834 37.7822L40.385 37.7762Z" fill="#177A12"/>
<path d="M36.4387 40.6844C36.7356 41.2798 37.4478 41.5303 38.0526 41.2535C38.6573 40.9767 38.9453 40.2655 38.6769 39.6555C38.409 39.0482 37.6783 38.7788 37.0441 39.0647C36.4104 39.3533 36.1413 40.0862 36.4382 40.6816L36.4387 40.6844Z" fill="#B81A23"/>
<path d="M36.3278 39.9952L36.3612 40.0707C36.7157 40.7879 37.5791 41.089 38.316 40.7613C38.4678 40.6948 38.6027 40.6034 38.7199 40.4958C38.6177 40.8197 38.3832 41.1005 38.0525 41.2535C37.4499 41.527 36.7355 41.2797 36.4387 40.6843C36.3286 40.4654 36.2969 40.2241 36.3311 39.9973L36.3278 39.9952Z" fill="#94050C"/>
<path d="M37.1111 39.265C37.1111 39.265 37.1248 39.2621 37.1324 39.2576C37.2366 39.2098 37.2844 39.0856 37.2363 38.9818L36.6792 37.7746C36.6312 37.6708 36.5043 37.6265 36.4022 37.671C36.2952 37.7194 36.2502 37.843 36.2988 37.9495L36.8553 39.154C36.8995 39.2529 37.0127 39.3001 37.1138 39.2644L37.1111 39.265Z" fill="#177A12"/>
<path d="M33.4138 42.409C33.7869 42.9597 34.5074 43.1287 35.0489 42.8111C35.5905 42.4936 35.8054 41.7751 35.4955 41.1853C35.1883 40.5949 34.432 40.3794 33.8246 40.7366C33.2138 41.0917 33.0379 41.8589 33.4138 42.409Z" fill="#B81A23"/>
<path d="M33.2181 41.7435L33.2597 41.8174C33.7057 42.4808 34.5772 42.6861 35.2465 42.3101C35.3871 42.2317 35.506 42.1323 35.6105 42.0189C35.5408 42.3473 35.3453 42.6369 35.0484 42.814C34.5063 43.1288 33.7863 42.9626 33.4132 42.4119C33.2776 42.207 33.2108 41.976 33.2187 41.7463L33.2181 41.7435Z" fill="#94050C"/>
<path d="M33.892 40.9331C33.892 40.9331 33.9188 40.9245 33.9313 40.9161C34.0332 40.8574 34.0661 40.7307 34.0071 40.6292L33.3317 39.4842C33.2732 39.3855 33.1453 39.3499 33.044 39.4114C32.9449 39.4695 32.9126 39.599 32.971 39.6977L33.6464 40.8427C33.6964 40.929 33.8018 40.9665 33.8947 40.9325L33.892 40.9331Z" fill="#177A12"/>
<path d="M30.2986 44.3453C30.6031 44.9362 31.288 45.1926 31.8483 44.9623C32.4086 44.732 32.7148 44.0653 32.507 43.431C32.2997 42.7994 31.5841 42.4669 30.9239 42.7384C30.2636 43.0099 29.9936 43.7516 30.298 44.3425L30.2986 44.3453Z" fill="#B81A23"/>
<path d="M30.1854 43.6594L30.2188 43.7349C30.5788 44.4509 31.4099 44.7617 32.1032 44.4974C32.2485 44.4409 32.3782 44.3649 32.495 44.2688C32.3811 44.5781 32.1588 44.8363 31.8481 44.9622C31.2878 45.1925 30.6029 44.9362 30.2984 44.3452C30.1878 44.1235 30.1539 43.8856 30.1882 43.6588L30.1854 43.6594Z" fill="#94050C"/>
<path d="M30.9897 42.9409C30.9897 42.9409 30.9979 42.9391 31.0028 42.9352C31.1109 42.8923 31.162 42.7702 31.1161 42.6631L30.6065 41.4373C30.5633 41.3296 30.4401 41.2759 30.3332 41.3243C30.2256 41.37 30.1745 41.492 30.2199 41.5964L30.7294 42.8223C30.7714 42.9245 30.8885 42.9766 30.9924 42.9403L30.9897 42.9409Z" fill="#177A12"/>
<path d="M27.6234 46.7417C27.8705 47.3591 28.5916 47.6505 29.2252 47.4018C29.8589 47.1531 30.1729 46.4562 29.9362 45.8338C29.6999 45.2141 28.9793 44.9112 28.3353 45.165C27.6913 45.4188 27.3735 46.1249 27.6234 46.7417Z" fill="#B81A23"/>
<path d="M27.5666 46.0463L27.5923 46.1263C27.8895 46.8699 28.7574 47.2185 29.5184 46.9227C29.674 46.8611 29.8135 46.7773 29.9345 46.6746C29.8169 46.9932 29.5685 47.2627 29.22 47.3995C28.5869 47.651 27.8653 47.3568 27.6181 46.7394C27.5261 46.511 27.5119 46.2717 27.5632 46.0441L27.5666 46.0463Z" fill="#94050C"/>
<path d="M28.4019 45.3613C28.4019 45.3613 28.4074 45.3602 28.4128 45.359C28.521 45.3161 28.5727 45.1968 28.5322 45.0885L28.0412 43.8558C27.998 43.7481 27.8712 43.7038 27.77 43.7396C27.6619 43.7825 27.6102 43.9018 27.6507 44.0101L28.1423 45.2455C28.1848 45.3505 28.2992 45.4031 28.4058 45.3662L28.4019 45.3613Z" fill="#177A12"/>
<path d="M25.2158 49.3141C25.4285 49.9446 26.156 50.266 26.82 50.025C27.4839 49.7841 27.8193 49.0799 27.5831 48.4602C27.3463 47.8377 26.6366 47.5325 25.9912 47.7666C25.3486 48.0002 25.0009 48.687 25.2164 49.3169L25.2158 49.3141Z" fill="#B81A23"/>
<path d="M25.1972 48.6169L25.2202 48.6975C25.4802 49.4547 26.3475 49.8405 27.1404 49.5465C27.3021 49.4864 27.447 49.4015 27.5747 49.303C27.4456 49.6213 27.1835 49.8937 26.8195 50.0252C26.1556 50.2662 25.4308 49.9442 25.2153 49.3143C25.1337 49.0808 25.1338 48.8413 25.1944 48.6175L25.1972 48.6169Z" fill="#94050C"/>
<path d="M26.0628 47.9626C26.0628 47.9626 26.0628 47.9626 26.0683 47.9614C26.1776 47.9239 26.2342 47.8007 26.1943 47.6952L25.7377 46.4495C25.6973 46.3412 25.5698 46.2942 25.4675 46.3245C25.3588 46.3647 25.3011 46.4825 25.3415 46.5908L25.7981 47.8364C25.838 47.942 25.9562 47.9995 26.0628 47.9626Z" fill="#177A12"/>
<path d="M22.4917 51.9009C22.6852 52.5354 23.4245 52.8714 24.1179 52.6213C24.8087 52.3718 25.1466 51.6529 24.8967 51.036C24.6441 50.4198 23.9318 50.1294 23.2941 50.359C22.6591 50.5881 22.2975 51.2637 22.4917 51.9009Z" fill="#B81A23"/>
<path d="M22.4909 51.2026L22.5139 51.2832C22.752 52.0451 23.6344 52.4476 24.4522 52.1369C24.6194 52.0757 24.7665 51.9874 24.8958 51.883C24.7678 52.2067 24.4959 52.4868 24.1183 52.6213C23.4248 52.8713 22.6883 52.5347 22.492 51.9008C22.4186 51.6656 22.4241 51.4249 22.4909 51.2026Z" fill="#94050C"/>
<path d="M23.3601 50.5588C23.3601 50.5588 23.3601 50.5588 23.3628 50.5583C23.4721 50.5208 23.5293 50.4003 23.4888 50.292L23.035 49.0458C22.9946 48.9375 22.8769 48.8827 22.7703 48.9196C22.7703 48.9196 22.7694 48.9198 22.7676 48.9202C22.6582 48.9577 22.6011 49.0781 22.6415 49.1864L23.0954 50.4327C23.1358 50.541 23.2535 50.5958 23.3601 50.5588Z" fill="#177A12"/>
<path d="M19.5378 53.9912C19.6908 54.6371 20.382 55.029 21.0731 54.8478C21.7669 54.6661 22.1707 53.9873 21.9854 53.3511C21.7994 52.7121 21.1175 52.3496 20.4586 52.5211C19.7998 52.6925 19.3847 53.3452 19.5378 53.9912Z" fill="#B81A23"/>
<path d="M19.5867 53.294L19.6042 53.3758C19.7882 54.152 20.6159 54.6203 21.4416 54.3992C21.6117 54.3516 21.7623 54.2797 21.9006 54.1904C21.7433 54.4975 21.4507 54.7479 21.0736 54.8452C20.3798 55.0269 19.6887 54.635 19.5383 53.9885C19.4813 53.7497 19.5039 53.5083 19.5867 53.294Z" fill="#94050C"/>
<path d="M20.529 52.7171C20.6329 52.6808 20.6929 52.5739 20.664 52.466L20.3256 51.1838C20.2961 51.0732 20.1788 51.0069 20.0677 51.0363C19.9566 51.0656 19.8895 51.1796 19.9196 51.293L20.2581 52.5751C20.2876 52.6858 20.4021 52.7526 20.5132 52.7233C20.5187 52.7221 20.5241 52.721 20.5296 52.7198L20.529 52.7171Z" fill="#177A12"/>
<path d="M16.5578 55.9814C16.7218 56.625 17.4297 57.0019 18.1238 56.7945C18.8184 56.5898 19.205 55.8975 18.995 55.2665C18.785 54.6355 18.0914 54.2984 17.4394 54.4883C16.7907 54.6804 16.3904 55.3357 16.555 55.982L16.5578 55.9814Z" fill="#B81A23"/>
<path d="M16.5916 55.2844L16.6092 55.3662C16.8096 56.1389 17.6563 56.5889 18.4837 56.336C18.6527 56.283 18.8082 56.2072 18.942 56.1103C18.7946 56.4239 18.5038 56.6824 18.1269 56.7939C17.4323 56.9986 16.7244 56.6217 16.5609 55.9808C16.4984 55.7432 16.5155 55.503 16.5944 55.2838L16.5916 55.2844Z" fill="#94050C"/>
<path d="M17.5105 54.6843C17.6143 54.6479 17.6759 54.535 17.6443 54.4277L17.2654 53.157C17.2331 53.047 17.1164 52.9834 17.0059 53.0155C16.9042 53.0485 16.8317 53.1637 16.8639 53.2737L17.2407 54.5478C17.2729 54.6578 17.3896 54.7214 17.5028 54.6887C17.5028 54.6887 17.5083 54.6876 17.5111 54.687L17.5105 54.6843Z" fill="#177A12"/>
<path d="M13.3656 57.7033C13.505 58.3522 14.2115 58.7493 14.9206 58.5587C15.6324 58.3674 16.0339 57.6777 15.8349 57.0444C15.6331 56.4116 14.948 56.0612 14.2931 56.2375C13.6409 56.4132 13.2234 57.0551 13.3656 57.7033Z" fill="#B81A23"/>
<path d="M13.4227 57.0096L13.4403 57.0914C13.6105 57.8705 14.4516 58.3474 15.2962 58.108C15.4691 58.0598 15.6246 57.984 15.7644 57.8887C15.6083 58.2013 15.3108 58.4555 14.9206 58.5584C14.2115 58.7491 13.5077 58.3514 13.3656 57.7031C13.314 57.4632 13.3372 57.2245 13.4227 57.0096Z" fill="#94050C"/>
<path d="M14.364 56.4334C14.4679 56.3971 14.5273 56.2875 14.4984 56.1796L14.1518 54.8992C14.1223 54.7886 14.0077 54.7217 13.8939 54.7516C13.7834 54.7836 13.7163 54.8977 13.7458 55.0083L14.0925 56.2887C14.1219 56.3993 14.2392 56.4656 14.3503 56.4363C14.3558 56.4352 14.3613 56.434 14.364 56.4334Z" fill="#177A12"/>
<path d="M10.139 58.8886C10.262 59.5409 10.9611 59.9567 11.6896 59.7762C12.4159 59.599 12.8305 58.9036 12.6347 58.2724C12.4378 57.6358 11.7583 57.2843 11.1026 57.4436C10.4502 57.6051 10.0161 58.2362 10.139 58.8886Z" fill="#B81A23"/>
<path d="M10.2166 58.1939L10.2287 58.2769C10.3798 59.0601 11.2168 59.5578 12.078 59.3291C12.2536 59.2804 12.413 59.2094 12.5534 59.1168C12.3912 59.4278 12.0843 59.6784 11.6903 59.7764C10.9618 59.957 10.2627 59.5411 10.1397 58.8888C10.0909 58.6483 10.1256 58.41 10.2172 58.1967L10.2166 58.1939Z" fill="#94050C"/>
<path d="M11.1735 57.6392C11.2746 57.6035 11.3347 57.4966 11.3091 57.3909L10.9871 56.1052C10.9603 55.994 10.8452 55.9244 10.7335 55.951C10.6197 55.9809 10.552 56.0922 10.5815 56.2029L10.9041 57.4913C10.9309 57.6025 11.046 57.672 11.1598 57.6421C11.1653 57.641 11.1708 57.6398 11.1762 57.6387L11.1735 57.6392Z" fill="#177A12"/>
<path d="M6.72433 59.6716C6.85278 60.3228 7.55346 60.7326 8.28074 60.5466C9.01017 60.3573 9.42417 59.6592 9.21691 59.0276C9.00964 58.396 8.32302 58.0517 7.67455 58.218C7.02334 58.385 6.59255 59.0182 6.72433 59.6716Z" fill="#B81A23"/>
<path d="M6.79592 58.9776L6.80802 59.0606C6.96732 59.842 7.80584 60.3337 8.66747 60.0935C8.84308 60.0448 9.00462 59.9705 9.14388 59.8725C8.98558 60.1884 8.67381 60.4428 8.28093 60.5463C7.55092 60.7329 6.85297 60.3225 6.72452 59.6713C6.67297 59.4314 6.70707 59.1904 6.79592 58.9776Z" fill="#94050C"/>
<path d="M7.74561 58.4166C7.84945 58.3803 7.90952 58.2735 7.88061 58.1656L7.54764 56.8822C7.51756 56.7689 7.40358 56.7047 7.29192 56.7313C7.18358 56.7601 7.11374 56.8747 7.14049 56.9859L7.47405 58.272C7.50354 58.3826 7.6181 58.4495 7.72918 58.4201C7.73466 58.419 7.74013 58.4178 7.74561 58.4166Z" fill="#177A12"/>
<path d="M3.05245 60.1073C3.16174 60.7625 3.83641 61.1978 4.56192 61.0435C5.28743 60.8893 5.7325 60.216 5.55751 59.5747C5.38251 58.9334 4.71624 58.5505 4.05702 58.6935C3.39722 58.8338 2.94375 59.4547 3.05304 60.11L3.05245 60.1073Z" fill="#B81A23"/>
<path d="M3.14483 59.4178L3.15419 59.5013C3.28885 60.288 4.0992 60.8085 4.96141 60.6109C5.13878 60.5704 5.29934 60.5049 5.44309 60.4145C5.2715 60.7218 4.95621 60.9599 4.55923 61.0443C3.83372 61.1985 3.15632 60.7638 3.04977 60.108C3.00917 59.8657 3.0466 59.6268 3.14424 59.4151L3.14483 59.4178Z" fill="#94050C"/>
<path d="M4.12398 58.8902C4.22294 58.8577 4.28359 58.7536 4.26074 58.6473L3.98194 57.3496C3.95792 57.2378 3.84766 57.1643 3.73268 57.1888C3.62043 57.2126 3.54726 57.3251 3.57127 57.4369L3.85008 58.7346C3.87409 58.8464 3.98709 58.9193 4.09934 58.8954C4.10755 58.8937 4.11577 58.8919 4.12398 58.8902Z" fill="#177A12"/>
<path d="M-0.531238 60.1026C-0.432901 60.7602 0.229837 61.2065 0.947909 61.071C1.66598 60.9354 2.12396 60.2821 1.97302 59.6329C1.82266 58.9864 1.16597 58.5815 0.499919 58.706C-0.165549 58.8332 -0.629575 59.445 -0.531238 60.1026Z" fill="#B81A23"/>
<path d="M-0.427467 59.4108L-0.418108 59.4943C-0.297132 60.284 0.496395 60.8194 1.35234 60.646C1.52755 60.6087 1.68929 60.5487 1.83421 60.4637C1.65539 60.764 1.33834 60.9939 0.947231 61.0657C0.229159 61.2012 -0.430841 60.7543 -0.531916 60.0973C-0.569771 59.8544 -0.52902 59.6177 -0.428052 59.4081L-0.427467 59.4108Z" fill="#94050C"/>
<path d="M0.568126 58.9023C0.664343 58.8704 0.725581 58.769 0.706061 58.6649L0.45737 57.3607C0.436093 57.2484 0.325246 57.1722 0.212411 57.1933C0.0974251 57.2178 0.0230848 57.3248 0.0443619 57.4372L0.290314 58.7419C0.314329 58.8536 0.422438 58.9304 0.535272 58.9093C0.546223 58.907 0.554437 58.9052 0.565388 58.9029L0.568126 58.9023Z" fill="#177A12"/>
<path d="M29.1236 35.0415C27.0117 38.883 13.1721 45.8222 6.60387 42.2867C3.93691 29.7 5.54215 20.0622 11.1258 18.2821C16.7177 16.5003 23.9411 23.2319 29.1209 35.0421L29.1236 35.0415Z" fill="#FFA817"/>
<path d="M15.1227 33.3117C19.1824 31.9269 22.6801 29.9517 25.2743 27.7553C26.6345 29.8893 27.9319 32.3303 29.1215 35.0422C27.0096 38.8837 13.17 45.8229 6.60176 42.2875C6.06935 39.7693 5.70878 37.3715 5.51339 35.1295C8.47528 35.0443 11.7719 34.4518 15.1199 33.3123L15.1227 33.3117Z" fill="#94050C"/>
<path d="M5.63459 27.0844C5.67535 26.8078 5.71728 26.5366 5.76645 26.2724C8.03021 26.3356 10.8194 25.8994 13.6552 24.9344C16.2505 24.0491 18.5405 22.8353 20.2517 21.5393C20.4519 21.7248 20.6505 21.9163 20.8509 22.116C19.0732 23.4889 16.6905 24.751 13.9191 25.6965C10.8969 26.7268 8.00471 27.1763 5.63791 27.0865L5.63459 27.0844Z" fill="#94050C"/>
<path d="M5.37383 30.105C5.37975 29.9327 5.38294 29.761 5.39277 29.5936C8.05996 29.5624 11.1782 29.0192 14.3765 27.9287C17.5321 26.853 20.2983 25.404 22.4126 23.8255C22.5236 23.9559 22.6319 24.0868 22.7408 24.2204C20.5756 25.8553 17.7599 27.3405 14.5486 28.4367C11.2919 29.5481 8.11317 30.0899 5.37109 30.1056L5.37383 30.105Z" fill="#177A12"/>
<path d="M5.34942 31.2959C5.35045 31.1275 5.35149 30.9591 5.35526 30.7901C8.17592 30.8603 11.5814 30.3216 15.0781 29.1278C18.3163 28.0231 21.1466 26.5262 23.2829 24.9032C23.3857 25.0353 23.4869 25.1734 23.5903 25.3082C21.4054 26.9843 18.5392 28.5145 15.253 29.6351C11.7054 30.8455 8.2477 31.381 5.34942 31.2959Z" fill="#177A12"/>
<g style="mix-blend-mode:multiply" opacity="0.3">
<path d="M11.1275 18.2822C11.3123 18.223 11.4967 18.1752 11.6856 18.135C6.85599 21.5594 6.7562 31.262 10.9775 43.2617C9.34592 43.2494 7.84563 42.9554 6.60612 42.2896C3.93857 29.7001 5.54381 20.0623 11.1275 18.2822Z" fill="#FFA817"/>
</g>
<path d="M15.8558 36.9877C12.5132 38.126 9.15146 38.815 6.00239 39.0284C5.94483 38.6672 5.89058 38.3081 5.84025 37.9539C8.85165 37.7527 12.1491 37.0973 15.4993 35.9545C19.9219 34.4469 23.7488 32.3248 26.6056 29.9784C26.785 30.2938 26.9596 30.613 27.1325 30.9383C24.1135 33.3961 20.2063 35.504 15.8558 36.9877Z" fill="#177A12"/>
<path d="M43.342 44.8047C43.342 46.7718 40.4795 48.3665 36.9484 48.3665C33.4172 48.3665 30.5547 46.7718 30.5547 44.8047" stroke="black" stroke-width="2.95681" stroke-linecap="round"/>
</g>
<g filter="url(#filter10_i_2557_49274)">
<path d="M42.8314 72.5491C44.8004 78.7957 53.0871 91.9302 61.2451 72.5491H42.8314Z" fill="#9A5D43"/>
</g>
<g filter="url(#filter11_i_2557_49274)">
<path d="M52.0385 82.7116C47.6913 82.7116 44.8776 77.369 43.3431 74.0616C53.0616 73.8072 57.1534 80.1675 55.8746 81.1851C54.5959 82.2028 54.085 82.7116 52.0385 82.7116Z" fill="#EDC3FC"/>
</g>
</g>
</g>
</g>
<defs>
<filter id="filter0_d_2557_49274" x="0" y="0" width="186" height="188.339" filterUnits="userSpaceOnUse" color-interpolation-filters="sRGB">
<feFlood flood-opacity="0" result="BackgroundImageFix"/>
<feColorMatrix in="SourceAlpha" type="matrix" values="0 0 0 0 0 0 0 0 0 0 0 0 0 0 0 0 0 0 127 0" result="hardAlpha"/>
<feOffset dy="2.33878"/>
<feComposite in2="hardAlpha" operator="out"/>
<feColorMatrix type="matrix" values="0 0 0 0 0.529412 0 0 0 0 0.529412 0 0 0 0 0.529412 0 0 0 1 0"/>
<feBlend mode="normal" in2="BackgroundImageFix" result="effect1_dropShadow_2557_49274"/>
<feBlend mode="normal" in="SourceGraphic" in2="effect1_dropShadow_2557_49274" result="shape"/>
</filter>
<filter id="filter1_i_2557_49274" x="83.5273" y="110.137" width="48.8174" height="100.609" filterUnits="userSpaceOnUse" color-interpolation-filters="sRGB">
<feFlood flood-opacity="0" result="BackgroundImageFix"/>
<feBlend mode="normal" in="SourceGraphic" in2="BackgroundImageFix" result="shape"/>
<feColorMatrix in="SourceAlpha" type="matrix" values="0 0 0 0 0 0 0 0 0 0 0 0 0 0 0 0 0 0 127 0" result="hardAlpha"/>
<feOffset dx="-9" dy="4"/>
<feGaussianBlur stdDeviation="2"/>
<feComposite in2="hardAlpha" operator="arithmetic" k2="-1" k3="1"/>
<feColorMatrix type="matrix" values="0 0 0 0 1 0 0 0 0 1 0 0 0 0 1 0 0 0 0.25 0"/>
<feBlend mode="normal" in2="shape" result="effect1_innerShadow_2557_49274"/>
</filter>
<filter id="filter2_i_2557_49274" x="-19.9902" y="34.1191" width="112.948" height="163.261" filterUnits="userSpaceOnUse" color-interpolation-filters="sRGB">
<feFlood flood-opacity="0" result="BackgroundImageFix"/>
<feBlend mode="normal" in="SourceGraphic" in2="BackgroundImageFix" result="shape"/>
<feColorMatrix in="SourceAlpha" type="matrix" values="0 0 0 0 0 0 0 0 0 0 0 0 0 0 0 0 0 0 127 0" result="hardAlpha"/>
<feOffset dx="-9" dy="4"/>
<feGaussianBlur stdDeviation="2"/>
<feComposite in2="hardAlpha" operator="arithmetic" k2="-1" k3="1"/>
<feColorMatrix type="matrix" values="0 0 0 0 1 0 0 0 0 1 0 0 0 0 1 0 0 0 0.25 0"/>
<feBlend mode="normal" in2="shape" result="effect1_innerShadow_2557_49274"/>
</filter>
<filter id="filter3_i_2557_49274" x="71.4746" y="30.5574" width="32.6581" height="32.5694" filterUnits="userSpaceOnUse" color-interpolation-filters="sRGB">
<feFlood flood-opacity="0" result="BackgroundImageFix"/>
<feBlend mode="normal" in="SourceGraphic" in2="BackgroundImageFix" result="shape"/>
<feColorMatrix in="SourceAlpha" type="matrix" values="0 0 0 0 0 0 0 0 0 0 0 0 0 0 0 0 0 0 127 0" result="hardAlpha"/>
<feOffset dx="1.47841" dy="2.95681"/>
<feGaussianBlur stdDeviation="2.21761"/>
<feComposite in2="hardAlpha" operator="arithmetic" k2="-1" k3="1"/>
<feColorMatrix type="matrix" values="0 0 0 0 1 0 0 0 0 1 0 0 0 0 1 0 0 0 0.25 0"/>
<feBlend mode="normal" in2="shape" result="effect1_innerShadow_2557_49274"/>
</filter>
<filter id="filter4_i_2557_49274" x="32.0898" y="53.4543" width="15.2322" height="16.1381" filterUnits="userSpaceOnUse" color-interpolation-filters="sRGB">
<feFlood flood-opacity="0" result="BackgroundImageFix"/>
<feBlend mode="normal" in="SourceGraphic" in2="BackgroundImageFix" result="shape"/>
<feColorMatrix in="SourceAlpha" type="matrix" values="0 0 0 0 0 0 0 0 0 0 0 0 0 0 0 0 0 0 127 0" result="hardAlpha"/>
<feOffset dx="2.95681" dy="4.43522"/>
<feGaussianBlur stdDeviation="2.21761"/>
<feComposite in2="hardAlpha" operator="arithmetic" k2="-1" k3="1"/>
<feColorMatrix type="matrix" values="0 0 0 0 0 0 0 0 0 0 0 0 0 0 0 0 0 0 0.25 0"/>
<feBlend mode="normal" in2="shape" result="effect1_innerShadow_2557_49274"/>
</filter>
<filter id="filter5_i_2557_49274" x="58.1758" y="52.9458" width="15.2322" height="16.1381" filterUnits="userSpaceOnUse" color-interpolation-filters="sRGB">
<feFlood flood-opacity="0" result="BackgroundImageFix"/>
<feBlend mode="normal" in="SourceGraphic" in2="BackgroundImageFix" result="shape"/>
<feColorMatrix in="SourceAlpha" type="matrix" values="0 0 0 0 0 0 0 0 0 0 0 0 0 0 0 0 0 0 127 0" result="hardAlpha"/>
<feOffset dx="2.95681" dy="4.43522"/>
<feGaussianBlur stdDeviation="2.21761"/>
<feComposite in2="hardAlpha" operator="arithmetic" k2="-1" k3="1"/>
<feColorMatrix type="matrix" values="0 0 0 0 0 0 0 0 0 0 0 0 0 0 0 0 0 0 0.25 0"/>
<feBlend mode="normal" in2="shape" result="effect1_innerShadow_2557_49274"/>
</filter>
<filter id="filter6_i_2557_49274" x="-29.1973" y="79.2773" width="133.408" height="23.053" filterUnits="userSpaceOnUse" color-interpolation-filters="sRGB">
<feFlood flood-opacity="0" result="BackgroundImageFix"/>
<feBlend mode="normal" in="SourceGraphic" in2="BackgroundImageFix" result="shape"/>
<feColorMatrix in="SourceAlpha" type="matrix" values="0 0 0 0 0 0 0 0 0 0 0 0 0 0 0 0 0 0 127 0" result="hardAlpha"/>
<feOffset dx="-9" dy="4"/>
<feGaussianBlur stdDeviation="2"/>
<feComposite in2="hardAlpha" operator="arithmetic" k2="-1" k3="1"/>
<feColorMatrix type="matrix" values="0 0 0 0 1 0 0 0 0 1 0 0 0 0 1 0 0 0 0.25 0"/>
<feBlend mode="normal" in2="shape" result="effect1_innerShadow_2557_49274"/>
</filter>
<filter id="filter7_i_2557_49274" x="12.7739" y="117.854" width="67.1002" height="43.0713" filterUnits="userSpaceOnUse" color-interpolation-filters="sRGB">
<feFlood flood-opacity="0" result="BackgroundImageFix"/>
<feBlend mode="normal" in="SourceGraphic" in2="BackgroundImageFix" result="shape"/>
<feColorMatrix in="SourceAlpha" type="matrix" values="0 0 0 0 0 0 0 0 0 0 0 0 0 0 0 0 0 0 127 0" result="hardAlpha"/>
<feOffset dx="-5.91363" dy="5.91363"/>
<feGaussianBlur stdDeviation="2.95681"/>
<feComposite in2="hardAlpha" operator="arithmetic" k2="-1" k3="1"/>
<feColorMatrix type="matrix" values="0 0 0 0 1 0 0 0 0 1 0 0 0 0 1 0 0 0 0.25 0"/>
<feBlend mode="normal" in2="shape" result="effect1_innerShadow_2557_49274"/>
</filter>
<filter id="filter8_i_2557_49274" x="-24.5947" y="10.2048" width="82.1328" height="58.6624" filterUnits="userSpaceOnUse" color-interpolation-filters="sRGB">
<feFlood flood-opacity="0" result="BackgroundImageFix"/>
<feBlend mode="normal" in="SourceGraphic" in2="BackgroundImageFix" result="shape"/>
<feColorMatrix in="SourceAlpha" type="matrix" values="0 0 0 0 0 0 0 0 0 0 0 0 0 0 0 0 0 0 127 0" result="hardAlpha"/>
<feOffset dx="-9" dy="4"/>
<feGaussianBlur stdDeviation="2"/>
<feComposite in2="hardAlpha" operator="arithmetic" k2="-1" k3="1"/>
<feColorMatrix type="matrix" values="0 0 0 0 1 0 0 0 0 1 0 0 0 0 1 0 0 0 0.25 0"/>
<feBlend mode="normal" in2="shape" result="effect1_innerShadow_2557_49274"/>
</filter>
<filter id="filter9_d_2557_49274" x="-14.7363" y="28.2795" width="66.1328" height="35.5167" filterUnits="userSpaceOnUse" color-interpolation-filters="sRGB">
<feFlood flood-opacity="0" result="BackgroundImageFix"/>
<feColorMatrix in="SourceAlpha" type="matrix" values="0 0 0 0 0 0 0 0 0 0 0 0 0 0 0 0 0 0 127 0" result="hardAlpha"/>
<feOffset dy="5.91363"/>
<feComposite in2="hardAlpha" operator="out"/>
<feColorMatrix type="matrix" values="0 0 0 0 0 0 0 0 0 0 0 0 0 0 0 0 0 0 0.14 0"/>
<feBlend mode="normal" in2="BackgroundImageFix" result="effect1_dropShadow_2557_49274"/>
<feBlend mode="normal" in="SourceGraphic" in2="effect1_dropShadow_2557_49274" result="shape"/>
</filter>
<filter id="filter10_i_2557_49274" x="42.8311" y="72.5491" width="18.4141" height="16.0901" filterUnits="userSpaceOnUse" color-interpolation-filters="sRGB">
<feFlood flood-opacity="0" result="BackgroundImageFix"/>
<feBlend mode="normal" in="SourceGraphic" in2="BackgroundImageFix" result="shape"/>
<feColorMatrix in="SourceAlpha" type="matrix" values="0 0 0 0 0 0 0 0 0 0 0 0 0 0 0 0 0 0 127 0" result="hardAlpha"/>
<feOffset dy="5.91363"/>
<feGaussianBlur stdDeviation="2.95681"/>
<feComposite in2="hardAlpha" operator="arithmetic" k2="-1" k3="1"/>
<feColorMatrix type="matrix" values="0 0 0 0 0 0 0 0 0 0 0 0 0 0 0 0 0 0 0.25 0"/>
<feBlend mode="normal" in2="shape" result="effect1_innerShadow_2557_49274"/>
</filter>
<filter id="filter11_i_2557_49274" x="43.3428" y="74.0542" width="12.7598" height="14.5711" filterUnits="userSpaceOnUse" color-interpolation-filters="sRGB">
<feFlood flood-opacity="0" result="BackgroundImageFix"/>
<feBlend mode="normal" in="SourceGraphic" in2="BackgroundImageFix" result="shape"/>
<feColorMatrix in="SourceAlpha" type="matrix" values="0 0 0 0 0 0 0 0 0 0 0 0 0 0 0 0 0 0 127 0" result="hardAlpha"/>
<feOffset dy="5.91363"/>
<feGaussianBlur stdDeviation="2.95681"/>
<feComposite in2="hardAlpha" operator="arithmetic" k2="-1" k3="1"/>
<feColorMatrix type="matrix" values="0 0 0 0 0 0 0 0 0 0 0 0 0 0 0 0 0 0 0.25 0"/>
<feBlend mode="normal" in2="shape" result="effect1_innerShadow_2557_49274"/>
</filter>
<linearGradient id="paint0_linear_2557_49274" x1="-9.34082" y1="129.014" x2="24.6734" y2="129.529" gradientUnits="userSpaceOnUse">
<stop stop-color="#DA8663"/>
<stop offset="0.492908" stop-color="#EA946E"/>
<stop offset="1" stop-color="#F59971"/>
</linearGradient>
<clipPath id="clip0_2557_49274">
<rect width="186" height="186" fill="white"/>
</clipPath>
<clipPath id="clip1_2557_49274">
<rect width="198.107" height="322.293" fill="white" transform="translate(-57.4219)"/>
</clipPath>
<clipPath id="clip2_2557_49274">
<rect width="198.107" height="322.293" fill="white" transform="translate(-57.4219 14.7842)"/>
</clipPath>
<clipPath id="clip3_2557_49274">
<rect width="18.5634" height="24.9611" fill="white" transform="matrix(0.589815 0.807538 -0.810466 0.585786 91.7051 30.5574)"/>
</clipPath>
<clipPath id="clip4_2557_49274">
<rect width="71.1216" height="40.7819" fill="white" transform="matrix(0.978138 -0.207957 0.210051 0.977691 -20.5947 24.9951)"/>
</clipPath>
</defs>
</svg>
