<svg width="186" height="189" viewBox="0 0 186 189" fill="none" xmlns="http://www.w3.org/2000/svg">
<g clip-path="url(#clip0_2557_49542)" filter="url(#filter0_d_2557_49542)">
<rect width="186" height="186" fill="#D6F2DC"/>
<g clip-path="url(#clip1_2557_49542)">
<g filter="url(#filter1_i_2557_49542)">
<path d="M90.0737 110.573C90.0737 110.573 87.4041 112.694 87.0659 115.932C86.7276 119.171 88.4345 122.466 88.4345 122.466C98.4312 123.827 108.043 130.645 113.517 140.262C118.674 149.326 120.444 160.749 118.503 172.435C117.347 179.362 115.073 184.712 111.743 188.328C109.037 191.261 105.227 193.532 101.538 195.726L107.741 206.031C111.966 203.517 116.754 200.671 120.647 196.439C125.585 191.08 128.874 183.667 130.414 174.401C132.808 160.019 130.539 145.793 124.029 134.354C116.624 121.354 103.932 112.466 90.0737 110.578V110.573Z" fill="#7D4DBD"/>
</g>
<g filter="url(#filter2_i_2557_49542)">
<path d="M-15.9902 89.014C-15.9902 58.9289 8.39864 34.54 38.4838 34.54C68.569 34.54 92.9579 58.9289 92.9579 89.0141V145.398C92.9579 172.13 71.2871 193.801 44.555 193.801H32.0493C5.5178 193.801 -15.9902 172.293 -15.9902 145.762V89.014Z" fill="url(#paint0_linear_2557_49542)"/>
</g>
<path d="M-15.9902 92.0368C-15.9902 92.0368 19.1366 104.01 58.6011 103.735C90.9119 103.231 92.9579 100.687 92.9579 100.687V92.5457C60.4644 86.4752 18.1497 95.6088 -15.9902 92.0368Z" fill="black" fill-opacity="0.07"/>
<path d="M20.57 77.2532C22.6824 77.2532 24.3948 75.5508 24.3948 73.4508C24.3948 71.3508 22.6824 69.6484 20.57 69.6484C18.4576 69.6484 16.7451 71.3508 16.7451 73.4508C16.7451 75.5508 18.4576 77.2532 20.57 77.2532Z" fill="#C3B2DB"/>
<path d="M77.7174 77.5638C79.8298 77.5638 81.5423 75.8614 81.5423 73.7614C81.5423 71.6614 79.8298 69.959 77.7174 69.959C75.605 69.959 73.8926 71.6614 73.8926 73.7614C73.8926 75.8614 75.605 77.5638 77.7174 77.5638Z" fill="#C3B2DB"/>
<path d="M72.0111 73.7357C72.0111 73.7357 45.31 83.0735 28.5898 73.4822L72.0111 73.7357Z" fill="#39905D"/>
<path d="M13.1574 42.5686L16.2559 41.2458L10.566 28.0737L7.46746 29.3965L13.1574 42.5686Z" fill="#7D4DBD"/>
<path d="M60.6619 40.1736L63.6641 41.7002L70.2308 28.9376L67.2286 27.411L60.6619 40.1736Z" fill="#7D4DBD"/>
<g filter="url(#filter3_i_2557_49542)">
<path d="M92.5156 85.7251C93.9169 86.6873 95.27 87.7065 96.5322 88.8343C98.2169 90.3397 99.7037 92.0728 100.843 93.9869C97.42 95.8183 91.1572 97.2771 80.0275 98.1204C79.6531 94.6284 79.1664 91.1467 78.5674 87.6806C88.2905 87.5565 91.6011 86.9977 92.5103 85.7251H92.5156Z" fill="#7D4DBD"/>
<path d="M43.3987 87.3187C47.9608 87.3963 52.0896 87.4687 55.8601 87.5256C55.8548 91.3176 55.8441 95.1097 55.8387 98.9017C51.8543 98.9121 47.5703 98.8862 42.9227 98.819C36.9006 98.7259 31.3116 98.6534 26.0811 98.5707C26.1238 94.7527 26.1613 90.94 26.2041 87.1221C31.3223 87.1479 37.0236 87.2048 43.3987 87.3135V87.3187Z" fill="#7D4DBD"/>
<path d="M92.5167 85.7251C92.7306 85.425 92.8162 85.0888 92.8216 84.7059C92.843 81.4622 92.4258 80.4793 92.4258 80.4793C92.4258 80.4793 104.791 77.3908 104.721 88.41C104.711 90.4432 103.887 92.3573 100.844 93.9869C99.7048 92.0727 98.2126 90.3397 96.5332 88.8342C95.271 87.7065 93.9126 86.6873 92.5167 85.7251Z" fill="#451882"/>
<path d="M78.5733 87.6805C79.1723 91.1467 79.659 94.6283 80.0334 98.1203C73.685 98.6015 65.7429 98.8808 55.8379 98.9067C55.8432 95.1146 55.8486 91.3226 55.8593 87.5305C65.8445 87.6805 73.1983 87.7478 78.5733 87.6805Z" fill="#451882"/>
<path d="M-11.0365 86.9614C-8.49608 87.2563 -4.04634 87.246 3.02406 87.1942C1.48376 90.6759 0.0557766 94.1989 -1.27059 97.7582C-7.70989 97.365 -12.7961 96.7649 -16.4971 95.8182C-16.4382 95.7147 -16.3794 95.6061 -16.3206 95.5026C-14.668 92.5952 -12.887 89.7602 -11.0365 86.9614Z" fill="#7D4DBD"/>
<path d="M26.2025 87.1269C26.1597 90.9448 26.1223 94.7576 26.0795 98.5755C15.2386 98.4099 6.09841 98.2133 -1.27148 97.7581C0.0548828 94.1937 1.48821 90.6758 3.02316 87.1941C8.83672 87.1528 16.4312 87.0803 26.2025 87.1269Z" fill="#451882"/>
</g>
<g filter="url(#filter4_i_2557_49542)">
<path d="M79.4523 118.545L19.1548 118.198L18.9414 154.567L78.2554 154.913L79.4523 118.545Z" fill="#7D4DBD"/>
</g>
<g filter="url(#filter5_i_2557_49542)">
<path d="M73.6457 121.809L75.3162 121.82L74.2962 151.592L23.1523 151.297L23.1628 149.476L72.6882 149.766L73.6457 121.809Z" fill="#7AC6B9"/>
</g>
<path d="M73.6461 121.809L72.6885 149.766L23.1631 149.476L23.3296 121.52L73.6461 121.809Z" fill="#A0FCCB"/>
<path d="M0.713261 107.732C1.52949 107.732 2.19117 107.075 2.19117 106.263C2.19117 105.452 1.52949 104.794 0.713261 104.794C-0.102965 104.794 -0.764648 105.452 -0.764648 106.263C-0.764648 107.075 -0.102965 107.732 0.713261 107.732Z" fill="#7D4DBD"/>
<path d="M0.635132 120.826C1.45136 120.826 2.11304 120.168 2.11304 119.357C2.11304 118.545 1.45136 117.888 0.635132 117.888C-0.181094 117.888 -0.842773 118.545 -0.842773 119.357C-0.842773 120.168 -0.181094 120.826 0.635132 120.826Z" fill="#7D4DBD"/>
<path d="M0.561894 133.925C1.37812 133.925 2.0398 133.267 2.0398 132.456C2.0398 131.644 1.37812 130.987 0.561894 130.987C-0.254332 130.987 -0.916016 131.644 -0.916016 132.456C-0.916016 133.267 -0.254332 133.925 0.561894 133.925Z" fill="#7D4DBD"/>
<path d="M0.483765 147.019C1.29999 147.019 1.96167 146.361 1.96167 145.55C1.96167 144.738 1.29999 144.08 0.483765 144.08C-0.332461 144.08 -0.994141 144.738 -0.994141 145.55C-0.994141 146.361 -0.332461 147.019 0.483765 147.019Z" fill="#7D4DBD"/>
<path d="M0.405637 160.113C1.22186 160.113 1.88354 159.455 1.88354 158.643C1.88354 157.832 1.22186 157.174 0.405637 157.174C-0.410587 157.174 -1.07227 157.832 -1.07227 158.643C-1.07227 159.455 -0.410587 160.113 0.405637 160.113Z" fill="#7D4DBD"/>
<g style="mix-blend-mode:multiply">
<path d="M29.0369 135.12V133.749L34.3761 133.734V132.254L27.7047 132.27L27.6943 128.436L37.972 128.41V129.724H39.299L39.3198 136.243H37.998V137.619L32.5444 137.634V139.114L39.325 139.093L39.3354 142.927L27.736 142.958L27.7151 135.125H29.0369V135.12Z" fill="#7D4DBD"/>
<path d="M43.364 137.821V136.45H44.6806V134.856H43.3536V133.485L41.5635 133.49L41.5479 128.4L46.3146 128.384V130.164H47.6989V131.478H49.1924V130.164H50.587V128.384L55.3486 128.369L55.3642 133.459H53.5741V134.836H52.2523V136.429H53.5741V137.795H55.3642L55.3798 142.88L50.613 142.896V141.116H49.2132V139.802H47.7197V141.116H46.3458V142.896L41.5843 142.911L41.5687 137.821H43.3588H43.364Z" fill="#7D4DBD"/>
<path d="M58.8133 135.037V133.667L64.1525 133.651V132.171L57.4811 132.187L57.4707 128.354L67.7484 128.323V129.637H69.0754L69.0962 136.155H67.7744V137.526L62.3207 137.541V139.021L69.1014 139L69.1118 142.834L57.5123 142.865L57.4915 135.032H58.8133V135.037Z" fill="#7D4DBD"/>
</g>
<ellipse cx="50.7581" cy="56.6735" rx="10.4856" ry="10.4308" fill="#50B981"/>
<g filter="url(#filter6_i_2557_49542)">
<ellipse cx="48.2014" cy="56.6737" rx="10.4856" ry="9.92202" fill="#E5F3EC"/>
</g>
<g filter="url(#filter7_di_2557_49542)">
<path d="M36.8477 59.8186L37.3845 55.0144C13.4194 54.1295 5.03292 45.7933 4.46805 46.2428C3.90318 46.6923 3.1799 46.6517 1.65471 48.7869C13.0809 57.1201 24.6723 59.8186 36.8477 59.8186Z" fill="#5CE39B"/>
<path d="M36.8477 59.8186L37.3845 55.0144C13.4194 54.1295 5.03292 45.7933 4.46805 46.2428C3.90318 46.6923 3.1799 46.6517 1.65471 48.7869C13.0809 57.1201 24.6723 59.8186 36.8477 59.8186Z" stroke="#40AE73" stroke-width="1.47841"/>
</g>
<g filter="url(#filter8_di_2557_49542)">
<path d="M61.7561 59.3464V54.3972C71.9321 55.6996 78.0702 51.3626 78.5548 51.8835C79.0394 52.4045 79.2143 51.7851 80.4258 54.1295C77.0338 56.9948 73.3858 59.3464 61.7561 59.3464Z" fill="#5CE39B"/>
<path d="M61.7561 59.3464V54.3972C71.9321 55.6996 78.0702 51.3626 78.5548 51.8835C79.0394 52.4045 79.2143 51.7851 80.4258 54.1295C77.0338 56.9948 73.3858 59.3464 61.7561 59.3464Z" stroke="#40AE73" stroke-width="1.47841"/>
</g>
<mask id="path-30-inside-1_2557_49542" fill="white">
<path d="M50.8301 46.2432C51.2362 46.2432 51.6383 46.2572 52.0361 46.2803C46.1629 47.7154 41.9219 51.8254 41.9219 56.6738C41.9221 61.5226 46.1642 65.6307 52.0381 67.0654C51.6396 67.0886 51.2369 67.1045 50.8301 67.1045C42.7399 67.1045 36.1818 62.4345 36.1816 56.6738C36.1816 50.913 42.7398 46.2432 50.8301 46.2432Z"/>
</mask>
<path d="M50.8301 46.2432C51.2362 46.2432 51.6383 46.2572 52.0361 46.2803C46.1629 47.7154 41.9219 51.8254 41.9219 56.6738C41.9221 61.5226 46.1642 65.6307 52.0381 67.0654C51.6396 67.0886 51.2369 67.1045 50.8301 67.1045C42.7399 67.1045 36.1818 62.4345 36.1816 56.6738C36.1816 50.913 42.7398 46.2432 50.8301 46.2432Z" fill="#31A366"/>
<path d="M50.8301 46.2432L50.8301 43.2864H50.8301V46.2432ZM52.0361 46.2803L52.738 49.1526L52.2075 43.3284L52.0361 46.2803ZM41.9219 56.6738H38.9651V56.674L41.9219 56.6738ZM52.0381 67.0654L52.2097 70.0173L52.7397 64.1931L52.0381 67.0654ZM50.8301 67.1045V70.0613H50.8301L50.8301 67.1045ZM36.1816 56.6738H33.2248V56.6739L36.1816 56.6738ZM50.8301 46.2432L50.8301 49.2C51.1686 49.2 51.5125 49.2117 51.8648 49.2321L52.0361 46.2803L52.2075 43.3284C51.7642 43.3027 51.3039 43.2864 50.8301 43.2864L50.8301 46.2432ZM52.0361 46.2803L51.3343 43.408C44.7353 45.0204 38.9651 49.9311 38.9651 56.6738H41.9219H44.8787C44.8787 53.7197 47.5905 50.4104 52.738 49.1526L52.0361 46.2803ZM41.9219 56.6738L38.9651 56.674C38.9654 63.4178 44.7377 68.326 51.3365 69.9378L52.0381 67.0654L52.7397 64.1931C47.5907 62.9354 44.8788 59.6273 44.8787 56.6737L41.9219 56.6738ZM52.0381 67.0654L51.8665 64.1136C51.5035 64.1347 51.1614 64.1477 50.8301 64.1477L50.8301 67.1045L50.8301 70.0613C51.3124 70.0613 51.7758 70.0425 52.2097 70.0173L52.0381 67.0654ZM50.8301 67.1045V64.1477C47.3282 64.1477 44.2819 63.1324 42.1872 61.6408C40.0863 60.1448 39.1385 58.3473 39.1385 56.6737L36.1816 56.6738L33.2248 56.6739C33.225 60.761 35.5563 64.1788 38.757 66.458C41.964 68.7416 46.2418 70.0613 50.8301 70.0613V67.1045ZM36.1816 56.6738H39.1385C39.1385 55.0003 40.0862 53.2027 42.1871 51.7068C44.2818 50.2152 47.3281 49.2 50.8301 49.2V46.2432V43.2864C46.2417 43.2864 41.9639 44.606 38.7569 46.8896C35.5562 49.1688 33.2248 52.5866 33.2248 56.6738H36.1816Z" fill="#207846" mask="url(#path-30-inside-1_2557_49542)"/>
<g filter="url(#filter9_i_2557_49542)">
<path d="M51.7822 48.4604C56.3594 48.4604 60.0507 52.1483 60.0508 56.6733C60.0508 61.1984 56.3595 64.8872 51.7822 64.8872C47.2051 64.8871 43.5146 61.1984 43.5146 56.6733C43.5147 52.1484 47.2052 48.4606 51.7822 48.4604Z" stroke="#207846" stroke-width="4.43522"/>
</g>
<ellipse cx="51.0153" cy="56.4191" rx="3.06896" ry="3.05293" fill="black"/>
</g>
</g>
<defs>
<filter id="filter0_d_2557_49542" x="0" y="0" width="186" height="188.339" filterUnits="userSpaceOnUse" color-interpolation-filters="sRGB">
<feFlood flood-opacity="0" result="BackgroundImageFix"/>
<feColorMatrix in="SourceAlpha" type="matrix" values="0 0 0 0 0 0 0 0 0 0 0 0 0 0 0 0 0 0 127 0" result="hardAlpha"/>
<feOffset dy="2.33878"/>
<feComposite in2="hardAlpha" operator="out"/>
<feColorMatrix type="matrix" values="0 0 0 0 0.529412 0 0 0 0 0.529412 0 0 0 0 0.529412 0 0 0 1 0"/>
<feBlend mode="normal" in2="BackgroundImageFix" result="effect1_dropShadow_2557_49542"/>
<feBlend mode="normal" in="SourceGraphic" in2="effect1_dropShadow_2557_49542" result="shape"/>
</filter>
<filter id="filter1_i_2557_49542" x="83.0215" y="110.573" width="48.3213" height="99.4583" filterUnits="userSpaceOnUse" color-interpolation-filters="sRGB">
<feFlood flood-opacity="0" result="BackgroundImageFix"/>
<feBlend mode="normal" in="SourceGraphic" in2="BackgroundImageFix" result="shape"/>
<feColorMatrix in="SourceAlpha" type="matrix" values="0 0 0 0 0 0 0 0 0 0 0 0 0 0 0 0 0 0 127 0" result="hardAlpha"/>
<feOffset dx="-9" dy="4"/>
<feGaussianBlur stdDeviation="2"/>
<feComposite in2="hardAlpha" operator="arithmetic" k2="-1" k3="1"/>
<feColorMatrix type="matrix" values="0 0 0 0 1 0 0 0 0 1 0 0 0 0 1 0 0 0 0.25 0"/>
<feBlend mode="normal" in2="shape" result="effect1_innerShadow_2557_49542"/>
</filter>
<filter id="filter2_i_2557_49542" x="-19.9902" y="34.54" width="112.948" height="163.261" filterUnits="userSpaceOnUse" color-interpolation-filters="sRGB">
<feFlood flood-opacity="0" result="BackgroundImageFix"/>
<feBlend mode="normal" in="SourceGraphic" in2="BackgroundImageFix" result="shape"/>
<feColorMatrix in="SourceAlpha" type="matrix" values="0 0 0 0 0 0 0 0 0 0 0 0 0 0 0 0 0 0 127 0" result="hardAlpha"/>
<feOffset dx="-9" dy="4"/>
<feGaussianBlur stdDeviation="2"/>
<feComposite in2="hardAlpha" operator="arithmetic" k2="-1" k3="1"/>
<feColorMatrix type="matrix" values="0 0 0 0 1 0 0 0 0 1 0 0 0 0 1 0 0 0 0.25 0"/>
<feBlend mode="normal" in2="shape" result="effect1_innerShadow_2557_49542"/>
</filter>
<filter id="filter3_i_2557_49542" x="-27.8086" y="80.0808" width="132.53" height="22.8259" filterUnits="userSpaceOnUse" color-interpolation-filters="sRGB">
<feFlood flood-opacity="0" result="BackgroundImageFix"/>
<feBlend mode="normal" in="SourceGraphic" in2="BackgroundImageFix" result="shape"/>
<feColorMatrix in="SourceAlpha" type="matrix" values="0 0 0 0 0 0 0 0 0 0 0 0 0 0 0 0 0 0 127 0" result="hardAlpha"/>
<feOffset dx="-9" dy="4"/>
<feGaussianBlur stdDeviation="2"/>
<feComposite in2="hardAlpha" operator="arithmetic" k2="-1" k3="1"/>
<feColorMatrix type="matrix" values="0 0 0 0 1 0 0 0 0 1 0 0 0 0 1 0 0 0 0.25 0"/>
<feBlend mode="normal" in2="shape" result="effect1_innerShadow_2557_49542"/>
</filter>
<filter id="filter4_i_2557_49542" x="14.5062" y="118.198" width="64.946" height="42.6287" filterUnits="userSpaceOnUse" color-interpolation-filters="sRGB">
<feFlood flood-opacity="0" result="BackgroundImageFix"/>
<feBlend mode="normal" in="SourceGraphic" in2="BackgroundImageFix" result="shape"/>
<feColorMatrix in="SourceAlpha" type="matrix" values="0 0 0 0 0 0 0 0 0 0 0 0 0 0 0 0 0 0 127 0" result="hardAlpha"/>
<feOffset dx="-4.43522" dy="5.91363"/>
<feGaussianBlur stdDeviation="2.95681"/>
<feComposite in2="hardAlpha" operator="arithmetic" k2="-1" k3="1"/>
<feColorMatrix type="matrix" values="0 0 0 0 1 0 0 0 0 1 0 0 0 0 1 0 0 0 0.25 0"/>
<feBlend mode="normal" in2="shape" result="effect1_innerShadow_2557_49542"/>
</filter>
<filter id="filter5_i_2557_49542" x="19.1523" y="121.809" width="56.1641" height="33.783" filterUnits="userSpaceOnUse" color-interpolation-filters="sRGB">
<feFlood flood-opacity="0" result="BackgroundImageFix"/>
<feBlend mode="normal" in="SourceGraphic" in2="BackgroundImageFix" result="shape"/>
<feColorMatrix in="SourceAlpha" type="matrix" values="0 0 0 0 0 0 0 0 0 0 0 0 0 0 0 0 0 0 127 0" result="hardAlpha"/>
<feOffset dx="-9" dy="4"/>
<feGaussianBlur stdDeviation="2"/>
<feComposite in2="hardAlpha" operator="arithmetic" k2="-1" k3="1"/>
<feColorMatrix type="matrix" values="0 0 0 0 1 0 0 0 0 1 0 0 0 0 1 0 0 0 0.25 0"/>
<feBlend mode="normal" in2="shape" result="effect1_innerShadow_2557_49542"/>
</filter>
<filter id="filter6_i_2557_49542" x="37.7158" y="46.7517" width="25.4069" height="19.844" filterUnits="userSpaceOnUse" color-interpolation-filters="sRGB">
<feFlood flood-opacity="0" result="BackgroundImageFix"/>
<feBlend mode="normal" in="SourceGraphic" in2="BackgroundImageFix" result="shape"/>
<feColorMatrix in="SourceAlpha" type="matrix" values="0 0 0 0 0 0 0 0 0 0 0 0 0 0 0 0 0 0 127 0" result="hardAlpha"/>
<feOffset dx="17.7409"/>
<feGaussianBlur stdDeviation="2.21761"/>
<feComposite in2="hardAlpha" operator="arithmetic" k2="-1" k3="1"/>
<feColorMatrix type="matrix" values="0 0 0 0 0 0 0 0 0 0 0 0 0 0 0 0 0 0 0.25 0"/>
<feBlend mode="normal" in2="shape" result="effect1_innerShadow_2557_49542"/>
</filter>
<filter id="filter7_di_2557_49542" x="-2.32888" y="44.0077" width="43.4937" height="22.4636" filterUnits="userSpaceOnUse" color-interpolation-filters="sRGB">
<feFlood flood-opacity="0" result="BackgroundImageFix"/>
<feColorMatrix in="SourceAlpha" type="matrix" values="0 0 0 0 0 0 0 0 0 0 0 0 0 0 0 0 0 0 127 0" result="hardAlpha"/>
<feOffset dy="1.47841"/>
<feGaussianBlur stdDeviation="1.47841"/>
<feComposite in2="hardAlpha" operator="out"/>
<feColorMatrix type="matrix" values="0 0 0 0 0 0 0 0 0 0 0 0 0 0 0 0 0 0 0.1 0"/>
<feBlend mode="normal" in2="BackgroundImageFix" result="effect1_dropShadow_2557_49542"/>
<feBlend mode="normal" in="SourceGraphic" in2="effect1_dropShadow_2557_49542" result="shape"/>
<feColorMatrix in="SourceAlpha" type="matrix" values="0 0 0 0 0 0 0 0 0 0 0 0 0 0 0 0 0 0 127 0" result="hardAlpha"/>
<feOffset dx="-1.47841" dy="5.91363"/>
<feGaussianBlur stdDeviation="2.95681"/>
<feComposite in2="hardAlpha" operator="arithmetic" k2="-1" k3="1"/>
<feColorMatrix type="matrix" values="0 0 0 0 1 0 0 0 0 1 0 0 0 0 1 0 0 0 0.25 0"/>
<feBlend mode="normal" in2="shape" result="effect2_innerShadow_2557_49542"/>
</filter>
<filter id="filter8_di_2557_49542" x="58.0598" y="49.6222" width="26.2505" height="16.3771" filterUnits="userSpaceOnUse" color-interpolation-filters="sRGB">
<feFlood flood-opacity="0" result="BackgroundImageFix"/>
<feColorMatrix in="SourceAlpha" type="matrix" values="0 0 0 0 0 0 0 0 0 0 0 0 0 0 0 0 0 0 127 0" result="hardAlpha"/>
<feOffset dy="1.47841"/>
<feGaussianBlur stdDeviation="1.47841"/>
<feComposite in2="hardAlpha" operator="out"/>
<feColorMatrix type="matrix" values="0 0 0 0 0 0 0 0 0 0 0 0 0 0 0 0 0 0 0.1 0"/>
<feBlend mode="normal" in2="BackgroundImageFix" result="effect1_dropShadow_2557_49542"/>
<feBlend mode="normal" in="SourceGraphic" in2="effect1_dropShadow_2557_49542" result="shape"/>
<feColorMatrix in="SourceAlpha" type="matrix" values="0 0 0 0 0 0 0 0 0 0 0 0 0 0 0 0 0 0 127 0" result="hardAlpha"/>
<feOffset dx="-1.47841" dy="5.91363"/>
<feGaussianBlur stdDeviation="2.95681"/>
<feComposite in2="hardAlpha" operator="arithmetic" k2="-1" k3="1"/>
<feColorMatrix type="matrix" values="0 0 0 0 1 0 0 0 0 1 0 0 0 0 1 0 0 0 0.25 0"/>
<feBlend mode="normal" in2="shape" result="effect2_innerShadow_2557_49542"/>
</filter>
<filter id="filter9_i_2557_49542" x="36.8617" y="46.2427" width="25.4069" height="23.8184" filterUnits="userSpaceOnUse" color-interpolation-filters="sRGB">
<feFlood flood-opacity="0" result="BackgroundImageFix"/>
<feBlend mode="normal" in="SourceGraphic" in2="BackgroundImageFix" result="shape"/>
<feColorMatrix in="SourceAlpha" type="matrix" values="0 0 0 0 0 0 0 0 0 0 0 0 0 0 0 0 0 0 127 0" result="hardAlpha"/>
<feOffset dx="-4.43522" dy="2.95681"/>
<feGaussianBlur stdDeviation="2.95681"/>
<feComposite in2="hardAlpha" operator="arithmetic" k2="-1" k3="1"/>
<feColorMatrix type="matrix" values="0 0 0 0 1 0 0 0 0 1 0 0 0 0 1 0 0 0 0.25 0"/>
<feBlend mode="normal" in2="shape" result="effect1_innerShadow_2557_49542"/>
</filter>
<linearGradient id="paint0_linear_2557_49542" x1="-9.34082" y1="129.435" x2="60.7334" y2="130.978" gradientUnits="userSpaceOnUse">
<stop stop-color="#349D61"/>
<stop offset="0.1875" stop-color="#35BB73"/>
<stop offset="0.755208" stop-color="#35BB73"/>
</linearGradient>
<clipPath id="clip0_2557_49542">
<rect width="186" height="186" fill="white"/>
</clipPath>
<clipPath id="clip1_2557_49542">
<rect width="198.107" height="322.293" fill="white" transform="translate(-57.4219 5)"/>
</clipPath>
</defs>
</svg>
