<svg width="186" height="189" viewBox="0 0 186 189" fill="none" xmlns="http://www.w3.org/2000/svg">
<g clip-path="url(#clip0_2557_49568)" filter="url(#filter0_d_2557_49568)">
<rect width="186" height="186" fill="#D6F2DC"/>
<g clip-path="url(#clip1_2557_49568)">
<g clip-path="url(#clip2_2557_49568)">
<g filter="url(#filter1_i_2557_49568)">
<path d="M90.6137 110.137C90.6137 110.137 87.9142 112.283 87.5722 115.561C87.2302 118.838 88.9561 122.174 88.9561 122.174C99.0645 123.551 108.783 130.451 114.319 140.184C119.534 149.357 121.323 160.918 119.36 172.745C118.192 179.756 115.892 185.169 112.525 188.829C109.789 191.798 105.937 194.096 102.206 196.316L108.478 206.746C112.751 204.201 117.592 201.321 121.528 197.039C126.522 191.614 129.847 184.112 131.405 174.735C133.826 160.179 131.531 145.781 124.948 134.205C117.461 121.048 104.626 112.053 90.6137 110.142V110.137Z" fill="#D371F5"/>
</g>
<g filter="url(#filter2_i_2557_49568)">
<path d="M-15.9902 88.5931C-15.9902 58.508 8.39864 34.1191 38.4838 34.1191C68.569 34.1191 92.9579 58.508 92.9579 88.5932V144.977C92.9579 171.71 71.2871 193.38 44.555 193.38H32.0493C5.5178 193.38 -15.9902 171.872 -15.9902 145.341V88.5931Z" fill="url(#paint0_linear_2557_49568)"/>
</g>
<path d="M-15.9902 91.6159C-15.9902 91.6159 19.1366 103.589 58.6011 103.314C90.9119 102.81 92.9579 100.266 92.9579 100.266V92.1248C60.4644 86.0543 18.1497 95.1879 -15.9902 91.6159Z" fill="black" fill-opacity="0.07"/>
<g filter="url(#filter3_i_2557_49568)">
<path d="M64.3137 64.6487C67.7036 64.6487 70.4516 62.0289 70.4516 58.7973C70.4516 55.5656 67.7036 52.9458 64.3137 52.9458C60.9238 52.9458 58.1758 55.5656 58.1758 58.7973C58.1758 62.0289 60.9238 64.6487 64.3137 64.6487Z" fill="white"/>
</g>
<ellipse cx="65.5927" cy="58.7973" rx="2.30172" ry="2.2897" fill="black"/>
<g filter="url(#filter4_i_2557_49568)">
<path d="M64.3137 52.9458C60.9238 52.9458 58.1758 55.5656 58.1758 58.7973C61.6539 56.9655 67.8089 58.034 70.4516 58.7973C70.4516 55.5656 67.7036 52.9458 64.3137 52.9458Z" fill="#954FAD"/>
</g>
<path d="M57.1533 59.3408C59.4953 58.317 65.6383 56.9275 71.4751 59.5602C70.9347 57.8051 62.5578 54.953 57.1533 59.3408Z" fill="#763D89"/>
<path d="M58.9849 56.6465C59.0816 57.4291 59.8958 57.9858 60.2908 58.1662L59.5243 58.2575C59.2201 58.0249 58.6863 57.377 58.9849 56.6465Z" fill="#763D89"/>
<path d="M57.9722 56.5128C58.0405 57.5484 58.8577 58.2551 59.2578 58.479L58.4636 58.6308C58.1592 58.334 57.6348 57.4948 57.9722 56.5128Z" fill="#763D89"/>
<g filter="url(#filter5_i_2557_49568)">
<path d="M35.6701 64.6487C39.06 64.6487 41.8081 62.0289 41.8081 58.7973C41.8081 55.5656 39.06 52.9458 35.6701 52.9458C32.2803 52.9458 29.5322 55.5656 29.5322 58.7973C29.5322 62.0289 32.2803 64.6487 35.6701 64.6487Z" fill="white"/>
</g>
<ellipse cx="36.9482" cy="58.7973" rx="2.30172" ry="2.2897" fill="black"/>
<g filter="url(#filter6_i_2557_49568)">
<path d="M35.6701 52.9458C32.2803 52.9458 29.5322 55.5656 29.5322 58.7973C33.0104 56.9655 39.1654 58.034 41.8081 58.7973C41.8081 55.5656 39.06 52.9458 35.6701 52.9458Z" fill="#954FAD"/>
</g>
<path d="M28.5088 59.3408C30.8507 58.317 36.9938 56.9275 42.8306 59.5602C42.2902 57.8051 33.9132 54.953 28.5088 59.3408Z" fill="#763D89"/>
<path d="M30.3423 56.6465C30.439 57.4291 31.2532 57.9858 31.6482 58.1662L30.8817 58.2575C30.5775 58.0249 30.0437 57.377 30.3423 56.6465Z" fill="#763D89"/>
<path d="M29.3287 56.5128C29.3969 57.5484 30.2142 58.2551 30.6143 58.479L29.8201 58.6308C29.5157 58.334 28.9913 57.4948 29.3287 56.5128Z" fill="#763D89"/>
<path d="M12.9395 68.2102C13.042 68.2102 13.1436 68.2151 13.2441 68.2229C13.1917 68.4756 13.165 68.7379 13.165 69.0061C13.1653 71.0287 14.7337 72.6849 16.7266 72.8401C16.3636 74.5906 14.8063 75.9065 12.9395 75.9065C10.8035 75.9065 9.07245 74.184 9.07227 72.0588C9.07227 69.9335 10.8034 68.2102 12.9395 68.2102Z" fill="#EC1E24"/>
<path d="M77.8193 68.2102C77.7171 68.2102 77.6159 68.2152 77.5156 68.2229C77.5681 68.4756 77.5957 68.7379 77.5957 69.0061C77.5955 71.0292 76.0257 72.6855 74.0322 72.8401C74.3952 74.5906 75.9525 75.9065 77.8193 75.9065C79.9552 75.9065 81.6863 74.184 81.6865 72.0588C81.6865 69.9335 79.9553 68.2102 77.8193 68.2102Z" fill="#EC1E24"/>
<path d="M56.9213 77.3616C59.7699 77.3121 62.012 76.1146 61.929 74.6869C61.846 73.2592 59.4695 72.1419 56.6208 72.1914C53.7722 72.2409 51.5301 73.4384 51.6131 74.8661C51.6961 76.2939 54.0726 77.4111 56.9213 77.3616Z" fill="#954FAD"/>
<path d="M49.3028 77.3836C52.1514 77.3341 54.3955 76.1717 54.3151 74.7873C54.2346 73.403 51.8601 72.3208 49.0115 72.3703C46.1628 72.4198 43.9187 73.5822 43.9992 74.9666C44.0796 76.351 46.4541 77.4331 49.3028 77.3836Z" fill="#954FAD"/>
<g filter="url(#filter7_i_2557_49568)">
<path d="M92.0184 85.1167C93.4181 86.0905 94.7697 87.122 96.0304 88.2633C97.7132 89.7869 99.1984 91.5409 100.336 93.4781C96.9173 95.3315 90.6615 96.808 79.5444 97.6614C79.1704 94.1273 78.6843 90.6037 78.0859 87.0958C87.7981 86.9701 91.1049 86.4047 92.0131 85.1167H92.0184Z" fill="#EDC3FC"/>
<path d="M42.9543 86.7295C47.5113 86.808 51.6355 86.8813 55.4017 86.9389C55.3964 90.7767 55.3857 94.6144 55.3803 98.4522C51.4004 98.4626 47.1213 98.4365 42.4789 98.3684C36.4636 98.2742 30.8809 98.2009 25.6562 98.1171C25.699 94.2531 25.7364 90.3945 25.7791 86.5305C30.8916 86.5567 36.5864 86.6143 42.9543 86.7242V86.7295Z" fill="#EDC3FC"/>
<path d="M92.0186 85.1168C92.2322 84.8132 92.3177 84.4728 92.3231 84.0854C92.3444 80.8026 91.9277 79.8078 91.9277 79.8078C91.9277 79.8078 104.279 76.6821 104.21 87.8342C104.199 89.8918 103.376 91.829 100.336 93.4782C99.1985 91.541 97.708 89.7871 96.0306 88.2635C94.7698 87.1221 93.4129 86.0907 92.0186 85.1168Z" fill="#764088"/>
<path d="M78.0897 87.0959C78.688 90.6038 79.1741 94.1275 79.5481 97.6615C73.2069 98.1485 65.2737 98.4312 55.3799 98.4574C55.3852 94.6196 55.3906 90.7818 55.4012 86.9441C65.3752 87.0959 72.7207 87.164 78.0897 87.0959Z" fill="#764088"/>
<path d="M-11.4177 86.3682C-8.88011 86.6666 -4.43539 86.6561 2.62703 86.6038C1.08847 90.1274 -0.337904 93.6929 -1.66277 97.295C-8.09481 96.8971 -13.1753 96.2898 -16.8721 95.3317C-16.8133 95.2269 -16.7545 95.117 -16.6958 95.0123C-15.045 92.0698 -13.2661 89.2007 -11.4177 86.3682Z" fill="#EDC3FC"/>
<path d="M25.7809 86.5355C25.7381 90.3995 25.7007 94.2582 25.658 98.1221C14.8293 97.9545 5.69947 97.7556 -1.66211 97.2948C-0.337239 93.6875 1.09447 90.1272 2.62769 86.6036C8.43468 86.5617 16.0206 86.4884 25.7809 86.5355Z" fill="#764088"/>
</g>
<path d="M79.8745 118.205L18.9032 117.854L18.6875 154.661L78.6642 155.011L79.8745 118.205Z" fill="#1D70B7"/>
<path d="M74.0009 121.508L75.69 121.519L74.6587 151.65L22.9434 151.352L22.9539 149.509L73.0327 149.802L74.0009 121.508Z" fill="#AE6E72"/>
<path d="M74.0002 121.509L73.0319 149.802L22.9531 149.509L23.1215 121.215L74.0002 121.509Z" fill="#FCA0A6"/>
<path d="M0.253209 107.262C1.07855 107.262 1.74762 106.596 1.74762 105.775C1.74762 104.954 1.07855 104.288 0.253209 104.288C-0.572135 104.288 -1.24121 104.954 -1.24121 105.775C-1.24121 106.596 -0.572135 107.262 0.253209 107.262Z" fill="#7D4DBD"/>
<path d="M0.17508 120.514C1.00042 120.514 1.6695 119.848 1.6695 119.027C1.6695 118.206 1.00042 117.54 0.17508 117.54C-0.650264 117.54 -1.31934 118.206 -1.31934 119.027C-1.31934 119.848 -0.650264 120.514 0.17508 120.514Z" fill="#7D4DBD"/>
<path d="M0.101842 133.771C0.927186 133.771 1.59626 133.105 1.59626 132.284C1.59626 131.463 0.927186 130.797 0.101842 130.797C-0.723502 130.797 -1.39258 131.463 -1.39258 132.284C-1.39258 133.105 -0.723502 133.771 0.101842 133.771Z" fill="#7D4DBD"/>
<path d="M0.0227361 147.022C0.84808 147.022 1.51716 146.356 1.51716 145.535C1.51716 144.714 0.84808 144.048 0.0227361 144.048C-0.802608 144.048 -1.47168 144.714 -1.47168 145.535C-1.47168 146.356 -0.802608 147.022 0.0227361 147.022Z" fill="#7D4DBD"/>
<path d="M-0.0573421 160.274C0.768002 160.274 1.43708 159.608 1.43708 158.787C1.43708 157.966 0.768002 157.3 -0.0573421 157.3C-0.882686 157.3 -1.55176 157.966 -1.55176 158.787C-1.55176 159.608 -0.882686 160.274 -0.0573421 160.274Z" fill="#7D4DBD"/>
<g clip-path="url(#clip3_2557_49568)" filter="url(#filter8_i_2557_49568)">
<path d="M86.3352 61.3661L102.242 51.5562C102.587 51.3792 102.708 50.9224 102.511 50.5375C102.315 50.1526 101.874 49.9848 101.529 50.1618L84.3885 57.3268L86.3352 61.3661Z" fill="#D83A86"/>
<path d="M98.0248 51.9616C98.0248 51.9616 94.2392 53.5056 94.1083 53.5935C93.9779 53.6825 95.456 53.3462 95.8849 53.2381C96.3137 53.1301 97.7625 52.4794 97.9104 52.382C98.0583 52.2847 98.0253 51.9626 98.0253 51.9626L98.0248 51.9616Z" fill="#ED77B0"/>
<path d="M93.6434 53.4555L84.4928 57.2781L86.4395 61.3174L102.245 51.5554C102.589 51.3795 102.708 50.9234 102.511 50.5385C102.315 50.1536 101.876 49.9849 101.532 50.1609L98.8169 51.2951C98.8169 51.2951 98.9567 52.0408 99.3212 52.446C99.3212 52.446 95.9218 54.1611 95.4953 54.1876C94.9019 54.2239 93.6439 53.4566 93.6439 53.4566L93.6434 53.4555Z" fill="#AE2F6C"/>
<path d="M88.3663 64.4145C92.4175 61.886 93.05 60.8932 93.8944 60.1005C95.6688 58.4473 91.8875 51.6047 90.0129 51.6703C88.8398 51.8451 87.7633 51.9611 83.2705 53.8411L88.3663 64.4145Z" fill="#D371F5"/>
<path d="M91.1108 52.5253C92.0491 53.4437 93.0767 55.0434 92.9942 55.5774C92.7234 55.7682 92.1968 56.0998 91.4761 56.5333C90.7601 55.3319 89.8328 54.2608 88.8746 53.2312C89.4752 52.9139 91.0202 52.4264 91.1108 52.5253Z" fill="#EDC3FC"/>
<path d="M88.2767 68.6796C90.311 67.0807 91.1664 66.3294 91.6546 65.673C93.6499 62.9868 87.8569 51.5743 84.7799 51.4279C83.9387 51.3881 82.1041 51.7764 79.6599 52.5052C79.6599 52.5052 81.563 54.4329 84.6108 59.8536C87.6585 65.2743 88.1403 68.3314 88.1403 68.3314L88.2767 68.6796Z" fill="#764088"/>
<path d="M86.2017 58.6043C85.2997 56.808 83.8636 54.7369 83.065 53.7264C83.5352 53.2917 86.1456 52.4757 86.4207 52.7761C87.2001 53.6296 88.4782 55.5039 89.235 57.0102C88.2508 57.5909 87.2297 58.1033 86.2017 58.6043Z" fill="#AE7ABF"/>
<path d="M105.768 51.8361C105.03 53.5498 103.043 54.3234 101.329 53.5657C99.6157 52.8064 98.8231 50.8024 99.5603 49.0876C100.297 47.3728 102.285 46.5965 104 47.3563C105.715 48.1162 106.506 50.1223 105.768 51.8371L105.768 51.8361Z" fill="#D83A86"/>
<path d="M101.267 49.1189C101.388 49.8791 102.15 50.3924 102.97 50.2654C103.79 50.1384 104.356 49.4191 104.237 48.6594C104.117 47.8993 103.355 47.3859 102.535 47.513C101.715 47.64 101.148 48.3593 101.267 49.1189Z" fill="#ED77B0"/>
<path d="M99.6441 49.9724C100.409 48.1922 102.474 47.387 104.253 48.175C104.632 48.3428 104.968 48.5702 105.253 48.8401C104.935 48.3298 104.466 47.9049 103.875 47.6448C102.32 46.9564 100.516 47.6597 99.8488 49.2153C99.7369 49.4764 99.665 49.7453 99.6283 50.0148C99.6339 50.0014 99.639 49.9869 99.6447 49.9735L99.6441 49.9724Z" fill="#ED77B0"/>
<path d="M99.3033 50.0679C99.1515 51.5062 99.9359 52.9471 101.328 53.5645C103.042 54.3238 105.028 53.5491 105.767 51.8349C103.698 53.398 100.089 52.6299 99.3027 50.0668L99.3033 50.0679Z" fill="#AE2F6C"/>
</g>
<g clip-path="url(#clip4_2557_49568)" filter="url(#filter9_i_2557_49568)">
<path d="M42.1432 34.5114L40.8602 18.9165C40.859 18.5913 40.568 18.3276 40.2119 18.3274C39.8558 18.3272 39.5681 18.5918 39.5693 18.917L38.4482 34.4242L42.1432 34.5114Z" fill="#D83A86"/>
<path d="M39.586 22.2146C39.586 22.2146 39.3101 25.6249 39.3259 25.756C39.3427 25.8871 39.6464 24.657 39.7268 24.2962C39.8073 23.9353 39.8689 22.6074 39.8524 22.46C39.836 22.3127 39.587 22.2146 39.587 22.2146L39.586 22.2146Z" fill="#ED77B0"/>
<path d="M39.053 26.0497L38.4525 34.3274L42.1474 34.4147L40.8623 18.9131C40.861 18.5899 40.57 18.3277 40.2138 18.3274C39.8577 18.3272 39.5701 18.5902 39.5714 18.9134L39.3931 21.3699C39.3931 21.3699 39.9933 21.5497 40.4271 21.4323C40.4271 21.4323 40.4209 24.6198 40.2814 24.9479C40.0869 25.4041 39.054 26.0497 39.054 26.0497L39.053 26.0497Z" fill="#AE2F6C"/>
<path d="M45.1421 34.1584C44.7932 30.1752 44.2992 29.3255 44.0311 28.394C43.4772 26.4416 37.0377 26.6543 36.3872 28.0768C36.0785 29.0179 35.7625 29.8647 35.47 33.9301L45.1421 34.1584Z" fill="#D371F5"/>
<path d="M37.424 27.5846C38.4489 27.2349 40.0079 27.0782 40.3696 27.3431C40.409 27.6176 40.4565 28.1365 40.5065 28.8389C39.3565 28.9151 38.2235 29.1984 37.1095 29.5206C37.1001 28.952 37.3175 27.6145 37.424 27.5846Z" fill="#EDC3FC"/>
<path d="M48.2431 35.8499C47.8259 33.7244 47.5924 32.8005 47.2918 32.1865C46.0608 29.6759 35.512 29.6478 34.2576 31.8859C33.9147 32.4979 33.5165 34.0135 33.1412 36.1132C33.1412 36.1132 35.2676 35.4287 40.3885 35.2213C45.5093 35.0138 47.9363 35.8191 47.9363 35.8191L48.2431 35.8499Z" fill="#764088"/>
<path d="M40.0631 33.5592C38.4064 33.5474 36.3487 33.8292 35.3082 34.0397C35.1639 33.5235 35.5369 31.2667 35.8603 31.176C36.7782 30.9201 38.6324 30.6811 40.0218 30.6906C40.0819 31.6455 40.078 32.602 40.0631 33.5592Z" fill="#AE7ABF"/>
<path d="M42.3807 16.3944C43.3656 17.5971 43.1935 19.3734 41.9977 20.3625C40.801 21.3505 39.0324 21.1781 38.0466 19.9753C37.0607 18.7726 37.2308 16.9953 38.4286 16.0063C39.6263 15.0172 41.3959 15.1917 42.3817 16.3944L42.3807 16.3944Z" fill="#D83A86"/>
<path d="M38.7055 18.714C39.3092 18.9137 39.9705 18.5413 40.1828 17.8816C40.3951 17.2219 40.0775 16.5253 39.4747 16.3247C38.871 16.125 38.2097 16.4975 37.9974 17.1572C37.7851 17.8169 38.1027 18.5134 38.7055 18.714Z" fill="#ED77B0"/>
<path d="M38.728 20.2497C37.7043 19.0015 37.882 17.1554 39.1246 16.1289C39.3892 15.9102 39.6814 15.7469 39.9863 15.6366C39.4924 15.6796 39.0051 15.8677 38.594 16.2086C37.5081 17.1061 37.3529 18.7186 38.2477 19.8087C38.398 19.9916 38.5688 20.1476 38.7533 20.2776C38.7455 20.2683 38.7367 20.259 38.729 20.2497L38.728 20.2497Z" fill="#ED77B0"/>
<path d="M38.6715 20.5402C39.6723 21.2012 41.0239 21.1652 41.9967 20.3623C43.1935 19.3743 43.3645 17.598 42.3797 16.3943C42.7577 18.5321 40.848 20.93 38.6705 20.5402L38.6715 20.5402Z" fill="#AE2F6C"/>
</g>
</g>
</g>
</g>
<defs>
<filter id="filter0_d_2557_49568" x="0" y="0" width="186" height="188.339" filterUnits="userSpaceOnUse" color-interpolation-filters="sRGB">
<feFlood flood-opacity="0" result="BackgroundImageFix"/>
<feColorMatrix in="SourceAlpha" type="matrix" values="0 0 0 0 0 0 0 0 0 0 0 0 0 0 0 0 0 0 127 0" result="hardAlpha"/>
<feOffset dy="2.33878"/>
<feComposite in2="hardAlpha" operator="out"/>
<feColorMatrix type="matrix" values="0 0 0 0 0.529412 0 0 0 0 0.529412 0 0 0 0 0.529412 0 0 0 1 0"/>
<feBlend mode="normal" in2="BackgroundImageFix" result="effect1_dropShadow_2557_49568"/>
<feBlend mode="normal" in="SourceGraphic" in2="effect1_dropShadow_2557_49568" result="shape"/>
</filter>
<filter id="filter1_i_2557_49568" x="80.2568" y="110.137" width="52.0879" height="117.316" filterUnits="userSpaceOnUse" color-interpolation-filters="sRGB">
<feFlood flood-opacity="0" result="BackgroundImageFix"/>
<feBlend mode="normal" in="SourceGraphic" in2="BackgroundImageFix" result="shape"/>
<feColorMatrix in="SourceAlpha" type="matrix" values="0 0 0 0 0 0 0 0 0 0 0 0 0 0 0 0 0 0 127 0" result="hardAlpha"/>
<feOffset dx="-9" dy="4"/>
<feGaussianBlur stdDeviation="2"/>
<feComposite in2="hardAlpha" operator="arithmetic" k2="-1" k3="1"/>
<feColorMatrix type="matrix" values="0 0 0 0 1 0 0 0 0 1 0 0 0 0 1 0 0 0 0.25 0"/>
<feBlend mode="normal" in2="shape" result="effect1_innerShadow_2557_49568"/>
</filter>
<filter id="filter2_i_2557_49568" x="-19.9902" y="34.1191" width="112.948" height="163.261" filterUnits="userSpaceOnUse" color-interpolation-filters="sRGB">
<feFlood flood-opacity="0" result="BackgroundImageFix"/>
<feBlend mode="normal" in="SourceGraphic" in2="BackgroundImageFix" result="shape"/>
<feColorMatrix in="SourceAlpha" type="matrix" values="0 0 0 0 0 0 0 0 0 0 0 0 0 0 0 0 0 0 127 0" result="hardAlpha"/>
<feOffset dx="-9" dy="4"/>
<feGaussianBlur stdDeviation="2"/>
<feComposite in2="hardAlpha" operator="arithmetic" k2="-1" k3="1"/>
<feColorMatrix type="matrix" values="0 0 0 0 1 0 0 0 0 1 0 0 0 0 1 0 0 0 0.25 0"/>
<feBlend mode="normal" in2="shape" result="effect1_innerShadow_2557_49568"/>
</filter>
<filter id="filter3_i_2557_49568" x="58.1758" y="52.9458" width="15.2322" height="16.1381" filterUnits="userSpaceOnUse" color-interpolation-filters="sRGB">
<feFlood flood-opacity="0" result="BackgroundImageFix"/>
<feBlend mode="normal" in="SourceGraphic" in2="BackgroundImageFix" result="shape"/>
<feColorMatrix in="SourceAlpha" type="matrix" values="0 0 0 0 0 0 0 0 0 0 0 0 0 0 0 0 0 0 127 0" result="hardAlpha"/>
<feOffset dx="2.95681" dy="4.43522"/>
<feGaussianBlur stdDeviation="2.21761"/>
<feComposite in2="hardAlpha" operator="arithmetic" k2="-1" k3="1"/>
<feColorMatrix type="matrix" values="0 0 0 0 0 0 0 0 0 0 0 0 0 0 0 0 0 0 0.25 0"/>
<feBlend mode="normal" in2="shape" result="effect1_innerShadow_2557_49568"/>
</filter>
<filter id="filter4_i_2557_49568" x="56.6974" y="52.9458" width="13.7538" height="8.80838" filterUnits="userSpaceOnUse" color-interpolation-filters="sRGB">
<feFlood flood-opacity="0" result="BackgroundImageFix"/>
<feBlend mode="normal" in="SourceGraphic" in2="BackgroundImageFix" result="shape"/>
<feColorMatrix in="SourceAlpha" type="matrix" values="0 0 0 0 0 0 0 0 0 0 0 0 0 0 0 0 0 0 127 0" result="hardAlpha"/>
<feOffset dx="-1.47841" dy="2.95681"/>
<feGaussianBlur stdDeviation="2.95681"/>
<feComposite in2="hardAlpha" operator="arithmetic" k2="-1" k3="1"/>
<feColorMatrix type="matrix" values="0 0 0 0 1 0 0 0 0 1 0 0 0 0 1 0 0 0 0.25 0"/>
<feBlend mode="normal" in2="shape" result="effect1_innerShadow_2557_49568"/>
</filter>
<filter id="filter5_i_2557_49568" x="29.5322" y="52.9458" width="15.2322" height="16.1381" filterUnits="userSpaceOnUse" color-interpolation-filters="sRGB">
<feFlood flood-opacity="0" result="BackgroundImageFix"/>
<feBlend mode="normal" in="SourceGraphic" in2="BackgroundImageFix" result="shape"/>
<feColorMatrix in="SourceAlpha" type="matrix" values="0 0 0 0 0 0 0 0 0 0 0 0 0 0 0 0 0 0 127 0" result="hardAlpha"/>
<feOffset dx="2.95681" dy="4.43522"/>
<feGaussianBlur stdDeviation="2.21761"/>
<feComposite in2="hardAlpha" operator="arithmetic" k2="-1" k3="1"/>
<feColorMatrix type="matrix" values="0 0 0 0 0 0 0 0 0 0 0 0 0 0 0 0 0 0 0.25 0"/>
<feBlend mode="normal" in2="shape" result="effect1_innerShadow_2557_49568"/>
</filter>
<filter id="filter6_i_2557_49568" x="28.0538" y="52.9458" width="13.7538" height="8.80838" filterUnits="userSpaceOnUse" color-interpolation-filters="sRGB">
<feFlood flood-opacity="0" result="BackgroundImageFix"/>
<feBlend mode="normal" in="SourceGraphic" in2="BackgroundImageFix" result="shape"/>
<feColorMatrix in="SourceAlpha" type="matrix" values="0 0 0 0 0 0 0 0 0 0 0 0 0 0 0 0 0 0 127 0" result="hardAlpha"/>
<feOffset dx="-1.47841" dy="2.95681"/>
<feGaussianBlur stdDeviation="2.95681"/>
<feComposite in2="hardAlpha" operator="arithmetic" k2="-1" k3="1"/>
<feColorMatrix type="matrix" values="0 0 0 0 1 0 0 0 0 1 0 0 0 0 1 0 0 0 0.25 0"/>
<feBlend mode="normal" in2="shape" result="effect1_innerShadow_2557_49568"/>
</filter>
<filter id="filter7_i_2557_49568" x="-28.1748" y="79.4045" width="132.385" height="23.0527" filterUnits="userSpaceOnUse" color-interpolation-filters="sRGB">
<feFlood flood-opacity="0" result="BackgroundImageFix"/>
<feBlend mode="normal" in="SourceGraphic" in2="BackgroundImageFix" result="shape"/>
<feColorMatrix in="SourceAlpha" type="matrix" values="0 0 0 0 0 0 0 0 0 0 0 0 0 0 0 0 0 0 127 0" result="hardAlpha"/>
<feOffset dx="-9" dy="4"/>
<feGaussianBlur stdDeviation="2"/>
<feComposite in2="hardAlpha" operator="arithmetic" k2="-1" k3="1"/>
<feColorMatrix type="matrix" values="0 0 0 0 1 0 0 0 0 1 0 0 0 0 1 0 0 0 0.25 0"/>
<feBlend mode="normal" in2="shape" result="effect1_innerShadow_2557_49568"/>
</filter>
<filter id="filter8_i_2557_49568" x="75.6582" y="41.7517" width="34.6016" height="31.4626" filterUnits="userSpaceOnUse" color-interpolation-filters="sRGB">
<feFlood flood-opacity="0" result="BackgroundImageFix"/>
<feBlend mode="normal" in="SourceGraphic" in2="BackgroundImageFix" result="shape"/>
<feColorMatrix in="SourceAlpha" type="matrix" values="0 0 0 0 0 0 0 0 0 0 0 0 0 0 0 0 0 0 127 0" result="hardAlpha"/>
<feOffset dx="-9" dy="4"/>
<feGaussianBlur stdDeviation="2"/>
<feComposite in2="hardAlpha" operator="arithmetic" k2="-1" k3="1"/>
<feColorMatrix type="matrix" values="0 0 0 0 1 0 0 0 0 1 0 0 0 0 1 0 0 0 0.25 0"/>
<feBlend mode="normal" in2="shape" result="effect1_innerShadow_2557_49568"/>
</filter>
<filter id="filter9_i_2557_49568" x="29.1416" y="15.2083" width="19.7832" height="25.2671" filterUnits="userSpaceOnUse" color-interpolation-filters="sRGB">
<feFlood flood-opacity="0" result="BackgroundImageFix"/>
<feBlend mode="normal" in="SourceGraphic" in2="BackgroundImageFix" result="shape"/>
<feColorMatrix in="SourceAlpha" type="matrix" values="0 0 0 0 0 0 0 0 0 0 0 0 0 0 0 0 0 0 127 0" result="hardAlpha"/>
<feOffset dx="-9" dy="4"/>
<feGaussianBlur stdDeviation="2"/>
<feComposite in2="hardAlpha" operator="arithmetic" k2="-1" k3="1"/>
<feColorMatrix type="matrix" values="0 0 0 0 1 0 0 0 0 1 0 0 0 0 1 0 0 0 0.25 0"/>
<feBlend mode="normal" in2="shape" result="effect1_innerShadow_2557_49568"/>
</filter>
<linearGradient id="paint0_linear_2557_49568" x1="-9.34082" y1="129.014" x2="24.6734" y2="129.529" gradientUnits="userSpaceOnUse">
<stop stop-color="#954FAD"/>
<stop offset="0.492908" stop-color="#BA63D8"/>
<stop offset="1" stop-color="#D371F5"/>
</linearGradient>
<clipPath id="clip0_2557_49568">
<rect width="186" height="186" fill="white"/>
</clipPath>
<clipPath id="clip1_2557_49568">
<rect width="198.107" height="322.293" fill="white" transform="translate(-57.4219)"/>
</clipPath>
<clipPath id="clip2_2557_49568">
<rect width="198.107" height="322.293" fill="white" transform="translate(-57.4219 14.7842)"/>
</clipPath>
<clipPath id="clip3_2557_49568">
<rect width="18.5479" height="24.9818" fill="white" transform="matrix(0.434152 0.90084 -0.902605 0.43047 102.207 41.7517)"/>
</clipPath>
<clipPath id="clip4_2557_49568">
<rect width="15.2886" height="20.9122" fill="white" transform="matrix(0.999721 0.0236014 -0.0238497 0.999716 33.6406 15.2083)"/>
</clipPath>
</defs>
</svg>
