<svg width="186" height="189" viewBox="0 0 186 189" fill="none" xmlns="http://www.w3.org/2000/svg">
<g clip-path="url(#clip0_2557_48888)" filter="url(#filter0_d_2557_48888)">
<rect width="186" height="186" fill="#D6F2DC"/>
<g clip-path="url(#clip1_2557_48888)">
<g clip-path="url(#clip2_2557_48888)">
<g filter="url(#filter1_i_2557_48888)">
<path d="M66.6242 67.4322C67.2398 61.2872 63.2359 50.2144 60.6779 45.9743C61.1431 45.7868 60.887 45.1328 62.1169 45.4946C69.4686 50.5828 71.4061 66.487 70.046 67.3034C68.6858 68.1199 67.8257 67.591 66.6242 67.4322Z" fill="url(#paint0_linear_2557_48888)"/>
</g>
<path d="M64.6641 66.4149C65.2798 60.2699 61.2758 49.1971 58.7178 44.9571C59.183 44.7695 60.4209 44.4848 61.6508 44.8467C64.3092 46.9913 69.4461 65.4697 68.086 66.2862C66.7258 67.1026 65.8657 66.5738 64.6641 66.4149Z" fill="black"/>
<g filter="url(#filter2_i_2557_48888)">
<path d="M51.9311 132.661C51.9311 132.661 67.4702 118.847 67.5367 107.851C67.5367 107.851 89.2241 112.232 98.4463 108.487C98.4463 108.487 92.8045 120.699 83.3163 123.665C83.3163 123.665 93.0449 135.816 77.8894 141.22C77.8894 141.22 81.2038 152.536 74.8204 154.963L56.913 142.339L51.9311 132.661Z" fill="#007F64"/>
<path d="M83.3154 123.66C83.3154 123.66 83.0443 123.493 82.5584 123.233C82.0725 122.974 81.3718 122.612 80.5176 122.231C78.8194 121.442 76.4921 120.557 74.1239 119.804C71.7557 119.056 69.3363 118.445 67.4847 118.114C66.564 117.936 65.7814 117.829 65.229 117.758C64.6766 117.692 64.3544 117.672 64.3544 117.672C64.3544 117.672 64.6255 117.84 65.1114 118.099C65.5973 118.359 66.298 118.72 67.1522 119.101C68.8504 119.895 71.1777 120.775 73.5459 121.528C75.9192 122.271 78.3335 122.887 80.1902 123.218C81.1109 123.396 81.8935 123.508 82.4459 123.574C82.9983 123.64 83.3154 123.66 83.3154 123.66Z" fill="#00604A"/>
<path d="M77.8894 141.214C77.8894 141.214 77.5569 140.99 76.9687 140.619C76.3805 140.248 75.5417 139.724 74.5289 139.113C73.5213 138.507 72.3448 137.8 71.0814 137.042C69.8232 136.289 68.4882 135.485 67.1685 134.661C64.5241 133.022 61.9666 131.292 60.1969 129.802C59.757 129.43 59.3631 129.074 59.0153 128.748C58.6828 128.418 58.3862 128.127 58.1611 127.868C57.9258 127.619 57.7622 127.405 57.6394 127.262C57.5166 127.12 57.4553 127.044 57.4553 127.044C57.4553 127.044 57.4859 127.14 57.5473 127.313C57.6189 127.486 57.6905 127.761 57.8593 128.072C57.9361 128.229 58.023 128.407 58.1202 128.596C58.2225 128.784 58.3453 128.977 58.4731 129.191C58.7391 129.603 59.0562 130.071 59.445 130.534C60.2071 131.486 61.2147 132.488 62.3707 133.46C63.5267 134.432 64.8412 135.363 66.2018 136.208C66.8821 136.625 67.5726 137.037 68.2631 137.408C68.9485 137.79 69.639 138.136 70.3142 138.462C71.6645 139.103 72.9484 139.647 74.0737 140.054C75.1938 140.477 76.1503 140.767 76.8255 140.95C77.5007 141.138 77.8945 141.214 77.8945 141.214H77.8894Z" fill="#00604A"/>
</g>
<path d="M60.7178 104.025L57.613 111.967L52.181 104.355C52.181 104.355 59.2447 103.607 60.7178 104.025Z" fill="white"/>
<g filter="url(#filter3_i_2557_48888)">
<path d="M-33.377 233.545C-22.4311 190.657 2.35591 182.063 5.66528 164.422C5.66528 164.422 7.47084 124.769 5.92613 119.071C0.887924 106.93 -6.6208 94.3011 -7.02488 87.0606C-7.67448 75.3221 -9.74603 44.7419 10.105 31.248C29.2349 18.2476 70.4101 46.0699 78.2257 86.5365C83.8112 115.458 43.2345 103.694 43.2345 103.694C43.2345 103.694 41.6949 113.692 47.3622 123.233C48.1806 124.362 50.6869 127.929 50.6869 127.929C50.6869 127.929 50.6869 127.929 50.6869 127.934C50.7074 127.929 50.7943 127.899 50.7943 127.899C52.784 130.076 55.3773 134.086 58.2417 139.342C58.2621 139.373 58.2826 139.403 58.298 139.434C58.3184 139.464 58.3184 139.49 58.3338 139.515C71.8423 164.442 91.2688 217.726 82.2 245.681C71.1876 279.629 53.9809 283.593 23.4755 280.102C-7.03 276.617 -44.3281 276.434 -33.377 233.545Z" fill="#F9C767"/>
</g>
<path d="M36.698 55.7409C29.0767 54.8352 24.6523 56.555 22.4069 64.2331C21.8954 55.8681 29.6394 52.1079 36.698 55.7409Z" fill="#ECE4AC"/>
<path d="M34.6804 71.5782C38.5874 70.4821 40.7215 65.9495 39.4471 61.4544C38.1727 56.9593 33.9724 54.2038 30.0654 55.3C26.1584 56.3961 24.0243 60.9287 25.2987 65.4238C26.5731 69.9189 30.7735 72.6743 34.6804 71.5782Z" fill="#121617"/>
<path d="M34.8856 72.2057C38.7885 71.26 41.0516 66.8147 39.9404 62.2769C38.8293 57.7391 34.7646 54.8272 30.8617 55.7729C26.9588 56.7187 24.6957 61.1639 25.8068 65.7017C26.918 70.2395 30.9827 73.1514 34.8856 72.2057Z" fill="white"/>
<path d="M35.4594 71.0818C38.5499 70.3329 40.3355 66.7865 39.4476 63.1607C38.5598 59.5348 35.3347 57.2025 32.2442 57.9514C29.1538 58.7003 27.3682 62.2467 28.256 65.8726C29.1439 69.4984 32.369 71.8307 35.4594 71.0818Z" fill="#414F51"/>
<path d="M36.0874 71.2084C38.9336 70.5187 40.5845 67.2793 39.7749 63.9729C38.9653 60.6665 36.0016 58.5452 33.1554 59.2349C30.3093 59.9245 28.6583 63.164 29.4679 66.4704C30.2776 69.7768 33.2412 71.8981 36.0874 71.2084Z" fill="#121617"/>
<path d="M34.0989 64.0098C34.9635 63.8003 35.4503 62.7562 35.1862 61.6777C34.9221 60.5993 34.0071 59.8948 33.1426 60.1043C32.278 60.3138 31.7912 61.3579 32.0553 62.4364C32.3194 63.5149 33.2343 64.2193 34.0989 64.0098Z" fill="white"/>
<path d="M37.7664 63.2536C37.8934 62.706 37.6395 62.1801 37.1991 62.0789C36.7587 61.9778 36.2986 62.3397 36.1715 62.8873C36.0444 63.435 36.2984 63.9609 36.7388 64.062C37.1792 64.1632 37.6393 63.8012 37.7664 63.2536Z" fill="white"/>
<path d="M32.7091 65.674C32.9652 65.3036 32.7955 64.7451 32.33 64.4266C31.8645 64.1081 31.2795 64.1502 31.0233 64.5206C30.7672 64.8911 30.9369 65.4496 31.4024 65.7681C31.8679 66.0866 32.4529 66.0445 32.7091 65.674Z" fill="white"/>
<path d="M41.9207 69.489C41.9207 69.489 29.4607 69.6416 24.2588 72.1501C30.3865 75.5796 37.4911 73.9412 37.4911 73.9412L41.9207 69.4839V69.489Z" fill="#F9C767"/>
<path d="M42.561 70.9147C36.9244 71.9375 31.0524 72.3242 25.4209 73.3673C30.1829 70.3398 37.1085 69.8106 42.561 70.9147Z" fill="#ECE4AC"/>
<path d="M43.2355 103.694C43.2355 103.694 41.6959 113.692 47.3633 123.233L19.4664 90.3169C19.4664 90.3169 32.2845 101.251 43.2355 103.694Z" fill="#CAA154"/>
<g filter="url(#filter4_i_2557_48888)">
<path d="M46.6417 38.453C46.6417 38.453 53.9868 36.5652 56.3857 26.053C56.3857 26.053 61.0607 38.9363 53.4395 43.7803C45.8182 48.6243 46.6417 38.453 46.6417 38.453Z" fill="white"/>
</g>
<path d="M38.4121 102.066L31.7064 107.373L30.8727 98.0764C30.8727 98.0764 37.3533 100.972 38.4121 102.071V102.066Z" fill="white"/>
<path d="M49.4395 105.541L44.1404 112.237L41.1737 103.378C41.1737 103.378 48.1505 104.712 49.4343 105.536L49.4395 105.541Z" fill="white"/>
<g filter="url(#filter5_i_2557_48888)">
<path d="M-19.806 201.179C-19.806 201.179 -19.8009 201.164 -19.7958 201.159C3.49247 162.738 6.52052 134.157 -6.01106 91.9809C-9.18233 81.3058 -11.1516 66.4838 -4.15946 48.4207C2.83776 30.3575 10.1265 26.5668 18.6173 27.6404C27.1132 28.714 46.0743 31.3802 56.253 45.9681L61.0713 58.9278C61.0713 58.9278 29.0569 37.9491 18.781 43.3681C8.50512 48.787 -0.635273 62.9933 5.12415 75.9988C65.8384 213.065 24.7808 268.338 1.67156 277.843C1.67156 277.843 -31.5192 279.797 -35.5907 249.685C-38.0357 231.607 -27.0386 211.885 -19.8112 201.179H-19.806Z" fill="#007F64"/>
</g>
<g style="mix-blend-mode:multiply" opacity="0.1">
<path d="M5.12376 76.0039C26.9747 128.687 41.3688 171.662 36.0896 215.05C30.8103 258.437 14.3255 272.648 1.66606 277.853C1.66606 277.853 -2.61514 279.807 -8.73771 277.533C-8.73771 277.533 22.7288 235.272 25.1839 207.555C30.2769 150.058 13.11 121.947 5.12376 76.0039Z" fill="black"/>
</g>
<path d="M16.7804 86.0127C14.8566 86.0127 13.2971 84.4613 13.2971 82.5476C13.2971 80.6339 14.8566 79.0825 16.7804 79.0825C18.7042 79.0825 20.2637 80.6339 20.2637 82.5476C20.2637 84.4613 18.7042 86.0127 16.7804 86.0127Z" fill="#EB2427"/>
<g filter="url(#filter6_i_2557_48888)">
<path d="M27.0864 31.6907C27.0864 31.6907 5.67533 30.8002 9.38878 22.8219C13.1022 14.8436 21.3475 9.4043 27.6798 13.0882C27.6798 13.0882 17.8131 14.9759 18.3859 17.0112C18.9588 19.0465 28.0225 19.0261 31.0863 21.4939C34.1502 23.9566 36.1859 31.2175 34.6668 34.2908" fill="#007F64"/>
</g>
<g filter="url(#filter7_i_2557_48888)">
<path d="M5.97878 44.8082C5.97878 44.8082 -1.54017 45.8462 -7.77528 37.0334C-7.77528 37.0334 -7.1666 50.7157 1.73338 52.3083C10.6334 53.9009 5.97878 44.8082 5.97878 44.8082Z" fill="white"/>
</g>
<path d="M74.6264 83.109C74.371 82.2435 74.5485 81.4295 75.0228 81.291C75.4972 81.1525 76.0887 81.7418 76.3442 82.6074C76.5996 83.4729 76.4221 84.2869 75.9478 84.4254C75.4734 84.5639 74.8818 83.9745 74.6264 83.109Z" fill="#EB2427"/>
<path d="M63.0844 84.6007C62.829 83.7352 63.0065 82.9212 63.4808 82.7827C63.9552 82.6442 64.5468 83.2335 64.8022 84.0991C65.0576 84.9646 64.8801 85.7786 64.4058 85.9171C63.9314 86.0556 63.3398 85.4662 63.0844 84.6007Z" fill="#EB2427"/>
<path d="M18.8826 89.8691C18.8826 89.8691 21.0053 91.7925 24.4834 94.3061C26.2225 95.5679 28.2941 96.9774 30.5958 98.3715C31.7466 99.0635 32.9435 99.7759 34.1967 100.437C35.4447 101.104 36.7286 101.755 38.038 102.356C39.3525 102.946 40.6927 103.49 42.0328 103.974C43.3678 104.467 44.7283 104.839 46.0633 105.139C47.3983 105.444 48.6873 105.612 49.9149 105.77C51.1425 105.928 52.3036 106.024 53.3828 106.095C55.5311 106.243 57.3315 106.233 58.5847 106.192C59.2138 106.182 59.7049 106.136 60.0373 106.121C60.3698 106.101 60.5488 106.09 60.5488 106.09C60.5488 106.09 59.8379 106.039 58.5898 105.948C57.3418 105.851 55.572 105.673 53.4544 105.383C52.3956 105.236 51.255 105.057 50.053 104.849C48.8561 104.63 47.5825 104.391 46.314 104.07C43.7667 103.419 41.1274 102.396 38.5597 101.221C37.2708 100.641 36.0023 100.015 34.7644 99.3739C33.5266 98.7277 32.3144 98.0866 31.1584 97.4251C30.0024 96.7688 28.8823 96.1276 27.8337 95.5018C26.7851 94.8709 25.7929 94.2755 24.8875 93.7158C21.261 91.4618 18.8826 89.8742 18.8826 89.8742V89.8691Z" fill="#F48220"/>
<g filter="url(#filter8_i_2557_48888)">
<path d="M19.0169 166.625C19.0169 166.625 9.37526 181.401 9.96859 186.566C10.5619 191.73 -5.69334 196.218 -5.89794 185.467C-6.10254 174.715 7.67198 160.112 7.67198 160.112C7.67198 160.112 9.92255 157.466 15.4671 160.651C21.0117 163.837 19.0169 166.625 19.0169 166.625Z" fill="#46A278"/>
</g>
<g filter="url(#filter9_i_2557_48888)">
<path d="M7.7134 131.323C7.7134 131.323 -7.13526 120.678 -8.20939 109.734C-8.20939 109.734 -29.4006 116.063 -38.9297 113.173C-38.9297 113.173 -32.1882 124.825 -22.4698 126.911C-22.4698 126.911 -30.71 144.11 -15.4521 143.901C-15.4521 143.901 -17.7129 155.472 -11.1351 157.308L6.39375 142.777L7.72363 131.323H7.7134Z" fill="#007F64"/>
<path d="M-15.2788 143.855C-15.2788 143.855 -14.9514 143.642 -14.399 143.245C-13.8517 142.848 -13.0743 142.268 -12.1791 141.535C-11.729 141.174 -11.2431 140.777 -10.747 140.344C-10.2457 139.912 -9.71374 139.464 -9.18179 138.981C-8.11277 138.019 -6.99771 136.971 -5.90312 135.897C-4.81364 134.819 -3.74462 133.72 -2.77278 132.666C-2.28175 132.142 -1.82651 131.618 -1.38663 131.119C-0.946744 130.631 -0.542667 130.148 -0.174391 129.705C0.567274 128.825 1.15549 128.056 1.55957 127.512C1.96365 126.967 2.18359 126.642 2.18359 126.642C2.18359 126.642 1.85624 126.856 1.30382 127.252C0.756526 127.649 -0.0209417 128.229 -0.916055 128.962C-1.36617 129.323 -1.85209 129.72 -2.34824 130.153C-2.8495 130.58 -3.38145 131.033 -3.91341 131.516C-4.98243 132.478 -6.09749 133.531 -7.19208 134.605C-8.28156 135.684 -9.34547 136.783 -10.3224 137.841C-10.8135 138.365 -11.2687 138.894 -11.7086 139.388C-12.1485 139.876 -12.5474 140.36 -12.9208 140.802C-13.6625 141.683 -14.2507 142.451 -14.6599 142.995C-15.064 143.54 -15.2839 143.86 -15.2839 143.86L-15.2788 143.855Z" fill="#00604A"/>
</g>
<path d="M-3.16153 54.094C-3.16153 54.094 -3.42239 54.2772 -3.77021 54.7555C-4.11802 55.2287 -4.55791 55.9868 -4.91596 57.035C-5.29446 58.073 -5.57067 59.3908 -5.75481 60.9173C-5.94917 62.4438 -5.97475 64.1738 -5.91337 66.0564C-5.86222 66.9926 -5.80084 67.9746 -5.70877 68.9821C-5.64739 69.4858 -5.58601 69.9947 -5.52464 70.5137C-5.46326 71.0327 -5.39676 71.5618 -5.29958 72.091C-5.21262 72.6202 -5.12567 73.1595 -5.0336 73.704C-4.98756 73.9787 -4.94153 74.2586 -4.89038 74.5384C-4.83412 74.8081 -4.78297 75.0829 -4.72671 75.3576C-4.51188 76.4567 -4.28682 77.5659 -4.01061 78.7108C-3.73952 79.8505 -3.47866 81.0157 -3.17688 82.1759C-2.88532 83.3411 -2.59378 84.5164 -2.2613 85.6918C-1.60659 88.0426 -0.941655 90.4289 -0.281828 92.8153C0.408688 95.1915 1.0992 97.5626 1.73857 99.9032C2.37794 102.244 3.03777 104.539 3.60041 106.777C4.17328 109.016 4.68989 111.179 5.16558 113.239C5.38041 114.272 5.59012 115.28 5.7896 116.252C5.99932 117.223 6.14765 118.17 6.31644 119.081C6.39828 119.534 6.48012 119.981 6.55684 120.414C6.61822 120.851 6.6796 121.279 6.73586 121.691C6.85862 122.525 6.97626 123.314 7.08879 124.057C7.2269 125.548 7.39569 126.85 7.49287 127.929C7.54913 129.008 7.62075 129.858 7.65655 130.438C7.69747 131.018 7.71793 131.328 7.71793 131.328C7.71793 131.328 7.73839 131.018 7.78442 130.438C7.82534 129.858 7.89695 129.008 7.95833 127.919C7.99413 126.83 7.98902 125.512 7.97879 123.991C7.94299 123.233 7.90207 122.429 7.85603 121.574C7.83046 121.146 7.80489 120.714 7.77931 120.266C7.73328 119.824 7.68724 119.366 7.64121 118.903C7.53891 117.977 7.46219 117 7.32408 116.002C7.17575 115.005 7.0223 113.977 6.86885 112.914C6.6796 111.861 6.49035 110.777 6.29086 109.673C6.10673 108.563 5.82541 107.449 5.59012 106.309C5.35483 105.164 5.06839 104.014 4.79218 102.849C4.52621 101.679 4.21932 100.504 3.90219 99.3231C3.28328 96.9571 2.61834 94.5657 1.94828 92.1844C1.25777 89.8082 0.572371 87.432 -0.107915 85.0965C-0.767741 82.7559 -1.45315 80.4662 -2.03113 78.2478C-2.34315 77.1487 -2.58866 76.0242 -2.8751 74.9455C-2.9467 74.6758 -3.0132 74.4062 -3.0797 74.1365C-3.14108 73.8719 -3.19734 73.6124 -3.2536 73.3529C-3.37125 72.8237 -3.48377 72.3047 -3.60142 71.7908C-3.84182 70.763 -3.97481 69.7555 -4.17429 68.7837C-4.33797 67.8118 -4.47096 66.8654 -4.5886 65.9546C-4.67044 65.0438 -4.78297 64.1687 -4.80854 63.3393C-4.829 62.922 -4.85969 62.515 -4.86992 62.1232C-4.86992 61.7314 -4.86992 61.3447 -4.86992 60.9733C-4.82389 59.4926 -4.72159 58.1951 -4.47096 57.1571C-4.23056 56.1191 -3.93901 55.3253 -3.6628 54.8216C-3.39171 54.3128 -3.16153 54.094 -3.16153 54.094Z" fill="#6FC7AF"/>
<path d="M19.869 54.2898C23.3439 48.9376 31.4386 47.0953 35.0515 46.8432C26.5407 44.5173 20.4829 49.9889 18.5179 53.0154C19.3553 52.4247 20.7978 51.8526 19.869 54.2898Z" fill="black"/>
<path d="M63.1415 41.9577C59.7103 40.1556 55.6488 42.6882 54.047 44.1797C56.74 38.8167 61.2938 39.514 63.2341 40.533C62.6659 40.5415 61.8519 40.8384 63.1415 41.9577Z" fill="black"/>
<g filter="url(#filter10_di_2557_48888)">
<path d="M25.9445 54.4379C31.1222 51.2123 41.9485 47.6938 46.9866 47.7284C52.0248 47.7629 52.0326 65.8027 48.1247 69.2583C44.2168 72.714 35.3661 77.9044 29.2947 76.1489C23.2234 74.3934 19.445 58.487 25.9445 54.4379Z" fill="url(#paint1_linear_2557_48888)" shape-rendering="crispEdges"/>
</g>
<path d="M23.3525 68.5522C38.9683 66.7232 42.8368 58.6601 50.4888 58.7582C50.5409 59.7451 50.7996 63.9424 50.4905 65.0874C49.7348 67.8868 48.1049 69.329 45.3887 71.4488C42.6725 73.5687 36.027 76.2916 31.3261 76.5353C26.6252 76.7789 24.1358 71.4802 23.3525 68.5522Z" fill="url(#paint2_linear_2557_48888)" fill-opacity="0.8"/>
<g filter="url(#filter11_d_2557_48888)">
<path d="M-13.5294 68.4683L-12.0903 62.2211L18.6538 57.541L24.6697 54.76C23.1691 55.8255 22.6941 63.2723 22.3713 65.3466L18.2346 61.8835L-9.21214 64.2323L-9.97111 68.2838L-13.5294 68.4683Z" fill="#22211E"/>
</g>
<path d="M45.5195 50.6094C46.1544 51.6006 47.6878 54.6541 47.1781 58.9791" stroke="#908E82" stroke-opacity="0.53" stroke-width="5.91363"/>
<path d="M42.3193 51.855C43.0861 53.1273 43.8531 54.9085 43.8538 57.7071" stroke="#908E82" stroke-opacity="0.53" stroke-width="5.91363"/>
<path d="M25.9445 54.4379C31.1222 51.2123 41.9485 47.6938 46.9866 47.7284C52.0248 47.7629 52.0326 65.8027 48.1247 69.2583C44.2168 72.714 35.3661 77.9044 29.2947 76.1489C23.2234 74.3934 19.445 58.487 25.9445 54.4379Z" stroke="#22211E" stroke-width="5.91363"/>
<g filter="url(#filter12_d_2557_48888)">
<path d="M60.5585 46.803C54.7325 44.4574 51.8631 45.9145 49.2245 48.4023C49.0134 48.6688 48.4633 51.1744 50.743 51.6009C52.0096 48.1891 56.8645 47.6837 60.5586 48.0391C60.7697 48.0391 60.8118 48.9354 60.5585 46.803Z" fill="#22211E"/>
</g>
</g>
</g>
</g>
<defs>
<filter id="filter0_d_2557_48888" x="0" y="0" width="186" height="188.339" filterUnits="userSpaceOnUse" color-interpolation-filters="sRGB">
<feFlood flood-opacity="0" result="BackgroundImageFix"/>
<feColorMatrix in="SourceAlpha" type="matrix" values="0 0 0 0 0 0 0 0 0 0 0 0 0 0 0 0 0 0 127 0" result="hardAlpha"/>
<feOffset dy="2.33878"/>
<feComposite in2="hardAlpha" operator="out"/>
<feColorMatrix type="matrix" values="0 0 0 0 0.529412 0 0 0 0 0.529412 0 0 0 0 0.529412 0 0 0 1 0"/>
<feBlend mode="normal" in2="BackgroundImageFix" result="effect1_dropShadow_2557_48888"/>
<feBlend mode="normal" in="SourceGraphic" in2="effect1_dropShadow_2557_48888" result="shape"/>
</filter>
<filter id="filter1_i_2557_48888" x="57.7209" y="45.3875" width="12.7293" height="25.3169" filterUnits="userSpaceOnUse" color-interpolation-filters="sRGB">
<feFlood flood-opacity="0" result="BackgroundImageFix"/>
<feBlend mode="normal" in="SourceGraphic" in2="BackgroundImageFix" result="shape"/>
<feColorMatrix in="SourceAlpha" type="matrix" values="0 0 0 0 0 0 0 0 0 0 0 0 0 0 0 0 0 0 127 0" result="hardAlpha"/>
<feOffset dx="-2.95681" dy="5.91363"/>
<feGaussianBlur stdDeviation="1.47841"/>
<feComposite in2="hardAlpha" operator="arithmetic" k2="-1" k3="1"/>
<feColorMatrix type="matrix" values="0 0 0 0 1 0 0 0 0 1 0 0 0 0 1 0 0 0 0.25 0"/>
<feBlend mode="normal" in2="shape" result="effect1_innerShadow_2557_48888"/>
</filter>
<filter id="filter2_i_2557_48888" x="47.9307" y="107.851" width="50.5156" height="51.1118" filterUnits="userSpaceOnUse" color-interpolation-filters="sRGB">
<feFlood flood-opacity="0" result="BackgroundImageFix"/>
<feBlend mode="normal" in="SourceGraphic" in2="BackgroundImageFix" result="shape"/>
<feColorMatrix in="SourceAlpha" type="matrix" values="0 0 0 0 0 0 0 0 0 0 0 0 0 0 0 0 0 0 127 0" result="hardAlpha"/>
<feOffset dx="-9" dy="4"/>
<feGaussianBlur stdDeviation="2"/>
<feComposite in2="hardAlpha" operator="arithmetic" k2="-1" k3="1"/>
<feColorMatrix type="matrix" values="0 0 0 0 1 0 0 0 0 1 0 0 0 0 1 0 0 0 0.25 0"/>
<feBlend mode="normal" in2="shape" result="effect1_innerShadow_2557_48888"/>
</filter>
<filter id="filter3_i_2557_48888" x="-39.3311" y="28.0186" width="123.859" height="257.113" filterUnits="userSpaceOnUse" color-interpolation-filters="sRGB">
<feFlood flood-opacity="0" result="BackgroundImageFix"/>
<feBlend mode="normal" in="SourceGraphic" in2="BackgroundImageFix" result="shape"/>
<feColorMatrix in="SourceAlpha" type="matrix" values="0 0 0 0 0 0 0 0 0 0 0 0 0 0 0 0 0 0 127 0" result="hardAlpha"/>
<feOffset dx="-9" dy="4"/>
<feGaussianBlur stdDeviation="2"/>
<feComposite in2="hardAlpha" operator="arithmetic" k2="-1" k3="1"/>
<feColorMatrix type="matrix" values="0 0 0 0 1 0 0 0 0 1 0 0 0 0 1 0 0 0 0.25 0"/>
<feBlend mode="normal" in2="shape" result="effect1_innerShadow_2557_48888"/>
</filter>
<filter id="filter4_i_2557_48888" x="46.6152" y="26.053" width="11.1895" height="24.9488" filterUnits="userSpaceOnUse" color-interpolation-filters="sRGB">
<feFlood flood-opacity="0" result="BackgroundImageFix"/>
<feBlend mode="normal" in="SourceGraphic" in2="BackgroundImageFix" result="shape"/>
<feColorMatrix in="SourceAlpha" type="matrix" values="0 0 0 0 0 0 0 0 0 0 0 0 0 0 0 0 0 0 127 0" result="hardAlpha"/>
<feOffset dy="5.91363"/>
<feGaussianBlur stdDeviation="2.95681"/>
<feComposite in2="hardAlpha" operator="arithmetic" k2="-1" k3="1"/>
<feColorMatrix type="matrix" values="0 0 0 0 0.305938 0 0 0 0 0.825 0 0 0 0 0.731569 0 0 0 0.25 0"/>
<feBlend mode="normal" in2="shape" result="effect1_innerShadow_2557_48888"/>
</filter>
<filter id="filter5_i_2557_48888" x="-35.9385" y="27.4736" width="101.01" height="254.396" filterUnits="userSpaceOnUse" color-interpolation-filters="sRGB">
<feFlood flood-opacity="0" result="BackgroundImageFix"/>
<feBlend mode="normal" in="SourceGraphic" in2="BackgroundImageFix" result="shape"/>
<feColorMatrix in="SourceAlpha" type="matrix" values="0 0 0 0 0 0 0 0 0 0 0 0 0 0 0 0 0 0 127 0" result="hardAlpha"/>
<feOffset dx="8" dy="4"/>
<feGaussianBlur stdDeviation="2"/>
<feComposite in2="hardAlpha" operator="arithmetic" k2="-1" k3="1"/>
<feColorMatrix type="matrix" values="0 0 0 0 1 0 0 0 0 1 0 0 0 0 1 0 0 0 0.25 0"/>
<feBlend mode="normal" in2="shape" result="effect1_innerShadow_2557_48888"/>
</filter>
<filter id="filter6_i_2557_48888" x="4.95605" y="11.9114" width="30.2256" height="26.3794" filterUnits="userSpaceOnUse" color-interpolation-filters="sRGB">
<feFlood flood-opacity="0" result="BackgroundImageFix"/>
<feBlend mode="normal" in="SourceGraphic" in2="BackgroundImageFix" result="shape"/>
<feColorMatrix in="SourceAlpha" type="matrix" values="0 0 0 0 0 0 0 0 0 0 0 0 0 0 0 0 0 0 127 0" result="hardAlpha"/>
<feOffset dx="-9" dy="4"/>
<feGaussianBlur stdDeviation="2"/>
<feComposite in2="hardAlpha" operator="arithmetic" k2="-1" k3="1"/>
<feColorMatrix type="matrix" values="0 0 0 0 1 0 0 0 0 1 0 0 0 0 1 0 0 0 0.25 0"/>
<feBlend mode="normal" in2="shape" result="effect1_innerShadow_2557_48888"/>
</filter>
<filter id="filter7_i_2557_48888" x="-7.77539" y="37.0334" width="14.9707" height="21.3755" filterUnits="userSpaceOnUse" color-interpolation-filters="sRGB">
<feFlood flood-opacity="0" result="BackgroundImageFix"/>
<feBlend mode="normal" in="SourceGraphic" in2="BackgroundImageFix" result="shape"/>
<feColorMatrix in="SourceAlpha" type="matrix" values="0 0 0 0 0 0 0 0 0 0 0 0 0 0 0 0 0 0 127 0" result="hardAlpha"/>
<feOffset dy="5.91363"/>
<feGaussianBlur stdDeviation="2.95681"/>
<feComposite in2="hardAlpha" operator="arithmetic" k2="-1" k3="1"/>
<feColorMatrix type="matrix" values="0 0 0 0 0.305938 0 0 0 0 0.825 0 0 0 0 0.731569 0 0 0 0.25 0"/>
<feBlend mode="normal" in2="shape" result="effect1_innerShadow_2557_48888"/>
</filter>
<filter id="filter8_i_2557_48888" x="-7.01367" y="159.081" width="30.3799" height="39.5342" filterUnits="userSpaceOnUse" color-interpolation-filters="sRGB">
<feFlood flood-opacity="0" result="BackgroundImageFix"/>
<feBlend mode="normal" in="SourceGraphic" in2="BackgroundImageFix" result="shape"/>
<feColorMatrix in="SourceAlpha" type="matrix" values="0 0 0 0 0 0 0 0 0 0 0 0 0 0 0 0 0 0 127 0" result="hardAlpha"/>
<feOffset dx="8" dy="4"/>
<feGaussianBlur stdDeviation="2"/>
<feComposite in2="hardAlpha" operator="arithmetic" k2="-1" k3="1"/>
<feColorMatrix type="matrix" values="0 0 0 0 1 0 0 0 0 1 0 0 0 0 1 0 0 0 0.25 0"/>
<feBlend mode="normal" in2="shape" result="effect1_innerShadow_2557_48888"/>
</filter>
<filter id="filter9_i_2557_48888" x="-38.9297" y="109.734" width="50.6533" height="51.5747" filterUnits="userSpaceOnUse" color-interpolation-filters="sRGB">
<feFlood flood-opacity="0" result="BackgroundImageFix"/>
<feBlend mode="normal" in="SourceGraphic" in2="BackgroundImageFix" result="shape"/>
<feColorMatrix in="SourceAlpha" type="matrix" values="0 0 0 0 0 0 0 0 0 0 0 0 0 0 0 0 0 0 127 0" result="hardAlpha"/>
<feOffset dx="8" dy="4"/>
<feGaussianBlur stdDeviation="2"/>
<feComposite in2="hardAlpha" operator="arithmetic" k2="-1" k3="1"/>
<feColorMatrix type="matrix" values="0 0 0 0 1 0 0 0 0 1 0 0 0 0 1 0 0 0 0.25 0"/>
<feBlend mode="normal" in2="shape" result="effect1_innerShadow_2557_48888"/>
</filter>
<filter id="filter10_di_2557_48888" x="9.24121" y="47.728" width="41.6826" height="43.5577" filterUnits="userSpaceOnUse" color-interpolation-filters="sRGB">
<feFlood flood-opacity="0" result="BackgroundImageFix"/>
<feColorMatrix in="SourceAlpha" type="matrix" values="0 0 0 0 0 0 0 0 0 0 0 0 0 0 0 0 0 0 127 0" result="hardAlpha"/>
<feOffset dx="-7.39203" dy="8.87044"/>
<feGaussianBlur stdDeviation="2.95681"/>
<feComposite in2="hardAlpha" operator="out"/>
<feColorMatrix type="matrix" values="0 0 0 0 0 0 0 0 0 0 0 0 0 0 0 0 0 0 0.15 0"/>
<feBlend mode="normal" in2="BackgroundImageFix" result="effect1_dropShadow_2557_48888"/>
<feBlend mode="normal" in="SourceGraphic" in2="effect1_dropShadow_2557_48888" result="shape"/>
<feColorMatrix in="SourceAlpha" type="matrix" values="0 0 0 0 0 0 0 0 0 0 0 0 0 0 0 0 0 0 127 0" result="hardAlpha"/>
<feOffset dx="-2.95681" dy="5.91363"/>
<feGaussianBlur stdDeviation="1.47841"/>
<feComposite in2="hardAlpha" operator="arithmetic" k2="-1" k3="1"/>
<feColorMatrix type="matrix" values="0 0 0 0 1 0 0 0 0 1 0 0 0 0 1 0 0 0 0.25 0"/>
<feBlend mode="normal" in2="shape" result="effect2_innerShadow_2557_48888"/>
</filter>
<filter id="filter11_d_2557_48888" x="-19.4429" y="54.76" width="50.0265" height="25.5355" filterUnits="userSpaceOnUse" color-interpolation-filters="sRGB">
<feFlood flood-opacity="0" result="BackgroundImageFix"/>
<feColorMatrix in="SourceAlpha" type="matrix" values="0 0 0 0 0 0 0 0 0 0 0 0 0 0 0 0 0 0 127 0" result="hardAlpha"/>
<feOffset dy="5.91363"/>
<feGaussianBlur stdDeviation="2.95681"/>
<feComposite in2="hardAlpha" operator="out"/>
<feColorMatrix type="matrix" values="0 0 0 0 0 0 0 0 0 0 0 0 0 0 0 0 0 0 0.25 0"/>
<feBlend mode="normal" in2="BackgroundImageFix" result="effect1_dropShadow_2557_48888"/>
<feBlend mode="normal" in="SourceGraphic" in2="effect1_dropShadow_2557_48888" result="shape"/>
</filter>
<filter id="filter12_d_2557_48888" x="43.0971" y="45.6187" width="23.5499" height="17.8094" filterUnits="userSpaceOnUse" color-interpolation-filters="sRGB">
<feFlood flood-opacity="0" result="BackgroundImageFix"/>
<feColorMatrix in="SourceAlpha" type="matrix" values="0 0 0 0 0 0 0 0 0 0 0 0 0 0 0 0 0 0 127 0" result="hardAlpha"/>
<feOffset dy="5.91363"/>
<feGaussianBlur stdDeviation="2.95681"/>
<feComposite in2="hardAlpha" operator="out"/>
<feColorMatrix type="matrix" values="0 0 0 0 0 0 0 0 0 0 0 0 0 0 0 0 0 0 0.25 0"/>
<feBlend mode="normal" in2="BackgroundImageFix" result="effect1_dropShadow_2557_48888"/>
<feBlend mode="normal" in="SourceGraphic" in2="effect1_dropShadow_2557_48888" result="shape"/>
</filter>
<linearGradient id="paint0_linear_2557_48888" x1="64.958" y1="52.1911" x2="65.3471" y2="62.5272" gradientUnits="userSpaceOnUse">
<stop stop-color="#5D5E5C"/>
<stop offset="1" stop-color="#5D5E5C" stop-opacity="0.67"/>
</linearGradient>
<linearGradient id="paint1_linear_2557_48888" x1="36.5468" y1="56.5502" x2="37.2194" y2="69.5278" gradientUnits="userSpaceOnUse">
<stop stop-color="#5D5E5C"/>
<stop offset="1" stop-color="#5D5E5C" stop-opacity="0.67"/>
</linearGradient>
<linearGradient id="paint2_linear_2557_48888" x1="36.6989" y1="59.4506" x2="37.5676" y2="76.2118" gradientUnits="userSpaceOnUse">
<stop stop-color="#252527"/>
<stop offset="1" stop-color="#252527" stop-opacity="0"/>
</linearGradient>
<clipPath id="clip0_2557_48888">
<rect width="186" height="186" fill="white"/>
</clipPath>
<clipPath id="clip1_2557_48888">
<rect width="198.107" height="322.293" fill="white" transform="translate(-57.4219 -2.87134)"/>
</clipPath>
<clipPath id="clip2_2557_48888">
<rect width="198.107" height="322.293" fill="white" transform="translate(-57.4219 11.9128)"/>
</clipPath>
</defs>
</svg>
