<svg width="186" height="189" viewBox="0 0 186 189" fill="none" xmlns="http://www.w3.org/2000/svg">
<g clip-path="url(#clip0_2557_49148)" filter="url(#filter0_d_2557_49148)">
<rect width="186" height="186" fill="#D6F2DC"/>
<g clip-path="url(#clip1_2557_49148)">
<g clip-path="url(#clip2_2557_49148)">
<g filter="url(#filter1_i_2557_49148)">
<path d="M52.3252 140.674C52.3252 140.674 68.9745 125.876 69.0457 114.099C69.0457 114.099 92.2824 118.791 102.163 114.78C102.163 114.78 96.1186 127.86 85.9526 131.038C85.9526 131.038 96.3762 144.053 80.1379 149.841C80.1379 149.841 83.6892 161.962 76.8497 164.562L57.6631 151.04L52.3252 140.674Z" fill="#7C005C"/>
</g>
<g style="mix-blend-mode:multiply" opacity="0.25">
<path d="M85.9523 131.032C82.3572 130.705 78.9046 129.806 75.4849 128.749C72.0871 127.653 68.7441 126.411 65.6367 124.617C69.2428 124.95 72.679 125.838 76.1042 126.901C79.5075 128.002 82.8286 129.239 85.9523 131.032Z" fill="black"/>
</g>
<g style="mix-blend-mode:multiply" opacity="0.25">
<path d="M80.1387 149.835C72.7786 148.059 60.9027 142.134 58.2393 134.651C61.1055 138.139 64.9088 140.412 68.6464 142.815C72.4498 145.197 76.3408 147.372 80.1387 149.83V149.835Z" fill="black"/>
</g>
<path d="M61.7404 110L58.4139 118.508L52.5938 110.355C52.5938 110.355 60.1621 109.553 61.7404 110Z" fill="white"/>
<g filter="url(#filter2_i_2557_49148)">
<path d="M-39.0709 248.734C-27.3429 202.795 -0.785198 193.589 2.76058 174.694C2.76058 174.694 4.69514 132.22 3.04008 126.116C-2.35806 113.112 -10.4032 99.5849 -10.8362 91.8293C-11.5322 79.2558 -13.7517 46.5003 7.51752 32.0465C28.014 18.1214 72.1307 47.9228 80.5047 91.268C86.4892 122.247 43.0137 109.646 43.0137 109.646C43.0137 109.646 41.3641 120.355 47.4363 130.575C48.3132 131.784 50.9986 135.605 50.9986 135.605C50.9986 135.605 50.9986 135.605 50.9986 135.61C51.0205 135.605 51.1136 135.572 51.1136 135.572C53.2455 137.905 56.024 142.2 59.093 147.83C59.1149 147.862 59.1369 147.895 59.1533 147.928C59.1752 147.961 59.1752 147.988 59.1917 148.015C73.6653 174.715 94.4796 231.789 84.7629 261.733C72.9638 298.096 54.5279 302.342 21.8431 298.603C-10.8416 294.87 -50.8043 294.673 -39.0709 248.734Z" fill="#F9C767"/>
</g>
<path d="M43.0091 109.646C43.0091 109.646 41.3596 120.355 47.4318 130.574L17.542 95.3174C17.542 95.3174 31.2757 107.03 43.0091 109.646Z" fill="#CAA154"/>
<g filter="url(#filter3_i_2557_49148)">
<path d="M48.314 39.1754C48.314 39.1754 56.1838 37.1533 58.7541 25.8933C58.7541 25.8933 63.7631 39.6931 55.5974 44.8817C47.4317 50.0702 48.314 39.1754 48.314 39.1754Z" fill="white"/>
</g>
<path d="M37.8407 107.902L30.656 113.586L29.7627 103.629C29.7627 103.629 36.7063 106.73 37.8407 107.907V107.902Z" fill="white"/>
<path d="M49.656 111.624L43.9784 118.797L40.7998 109.308C40.7998 109.308 48.275 110.736 49.6506 111.619L49.656 111.624Z" fill="white"/>
<g filter="url(#filter4_i_2557_49148)">
<path d="M-24.5373 214.065C-24.5373 214.065 -24.5318 214.049 -24.5264 214.044C0.425629 172.889 3.66999 142.276 -9.75684 97.0996C-13.1547 85.6651 -15.2646 69.7888 -7.77296 50.4407C-0.275852 31.0927 7.53364 27.0323 16.631 28.1823C25.7339 29.3323 46.0495 32.1881 56.9554 47.8138L62.1179 61.6953C62.1179 61.6953 27.8164 39.2243 16.8064 45.0287C5.79636 50.8331 -3.99701 66.05 2.17386 79.9806C67.2255 226.797 23.2348 286.002 -1.52537 296.183C-1.52537 296.183 -37.0873 298.276 -41.4497 266.022C-44.0693 246.657 -32.2865 225.533 -24.5428 214.065H-24.5373Z" fill="#7C005C"/>
</g>
<g style="mix-blend-mode:multiply" opacity="0.1" filter="url(#filter5_f_2557_49148)">
<path d="M35.3627 228.912C31.3456 270.262 12.0439 290.608 -1.51998 296.183C-1.51998 296.183 -6.10702 298.276 -12.667 295.84C-12.667 295.84 23.8102 257.247 22.9333 227.457L23.4923 211.951C23.6403 209.907 23.6238 208.016 23.3827 206.332C19.9301 182.1 2.17378 79.9807 2.17378 79.9807C27.2135 136.493 36.0587 179.98 36.1026 212.736L35.3573 228.912H35.3627Z" fill="black"/>
</g>
<g filter="url(#filter6_i_2557_49148)">
<path d="M3.09016 46.571C3.09016 46.571 -4.96595 47.6828 -11.6465 38.2432C-11.6465 38.2432 -10.9943 52.8986 -1.45853 54.6045C8.07727 56.3104 3.09016 46.571 3.09016 46.571Z" fill="white"/>
</g>
<path d="M78.0626 89.0062C78.5708 88.8578 78.761 87.9859 78.4873 87.0588C78.2137 86.1317 77.5798 85.5005 77.0716 85.6488C76.5634 85.7972 76.3732 86.669 76.6469 87.5961C76.9205 88.5232 77.5544 89.1545 78.0626 89.0062Z" fill="#EB2427"/>
<path d="M65.6886 90.6036C66.1968 90.4552 66.387 89.5834 66.1133 88.6563C65.8397 87.7292 65.2058 87.0979 64.6976 87.2462C64.1893 87.3946 63.9992 88.2665 64.2729 89.1936C64.5465 90.1207 65.1804 90.7519 65.6886 90.6036Z" fill="#EB2427"/>
<path d="M16.917 94.8376C23.7181 99.2795 30.6288 103.607 38.0054 106.997C41.6772 108.692 45.4641 110.044 49.4538 110.725C53.4435 111.461 57.4825 111.957 61.5653 112.213C55.4383 112.583 49.1414 112.202 43.2226 110.447C33.4676 107.199 24.7046 101.427 16.9225 94.8376H16.917Z" fill="#F48220"/>
<g filter="url(#filter7_i_2557_49148)">
<path d="M17.0595 177.048C17.0595 177.048 6.72902 192.875 7.36474 198.407C8.00046 203.939 -9.41606 208.746 -9.63528 197.23C-9.85449 185.714 4.90407 170.072 4.90407 170.072C4.90407 170.072 7.31542 167.238 13.2561 170.65C19.1968 174.061 17.0595 177.048 17.0595 177.048Z" fill="#AA2D8F"/>
</g>
<g filter="url(#filter8_i_2557_49148)">
<path d="M26.0858 38.2543C29.4617 36.3467 32.3772 33.6871 34.5639 30.4824C35.4133 29.2397 36.1587 27.899 36.5094 26.3947C36.8602 24.8905 36.778 23.2173 36.0381 21.7621C35.1448 20.0126 33.2925 18.7318 31.4017 18.5629C29.511 18.3939 26.9791 18.7591 26.0529 23.9422C26.3872 20.2797 24.2225 15.4999 21.3727 12.9982C18.8079 10.7528 13.5632 9.17768 9.51325 11.7665C5.96747 14.0338 5.34819 19.1624 6.67991 21.9856C8.01163 24.8087 10.4613 27.6973 10.4613 27.6973C10.4613 27.6973 7.54033 24.3618 5.09609 23.0974C0.602212 20.7756 -3.45324 23.6097 -4.37394 26.6073C-5.28368 29.5776 -4.64795 32.7551 -3.7985 34.8479C-2.05027 39.159 1.84625 41.8296 6.38398 42.876C6.86077 42.985 25.5542 38.5431 26.0858 38.2434V38.2543Z" fill="#7C005C"/>
</g>
<path d="M35.6951 62.443C28.0738 61.5373 23.6494 63.2571 21.4039 70.9353C20.8924 62.5702 28.6364 58.81 35.6951 62.443Z" fill="#ECBBAC"/>
<path d="M33.6765 78.2803C37.5835 77.1842 39.7176 72.6516 38.4432 68.1565C37.1688 63.6614 32.9685 60.906 29.0615 62.0021C25.1545 63.0982 23.0204 67.6308 24.2948 72.1259C25.5692 76.621 29.7696 79.3765 33.6765 78.2803Z" fill="#121617"/>
<g filter="url(#filter9_i_2557_49148)">
<path d="M33.8826 78.9078C37.7855 77.9621 40.0487 73.5168 38.9375 68.9791C37.8264 64.4413 33.7617 61.5294 29.8588 62.4751C25.9559 63.4208 23.6928 67.8661 24.8039 72.4039C25.9151 76.9416 29.9798 79.8536 33.8826 78.9078Z" fill="white"/>
</g>
<path d="M34.4555 77.7839C37.546 77.0351 39.3316 73.4886 38.4437 69.8628C37.5559 66.2369 34.3308 63.9047 31.2403 64.6536C28.1499 65.4024 26.3643 68.9489 27.2521 72.5747C28.14 76.2006 31.3651 78.5328 34.4555 77.7839Z" fill="#414F51"/>
<path d="M35.0845 77.9106C37.9307 77.2209 39.5816 73.9814 38.772 70.675C37.9624 67.3686 34.9987 65.2473 32.1525 65.937C29.3063 66.6267 27.6554 69.8662 28.465 73.1726C29.2746 76.479 32.2383 78.6002 35.0845 77.9106Z" fill="#121617"/>
<path d="M33.095 70.712C33.9596 70.5025 34.4464 69.4583 34.1823 68.3799C33.9182 67.3014 33.0032 66.597 32.1387 66.8065C31.2741 67.016 30.7873 68.0601 31.0514 69.1385C31.3155 70.217 32.2304 70.9215 33.095 70.712Z" fill="white"/>
<path d="M36.7634 69.956C36.8905 69.4084 36.6365 68.8825 36.1961 68.7813C35.7557 68.6802 35.2957 69.0421 35.1686 69.5897C35.0415 70.1374 35.2955 70.6633 35.7359 70.7644C36.1763 70.8656 36.6363 70.5036 36.7634 69.956Z" fill="white"/>
<path d="M31.7052 72.3762C31.9613 72.0057 31.7916 71.4472 31.3261 71.1287C30.8606 70.8102 30.2756 70.8523 30.0194 71.2228C29.7633 71.5932 29.933 72.1517 30.3985 72.4702C30.864 72.7887 31.449 72.7466 31.7052 72.3762Z" fill="white"/>
<path d="M40.9167 76.1914C40.9167 76.1914 28.4568 76.344 23.2549 78.8525C29.3826 82.282 36.4872 80.6436 36.4872 80.6436L40.9167 76.1863V76.1914Z" fill="#F9C767"/>
<path d="M41.5571 77.6169C35.9205 78.6396 30.0485 79.0263 24.417 80.0694C29.179 77.0419 36.1046 76.5128 41.5571 77.6169Z" fill="#ECBBAC"/>
<path d="M17.7544 63.1079C22.2781 58.5974 30.581 58.4805 34.167 58.9859C26.3337 54.9402 22.1142 56.3957 17.7544 58.2604C18.6974 57.8571 19.1752 60.918 17.7544 63.1079Z" fill="black"/>
<path d="M21.3477 65.8931C22.6868 68.0301 23.9516 67.9708 24.4166 67.6739L23.8586 69.4548C23.1146 69.158 21.5709 68.0301 21.3477 65.8931Z" fill="black"/>
<path d="M22.8828 64.875C23.7756 66.4015 24.6188 66.3591 24.9288 66.1471L24.5568 67.4191C24.0608 67.2071 23.0316 66.4015 22.8828 64.875Z" fill="black"/>
<g filter="url(#filter10_f_2557_49148)">
<path d="M13.9318 90.316C17.4629 90.316 20.3254 87.3545 20.3254 83.7014C20.3254 80.0482 17.4629 77.0867 13.9318 77.0867C10.4006 77.0867 7.53809 80.0482 7.53809 83.7014C7.53809 87.3545 10.4006 90.316 13.9318 90.316Z" fill="#EB2427" fill-opacity="0.6"/>
</g>
<g filter="url(#filter11_i_2557_49148)">
<path d="M4.94789 139.24C4.94789 139.24 -10.9615 127.839 -12.1124 116.115C-12.1124 116.115 -34.8175 122.895 -45.0273 119.8C-45.0273 119.8 -37.8043 132.28 -27.3916 134.515C-27.3916 134.515 -36.2204 152.937 -19.8726 152.713C-19.8726 152.713 -22.2949 165.107 -15.2472 167.074L3.53396 151.509L4.95885 139.24H4.94789Z" fill="#7C005C"/>
</g>
<path d="M-5.86734 70.9862C-10.4599 77.6463 -5.37959 94.1003 -3.32994 101.605C-1.40086 108.402 0.659751 115.176 2.38058 122.043C3.4054 126.283 4.40831 130.78 5.04403 135.102C5.3564 136.977 5.65782 139.838 5.83867 141.729C5.90992 142.716 6.00856 144.749 6.05788 145.73C6.12913 148.395 6.01952 151.065 5.78387 153.709C5.09882 139.544 1.11462 125.989 -2.7819 112.451C-5.64264 101.834 -9.28159 90.9392 -8.78288 79.7555C-8.49242 76.7197 -8.12524 73.248 -5.86734 70.9807V70.9862Z" fill="white" fill-opacity="0.3"/>
<g filter="url(#filter12_i_2557_49148)">
<g style="mix-blend-mode:multiply" opacity="0.25">
<path d="M32.2727 35.5452C33.9935 34.1118 37.5229 33.5178 39.1286 32.9455C41.8524 31.9754 44.8172 30.9998 47.5848 31.8446C51.3991 33.0055 53.2843 37.044 51.2895 40.5103C50.5003 41.8838 49.0097 42.6413 47.5245 43.1918C44.7898 44.2001 41.7482 44.7015 38.745 43.993C35.8623 43.3172 32.3714 41.1371 31.4233 38.1613C31.067 37.0549 31.4781 36.2101 32.2727 35.5452Z" fill="black"/>
</g>
<g style="mix-blend-mode:multiply" opacity="0.25">
<path d="M29.2367 40.6357C28.0913 46.3202 23.3289 50.6858 17.6294 51.2798C16.6648 51.3779 15.5688 51.3398 14.7851 50.6422C14.3631 50.2661 14.1329 49.7265 13.9466 49.1979C13.4807 47.8517 13.5191 46.3856 14.0562 45.1811C13.5356 45.9005 12.2915 45.7643 11.5352 45.1375C10.7789 44.5107 10.3679 43.5624 9.98976 42.6631C8.83341 39.9108 7.70447 36.6788 9.06359 34.3135C9.85276 32.94 11.3434 32.1825 12.8286 31.632C15.5633 30.6237 18.6049 30.1223 21.6081 30.8308C24.6113 31.5393 27.5543 33.605 28.8586 36.5262C29.1107 37.0876 29.297 37.6762 29.3792 38.2703C29.4888 39.0769 29.3957 39.8726 29.2367 40.6357Z" fill="black"/>
</g>
<path d="M33.5872 32.7766C34.7326 27.0921 39.495 22.7265 45.1945 22.1324C46.1591 22.0343 47.2551 22.0725 48.0388 22.7701C48.4608 23.1461 48.7348 23.6748 48.9157 24.2035C49.3815 25.5497 49.3432 27.0157 48.8061 28.2202C49.3267 27.5008 50.5324 27.648 51.2832 28.2747C52.0395 28.9015 52.4505 29.8498 52.8287 30.7491C53.985 33.5014 55.114 36.7334 53.7548 39.0988C52.9657 40.4722 51.475 41.2298 49.9898 41.7802C47.2551 42.7885 44.2135 43.2899 41.2103 42.5814C38.2071 41.8729 35.2642 39.8073 33.9598 36.886C33.7077 36.3246 33.5214 35.736 33.4392 35.1419C33.3296 34.3353 33.4228 33.5396 33.5817 32.7766H33.5872Z" fill="#EB2427"/>
<path d="M30.3813 39.2243C29.2359 44.9088 24.4735 49.2744 18.7739 49.8684C17.8094 49.9665 16.7133 49.9284 15.9296 49.2308C15.5076 48.8547 15.2774 48.3152 15.0911 47.7865C14.6253 46.4403 14.6636 44.9742 15.2007 43.7697C14.6801 44.4891 13.436 44.3529 12.6798 43.7261C11.9235 43.0993 11.5124 42.151 11.1343 41.2517C9.97795 38.4994 8.849 35.2675 10.2081 32.9021C10.9973 31.5287 12.4879 30.7711 13.9731 30.2206C16.7078 29.2123 19.7494 28.7109 22.7526 29.4194C25.7558 30.128 28.6988 32.1936 30.0031 35.1149C30.2552 35.6762 30.4415 36.2648 30.5237 36.8589C30.6333 37.6655 30.5402 38.4613 30.3813 39.2243Z" fill="#EB2427"/>
<g style="mix-blend-mode:multiply" opacity="0.25">
<path d="M33.7306 40.6503C35.3774 39.3877 35.5603 36.8781 34.1392 35.0449C32.7181 33.2118 30.2311 32.7492 28.5843 34.0118C26.9375 35.2743 26.7546 37.7839 28.1757 39.6171C29.5968 41.4503 32.0838 41.9129 33.7306 40.6503Z" fill="black"/>
</g>
<path d="M34.4249 39.6828C36.0717 38.4202 36.2546 35.9106 34.8335 34.0774C33.4124 32.2442 30.9254 31.7817 29.2786 33.0442C27.6319 34.3068 27.4489 36.8164 28.87 38.6496C30.2911 40.4828 32.7781 40.9454 34.4249 39.6828Z" fill="#EB2427"/>
<path d="M31.3145 33.1526C32.849 32.7875 34.3944 34.3135 34.241 35.8287C33.3422 34.7332 32.5914 33.8884 31.3145 33.1526Z" fill="#F4BDBD"/>
<g style="mix-blend-mode:multiply" opacity="0.25">
<path d="M26.6933 37.5891C26.1946 38.5156 25.4054 39.355 24.7149 40.0035C23.8818 40.7775 22.9447 41.4369 21.9308 41.9601C20.8074 42.5379 16.6642 44.271 15.8477 42.9739C19.4482 41.9874 22.3748 40.2161 26.6933 37.5946V37.5891Z" fill="black"/>
</g>
<g style="mix-blend-mode:multiply" opacity="0.25">
<path d="M26.0573 36.0193C25.2462 35.5942 24.1776 35.3762 23.2623 35.2563C22.1663 35.1091 21.0045 35.1091 19.8097 35.2454C18.4835 35.398 13.743 36.2537 13.3594 37.6326C17.3052 36.5044 20.84 36.3027 26.0519 36.0193H26.0573Z" fill="black"/>
</g>
<g style="mix-blend-mode:multiply" opacity="0.25">
<path d="M36.082 34.3573C36.5972 33.4199 37.4192 32.5533 38.1536 31.8884C39.0305 31.0872 40.0279 30.4059 41.1075 29.8555C42.3077 29.2451 46.7413 27.3975 47.662 28.6728C43.7929 29.7574 40.6746 31.6104 36.082 34.3573Z" fill="black"/>
</g>
<g style="mix-blend-mode:multiply" opacity="0.25">
<path d="M36.8223 35.9104C37.7156 36.3137 38.8829 36.499 39.8748 36.5971C41.0641 36.7116 42.3245 36.6788 43.6124 36.5099C45.0428 36.3246 50.1505 35.3327 50.5231 33.9429C46.2813 35.1801 42.4615 35.4798 36.8223 35.9104Z" fill="black"/>
</g>
</g>
</g>
</g>
</g>
<defs>
<filter id="filter0_d_2557_49148" x="0" y="0" width="186" height="188.339" filterUnits="userSpaceOnUse" color-interpolation-filters="sRGB">
<feFlood flood-opacity="0" result="BackgroundImageFix"/>
<feColorMatrix in="SourceAlpha" type="matrix" values="0 0 0 0 0 0 0 0 0 0 0 0 0 0 0 0 0 0 127 0" result="hardAlpha"/>
<feOffset dy="2.33878"/>
<feComposite in2="hardAlpha" operator="out"/>
<feColorMatrix type="matrix" values="0 0 0 0 0.529412 0 0 0 0 0.529412 0 0 0 0 0.529412 0 0 0 1 0"/>
<feBlend mode="normal" in2="BackgroundImageFix" result="effect1_dropShadow_2557_49148"/>
<feBlend mode="normal" in="SourceGraphic" in2="effect1_dropShadow_2557_49148" result="shape"/>
</filter>
<filter id="filter1_i_2557_49148" x="48.3252" y="114.099" width="53.8379" height="54.4631" filterUnits="userSpaceOnUse" color-interpolation-filters="sRGB">
<feFlood flood-opacity="0" result="BackgroundImageFix"/>
<feBlend mode="normal" in="SourceGraphic" in2="BackgroundImageFix" result="shape"/>
<feColorMatrix in="SourceAlpha" type="matrix" values="0 0 0 0 0 0 0 0 0 0 0 0 0 0 0 0 0 0 127 0" result="hardAlpha"/>
<feOffset dx="-9" dy="4"/>
<feGaussianBlur stdDeviation="2"/>
<feComposite in2="hardAlpha" operator="arithmetic" k2="-1" k3="1"/>
<feColorMatrix type="matrix" values="0 0 0 0 1 0 0 0 0 1 0 0 0 0 1 0 0 0 0.25 0"/>
<feBlend mode="normal" in2="shape" result="effect1_innerShadow_2557_49148"/>
</filter>
<filter id="filter2_i_2557_49148" x="-45.1641" y="28.5874" width="132.422" height="275.118" filterUnits="userSpaceOnUse" color-interpolation-filters="sRGB">
<feFlood flood-opacity="0" result="BackgroundImageFix"/>
<feBlend mode="normal" in="SourceGraphic" in2="BackgroundImageFix" result="shape"/>
<feColorMatrix in="SourceAlpha" type="matrix" values="0 0 0 0 0 0 0 0 0 0 0 0 0 0 0 0 0 0 127 0" result="hardAlpha"/>
<feOffset dx="-9" dy="4"/>
<feGaussianBlur stdDeviation="2"/>
<feComposite in2="hardAlpha" operator="arithmetic" k2="-1" k3="1"/>
<feColorMatrix type="matrix" values="0 0 0 0 1 0 0 0 0 1 0 0 0 0 1 0 0 0 0.25 0"/>
<feBlend mode="normal" in2="shape" result="effect1_innerShadow_2557_49148"/>
</filter>
<filter id="filter3_i_2557_49148" x="48.2861" y="25.8933" width="11.9883" height="26.3028" filterUnits="userSpaceOnUse" color-interpolation-filters="sRGB">
<feFlood flood-opacity="0" result="BackgroundImageFix"/>
<feBlend mode="normal" in="SourceGraphic" in2="BackgroundImageFix" result="shape"/>
<feColorMatrix in="SourceAlpha" type="matrix" values="0 0 0 0 0 0 0 0 0 0 0 0 0 0 0 0 0 0 127 0" result="hardAlpha"/>
<feOffset dy="5.91363"/>
<feGaussianBlur stdDeviation="2.95681"/>
<feComposite in2="hardAlpha" operator="arithmetic" k2="-1" k3="1"/>
<feColorMatrix type="matrix" values="0 0 0 0 0.983333 0 0 0 0 0.483472 0 0 0 0 0.843372 0 0 0 0.25 0"/>
<feBlend mode="normal" in2="shape" result="effect1_innerShadow_2557_49148"/>
</filter>
<filter id="filter4_i_2557_49148" x="-41.8223" y="28.0037" width="107.94" height="272.207" filterUnits="userSpaceOnUse" color-interpolation-filters="sRGB">
<feFlood flood-opacity="0" result="BackgroundImageFix"/>
<feBlend mode="normal" in="SourceGraphic" in2="BackgroundImageFix" result="shape"/>
<feColorMatrix in="SourceAlpha" type="matrix" values="0 0 0 0 0 0 0 0 0 0 0 0 0 0 0 0 0 0 127 0" result="hardAlpha"/>
<feOffset dx="8" dy="4"/>
<feGaussianBlur stdDeviation="2"/>
<feComposite in2="hardAlpha" operator="arithmetic" k2="-1" k3="1"/>
<feColorMatrix type="matrix" values="0 0 0 0 1 0 0 0 0 1 0 0 0 0 1 0 0 0 0.25 0"/>
<feBlend mode="normal" in2="shape" result="effect1_innerShadow_2557_49148"/>
</filter>
<filter id="filter5_f_2557_49148" x="-18.5806" y="74.0671" width="60.5968" height="228.866" filterUnits="userSpaceOnUse" color-interpolation-filters="sRGB">
<feFlood flood-opacity="0" result="BackgroundImageFix"/>
<feBlend mode="normal" in="SourceGraphic" in2="BackgroundImageFix" result="shape"/>
<feGaussianBlur stdDeviation="2.95681" result="effect1_foregroundBlur_2557_49148"/>
</filter>
<filter id="filter6_i_2557_49148" x="-11.6465" y="38.2432" width="16.04" height="22.4756" filterUnits="userSpaceOnUse" color-interpolation-filters="sRGB">
<feFlood flood-opacity="0" result="BackgroundImageFix"/>
<feBlend mode="normal" in="SourceGraphic" in2="BackgroundImageFix" result="shape"/>
<feColorMatrix in="SourceAlpha" type="matrix" values="0 0 0 0 0 0 0 0 0 0 0 0 0 0 0 0 0 0 127 0" result="hardAlpha"/>
<feOffset dy="5.91363"/>
<feGaussianBlur stdDeviation="2.95681"/>
<feComposite in2="hardAlpha" operator="arithmetic" k2="-1" k3="1"/>
<feColorMatrix type="matrix" values="0 0 0 0 0.983333 0 0 0 0 0.483472 0 0 0 0 0.843372 0 0 0 0.25 0"/>
<feBlend mode="normal" in2="shape" result="effect1_innerShadow_2557_49148"/>
</filter>
<filter id="filter7_i_2557_49148" x="-9.6377" y="168.968" width="31.0713" height="39.3145" filterUnits="userSpaceOnUse" color-interpolation-filters="sRGB">
<feFlood flood-opacity="0" result="BackgroundImageFix"/>
<feBlend mode="normal" in="SourceGraphic" in2="BackgroundImageFix" result="shape"/>
<feColorMatrix in="SourceAlpha" type="matrix" values="0 0 0 0 0 0 0 0 0 0 0 0 0 0 0 0 0 0 127 0" result="hardAlpha"/>
<feOffset dx="8" dy="4"/>
<feGaussianBlur stdDeviation="2"/>
<feComposite in2="hardAlpha" operator="arithmetic" k2="-1" k3="1"/>
<feColorMatrix type="matrix" values="0 0 0 0 1 0 0 0 0 1 0 0 0 0 1 0 0 0 0.25 0"/>
<feBlend mode="normal" in2="shape" result="effect1_innerShadow_2557_49148"/>
</filter>
<filter id="filter8_i_2557_49148" x="-4.81836" y="10.426" width="45.5283" height="36.4519" filterUnits="userSpaceOnUse" color-interpolation-filters="sRGB">
<feFlood flood-opacity="0" result="BackgroundImageFix"/>
<feBlend mode="normal" in="SourceGraphic" in2="BackgroundImageFix" result="shape"/>
<feColorMatrix in="SourceAlpha" type="matrix" values="0 0 0 0 0 0 0 0 0 0 0 0 0 0 0 0 0 0 127 0" result="hardAlpha"/>
<feOffset dx="8" dy="4"/>
<feGaussianBlur stdDeviation="2"/>
<feComposite in2="hardAlpha" operator="arithmetic" k2="-1" k3="1"/>
<feColorMatrix type="matrix" values="0 0 0 0 1 0 0 0 0 1 0 0 0 0 1 0 0 0 0.25 0"/>
<feBlend mode="normal" in2="shape" result="effect1_innerShadow_2557_49148"/>
</filter>
<filter id="filter9_i_2557_49148" x="24.5215" y="62.2969" width="15.6992" height="18.7893" filterUnits="userSpaceOnUse" color-interpolation-filters="sRGB">
<feFlood flood-opacity="0" result="BackgroundImageFix"/>
<feBlend mode="normal" in="SourceGraphic" in2="BackgroundImageFix" result="shape"/>
<feColorMatrix in="SourceAlpha" type="matrix" values="0 0 0 0 0 0 0 0 0 0 0 0 0 0 0 0 0 0 127 0" result="hardAlpha"/>
<feOffset dx="1" dy="2"/>
<feGaussianBlur stdDeviation="1.5"/>
<feComposite in2="hardAlpha" operator="arithmetic" k2="-1" k3="1"/>
<feColorMatrix type="matrix" values="0 0 0 0 0 0 0 0 0 0 0 0 0 0 0 0 0 0 0.25 0"/>
<feBlend mode="normal" in2="shape" result="effect1_innerShadow_2557_49148"/>
</filter>
<filter id="filter10_f_2557_49148" x="1.62446" y="71.173" width="24.6144" height="25.0565" filterUnits="userSpaceOnUse" color-interpolation-filters="sRGB">
<feFlood flood-opacity="0" result="BackgroundImageFix"/>
<feBlend mode="normal" in="SourceGraphic" in2="BackgroundImageFix" result="shape"/>
<feGaussianBlur stdDeviation="2.95681" result="effect1_foregroundBlur_2557_49148"/>
</filter>
<filter id="filter11_i_2557_49148" x="-45.0273" y="116.115" width="53.9863" height="54.959" filterUnits="userSpaceOnUse" color-interpolation-filters="sRGB">
<feFlood flood-opacity="0" result="BackgroundImageFix"/>
<feBlend mode="normal" in="SourceGraphic" in2="BackgroundImageFix" result="shape"/>
<feColorMatrix in="SourceAlpha" type="matrix" values="0 0 0 0 0 0 0 0 0 0 0 0 0 0 0 0 0 0 127 0" result="hardAlpha"/>
<feOffset dx="8" dy="4"/>
<feGaussianBlur stdDeviation="2"/>
<feComposite in2="hardAlpha" operator="arithmetic" k2="-1" k3="1"/>
<feColorMatrix type="matrix" values="0 0 0 0 1 0 0 0 0 1 0 0 0 0 1 0 0 0 0.25 0"/>
<feBlend mode="normal" in2="shape" result="effect1_innerShadow_2557_49148"/>
</filter>
<filter id="filter12_i_2557_49148" x="4.44238" y="22.0925" width="49.9336" height="33.2271" filterUnits="userSpaceOnUse" color-interpolation-filters="sRGB">
<feFlood flood-opacity="0" result="BackgroundImageFix"/>
<feBlend mode="normal" in="SourceGraphic" in2="BackgroundImageFix" result="shape"/>
<feColorMatrix in="SourceAlpha" type="matrix" values="0 0 0 0 0 0 0 0 0 0 0 0 0 0 0 0 0 0 127 0" result="hardAlpha"/>
<feOffset dx="-9" dy="4"/>
<feGaussianBlur stdDeviation="2"/>
<feComposite in2="hardAlpha" operator="arithmetic" k2="-1" k3="1"/>
<feColorMatrix type="matrix" values="0 0 0 0 1 0 0 0 0 1 0 0 0 0 1 0 0 0 0.25 0"/>
<feBlend mode="normal" in2="shape" result="effect1_innerShadow_2557_49148"/>
</filter>
<clipPath id="clip0_2557_49148">
<rect width="186" height="186" fill="white"/>
</clipPath>
<clipPath id="clip1_2557_49148">
<rect width="198.107" height="322.293" fill="white" transform="translate(-57.4219 -4.35303)"/>
</clipPath>
<clipPath id="clip2_2557_49148">
<rect width="198.107" height="322.293" fill="white" transform="translate(-57.4219 10.4312)"/>
</clipPath>
</defs>
</svg>
