<svg width="186" height="189" viewBox="0 0 186 189" fill="none" xmlns="http://www.w3.org/2000/svg">
<g clip-path="url(#clip0_2557_48797)" filter="url(#filter0_d_2557_48797)">
<rect width="186" height="186" fill="#D6F2DC"/>
<g clip-path="url(#clip1_2557_48797)">
<g clip-path="url(#clip2_2557_48797)">
<g filter="url(#filter1_i_2557_48797)">
<path d="M52.3252 139.027C52.3252 139.027 68.9745 124.229 69.0457 112.452C69.0457 112.452 92.2824 117.144 102.163 113.133C102.163 113.133 96.1186 126.213 85.9526 129.391C85.9526 129.391 96.3762 142.406 80.1379 148.194C80.1379 148.194 83.6892 160.315 76.8497 162.915L57.6631 149.393L52.3252 139.027Z" fill="#8B8ACB"/>
</g>
<g style="mix-blend-mode:multiply" opacity="0.25">
<path d="M85.9523 129.385C82.3572 129.058 78.9046 128.159 75.4849 127.102C72.0871 126.006 68.7441 124.764 65.6367 122.97C69.2428 123.303 72.679 124.191 76.1042 125.254C79.5075 126.355 82.8286 127.592 85.9523 129.385Z" fill="black"/>
</g>
<g style="mix-blend-mode:multiply" opacity="0.25">
<path d="M80.1387 148.188C72.7786 146.412 60.9027 140.487 58.2393 133.004C61.1055 136.492 64.9088 138.765 68.6464 141.168C72.4498 143.55 76.3408 145.725 80.1387 148.183V148.188Z" fill="black"/>
</g>
<path d="M61.7404 108.353L58.4139 116.861L52.5938 108.707C52.5938 108.707 60.1621 107.906 61.7404 108.353Z" fill="white"/>
<g filter="url(#filter2_i_2557_48797)">
<path d="M-39.0709 247.087C-27.3429 201.148 -0.785198 191.942 2.76058 173.047C2.76058 173.047 4.69514 130.573 3.04008 124.469C-2.35806 111.465 -10.4032 97.9379 -10.8362 90.1824C-11.5322 77.6088 -13.7517 44.8534 7.51752 30.3995C28.014 16.4744 72.1307 46.2759 80.5047 89.621C86.4892 120.6 43.0137 107.999 43.0137 107.999C43.0137 107.999 41.3641 118.708 47.4363 128.928C48.3132 130.137 50.9986 133.958 50.9986 133.958C50.9986 133.958 50.9986 133.958 50.9986 133.963C51.0205 133.958 51.1136 133.925 51.1136 133.925C53.2455 136.258 56.024 140.553 59.093 146.183C59.1149 146.215 59.1369 146.248 59.1533 146.281C59.1752 146.314 59.1752 146.341 59.1917 146.368C73.6653 173.068 94.4796 230.142 84.7629 260.086C72.9638 296.449 54.5279 300.695 21.8431 296.956C-10.8416 293.223 -50.8043 293.026 -39.0709 247.087Z" fill="#F9C767"/>
</g>
<path d="M43.0091 107.999C43.0091 107.999 41.3596 118.708 47.4318 128.927L17.542 93.6702C17.542 93.6702 31.2757 105.383 43.0091 107.999Z" fill="#CAA154"/>
<g filter="url(#filter3_i_2557_48797)">
<path d="M48.314 37.5281C48.314 37.5281 56.1838 35.5061 58.7541 24.2461C58.7541 24.2461 63.7631 38.0459 55.5974 43.2345C47.4317 48.423 48.314 37.5281 48.314 37.5281Z" fill="white"/>
</g>
<path d="M37.8407 106.255L30.656 111.939L29.7627 101.982C29.7627 101.982 36.7063 105.083 37.8407 106.26V106.255Z" fill="white"/>
<path d="M49.656 109.977L43.9784 117.15L40.7998 107.661C40.7998 107.661 48.275 109.089 49.6506 109.972L49.656 109.977Z" fill="white"/>
<g filter="url(#filter4_i_2557_48797)">
<path d="M-24.5373 212.418C-24.5373 212.418 -24.5318 212.402 -24.5264 212.396C0.425629 171.242 3.66999 140.629 -9.75684 95.4523C-13.1547 84.0179 -15.2646 68.1416 -7.77296 48.7935C-0.275852 29.4454 7.53364 25.3851 16.631 26.5351C25.7339 27.685 46.0495 30.5409 56.9554 46.1665L62.1179 60.0481C62.1179 60.0481 27.8164 37.5771 16.8064 43.3815C5.79636 49.1859 -3.99701 64.4028 2.17386 78.3334C67.2255 225.15 23.2348 284.355 -1.52537 294.536C-1.52537 294.536 -37.0873 296.629 -41.4497 264.375C-44.0693 245.01 -32.2865 223.885 -24.5428 212.418H-24.5373Z" fill="#A8A6EB"/>
</g>
<g style="mix-blend-mode:multiply" opacity="0.25" filter="url(#filter5_f_2557_48797)">
<path d="M35.3627 227.265C31.3456 268.615 12.0439 288.96 -1.51998 294.536C-1.51998 294.536 -6.10702 296.629 -12.667 294.193C-12.667 294.193 23.8102 255.6 22.9333 225.809L23.4923 210.304C23.6403 208.26 23.6238 206.369 23.3827 204.685C19.9301 180.453 2.17378 78.3335 2.17378 78.3335C27.2135 134.846 36.0587 178.333 36.1026 211.089L35.3573 227.265H35.3627Z" fill="black" fill-opacity="0.3"/>
</g>
<g filter="url(#filter6_i_2557_48797)">
<path d="M3.09016 44.924C3.09016 44.924 -4.96595 46.0359 -11.6465 36.5962C-11.6465 36.5962 -10.9943 51.2517 -1.45853 52.9576C8.07727 54.6635 3.09016 44.924 3.09016 44.924Z" fill="white"/>
</g>
<path d="M78.0626 87.3592C78.5708 87.2108 78.761 86.339 78.4873 85.4119C78.2137 84.4848 77.5798 83.8535 77.0716 84.0019C76.5634 84.1502 76.3732 85.0221 76.6469 85.9492C76.9205 86.8763 77.5544 87.5076 78.0626 87.3592Z" fill="#EB2427"/>
<path d="M65.6886 88.9566C66.1968 88.8082 66.387 87.9364 66.1133 87.0093C65.8397 86.0822 65.2058 85.4509 64.6976 85.5993C64.1893 85.7476 63.9992 86.6195 64.2729 87.5466C64.5465 88.4737 65.1804 89.105 65.6886 88.9566Z" fill="#EB2427"/>
<path d="M16.917 93.1907C23.7181 97.6326 30.6288 101.96 38.0054 105.35C41.6772 107.045 45.4641 108.397 49.4538 109.078C53.4435 109.814 57.4825 110.31 61.5653 110.566C55.4383 110.936 49.1414 110.555 43.2226 108.8C33.4676 105.552 24.7046 99.7799 16.9225 93.1907H16.917Z" fill="#F48220"/>
<g filter="url(#filter7_d_2557_48797)">
<path d="M17.0595 175.401C17.0595 175.401 6.72902 191.228 7.36474 196.76C8.00046 202.292 -9.41606 207.099 -9.63528 195.583C-9.85449 184.066 4.90407 168.424 4.90407 168.424C4.90407 168.424 7.31542 165.59 13.2561 169.002C19.1968 172.414 17.0595 175.401 17.0595 175.401Z" fill="#CBCAF8"/>
</g>
<g filter="url(#filter8_i_2557_48797)">
<path d="M26.6422 33.8736C29.5113 32.2584 31.9891 30.0063 33.8475 27.2928C34.5694 26.2407 35.2028 25.1054 35.5009 23.8317C35.799 22.558 35.7291 21.1413 35.1003 19.9091C34.3412 18.4278 32.7669 17.3433 31.1601 17.2002C29.5532 17.0572 27.4014 17.3664 26.6143 21.7551C26.8984 18.6539 25.0587 14.6067 22.6368 12.4885C20.457 10.5872 15.9998 9.25354 12.5578 11.4456C9.54441 13.3653 9.01811 17.7079 10.1499 20.0983C11.2817 22.4888 13.3636 24.9347 13.3636 24.9347C13.3636 24.9347 10.8811 22.1104 8.80386 21.0398C4.98467 19.0739 1.53809 21.4736 0.755627 24.0117C-0.0175251 26.5268 0.522751 29.2172 1.24467 30.9893C2.73043 34.6396 6.04194 36.9009 9.89839 37.7869C17.7659 30.9893 26.1905 34.1181 26.6422 33.8643V33.8736Z" fill="#C2C0FA"/>
</g>
<path d="M37.716 65.9664C30.9082 65.1731 26.956 66.6795 24.9502 73.4046C24.4933 66.0778 31.4108 62.7843 37.716 65.9664Z" fill="#E9B95E"/>
<path d="M42.5796 74.4036C35.9251 74.4036 31.0659 74.4036 25.4395 76.8562C30.0429 72.0925 36.9481 72.0925 42.5796 74.4036Z" fill="#E9B95E"/>
<path d="M22.8828 68.825C24.222 70.962 25.4868 70.9026 25.9518 70.6058L25.3938 72.3867C24.6498 72.0899 23.106 70.962 22.8828 68.825Z" fill="black"/>
<path d="M24.417 67.8074C25.3098 69.3338 26.153 69.2914 26.463 69.0794L26.091 70.3515C25.595 70.1395 24.5658 69.3338 24.417 67.8074Z" fill="black"/>
<g filter="url(#filter9_f_2557_48797)">
<path d="M13.9318 88.6691C17.4629 88.6691 20.3254 85.7076 20.3254 82.0544C20.3254 78.4012 17.4629 75.4397 13.9318 75.4397C10.4006 75.4397 7.53809 78.4012 7.53809 82.0544C7.53809 85.7076 10.4006 88.6691 13.9318 88.6691Z" fill="#EB2427" fill-opacity="0.6"/>
</g>
<g filter="url(#filter10_i_2557_48797)">
<path d="M4.94789 137.593C4.94789 137.593 -10.9615 126.191 -12.1124 114.468C-12.1124 114.468 -34.8175 121.248 -45.0273 118.152C-45.0273 118.152 -37.8043 130.633 -27.3916 132.868C-27.3916 132.868 -36.2204 151.289 -19.8726 151.066C-19.8726 151.066 -22.2949 163.46 -15.2472 165.427L3.53396 149.861L4.95885 137.593H4.94789Z" fill="#A6A4E8"/>
</g>
<path d="M-7.91519 63.2335C-12.5077 69.8936 -7.42744 86.3476 -5.37779 93.8525C-3.44871 100.649 -1.3881 107.423 0.332729 114.291C1.35755 118.531 2.36046 123.027 2.99618 127.349C3.30856 129.224 3.60997 132.085 3.79082 133.977C3.86207 134.963 3.96071 136.996 4.01004 137.977C4.08128 140.642 3.97167 143.313 3.73602 145.956C3.05097 131.791 -0.933229 118.236 -4.82975 104.698C-7.69049 94.0814 -11.3294 83.1865 -10.8307 72.0028C-10.5403 68.967 -10.1731 65.4953 -7.91519 63.228V63.2335Z" fill="white" fill-opacity="0.3"/>
<path d="M38.9951 69.897C30.402 67.8617 25.5258 71.7626 24.1618 73.9675C24.7756 67.4546 31.408 65.6568 34.6474 65.572C35.6704 65.3176 37.9721 65.8264 38.9951 69.897Z" fill="black"/>
<path d="M29.5327 55.5953C23.5311 55.9694 19.7076 57.6177 19.0473 58.9028C19.6988 55.7555 25.0668 55.1319 27.2307 54.5777C27.8877 54.2923 28.3755 53.7836 29.5327 55.5953Z" fill="#E9B95E"/>
<path d="M29.0071 54.937C23.0055 55.311 19.7265 57.4931 19.0663 58.7782C19.7178 55.631 23.6157 54.3094 25.7797 53.7552C26.4367 53.4698 27.8499 53.1252 29.0071 54.937Z" fill="black"/>
<g filter="url(#filter11_d_2557_48797)">
<path d="M23.3942 124.795C15.1246 122.879 -2.37792 117.497 -6.23169 111.298C-6.31197 111.132 -6.32835 110.748 -5.75028 110.548" stroke="#715A2E" stroke-width="1.47841" stroke-linecap="round"/>
</g>
<g filter="url(#filter12_d_2557_48797)">
<g filter="url(#filter13_i_2557_48797)">
<ellipse cx="2.30165" cy="2.28977" rx="2.30165" ry="2.28977" transform="matrix(-0.997031 0.0769966 -0.0778023 -0.996969 46.0693 124.019)" fill="url(#paint0_radial_2557_48797)"/>
</g>
<g filter="url(#filter14_i_2557_48797)">
<ellipse cx="2.30165" cy="2.28977" rx="2.30165" ry="2.28977" transform="matrix(-0.997031 0.0769966 -0.0778023 -0.996969 43.1689 126.284)" fill="url(#paint1_radial_2557_48797)"/>
</g>
<g filter="url(#filter15_i_2557_48797)">
<ellipse cx="2.30165" cy="2.28977" rx="2.30165" ry="2.28977" transform="matrix(-0.997031 0.0769965 -0.0778023 -0.996969 39.6777 127.574)" fill="url(#paint2_radial_2557_48797)"/>
</g>
<g filter="url(#filter16_i_2557_48797)">
<ellipse cx="2.30165" cy="2.28977" rx="2.30165" ry="2.28977" transform="matrix(-0.997031 0.0769965 -0.0778023 -0.996969 35.6377 128.396)" fill="url(#paint3_radial_2557_48797)"/>
</g>
<g filter="url(#filter17_i_2557_48797)">
<ellipse cx="2.30165" cy="2.28977" rx="2.30165" ry="2.28977" transform="matrix(-0.997031 0.0769965 -0.0778023 -0.996969 31.5186 128.204)" fill="url(#paint4_radial_2557_48797)"/>
</g>
<g filter="url(#filter18_i_2557_48797)">
<ellipse cx="2.30165" cy="2.28977" rx="2.30165" ry="2.28977" transform="matrix(-0.997031 0.0769964 -0.0778024 -0.996969 27.3594 127.505)" fill="url(#paint5_radial_2557_48797)"/>
</g>
</g>
<g filter="url(#filter19_di_2557_48797)">
<path d="M38.7384 34.6236C29.02 34.6236 18.7901 33.8604 3.44531 42.5104C4.72405 33.606 24.928 19.8678 38.7384 34.6236Z" fill="#F6D531"/>
</g>
<g filter="url(#filter20_i_2557_48797)">
<path d="M36.1819 17.6884L31.5784 30.9178L34.1359 31.681L36.1819 17.6884Z" fill="#F6D531"/>
<path d="M28.7652 13.3635L29.7882 29.9002H26.975L28.7652 13.3635Z" fill="#F6D531"/>
<path d="M-3.20312 33.7163L5.74801 39.8222L7.28249 38.0413L-3.20312 33.7163Z" fill="#F6D531"/>
<path d="M-0.389911 21.5046L10.0957 35.4972L12.6532 33.7163L-0.389911 21.5046Z" fill="#F6D531"/>
<path d="M10.0957 11.3282L17.0009 30.9178L19.8141 29.9002L10.0957 11.3282Z" fill="#F6D531"/>
<path d="M21.3486 10.5649L23.1388 29.1369H25.1848L21.3486 10.5649Z" fill="#F6D531"/>
<path d="M4.21353 15.1443L15.7221 31.681L14.6991 32.9531L4.21353 15.1443Z" fill="#F6D531"/>
</g>
</g>
</g>
</g>
<defs>
<filter id="filter0_d_2557_48797" x="0" y="0" width="186" height="188.339" filterUnits="userSpaceOnUse" color-interpolation-filters="sRGB">
<feFlood flood-opacity="0" result="BackgroundImageFix"/>
<feColorMatrix in="SourceAlpha" type="matrix" values="0 0 0 0 0 0 0 0 0 0 0 0 0 0 0 0 0 0 127 0" result="hardAlpha"/>
<feOffset dy="2.33878"/>
<feComposite in2="hardAlpha" operator="out"/>
<feColorMatrix type="matrix" values="0 0 0 0 0.529412 0 0 0 0 0.529412 0 0 0 0 0.529412 0 0 0 1 0"/>
<feBlend mode="normal" in2="BackgroundImageFix" result="effect1_dropShadow_2557_48797"/>
<feBlend mode="normal" in="SourceGraphic" in2="effect1_dropShadow_2557_48797" result="shape"/>
</filter>
<filter id="filter1_i_2557_48797" x="48.3252" y="112.452" width="53.8379" height="54.4631" filterUnits="userSpaceOnUse" color-interpolation-filters="sRGB">
<feFlood flood-opacity="0" result="BackgroundImageFix"/>
<feBlend mode="normal" in="SourceGraphic" in2="BackgroundImageFix" result="shape"/>
<feColorMatrix in="SourceAlpha" type="matrix" values="0 0 0 0 0 0 0 0 0 0 0 0 0 0 0 0 0 0 127 0" result="hardAlpha"/>
<feOffset dx="-9" dy="4"/>
<feGaussianBlur stdDeviation="2"/>
<feComposite in2="hardAlpha" operator="arithmetic" k2="-1" k3="1"/>
<feColorMatrix type="matrix" values="0 0 0 0 1 0 0 0 0 1 0 0 0 0 1 0 0 0 0.25 0"/>
<feBlend mode="normal" in2="shape" result="effect1_innerShadow_2557_48797"/>
</filter>
<filter id="filter2_i_2557_48797" x="-45.1641" y="26.9404" width="132.422" height="275.118" filterUnits="userSpaceOnUse" color-interpolation-filters="sRGB">
<feFlood flood-opacity="0" result="BackgroundImageFix"/>
<feBlend mode="normal" in="SourceGraphic" in2="BackgroundImageFix" result="shape"/>
<feColorMatrix in="SourceAlpha" type="matrix" values="0 0 0 0 0 0 0 0 0 0 0 0 0 0 0 0 0 0 127 0" result="hardAlpha"/>
<feOffset dx="-9" dy="4"/>
<feGaussianBlur stdDeviation="2"/>
<feComposite in2="hardAlpha" operator="arithmetic" k2="-1" k3="1"/>
<feColorMatrix type="matrix" values="0 0 0 0 1 0 0 0 0 1 0 0 0 0 1 0 0 0 0.25 0"/>
<feBlend mode="normal" in2="shape" result="effect1_innerShadow_2557_48797"/>
</filter>
<filter id="filter3_i_2557_48797" x="48.2861" y="24.2461" width="11.9883" height="26.3028" filterUnits="userSpaceOnUse" color-interpolation-filters="sRGB">
<feFlood flood-opacity="0" result="BackgroundImageFix"/>
<feBlend mode="normal" in="SourceGraphic" in2="BackgroundImageFix" result="shape"/>
<feColorMatrix in="SourceAlpha" type="matrix" values="0 0 0 0 0 0 0 0 0 0 0 0 0 0 0 0 0 0 127 0" result="hardAlpha"/>
<feOffset dy="5.91363"/>
<feGaussianBlur stdDeviation="2.95681"/>
<feComposite in2="hardAlpha" operator="arithmetic" k2="-1" k3="1"/>
<feColorMatrix type="matrix" values="0 0 0 0 0.483472 0 0 0 0 0.773392 0 0 0 0 0.983333 0 0 0 0.25 0"/>
<feBlend mode="normal" in2="shape" result="effect1_innerShadow_2557_48797"/>
</filter>
<filter id="filter4_i_2557_48797" x="-41.8223" y="26.3564" width="107.94" height="272.207" filterUnits="userSpaceOnUse" color-interpolation-filters="sRGB">
<feFlood flood-opacity="0" result="BackgroundImageFix"/>
<feBlend mode="normal" in="SourceGraphic" in2="BackgroundImageFix" result="shape"/>
<feColorMatrix in="SourceAlpha" type="matrix" values="0 0 0 0 0 0 0 0 0 0 0 0 0 0 0 0 0 0 127 0" result="hardAlpha"/>
<feOffset dx="8" dy="4"/>
<feGaussianBlur stdDeviation="2"/>
<feComposite in2="hardAlpha" operator="arithmetic" k2="-1" k3="1"/>
<feColorMatrix type="matrix" values="0 0 0 0 1 0 0 0 0 1 0 0 0 0 1 0 0 0 0.25 0"/>
<feBlend mode="normal" in2="shape" result="effect1_innerShadow_2557_48797"/>
</filter>
<filter id="filter5_f_2557_48797" x="-18.5806" y="72.4199" width="60.5968" height="228.866" filterUnits="userSpaceOnUse" color-interpolation-filters="sRGB">
<feFlood flood-opacity="0" result="BackgroundImageFix"/>
<feBlend mode="normal" in="SourceGraphic" in2="BackgroundImageFix" result="shape"/>
<feGaussianBlur stdDeviation="2.95681" result="effect1_foregroundBlur_2557_48797"/>
</filter>
<filter id="filter6_i_2557_48797" x="-11.6465" y="36.5962" width="16.04" height="22.4756" filterUnits="userSpaceOnUse" color-interpolation-filters="sRGB">
<feFlood flood-opacity="0" result="BackgroundImageFix"/>
<feBlend mode="normal" in="SourceGraphic" in2="BackgroundImageFix" result="shape"/>
<feColorMatrix in="SourceAlpha" type="matrix" values="0 0 0 0 0 0 0 0 0 0 0 0 0 0 0 0 0 0 127 0" result="hardAlpha"/>
<feOffset dy="5.91363"/>
<feGaussianBlur stdDeviation="2.95681"/>
<feComposite in2="hardAlpha" operator="arithmetic" k2="-1" k3="1"/>
<feColorMatrix type="matrix" values="0 0 0 0 0.483472 0 0 0 0 0.773392 0 0 0 0 0.983333 0 0 0 0.25 0"/>
<feBlend mode="normal" in2="shape" result="effect1_innerShadow_2557_48797"/>
</filter>
<filter id="filter7_d_2557_48797" x="-39.2058" y="145.144" width="86.2076" height="94.4507" filterUnits="userSpaceOnUse" color-interpolation-filters="sRGB">
<feFlood flood-opacity="0" result="BackgroundImageFix"/>
<feColorMatrix in="SourceAlpha" type="matrix" values="0 0 0 0 0 0 0 0 0 0 0 0 0 0 0 0 0 0 127 0" result="hardAlpha"/>
<feOffset dy="7.39203"/>
<feGaussianBlur stdDeviation="14.7841"/>
<feComposite in2="hardAlpha" operator="out"/>
<feColorMatrix type="matrix" values="0 0 0 0 0 0 0 0 0 0 0 0 0 0 0 0 0 0 0.05 0"/>
<feBlend mode="normal" in2="BackgroundImageFix" result="effect1_dropShadow_2557_48797"/>
<feBlend mode="normal" in="SourceGraphic" in2="effect1_dropShadow_2557_48797" result="shape"/>
</filter>
<filter id="filter8_i_2557_48797" x="0.37793" y="10.3105" width="39.293" height="31.4763" filterUnits="userSpaceOnUse" color-interpolation-filters="sRGB">
<feFlood flood-opacity="0" result="BackgroundImageFix"/>
<feBlend mode="normal" in="SourceGraphic" in2="BackgroundImageFix" result="shape"/>
<feColorMatrix in="SourceAlpha" type="matrix" values="0 0 0 0 0 0 0 0 0 0 0 0 0 0 0 0 0 0 127 0" result="hardAlpha"/>
<feOffset dx="8" dy="4"/>
<feGaussianBlur stdDeviation="2"/>
<feComposite in2="hardAlpha" operator="arithmetic" k2="-1" k3="1"/>
<feColorMatrix type="matrix" values="0 0 0 0 1 0 0 0 0 1 0 0 0 0 1 0 0 0 0.25 0"/>
<feBlend mode="normal" in2="shape" result="effect1_innerShadow_2557_48797"/>
</filter>
<filter id="filter9_f_2557_48797" x="1.62446" y="69.5261" width="24.6144" height="25.0565" filterUnits="userSpaceOnUse" color-interpolation-filters="sRGB">
<feFlood flood-opacity="0" result="BackgroundImageFix"/>
<feBlend mode="normal" in="SourceGraphic" in2="BackgroundImageFix" result="shape"/>
<feGaussianBlur stdDeviation="2.95681" result="effect1_foregroundBlur_2557_48797"/>
</filter>
<filter id="filter10_i_2557_48797" x="-45.0273" y="114.468" width="53.9863" height="54.959" filterUnits="userSpaceOnUse" color-interpolation-filters="sRGB">
<feFlood flood-opacity="0" result="BackgroundImageFix"/>
<feBlend mode="normal" in="SourceGraphic" in2="BackgroundImageFix" result="shape"/>
<feColorMatrix in="SourceAlpha" type="matrix" values="0 0 0 0 0 0 0 0 0 0 0 0 0 0 0 0 0 0 127 0" result="hardAlpha"/>
<feOffset dx="8" dy="4"/>
<feGaussianBlur stdDeviation="2"/>
<feComposite in2="hardAlpha" operator="arithmetic" k2="-1" k3="1"/>
<feColorMatrix type="matrix" values="0 0 0 0 1 0 0 0 0 1 0 0 0 0 1 0 0 0 0.25 0"/>
<feBlend mode="normal" in2="shape" result="effect1_innerShadow_2557_48797"/>
</filter>
<filter id="filter11_d_2557_48797" x="-7.01172" y="109.809" width="31.1455" height="20.1611" filterUnits="userSpaceOnUse" color-interpolation-filters="sRGB">
<feFlood flood-opacity="0" result="BackgroundImageFix"/>
<feColorMatrix in="SourceAlpha" type="matrix" values="0 0 0 0 0 0 0 0 0 0 0 0 0 0 0 0 0 0 127 0" result="hardAlpha"/>
<feOffset dy="4.43522"/>
<feComposite in2="hardAlpha" operator="out"/>
<feColorMatrix type="matrix" values="0 0 0 0 0 0 0 0 0 0 0 0 0 0 0 0 0 0 0.11 0"/>
<feBlend mode="normal" in2="BackgroundImageFix" result="effect1_dropShadow_2557_48797"/>
<feBlend mode="normal" in="SourceGraphic" in2="effect1_dropShadow_2557_48797" result="shape"/>
</filter>
<filter id="filter12_d_2557_48797" x="22.585" y="119.623" width="23.3135" height="13.3927" filterUnits="userSpaceOnUse" color-interpolation-filters="sRGB">
<feFlood flood-opacity="0" result="BackgroundImageFix"/>
<feColorMatrix in="SourceAlpha" type="matrix" values="0 0 0 0 0 0 0 0 0 0 0 0 0 0 0 0 0 0 127 0" result="hardAlpha"/>
<feOffset dy="4.43522"/>
<feComposite in2="hardAlpha" operator="out"/>
<feColorMatrix type="matrix" values="0 0 0 0 0 0 0 0 0 0 0 0 0 0 0 0 0 0 0.05 0"/>
<feBlend mode="normal" in2="BackgroundImageFix" result="effect1_dropShadow_2557_48797"/>
<feBlend mode="normal" in="SourceGraphic" in2="effect1_dropShadow_2557_48797" result="shape"/>
</filter>
<filter id="filter13_i_2557_48797" x="41.2949" y="119.623" width="4.60352" height="4.57959" filterUnits="userSpaceOnUse" color-interpolation-filters="sRGB">
<feFlood flood-opacity="0" result="BackgroundImageFix"/>
<feBlend mode="normal" in="SourceGraphic" in2="BackgroundImageFix" result="shape"/>
<feColorMatrix in="SourceAlpha" type="matrix" values="0 0 0 0 0 0 0 0 0 0 0 0 0 0 0 0 0 0 127 0" result="hardAlpha"/>
<feOffset dx="4.43522" dy="-2.95681"/>
<feComposite in2="hardAlpha" operator="arithmetic" k2="-1" k3="1"/>
<feColorMatrix type="matrix" values="0 0 0 0 1 0 0 0 0 1 0 0 0 0 1 0 0 0 0.1 0"/>
<feBlend mode="normal" in2="shape" result="effect1_innerShadow_2557_48797"/>
</filter>
<filter id="filter14_i_2557_48797" x="38.3945" y="121.888" width="4.60352" height="4.57959" filterUnits="userSpaceOnUse" color-interpolation-filters="sRGB">
<feFlood flood-opacity="0" result="BackgroundImageFix"/>
<feBlend mode="normal" in="SourceGraphic" in2="BackgroundImageFix" result="shape"/>
<feColorMatrix in="SourceAlpha" type="matrix" values="0 0 0 0 0 0 0 0 0 0 0 0 0 0 0 0 0 0 127 0" result="hardAlpha"/>
<feOffset dx="4.43522" dy="-2.95681"/>
<feComposite in2="hardAlpha" operator="arithmetic" k2="-1" k3="1"/>
<feColorMatrix type="matrix" values="0 0 0 0 1 0 0 0 0 1 0 0 0 0 1 0 0 0 0.1 0"/>
<feBlend mode="normal" in2="shape" result="effect1_innerShadow_2557_48797"/>
</filter>
<filter id="filter15_i_2557_48797" x="34.9033" y="123.179" width="4.60352" height="4.57959" filterUnits="userSpaceOnUse" color-interpolation-filters="sRGB">
<feFlood flood-opacity="0" result="BackgroundImageFix"/>
<feBlend mode="normal" in="SourceGraphic" in2="BackgroundImageFix" result="shape"/>
<feColorMatrix in="SourceAlpha" type="matrix" values="0 0 0 0 0 0 0 0 0 0 0 0 0 0 0 0 0 0 127 0" result="hardAlpha"/>
<feOffset dx="4.43522" dy="-2.95681"/>
<feComposite in2="hardAlpha" operator="arithmetic" k2="-1" k3="1"/>
<feColorMatrix type="matrix" values="0 0 0 0 1 0 0 0 0 1 0 0 0 0 1 0 0 0 0.1 0"/>
<feBlend mode="normal" in2="shape" result="effect1_innerShadow_2557_48797"/>
</filter>
<filter id="filter16_i_2557_48797" x="30.8633" y="124.001" width="4.60352" height="4.57959" filterUnits="userSpaceOnUse" color-interpolation-filters="sRGB">
<feFlood flood-opacity="0" result="BackgroundImageFix"/>
<feBlend mode="normal" in="SourceGraphic" in2="BackgroundImageFix" result="shape"/>
<feColorMatrix in="SourceAlpha" type="matrix" values="0 0 0 0 0 0 0 0 0 0 0 0 0 0 0 0 0 0 127 0" result="hardAlpha"/>
<feOffset dx="4.43522" dy="-2.95681"/>
<feComposite in2="hardAlpha" operator="arithmetic" k2="-1" k3="1"/>
<feColorMatrix type="matrix" values="0 0 0 0 1 0 0 0 0 1 0 0 0 0 1 0 0 0 0.1 0"/>
<feBlend mode="normal" in2="shape" result="effect1_innerShadow_2557_48797"/>
</filter>
<filter id="filter17_i_2557_48797" x="26.7441" y="123.809" width="4.60352" height="4.57959" filterUnits="userSpaceOnUse" color-interpolation-filters="sRGB">
<feFlood flood-opacity="0" result="BackgroundImageFix"/>
<feBlend mode="normal" in="SourceGraphic" in2="BackgroundImageFix" result="shape"/>
<feColorMatrix in="SourceAlpha" type="matrix" values="0 0 0 0 0 0 0 0 0 0 0 0 0 0 0 0 0 0 127 0" result="hardAlpha"/>
<feOffset dx="4.43522" dy="-2.95681"/>
<feComposite in2="hardAlpha" operator="arithmetic" k2="-1" k3="1"/>
<feColorMatrix type="matrix" values="0 0 0 0 1 0 0 0 0 1 0 0 0 0 1 0 0 0 0.1 0"/>
<feBlend mode="normal" in2="shape" result="effect1_innerShadow_2557_48797"/>
</filter>
<filter id="filter18_i_2557_48797" x="22.585" y="123.109" width="4.60352" height="4.57959" filterUnits="userSpaceOnUse" color-interpolation-filters="sRGB">
<feFlood flood-opacity="0" result="BackgroundImageFix"/>
<feBlend mode="normal" in="SourceGraphic" in2="BackgroundImageFix" result="shape"/>
<feColorMatrix in="SourceAlpha" type="matrix" values="0 0 0 0 0 0 0 0 0 0 0 0 0 0 0 0 0 0 127 0" result="hardAlpha"/>
<feOffset dx="4.43522" dy="-2.95681"/>
<feComposite in2="hardAlpha" operator="arithmetic" k2="-1" k3="1"/>
<feColorMatrix type="matrix" values="0 0 0 0 1 0 0 0 0 1 0 0 0 0 1 0 0 0 0.1 0"/>
<feBlend mode="normal" in2="shape" result="effect1_innerShadow_2557_48797"/>
</filter>
<filter id="filter19_di_2557_48797" x="3.44531" y="28.1191" width="35.293" height="17.3482" filterUnits="userSpaceOnUse" color-interpolation-filters="sRGB">
<feFlood flood-opacity="0" result="BackgroundImageFix"/>
<feColorMatrix in="SourceAlpha" type="matrix" values="0 0 0 0 0 0 0 0 0 0 0 0 0 0 0 0 0 0 127 0" result="hardAlpha"/>
<feOffset dy="2.95681"/>
<feComposite in2="hardAlpha" operator="out"/>
<feColorMatrix type="matrix" values="0 0 0 0 0 0 0 0 0 0 0 0 0 0 0 0 0 0 0.05 0"/>
<feBlend mode="normal" in2="BackgroundImageFix" result="effect1_dropShadow_2557_48797"/>
<feBlend mode="normal" in="SourceGraphic" in2="effect1_dropShadow_2557_48797" result="shape"/>
<feColorMatrix in="SourceAlpha" type="matrix" values="0 0 0 0 0 0 0 0 0 0 0 0 0 0 0 0 0 0 127 0" result="hardAlpha"/>
<feOffset dy="5.91363"/>
<feComposite in2="hardAlpha" operator="arithmetic" k2="-1" k3="1"/>
<feColorMatrix type="matrix" values="0 0 0 0 0.966667 0 0 0 0 0.944401 0 0 0 0 0.83375 0 0 0 0.3 0"/>
<feBlend mode="normal" in2="shape" result="effect2_innerShadow_2557_48797"/>
</filter>
<filter id="filter20_i_2557_48797" x="-3.20312" y="10.5649" width="39.3848" height="29.2573" filterUnits="userSpaceOnUse" color-interpolation-filters="sRGB">
<feFlood flood-opacity="0" result="BackgroundImageFix"/>
<feBlend mode="normal" in="SourceGraphic" in2="BackgroundImageFix" result="shape"/>
<feColorMatrix in="SourceAlpha" type="matrix" values="0 0 0 0 0 0 0 0 0 0 0 0 0 0 0 0 0 0 127 0" result="hardAlpha"/>
<feOffset dy="2.95681"/>
<feComposite in2="hardAlpha" operator="arithmetic" k2="-1" k3="1"/>
<feColorMatrix type="matrix" values="0 0 0 0 0.7875 0 0 0 0 0.690212 0 0 0 0 0.206719 0 0 0 0.3 0"/>
<feBlend mode="normal" in2="shape" result="effect1_innerShadow_2557_48797"/>
</filter>
<radialGradient id="paint0_radial_2557_48797" cx="0" cy="0" r="1" gradientUnits="userSpaceOnUse" gradientTransform="translate(2.30165 2.28977) rotate(90) scale(2.28977 2.30165)">
<stop stop-color="#F3B1E1"/>
<stop offset="0.505208" stop-color="#EC79C9"/>
<stop offset="1" stop-color="#C55FDF"/>
</radialGradient>
<radialGradient id="paint1_radial_2557_48797" cx="0" cy="0" r="1" gradientUnits="userSpaceOnUse" gradientTransform="translate(2.30165 2.28977) rotate(90) scale(2.28977 2.30165)">
<stop stop-color="#F3B1E1"/>
<stop offset="0.505208" stop-color="#EC79C9"/>
<stop offset="1" stop-color="#C55FDF"/>
</radialGradient>
<radialGradient id="paint2_radial_2557_48797" cx="0" cy="0" r="1" gradientUnits="userSpaceOnUse" gradientTransform="translate(2.30165 2.28977) rotate(90) scale(2.28977 2.30165)">
<stop stop-color="#F3B1E1"/>
<stop offset="0.505208" stop-color="#EC79C9"/>
<stop offset="1" stop-color="#C55FDF"/>
</radialGradient>
<radialGradient id="paint3_radial_2557_48797" cx="0" cy="0" r="1" gradientUnits="userSpaceOnUse" gradientTransform="translate(2.30165 2.28977) rotate(90) scale(2.28977 2.30165)">
<stop stop-color="#F3B1E1"/>
<stop offset="0.505208" stop-color="#EC79C9"/>
<stop offset="1" stop-color="#C55FDF"/>
</radialGradient>
<radialGradient id="paint4_radial_2557_48797" cx="0" cy="0" r="1" gradientUnits="userSpaceOnUse" gradientTransform="translate(2.30165 2.28977) rotate(90) scale(2.28977 2.30165)">
<stop stop-color="#F3B1E1"/>
<stop offset="0.505208" stop-color="#EC79C9"/>
<stop offset="1" stop-color="#C55FDF"/>
</radialGradient>
<radialGradient id="paint5_radial_2557_48797" cx="0" cy="0" r="1" gradientUnits="userSpaceOnUse" gradientTransform="translate(2.30165 2.28977) rotate(90) scale(2.28977 2.30165)">
<stop stop-color="#F3B1E1"/>
<stop offset="0.505208" stop-color="#EC79C9"/>
<stop offset="1" stop-color="#C55FDF"/>
</radialGradient>
<clipPath id="clip0_2557_48797">
<rect width="186" height="186" fill="white"/>
</clipPath>
<clipPath id="clip1_2557_48797">
<rect width="198.107" height="322.293" fill="white" transform="translate(-57.4219 -6)"/>
</clipPath>
<clipPath id="clip2_2557_48797">
<rect width="198.107" height="322.293" fill="white" transform="translate(-57.4219 8.78418)"/>
</clipPath>
</defs>
</svg>
