<svg width="186" height="189" viewBox="0 0 186 189" fill="none" xmlns="http://www.w3.org/2000/svg">
<g clip-path="url(#clip0_2557_48983)" filter="url(#filter0_d_2557_48983)">
<rect width="186" height="186" fill="#D6F2DC"/>
<g clip-path="url(#clip1_2557_48983)">
<g clip-path="url(#clip2_2557_48983)">
<g filter="url(#filter1_i_2557_48983)">
<path d="M51.9311 132.661C51.9311 132.661 67.4702 118.847 67.5367 107.851C67.5367 107.851 89.2241 112.232 98.4463 108.487C98.4463 108.487 92.8045 120.699 83.3163 123.665C83.3163 123.665 93.0449 135.816 77.8894 141.22C77.8894 141.22 81.2038 152.536 74.8204 154.963L56.913 142.339L51.9311 132.661Z" fill="#CC833F"/>
<path d="M83.3154 123.66C83.3154 123.66 83.0443 123.493 82.5584 123.233C82.0725 122.974 81.3718 122.612 80.5176 122.231C78.8194 121.442 76.4921 120.557 74.1239 119.804C71.7557 119.056 69.3363 118.445 67.4847 118.114C66.564 117.936 65.7814 117.829 65.229 117.758C64.6766 117.692 64.3544 117.672 64.3544 117.672C64.3544 117.672 64.6255 117.84 65.1114 118.099C65.5973 118.359 66.298 118.72 67.1522 119.101C68.8504 119.895 71.1777 120.775 73.5459 121.528C75.9192 122.271 78.3335 122.887 80.1902 123.218C81.1109 123.396 81.8935 123.508 82.4459 123.574C82.9983 123.64 83.3154 123.66 83.3154 123.66Z" fill="black" fill-opacity="0.1"/>
<path d="M77.8894 141.214C77.8894 141.214 77.5569 140.99 76.9687 140.619C76.3805 140.248 75.5417 139.724 74.5289 139.113C73.5213 138.507 72.3448 137.8 71.0814 137.042C69.8232 136.289 68.4882 135.485 67.1685 134.661C64.5241 133.022 61.9666 131.292 60.1969 129.802C59.757 129.43 59.3631 129.074 59.0153 128.748C58.6828 128.418 58.3862 128.127 58.1611 127.868C57.9258 127.619 57.7622 127.405 57.6394 127.262C57.5166 127.12 57.4553 127.044 57.4553 127.044C57.4553 127.044 57.4859 127.14 57.5473 127.313C57.6189 127.486 57.6905 127.761 57.8593 128.072C57.9361 128.229 58.023 128.407 58.1202 128.596C58.2225 128.784 58.3453 128.977 58.4731 129.191C58.7391 129.603 59.0562 130.071 59.445 130.534C60.2071 131.486 61.2147 132.488 62.3707 133.46C63.5267 134.432 64.8412 135.363 66.2018 136.208C66.8821 136.625 67.5726 137.037 68.2631 137.408C68.9485 137.79 69.639 138.136 70.3142 138.462C71.6645 139.103 72.9484 139.647 74.0737 140.054C75.1938 140.477 76.1503 140.767 76.8255 140.95C77.5007 141.138 77.8945 141.214 77.8945 141.214H77.8894Z" fill="black" fill-opacity="0.1"/>
</g>
<path d="M64.667 104.136L61.5622 112.079L56.1302 104.467C56.1302 104.467 63.1939 103.719 64.667 104.136Z" fill="white"/>
<path d="M70.8037 103.627L67.6989 111.57L62.2669 103.958C62.2669 103.958 69.3306 103.21 70.8037 103.627Z" fill="white"/>
<g filter="url(#filter2_i_2557_48983)">
<path d="M-33.377 233.545C-22.4311 190.657 2.35591 182.063 5.66528 164.422C5.66528 164.422 7.47084 124.769 5.92613 119.071C0.887924 106.93 -6.6208 94.3011 -7.02488 87.0606C-7.67448 75.3221 -9.74603 44.7419 10.105 31.248C29.2349 18.2476 70.4101 46.0699 78.2257 86.5365C83.8112 115.458 43.2345 103.694 43.2345 103.694C43.2345 103.694 41.6949 113.692 47.3622 123.233C48.1806 124.362 50.6869 127.929 50.6869 127.929C50.6869 127.929 50.6869 127.929 50.6869 127.934C50.7074 127.929 50.7943 127.899 50.7943 127.899C52.784 130.076 55.3773 134.086 58.2417 139.342C58.2621 139.373 58.2826 139.403 58.298 139.434C58.3184 139.464 58.3184 139.49 58.3338 139.515C71.8423 164.442 91.2688 217.726 82.2 245.681C71.1876 279.629 53.9809 283.593 23.4755 280.102C-7.03 276.617 -44.3281 276.434 -33.377 233.545Z" fill="#F9C767"/>
</g>
<path d="M36.698 55.7409C29.0767 54.8352 24.6523 56.555 22.4069 64.2331C21.8954 55.8681 29.6394 52.1079 36.698 55.7409Z" fill="#ECE4AC"/>
<path d="M34.6804 71.5782C38.5874 70.4821 40.7215 65.9495 39.4471 61.4544C38.1727 56.9593 33.9724 54.2038 30.0654 55.3C26.1584 56.3961 24.0243 60.9287 25.2987 65.4238C26.5731 69.9189 30.7735 72.6743 34.6804 71.5782Z" fill="#121617"/>
<path d="M34.8856 72.2057C38.7885 71.26 41.0516 66.8147 39.9404 62.2769C38.8293 57.7391 34.7646 54.8272 30.8617 55.7729C26.9588 56.7187 24.6957 61.1639 25.8068 65.7017C26.918 70.2395 30.9827 73.1514 34.8856 72.2057Z" fill="white"/>
<path d="M35.4594 71.0818C38.5499 70.3329 40.3355 66.7865 39.4476 63.1607C38.5598 59.5348 35.3347 57.2025 32.2442 57.9514C29.1538 58.7003 27.3682 62.2467 28.256 65.8726C29.1439 69.4984 32.369 71.8307 35.4594 71.0818Z" fill="#414F51"/>
<path d="M36.0874 71.2084C38.9336 70.5187 40.5845 67.2793 39.7749 63.9729C38.9653 60.6665 36.0016 58.5452 33.1554 59.2349C30.3093 59.9245 28.6583 63.164 29.4679 66.4704C30.2776 69.7768 33.2412 71.8981 36.0874 71.2084Z" fill="#121617"/>
<path d="M34.0989 64.0098C34.9635 63.8003 35.4503 62.7562 35.1862 61.6777C34.9221 60.5993 34.0071 59.8948 33.1426 60.1043C32.278 60.3138 31.7912 61.3579 32.0553 62.4364C32.3194 63.5149 33.2343 64.2193 34.0989 64.0098Z" fill="white"/>
<path d="M37.7664 63.2536C37.8934 62.706 37.6395 62.1801 37.1991 62.0789C36.7587 61.9778 36.2986 62.3397 36.1715 62.8873C36.0444 63.435 36.2984 63.9609 36.7388 64.062C37.1792 64.1632 37.6393 63.8012 37.7664 63.2536Z" fill="white"/>
<path d="M32.7091 65.674C32.9652 65.3036 32.7955 64.7451 32.33 64.4266C31.8645 64.1081 31.2795 64.1502 31.0233 64.5206C30.7672 64.8911 30.9369 65.4496 31.4024 65.7681C31.8679 66.0866 32.4529 66.0445 32.7091 65.674Z" fill="white"/>
<path d="M41.9207 69.489C41.9207 69.489 29.4607 69.6416 24.2588 72.1501C30.3865 75.5796 37.4911 73.9412 37.4911 73.9412L41.9207 69.4839V69.489Z" fill="#F9C767"/>
<path d="M42.561 70.9147C36.9244 71.9375 31.0524 72.3242 25.4209 73.3673C30.1829 70.3398 37.1085 69.8106 42.561 70.9147Z" fill="#ECE4AC"/>
<path d="M43.2355 103.694C43.2355 103.694 41.6959 113.692 47.3633 123.233L19.4664 90.3169C19.4664 90.3169 32.2845 101.251 43.2355 103.694Z" fill="#CAA154"/>
<g filter="url(#filter3_i_2557_48983)">
<path d="M46.6417 38.453C46.6417 38.453 53.9868 36.5652 56.3857 26.053C56.3857 26.053 61.0607 38.9363 53.4395 43.7803C45.8182 48.6243 46.6417 38.453 46.6417 38.453Z" fill="white"/>
</g>
<g filter="url(#filter4_i_2557_48983)">
<path d="M50.107 113.85C49.8867 110.279 46.5281 108.08 46.6047 104.563C51.7997 105.624 49.6613 105.265 55.5137 105.908C59.9873 115.489 50.3853 118.363 50.107 113.85Z" fill="url(#paint0_linear_2557_48983)"/>
</g>
<path d="M51.053 105.492C51.8629 106.001 52.7321 106.531 53.1816 110.05M46.6047 104.563C46.5281 108.08 49.8867 110.279 50.107 113.85C50.3853 118.363 59.9873 115.489 55.5137 105.908C49.6613 105.265 51.7997 105.624 46.6047 104.563Z" stroke="#9C3434" stroke-width="1.47841" stroke-linecap="round"/>
<path d="M38.4121 102.066L31.7064 107.373L30.8727 98.0764C30.8727 98.0764 37.3533 100.972 38.4121 102.071V102.066Z" fill="white"/>
<path d="M44.959 104.137L39.6599 110.833L36.6933 101.974C36.6933 101.974 43.67 103.307 44.9539 104.132L44.959 104.137Z" fill="white"/>
<g filter="url(#filter5_i_2557_48983)">
<path d="M-19.806 201.179C-19.806 201.179 -19.8009 201.164 -19.7958 201.159C3.49247 162.738 6.52052 134.157 -6.01106 91.9809C-9.18233 81.3058 -11.1516 66.4838 -4.15946 48.4207C2.83776 30.3575 10.1265 26.5668 18.6173 27.6404C27.1132 28.714 46.0743 31.3802 56.253 45.9681L61.0713 58.9278C61.0713 58.9278 29.0569 37.9491 18.781 43.3681C8.50512 48.787 -0.635273 62.9933 5.12415 75.9988C65.8384 213.065 24.7808 268.338 1.67156 277.843C1.67156 277.843 -31.5192 279.797 -35.5907 249.685C-38.0357 231.607 -27.0386 211.885 -19.8112 201.179H-19.806Z" fill="#E39246"/>
</g>
<path d="M-4.00235 60.7598C-4.00235 60.7598 -4.26321 60.9429 -4.61103 61.4212C-4.95885 61.8944 -5.39873 62.6526 -5.75678 63.7008C-6.13528 64.7387 -6.41149 66.0566 -6.59563 67.5831C-6.78999 69.1095 -6.81557 70.8395 -6.75419 72.7222C-6.70304 73.6584 -6.64166 74.6404 -6.54959 75.6479C-6.48821 76.1516 -6.42684 76.6604 -6.36546 77.1794C-6.30408 77.6984 -6.23758 78.2276 -6.1404 78.7568C-6.05344 79.286 -5.96649 79.8253 -5.87442 80.3698C-5.82838 80.6445 -5.78235 80.9244 -5.7312 81.2042C-5.67494 81.4739 -5.62379 81.7487 -5.56753 82.0234C-5.3527 83.1225 -5.12764 84.2317 -4.85143 85.3766C-4.58034 86.5163 -4.31948 87.6815 -4.0177 88.8416C-3.72614 90.0068 -3.4346 91.1822 -3.10213 92.3576C-2.44741 94.7083 -1.78248 97.0947 -1.12265 99.4811C-0.432133 101.857 0.258381 104.228 0.897748 106.569C1.53712 108.91 2.19695 111.204 2.75959 113.443C3.33246 115.682 3.84907 117.844 4.32476 119.905C4.53959 120.938 4.7493 121.946 4.94878 122.917C5.15849 123.889 5.30683 124.836 5.47562 125.746C5.55746 126.199 5.6393 126.647 5.71602 127.08C5.7774 127.517 5.83878 127.945 5.89504 128.357C6.0178 129.191 6.13544 129.98 6.24797 130.723C6.38608 132.214 6.55487 133.516 6.65205 134.595C6.70831 135.674 6.77993 136.523 6.81573 137.103C6.85665 137.683 6.87711 137.994 6.87711 137.994C6.87711 137.994 6.89757 137.683 6.9436 137.103C6.98452 136.523 7.05613 135.674 7.11751 134.585C7.15331 133.496 7.1482 132.178 7.13797 130.657C7.10217 129.898 7.06125 129.095 7.01521 128.24C6.98964 127.812 6.96407 127.38 6.93849 126.932C6.89246 126.489 6.84642 126.031 6.80039 125.568C6.69809 124.642 6.62137 123.665 6.48326 122.668C6.33493 121.671 6.18148 120.643 6.02803 119.58C5.83878 118.526 5.64953 117.442 5.45004 116.338C5.26591 115.229 4.98459 114.115 4.7493 112.975C4.51401 111.83 4.22757 110.68 3.95136 109.515C3.68539 108.345 3.3785 107.169 3.06137 105.989C2.44246 103.623 1.77752 101.231 1.10746 98.8501C0.416946 96.4739 -0.268449 94.0978 -0.948735 91.7623C-1.60856 89.4217 -2.29397 87.132 -2.87195 84.9135C-3.18397 83.8145 -3.42948 82.69 -3.71592 81.6113C-3.78753 81.3416 -3.85402 81.0719 -3.92052 80.8022C-3.9819 80.5377 -4.03816 80.2782 -4.09442 80.0187C-4.21207 79.4895 -4.32459 78.9705 -4.44224 78.4566C-4.68264 77.4288 -4.81563 76.4213 -5.01511 75.4494C-5.17879 74.4776 -5.31178 73.5312 -5.42942 72.6204C-5.51126 71.7096 -5.62379 70.8344 -5.64936 70.0051C-5.66982 69.5878 -5.70051 69.1808 -5.71074 68.789C-5.71074 68.3972 -5.71074 68.0105 -5.71074 67.639C-5.66471 66.1584 -5.56241 64.8609 -5.31178 63.8229C-5.07138 62.7849 -4.77983 61.9911 -4.50362 61.4874C-4.23253 60.9786 -4.00235 60.7598 -4.00235 60.7598Z" fill="#F5F5F5" fill-opacity="0.4"/>
<g style="mix-blend-mode:multiply" opacity="0.1" filter="url(#filter6_f_2557_48983)">
<path d="M5.12377 76.0039C26.9747 128.687 41.3688 171.662 36.0896 215.05C30.8103 258.437 14.3255 272.648 1.66607 277.853C1.66607 277.853 -2.61513 279.807 -8.73771 277.533C-8.73771 277.533 22.7288 235.272 25.1839 207.555C30.2769 150.058 13.11 121.947 5.12377 76.0039Z" fill="black" fill-opacity="0.6"/>
</g>
<path d="M16.7804 86.0127C14.8566 86.0127 13.2971 84.4613 13.2971 82.5476C13.2971 80.6339 14.8566 79.0825 16.7804 79.0825C18.7042 79.0825 20.2637 80.6339 20.2637 82.5476C20.2637 84.4613 18.7042 86.0127 16.7804 86.0127Z" fill="#EB2427" fill-opacity="0.3"/>
<g filter="url(#filter7_i_2557_48983)">
<path d="M27.0864 31.6907C27.0864 31.6907 5.67533 30.8002 9.38878 22.8219C13.1022 14.8436 21.3475 9.4043 27.6798 13.0882C27.6798 13.0882 17.8131 14.9759 18.3859 17.0112C18.9588 19.0465 28.0225 19.0261 31.0863 21.4939C34.1502 23.9566 36.1859 31.2175 34.6668 34.2908" fill="#E39246"/>
</g>
<g filter="url(#filter8_i_2557_48983)">
<path d="M5.97878 44.8082C5.97878 44.8082 -1.54018 45.8462 -7.77528 37.0334C-7.77528 37.0334 -7.1666 50.7157 1.73338 52.3083C10.6334 53.9009 5.97878 44.8082 5.97878 44.8082Z" fill="white"/>
</g>
<path d="M74.6264 83.109C74.371 82.2435 74.5485 81.4295 75.0228 81.291C75.4972 81.1525 76.0887 81.7418 76.3442 82.6074C76.5996 83.4729 76.4221 84.2869 75.9478 84.4254C75.4734 84.5639 74.8818 83.9745 74.6264 83.109Z" fill="#565050"/>
<path d="M63.0844 84.6007C62.829 83.7352 63.0065 82.9212 63.4808 82.7827C63.9552 82.6442 64.5468 83.2335 64.8022 84.0991C65.0576 84.9646 64.8801 85.7786 64.4058 85.9171C63.9314 86.0556 63.3398 85.4662 63.0844 84.6007Z" fill="#565050"/>
<path d="M18.7904 89.7622C18.7904 89.7622 20.9793 91.6777 24.5659 94.181C26.3592 95.4377 28.4954 96.8414 30.8688 98.2298C32.0556 98.919 33.2898 99.6284 34.582 100.287C35.869 100.951 37.1929 101.6 38.5431 102.198C39.8987 102.785 41.2806 103.328 42.6625 103.809C44.0391 104.301 45.4421 104.67 46.8187 104.969C48.1953 105.273 49.5245 105.441 50.7903 105.598C52.0562 105.755 53.2535 105.851 54.3664 105.922C56.5817 106.069 58.4382 106.059 59.7305 106.018C60.3792 106.008 60.8856 105.963 61.2284 105.947C61.5713 105.927 61.7559 105.917 61.7559 105.917C61.7559 105.917 61.0227 105.866 59.7358 105.775C58.4488 105.679 56.6238 105.502 54.4402 105.213C53.3484 105.066 52.1722 104.888 50.9327 104.681C49.6985 104.463 48.3852 104.225 47.0771 103.905C44.4505 103.257 41.7289 102.238 39.0811 101.068C37.752 100.49 36.4439 99.8666 35.1675 99.2281C33.8911 98.5845 32.641 97.946 31.449 97.2873C30.257 96.6336 29.1019 95.9951 28.0207 95.3718C26.9394 94.7435 25.9162 94.1506 24.9826 93.5932C21.243 91.3483 18.7904 89.7673 18.7904 89.7673V89.7622Z" fill="#CC8C52"/>
<g filter="url(#filter9_i_2557_48983)">
<path d="M19.0169 166.625C19.0169 166.625 9.37526 181.401 9.96859 186.566C10.5619 191.73 -5.69334 196.218 -5.89794 185.467C-6.10254 174.715 7.67198 160.112 7.67198 160.112C7.67198 160.112 9.92255 157.466 15.4671 160.651C21.0117 163.837 19.0169 166.625 19.0169 166.625Z" fill="#ECB17B"/>
</g>
<g filter="url(#filter10_i_2557_48983)">
<path d="M7.7134 131.323C7.7134 131.323 -7.13526 120.678 -8.20939 109.734C-8.20939 109.734 -29.4006 116.063 -38.9297 113.173C-38.9297 113.173 -32.1882 124.825 -22.4698 126.911C-22.4698 126.911 -30.71 144.11 -15.4521 143.901C-15.4521 143.901 -17.7129 155.472 -11.1351 157.308L6.39375 142.777L7.72363 131.323H7.7134Z" fill="#CC833F"/>
<path d="M-15.2788 143.855C-15.2788 143.855 -14.9514 143.642 -14.399 143.245C-13.8517 142.848 -13.0743 142.268 -12.1791 141.535C-11.729 141.174 -11.2431 140.777 -10.747 140.344C-10.2457 139.912 -9.71374 139.464 -9.18179 138.981C-8.11277 138.019 -6.99771 136.971 -5.90312 135.897C-4.81364 134.819 -3.74462 133.72 -2.77278 132.666C-2.28175 132.142 -1.82651 131.618 -1.38663 131.119C-0.946744 130.631 -0.542667 130.148 -0.174391 129.705C0.567274 128.825 1.15549 128.056 1.55957 127.512C1.96365 126.967 2.18359 126.642 2.18359 126.642C2.18359 126.642 1.85624 126.856 1.30382 127.252C0.756526 127.649 -0.0209417 128.229 -0.916055 128.962C-1.36617 129.323 -1.85209 129.72 -2.34824 130.153C-2.8495 130.58 -3.38145 131.033 -3.91341 131.516C-4.98243 132.478 -6.09749 133.531 -7.19208 134.605C-8.28156 135.684 -9.34547 136.783 -10.3224 137.841C-10.8135 138.365 -11.2687 138.894 -11.7086 139.388C-12.1485 139.876 -12.5474 140.36 -12.9208 140.802C-13.6625 141.683 -14.2507 142.451 -14.6599 142.995C-15.064 143.54 -15.2839 143.86 -15.2839 143.86L-15.2788 143.855Z" fill="black" fill-opacity="0.1"/>
</g>
<path d="M19.5124 52.353C23.7436 48.9882 29.0064 48.942 33.4318 49.5333C34.8572 49.7238 35.6281 48.1702 34.3639 47.485C28.192 44.1402 22.3328 48.0167 18.4016 46.879C18.0577 46.6223 17.7363 46.4862 17.5125 46.5126C17.7964 46.6696 18.0931 46.7897 18.4016 46.879C19.6336 47.7984 21.1543 50.2651 19.5124 52.353Z" fill="black"/>
<path d="M12.1416 57.1325C28.5094 60.5925 64.0582 46.9786 67.3829 50.009C70.7076 53.0394 76.8455 66.0595 74.7995 70.13C72.7536 74.2006 70.1961 68.6036 67.8944 67.3315C65.5927 66.0594 57.2042 61.0221 52.2938 71.4021C46.1559 84.377 21.6042 92.2412 12.1416 57.1325Z" fill="url(#paint1_linear_2557_48983)" fill-opacity="0.5"/>
<g filter="url(#filter11_i_2557_48983)">
<path d="M13.165 55.1625C29.5328 58.6225 65.0816 45.0086 68.4063 48.039C71.731 51.0694 77.869 64.0895 75.823 68.1601C73.777 72.2306 71.2195 66.6336 68.9178 65.3615C66.6161 64.0895 58.2276 59.0521 53.3173 69.4321C47.1794 82.4071 22.6277 90.2712 13.165 55.1625Z" fill="url(#paint2_linear_2557_48983)"/>
</g>
<g filter="url(#filter12_i_2557_48983)">
<path d="M69.4279 49.0568L68.1491 46.7671C23.3423 55.7224 -0.476212 54.6538 -7.04038 52.6185C-7.21087 53.1274 -7.60302 54.5521 -7.80762 56.1803C16.5395 59.8438 53.5716 52.3641 69.4279 49.0568Z" fill="url(#paint3_linear_2557_48983)"/>
</g>
<path d="M69.4279 49.0568L68.1491 46.7671C23.3423 55.7224 -0.476212 54.6538 -7.04038 52.6185C-7.21087 53.1274 -7.60302 54.5521 -7.80762 56.1803C16.5395 59.8438 53.5716 52.3641 69.4279 49.0568Z" stroke="#8C8C8C" stroke-width="1.47841"/>
<ellipse cx="0.889423" cy="55.6714" rx="0.511493" ry="0.508821" fill="#B4B4B4"/>
</g>
</g>
</g>
<defs>
<filter id="filter0_d_2557_48983" x="0" y="0" width="186" height="188.339" filterUnits="userSpaceOnUse" color-interpolation-filters="sRGB">
<feFlood flood-opacity="0" result="BackgroundImageFix"/>
<feColorMatrix in="SourceAlpha" type="matrix" values="0 0 0 0 0 0 0 0 0 0 0 0 0 0 0 0 0 0 127 0" result="hardAlpha"/>
<feOffset dy="2.33878"/>
<feComposite in2="hardAlpha" operator="out"/>
<feColorMatrix type="matrix" values="0 0 0 0 0.529412 0 0 0 0 0.529412 0 0 0 0 0.529412 0 0 0 1 0"/>
<feBlend mode="normal" in2="BackgroundImageFix" result="effect1_dropShadow_2557_48983"/>
<feBlend mode="normal" in="SourceGraphic" in2="effect1_dropShadow_2557_48983" result="shape"/>
</filter>
<filter id="filter1_i_2557_48983" x="47.9307" y="107.851" width="50.5156" height="51.1118" filterUnits="userSpaceOnUse" color-interpolation-filters="sRGB">
<feFlood flood-opacity="0" result="BackgroundImageFix"/>
<feBlend mode="normal" in="SourceGraphic" in2="BackgroundImageFix" result="shape"/>
<feColorMatrix in="SourceAlpha" type="matrix" values="0 0 0 0 0 0 0 0 0 0 0 0 0 0 0 0 0 0 127 0" result="hardAlpha"/>
<feOffset dx="-9" dy="4"/>
<feGaussianBlur stdDeviation="2"/>
<feComposite in2="hardAlpha" operator="arithmetic" k2="-1" k3="1"/>
<feColorMatrix type="matrix" values="0 0 0 0 1 0 0 0 0 1 0 0 0 0 1 0 0 0 0.25 0"/>
<feBlend mode="normal" in2="shape" result="effect1_innerShadow_2557_48983"/>
</filter>
<filter id="filter2_i_2557_48983" x="-39.3311" y="28.0186" width="123.859" height="257.113" filterUnits="userSpaceOnUse" color-interpolation-filters="sRGB">
<feFlood flood-opacity="0" result="BackgroundImageFix"/>
<feBlend mode="normal" in="SourceGraphic" in2="BackgroundImageFix" result="shape"/>
<feColorMatrix in="SourceAlpha" type="matrix" values="0 0 0 0 0 0 0 0 0 0 0 0 0 0 0 0 0 0 127 0" result="hardAlpha"/>
<feOffset dx="-9" dy="4"/>
<feGaussianBlur stdDeviation="2"/>
<feComposite in2="hardAlpha" operator="arithmetic" k2="-1" k3="1"/>
<feColorMatrix type="matrix" values="0 0 0 0 1 0 0 0 0 1 0 0 0 0 1 0 0 0 0.25 0"/>
<feBlend mode="normal" in2="shape" result="effect1_innerShadow_2557_48983"/>
</filter>
<filter id="filter3_i_2557_48983" x="46.6152" y="26.053" width="11.1895" height="24.9488" filterUnits="userSpaceOnUse" color-interpolation-filters="sRGB">
<feFlood flood-opacity="0" result="BackgroundImageFix"/>
<feBlend mode="normal" in="SourceGraphic" in2="BackgroundImageFix" result="shape"/>
<feColorMatrix in="SourceAlpha" type="matrix" values="0 0 0 0 0 0 0 0 0 0 0 0 0 0 0 0 0 0 127 0" result="hardAlpha"/>
<feOffset dy="5.91363"/>
<feGaussianBlur stdDeviation="2.95681"/>
<feComposite in2="hardAlpha" operator="arithmetic" k2="-1" k3="1"/>
<feColorMatrix type="matrix" values="0 0 0 0 0.983333 0 0 0 0 0.753397 0 0 0 0 0.483472 0 0 0 0.25 0"/>
<feBlend mode="normal" in2="shape" result="effect1_innerShadow_2557_48983"/>
</filter>
<filter id="filter4_i_2557_48983" x="45.8643" y="103.662" width="11.5732" height="18.928" filterUnits="userSpaceOnUse" color-interpolation-filters="sRGB">
<feFlood flood-opacity="0" result="BackgroundImageFix"/>
<feBlend mode="normal" in="SourceGraphic" in2="BackgroundImageFix" result="shape"/>
<feColorMatrix in="SourceAlpha" type="matrix" values="0 0 0 0 0 0 0 0 0 0 0 0 0 0 0 0 0 0 127 0" result="hardAlpha"/>
<feOffset dy="5.91363"/>
<feGaussianBlur stdDeviation="2.95681"/>
<feComposite in2="hardAlpha" operator="arithmetic" k2="-1" k3="1"/>
<feColorMatrix type="matrix" values="0 0 0 0 0 0 0 0 0 0 0 0 0 0 0 0 0 0 0.25 0"/>
<feBlend mode="normal" in2="shape" result="effect1_innerShadow_2557_48983"/>
</filter>
<filter id="filter5_i_2557_48983" x="-35.9385" y="27.4736" width="101.01" height="254.396" filterUnits="userSpaceOnUse" color-interpolation-filters="sRGB">
<feFlood flood-opacity="0" result="BackgroundImageFix"/>
<feBlend mode="normal" in="SourceGraphic" in2="BackgroundImageFix" result="shape"/>
<feColorMatrix in="SourceAlpha" type="matrix" values="0 0 0 0 0 0 0 0 0 0 0 0 0 0 0 0 0 0 127 0" result="hardAlpha"/>
<feOffset dx="8" dy="4"/>
<feGaussianBlur stdDeviation="2"/>
<feComposite in2="hardAlpha" operator="arithmetic" k2="-1" k3="1"/>
<feColorMatrix type="matrix" values="0 0 0 0 1 0 0 0 0 1 0 0 0 0 1 0 0 0 0.25 0"/>
<feBlend mode="normal" in2="shape" result="effect1_innerShadow_2557_48983"/>
</filter>
<filter id="filter6_f_2557_48983" x="-14.6509" y="70.0903" width="57.7482" height="214.457" filterUnits="userSpaceOnUse" color-interpolation-filters="sRGB">
<feFlood flood-opacity="0" result="BackgroundImageFix"/>
<feBlend mode="normal" in="SourceGraphic" in2="BackgroundImageFix" result="shape"/>
<feGaussianBlur stdDeviation="2.95681" result="effect1_foregroundBlur_2557_48983"/>
</filter>
<filter id="filter7_i_2557_48983" x="8.95605" y="11.9114" width="30.2256" height="26.3794" filterUnits="userSpaceOnUse" color-interpolation-filters="sRGB">
<feFlood flood-opacity="0" result="BackgroundImageFix"/>
<feBlend mode="normal" in="SourceGraphic" in2="BackgroundImageFix" result="shape"/>
<feColorMatrix in="SourceAlpha" type="matrix" values="0 0 0 0 0 0 0 0 0 0 0 0 0 0 0 0 0 0 127 0" result="hardAlpha"/>
<feOffset dx="8" dy="4"/>
<feGaussianBlur stdDeviation="2"/>
<feComposite in2="hardAlpha" operator="arithmetic" k2="-1" k3="1"/>
<feColorMatrix type="matrix" values="0 0 0 0 1 0 0 0 0 1 0 0 0 0 1 0 0 0 0.25 0"/>
<feBlend mode="normal" in2="shape" result="effect1_innerShadow_2557_48983"/>
</filter>
<filter id="filter8_i_2557_48983" x="-7.77539" y="37.0334" width="14.9707" height="21.3755" filterUnits="userSpaceOnUse" color-interpolation-filters="sRGB">
<feFlood flood-opacity="0" result="BackgroundImageFix"/>
<feBlend mode="normal" in="SourceGraphic" in2="BackgroundImageFix" result="shape"/>
<feColorMatrix in="SourceAlpha" type="matrix" values="0 0 0 0 0 0 0 0 0 0 0 0 0 0 0 0 0 0 127 0" result="hardAlpha"/>
<feOffset dy="5.91363"/>
<feGaussianBlur stdDeviation="2.95681"/>
<feComposite in2="hardAlpha" operator="arithmetic" k2="-1" k3="1"/>
<feColorMatrix type="matrix" values="0 0 0 0 0.983333 0 0 0 0 0.753397 0 0 0 0 0.483472 0 0 0 0.25 0"/>
<feBlend mode="normal" in2="shape" result="effect1_innerShadow_2557_48983"/>
</filter>
<filter id="filter9_i_2557_48983" x="-7.01367" y="159.081" width="30.3799" height="39.5342" filterUnits="userSpaceOnUse" color-interpolation-filters="sRGB">
<feFlood flood-opacity="0" result="BackgroundImageFix"/>
<feBlend mode="normal" in="SourceGraphic" in2="BackgroundImageFix" result="shape"/>
<feColorMatrix in="SourceAlpha" type="matrix" values="0 0 0 0 0 0 0 0 0 0 0 0 0 0 0 0 0 0 127 0" result="hardAlpha"/>
<feOffset dx="8" dy="4"/>
<feGaussianBlur stdDeviation="2"/>
<feComposite in2="hardAlpha" operator="arithmetic" k2="-1" k3="1"/>
<feColorMatrix type="matrix" values="0 0 0 0 1 0 0 0 0 1 0 0 0 0 1 0 0 0 0.25 0"/>
<feBlend mode="normal" in2="shape" result="effect1_innerShadow_2557_48983"/>
</filter>
<filter id="filter10_i_2557_48983" x="-38.9297" y="109.734" width="50.6533" height="51.5747" filterUnits="userSpaceOnUse" color-interpolation-filters="sRGB">
<feFlood flood-opacity="0" result="BackgroundImageFix"/>
<feBlend mode="normal" in="SourceGraphic" in2="BackgroundImageFix" result="shape"/>
<feColorMatrix in="SourceAlpha" type="matrix" values="0 0 0 0 0 0 0 0 0 0 0 0 0 0 0 0 0 0 127 0" result="hardAlpha"/>
<feOffset dx="8" dy="4"/>
<feGaussianBlur stdDeviation="2"/>
<feComposite in2="hardAlpha" operator="arithmetic" k2="-1" k3="1"/>
<feColorMatrix type="matrix" values="0 0 0 0 1 0 0 0 0 1 0 0 0 0 1 0 0 0 0.25 0"/>
<feBlend mode="normal" in2="shape" result="effect1_innerShadow_2557_48983"/>
</filter>
<filter id="filter11_i_2557_48983" x="9.16504" y="47.5955" width="67.0664" height="36.8147" filterUnits="userSpaceOnUse" color-interpolation-filters="sRGB">
<feFlood flood-opacity="0" result="BackgroundImageFix"/>
<feBlend mode="normal" in="SourceGraphic" in2="BackgroundImageFix" result="shape"/>
<feColorMatrix in="SourceAlpha" type="matrix" values="0 0 0 0 0 0 0 0 0 0 0 0 0 0 0 0 0 0 127 0" result="hardAlpha"/>
<feOffset dx="-9" dy="4"/>
<feGaussianBlur stdDeviation="2"/>
<feComposite in2="hardAlpha" operator="arithmetic" k2="-1" k3="1"/>
<feColorMatrix type="matrix" values="0 0 0 0 1 0 0 0 0 1 0 0 0 0 1 0 0 0 0.25 0"/>
<feBlend mode="normal" in2="shape" result="effect1_innerShadow_2557_48983"/>
</filter>
<filter id="filter12_i_2557_48983" x="-11.5877" y="45.9368" width="82.1511" height="14.9261" filterUnits="userSpaceOnUse" color-interpolation-filters="sRGB">
<feFlood flood-opacity="0" result="BackgroundImageFix"/>
<feBlend mode="normal" in="SourceGraphic" in2="BackgroundImageFix" result="shape"/>
<feColorMatrix in="SourceAlpha" type="matrix" values="0 0 0 0 0 0 0 0 0 0 0 0 0 0 0 0 0 0 127 0" result="hardAlpha"/>
<feOffset dx="-2.95681" dy="2.95681"/>
<feGaussianBlur stdDeviation="2.95681"/>
<feComposite in2="hardAlpha" operator="arithmetic" k2="-1" k3="1"/>
<feColorMatrix type="matrix" values="0 0 0 0 1 0 0 0 0 1 0 0 0 0 1 0 0 0 0.25 0"/>
<feBlend mode="normal" in2="shape" result="effect1_innerShadow_2557_48983"/>
</filter>
<linearGradient id="paint0_linear_2557_48983" x1="51.0217" y1="97.1552" x2="55.3904" y2="114.613" gradientUnits="userSpaceOnUse">
<stop stop-color="#C74147"/>
<stop offset="1" stop-color="#FA5057"/>
</linearGradient>
<linearGradient id="paint1_linear_2557_48983" x1="44.1099" y1="50.5404" x2="44.1099" y2="78.2726" gradientUnits="userSpaceOnUse">
<stop stop-color="#DBDBDB"/>
<stop offset="1" stop-color="#868686" stop-opacity="0.22"/>
</linearGradient>
<linearGradient id="paint2_linear_2557_48983" x1="45.1334" y1="48.5704" x2="45.1334" y2="76.3026" gradientUnits="userSpaceOnUse">
<stop stop-color="#C4A9FF"/>
<stop offset="1" stop-color="#4F60FF" stop-opacity="0.22"/>
</linearGradient>
<linearGradient id="paint3_linear_2557_48983" x1="68.4049" y1="50.0744" x2="6.77632" y2="56.2439" gradientUnits="userSpaceOnUse">
<stop stop-color="#AFAFAF"/>
<stop offset="0.182292" stop-color="#CECECE"/>
<stop offset="0.458333" stop-color="#898989"/>
<stop offset="0.729167" stop-color="#CDCDCD"/>
<stop offset="1" stop-color="#7A7A7A"/>
</linearGradient>
<clipPath id="clip0_2557_48983">
<rect width="186" height="186" fill="white"/>
</clipPath>
<clipPath id="clip1_2557_48983">
<rect width="198.107" height="322.293" fill="white" transform="translate(-57.4219 -2.87134)"/>
</clipPath>
<clipPath id="clip2_2557_48983">
<rect width="198.107" height="322.293" fill="white" transform="translate(-57.4219 11.9128)"/>
</clipPath>
</defs>
</svg>
