<svg width="186" height="189" viewBox="0 0 186 189" fill="none" xmlns="http://www.w3.org/2000/svg">
<g clip-path="url(#clip0_2557_48875)" filter="url(#filter0_d_2557_48875)">
<rect width="186" height="186" fill="#D6F2DC"/>
<g clip-path="url(#clip1_2557_48875)">
<g clip-path="url(#clip2_2557_48875)">
<g filter="url(#filter1_i_2557_48875)">
<path d="M77.03 69.8501C75.2606 62.4578 67.4739 54.0092 63.8018 50.709L76.8232 83.1657C77.6294 81.8073 78.7994 77.2425 77.03 69.8501Z" fill="url(#paint0_linear_2557_48875)"/>
</g>
<g filter="url(#filter2_i_2557_48875)">
<path fill-rule="evenodd" clip-rule="evenodd" d="M62.6747 49.9772C63.2935 49.6387 64.071 49.8634 64.4113 50.4791C67.4936 56.0566 74.1333 69.8944 75.8065 80.4046C75.917 81.0984 75.4411 81.75 74.7436 81.8599C74.046 81.9698 73.391 81.4964 73.2805 80.8025C71.6802 70.7497 65.2257 57.2337 62.1701 51.7047C61.8299 51.089 62.0558 50.3156 62.6747 49.9772Z" fill="url(#paint1_linear_2557_48875)"/>
</g>
<g filter="url(#filter3_i_2557_48875)">
<path d="M52.3252 142.155C52.3252 142.155 68.9745 127.358 69.0457 115.58C69.0457 115.58 92.2824 120.273 102.163 116.262C102.163 116.262 96.1186 129.342 85.9526 132.519C85.9526 132.519 96.3762 145.534 80.1379 151.322C80.1379 151.322 83.6892 163.444 76.8497 166.043L57.6631 152.521L52.3252 142.155Z" fill="#D18EB7"/>
</g>
<g style="mix-blend-mode:multiply" opacity="0.25">
<path d="M85.9523 132.514C82.3572 132.187 78.9046 131.288 75.4849 130.23C72.0871 129.135 68.7441 127.892 65.6367 126.099C69.2428 126.432 72.679 127.32 76.1042 128.383C79.5075 129.484 82.8286 130.721 85.9523 132.514Z" fill="black"/>
</g>
<g style="mix-blend-mode:multiply" opacity="0.25">
<path d="M80.1387 151.317C72.7786 149.54 60.9027 143.616 58.2393 136.133C61.1055 139.621 64.9088 141.894 68.6464 144.297C72.4498 146.679 76.3408 148.853 80.1387 151.312V151.317Z" fill="black"/>
</g>
<path d="M61.7404 111.482L58.4139 119.99L52.5938 111.836C52.5938 111.836 60.1621 111.035 61.7404 111.482Z" fill="white"/>
<g filter="url(#filter4_i_2557_48875)">
<path d="M-39.0709 250.216C-27.3429 204.276 -0.785198 195.071 2.76058 176.175C2.76058 176.175 4.69514 133.702 3.04008 127.598C-2.35806 114.594 -10.4032 101.067 -10.8362 93.311C-11.5322 80.7375 -13.7517 47.982 7.51752 33.5282C28.014 19.603 72.1307 49.4045 80.5047 92.7497C86.4892 123.728 43.0137 111.128 43.0137 111.128C43.0137 111.128 41.3641 121.837 47.4363 132.056C48.3132 133.266 50.9986 137.087 50.9986 137.087C50.9986 137.087 50.9986 137.087 50.9986 137.092C51.0205 137.087 51.1136 137.054 51.1136 137.054C53.2455 139.387 56.024 143.681 59.093 149.311C59.1149 149.344 59.1369 149.377 59.1533 149.41C59.1752 149.442 59.1752 149.469 59.1917 149.497C73.6653 176.197 94.4796 233.271 84.7629 263.214C72.9638 299.578 54.5279 303.823 21.8431 300.085C-10.8416 296.351 -50.8043 296.155 -39.0709 250.216Z" fill="#F9C767"/>
</g>
<path d="M43.0091 111.128C43.0091 111.128 41.3596 121.837 47.4318 132.056L17.542 96.7991C17.542 96.7991 31.2757 108.511 43.0091 111.128Z" fill="#CAA154"/>
<g filter="url(#filter5_i_2557_48875)">
<path d="M48.314 40.657C48.314 40.657 56.1838 38.635 58.7541 27.375C58.7541 27.375 63.7631 41.1748 55.5974 46.3634C47.4317 51.5519 48.314 40.657 48.314 40.657Z" fill="white"/>
</g>
<path d="M37.8407 109.383L30.656 115.068L29.7627 105.11C29.7627 105.11 36.7063 108.211 37.8407 109.389V109.383Z" fill="white"/>
<path d="M49.656 113.106L43.9784 120.278L40.7998 110.79C40.7998 110.79 48.275 112.217 49.6506 113.1L49.656 113.106Z" fill="white"/>
<g filter="url(#filter6_i_2557_48875)">
<path d="M-24.5373 215.547C-24.5373 215.547 -24.5318 215.531 -24.5264 215.525C0.425629 174.371 3.66999 143.758 -9.75684 98.5812C-13.1547 87.1468 -15.2646 71.2705 -7.77296 51.9224C-0.275852 32.5744 7.53364 28.514 16.631 29.664C25.7339 30.8139 46.0495 33.6698 56.9554 49.2954L62.1179 63.177C62.1179 63.177 27.8164 40.706 16.8064 46.5104C5.79636 52.3148 -3.99701 67.5317 2.17386 81.4623C67.2255 228.279 23.2348 287.484 -1.52537 297.665C-1.52537 297.665 -37.0873 299.758 -41.4497 267.504C-44.0693 248.139 -32.2865 227.014 -24.5428 215.547H-24.5373Z" fill="#EC97CA"/>
</g>
<g style="mix-blend-mode:multiply" opacity="0.25" filter="url(#filter7_f_2557_48875)">
<path d="M35.3627 230.393C31.3456 271.744 12.0439 292.089 -1.51998 297.665C-1.51998 297.665 -6.10702 299.758 -12.667 297.321C-12.667 297.321 23.8102 258.729 22.9333 228.938L23.4923 213.433C23.6403 211.389 23.6238 209.498 23.3827 207.813C19.9301 183.582 2.17378 81.4624 2.17378 81.4624C27.2135 137.975 36.0587 181.462 36.1026 214.217L35.3573 230.393H35.3627Z" fill="black" fill-opacity="0.3"/>
</g>
<g filter="url(#filter8_i_2557_48875)">
<path d="M3.09016 48.0527C3.09016 48.0527 -4.96595 49.1645 -11.6465 39.7249C-11.6465 39.7249 -10.9943 54.3803 -1.45853 56.0862C8.07727 57.7921 3.09016 48.0527 3.09016 48.0527Z" fill="white"/>
</g>
<path d="M78.0626 90.4878C78.5708 90.3395 78.761 89.4676 78.4873 88.5405C78.2137 87.6134 77.5798 86.9821 77.0716 87.1305C76.5634 87.2789 76.3732 88.1507 76.6469 89.0778C76.9205 90.0049 77.5544 90.6362 78.0626 90.4878Z" fill="#EB2427"/>
<path d="M65.6886 92.0853C66.1968 91.9369 66.387 91.065 66.1133 90.1379C65.8397 89.2108 65.2058 88.5796 64.6976 88.7279C64.1893 88.8763 63.9992 89.7481 64.2729 90.6753C64.5465 91.6024 65.1804 92.2336 65.6886 92.0853Z" fill="#EB2427"/>
<path d="M16.917 96.3193C23.7181 100.761 30.6288 105.089 38.0054 108.479C41.6772 110.174 45.4641 111.525 49.4538 112.207C53.4435 112.942 57.4825 113.438 61.5653 113.694C55.4383 114.065 49.1414 113.684 43.2226 111.929C33.4676 108.68 24.7046 102.909 16.9225 96.3193H16.917Z" fill="#F48220"/>
<g filter="url(#filter9_i_2557_48875)">
<path d="M17.0595 178.53C17.0595 178.53 6.72902 194.357 7.36474 199.889C8.00046 205.421 -9.41606 210.228 -9.63528 198.712C-9.85449 187.196 4.90407 171.554 4.90407 171.554C4.90407 171.554 7.31542 168.72 13.2561 172.131C19.1968 175.543 17.0595 178.53 17.0595 178.53Z" fill="#F0C1DE"/>
</g>
<g filter="url(#filter10_i_2557_48875)">
<path d="M26.0858 39.736C29.4617 37.8284 32.3772 35.1687 34.5639 31.9641C35.4133 30.7214 36.1587 29.3807 36.5094 27.8764C36.8602 26.3722 36.778 24.699 36.0381 23.2438C35.1448 21.4943 33.2925 20.2135 31.4017 20.0446C29.511 19.8756 26.9791 20.2408 26.0529 25.4239C26.3872 21.7614 24.2225 16.9816 21.3727 14.4799C18.8079 12.2345 13.5632 10.6594 9.51325 13.2482C5.96747 15.5155 5.34819 20.6441 6.67991 23.4673C8.01163 26.2904 10.4613 29.179 10.4613 29.179C10.4613 29.179 7.54033 25.8435 5.09609 24.5791C0.602212 22.2573 -3.45324 25.0914 -4.37394 28.089C-5.28368 31.0593 -4.64795 34.2368 -3.7985 36.3296C-2.05027 40.6407 1.84625 43.3113 6.38398 44.3577C6.86077 44.4667 25.5542 40.0248 26.0858 39.7251V39.736Z" fill="#EC97CA"/>
</g>
<path d="M35.6951 63.9247C28.0738 63.019 23.6494 64.7388 21.4039 72.417C20.8924 64.0519 28.6364 60.2917 35.6951 63.9247Z" fill="#ECBBAC"/>
<path d="M33.6765 79.762C37.5835 78.6659 39.7176 74.1333 38.4432 69.6382C37.1688 65.1431 32.9685 62.3877 29.0615 63.4838C25.1545 64.5799 23.0204 69.1125 24.2948 73.6076C25.5692 78.1027 29.7696 80.8581 33.6765 79.762Z" fill="#121617"/>
<path d="M33.8826 80.3895C37.7855 79.4438 40.0487 74.9985 38.9375 70.4608C37.8264 65.923 33.7617 63.0111 29.8588 63.9568C25.9559 64.9025 23.6928 69.3478 24.8039 73.8856C25.9151 78.4233 29.9798 81.3353 33.8826 80.3895Z" fill="white"/>
<path d="M34.4555 79.2656C37.546 78.5168 39.3316 74.9703 38.4437 71.3445C37.5559 67.7186 34.3308 65.3864 31.2403 66.1353C28.1499 66.8841 26.3643 70.4305 27.2521 74.0564C28.14 77.6822 31.3651 80.0145 34.4555 79.2656Z" fill="#414F51"/>
<path d="M35.0845 79.3923C37.9307 78.7026 39.5816 75.4631 38.772 72.1567C37.9624 68.8503 34.9987 66.729 32.1525 67.4187C29.3063 68.1084 27.6554 71.3479 28.465 74.6543C29.2746 77.9607 32.2383 80.0819 35.0845 79.3923Z" fill="#121617"/>
<path d="M33.095 72.1936C33.9596 71.9841 34.4464 70.94 34.1823 69.8616C33.9182 68.7831 33.0032 68.0787 32.1387 68.2882C31.2741 68.4976 30.7873 69.5418 31.0514 70.6202C31.3155 71.6987 32.2304 72.4031 33.095 72.1936Z" fill="white"/>
<path d="M36.7634 71.4377C36.8905 70.8901 36.6365 70.3641 36.1961 70.263C35.7557 70.1619 35.2957 70.5238 35.1686 71.0714C35.0415 71.6191 35.2955 72.145 35.7359 72.2461C36.1763 72.3473 36.6363 71.9853 36.7634 71.4377Z" fill="white"/>
<path d="M31.7052 73.8579C31.9613 73.4874 31.7916 72.9289 31.3261 72.6104C30.8606 72.2919 30.2756 72.334 30.0194 72.7045C29.7633 73.0749 29.933 73.6334 30.3985 73.9519C30.864 74.2704 31.449 74.2283 31.7052 73.8579Z" fill="white"/>
<path d="M40.9167 77.6731C40.9167 77.6731 28.4568 77.8257 23.2549 80.3342C29.3826 83.7637 36.4872 82.1252 36.4872 82.1252L40.9167 77.668V77.6731Z" fill="#F9C767"/>
<path d="M41.5571 79.0986C35.9205 80.1213 30.0485 80.508 24.417 81.5511C29.179 78.5236 36.1046 77.9944 41.5571 79.0986Z" fill="#ECBBAC"/>
<path d="M17.7544 64.5896C22.2781 60.0791 30.581 59.9622 34.167 60.4676C26.7604 56.6423 21.6701 60.7669 19.1918 60.5506C19.1204 60.4193 18.9883 60.3826 18.7895 60.4676C18.9149 60.5112 19.0491 60.5381 19.1918 60.5506C19.4593 61.0423 18.8757 62.8612 17.7544 64.5896Z" fill="black"/>
<path d="M22.1162 67.3748C23.3438 68.5959 24.5032 68.562 24.9294 68.3924L24.4179 69.41C23.7359 69.2404 22.3208 68.5959 22.1162 67.3748Z" fill="black"/>
<path d="M22.8828 66.3567C23.7756 67.2726 24.6188 67.2471 24.9288 67.1199L24.5568 67.8832C24.0608 67.7559 23.0316 67.2726 22.8828 66.3567Z" fill="black"/>
<g filter="url(#filter11_f_2557_48875)">
<path d="M13.9318 91.7977C17.4629 91.7977 20.3254 88.8362 20.3254 85.183C20.3254 81.5299 17.4629 78.5684 13.9318 78.5684C10.4006 78.5684 7.53809 81.5299 7.53809 85.183C7.53809 88.8362 10.4006 91.7977 13.9318 91.7977Z" fill="#EB2427" fill-opacity="0.6"/>
</g>
<g filter="url(#filter12_i_2557_48875)">
<path d="M4.94789 140.722C4.94789 140.722 -10.9615 129.32 -12.1124 117.597C-12.1124 117.597 -34.8175 124.377 -45.0273 121.281C-45.0273 121.281 -37.8043 133.762 -27.3916 135.996C-27.3916 135.996 -36.2204 154.418 -19.8726 154.195C-19.8726 154.195 -22.2949 166.588 -15.2472 168.556L3.53396 152.99L4.95885 140.722H4.94789Z" fill="#F5A4D5"/>
</g>
<path d="M-5.86734 72.4678C-10.4599 79.1279 -5.37959 95.582 -3.32994 103.087C-1.40086 109.883 0.659751 116.658 2.38058 123.525C3.4054 127.765 4.40831 132.262 5.04403 136.584C5.3564 138.458 5.65782 141.32 5.83867 143.211C5.90992 144.197 6.00856 146.23 6.05788 147.211C6.12913 149.876 6.01952 152.547 5.78387 155.19C5.09882 141.025 1.11462 127.471 -2.7819 113.933C-5.64264 103.316 -9.28159 92.4209 -8.78288 81.2372C-8.49242 78.2014 -8.12524 74.7297 -5.86734 72.4624V72.4678Z" fill="white" fill-opacity="0.3"/>
<g filter="url(#filter13_i_2557_48875)">
<path fill-rule="evenodd" clip-rule="evenodd" d="M55.3465 59.6108C54.8251 60.3563 54.2246 61.215 53.5493 62.06C53.1098 62.61 52.3054 62.7014 51.7526 62.2642C51.1998 61.827 51.1079 61.0268 51.5473 60.4769C52.1758 59.6905 52.6833 58.9636 53.1767 58.2571C53.4369 57.8844 53.6932 57.5174 53.9612 57.1503C54.6859 56.1576 55.4958 55.1682 56.5678 54.5484C58.9161 53.1907 61.7605 53.9515 66.0149 56.6051C66.6133 56.9783 66.7942 57.7633 66.419 58.3586C66.0439 58.9538 65.2547 59.1338 64.6564 58.7606C60.386 56.0971 58.7903 56.206 57.8529 56.748C57.2821 57.078 56.7378 57.6764 56.0306 58.6452C55.8204 58.9331 55.5922 59.2594 55.3465 59.6108Z" fill="url(#paint2_linear_2557_48875)"/>
</g>
<g filter="url(#filter14_di_2557_48875)">
<path d="M-17.5254 75.1413C-16.6065 69.323 2.37948 65.6732 12.9085 65.3389C12.9085 65.8404 13.8274 68.4994 12.9085 68.9006C8.314 67.3959 -10.6337 71.8811 -12.3566 74.3889C-14.0795 76.8968 -16.0896 79.6554 -17.5254 75.1413Z" fill="url(#paint3_linear_2557_48875)"/>
</g>
<g filter="url(#filter15_di_2557_48875)">
<path d="M28.3572 50.8753C29.1238 48.378 32.4837 47.9284 33.8864 50.1355L38.9719 58.1376C39.5527 59.0515 40.5762 59.5916 41.6626 59.5576L51.2448 59.2573C53.9246 59.1734 55.4166 62.308 53.653 64.3169L47.5329 71.2884C46.7978 72.1257 46.5784 73.2944 46.9601 74.3393L50.1229 82.9964C51.027 85.471 48.5691 87.8472 46.1083 86.8776L37.0719 83.3168C36.0785 82.9253 34.9519 83.076 34.0978 83.7147L26.3283 89.524C24.2125 91.106 21.2108 89.4602 21.4255 86.8359L22.1766 77.6552C22.2672 76.5471 21.7452 75.4776 20.8138 74.8632L13.0596 69.748C10.8251 68.274 11.4315 64.8587 14.0384 64.2353L23.3598 62.0064C24.4167 61.7537 25.2603 60.9637 25.5777 59.9296L28.3572 50.8753Z" fill="url(#paint4_linear_2557_48875)" shape-rendering="crispEdges"/>
</g>
<g filter="url(#filter16_i_2557_48875)">
<path fill-rule="evenodd" clip-rule="evenodd" d="M36.8102 59.4971L31.7247 51.495C31.4909 51.1272 30.9309 51.2021 30.8032 51.6183L28.0237 60.6727C27.4417 62.5685 25.8951 64.0167 23.9576 64.48L14.6361 66.7089C14.4951 66.7427 14.4219 66.7994 14.3752 66.8511C14.3198 66.9126 14.2718 67.0033 14.252 67.1152C14.2321 67.2271 14.2459 67.3286 14.2769 67.4053C14.3029 67.4698 14.3521 67.548 14.473 67.6277L22.2272 72.7429C23.9347 73.8693 24.8918 75.8301 24.7256 77.8615L23.9745 87.0423C23.9387 87.4797 24.439 87.754 24.7916 87.4903L32.5612 81.681C34.1271 80.5101 36.1925 80.2338 38.0138 80.9515L47.0502 84.5123C47.4603 84.6739 47.87 84.2778 47.7193 83.8654L44.5565 75.2083C43.8567 73.2927 44.2589 71.1501 45.6066 69.6149L51.7267 62.6434C51.8221 62.5348 51.8488 62.4464 51.8567 62.3773C51.8662 62.2952 51.8526 62.1937 51.8037 62.091C51.7548 61.9883 51.6845 61.9135 51.6147 61.8687C51.5559 61.8311 51.4702 61.7956 51.3253 61.8002L41.7431 62.1004C39.7514 62.1628 37.8751 61.1726 36.8102 59.4971ZM33.8864 50.1355C32.4837 47.9284 29.1238 48.378 28.3572 50.8753L25.5777 59.9296C25.2603 60.9637 24.4167 61.7537 23.3598 62.0064L14.0384 64.2353C11.4315 64.8587 10.8251 68.274 13.0596 69.748L20.8138 74.8632C21.7452 75.4776 22.2672 76.5471 22.1766 77.6552L21.4255 86.8359C21.2108 89.4602 24.2125 91.106 26.3283 89.524L34.0978 83.7147C34.9519 83.076 36.0785 82.9253 37.0719 83.3168L46.1083 86.8776C48.5691 87.8472 51.027 85.471 50.1229 82.9964L46.9601 74.3393C46.5784 73.2944 46.7978 72.1257 47.5329 71.2884L53.653 64.3169C55.4166 62.308 53.9246 59.1734 51.2448 59.2573L41.6626 59.5576C40.5762 59.5916 39.5527 59.0515 38.9719 58.1376L33.8864 50.1355Z" fill="url(#paint5_linear_2557_48875)"/>
</g>
<path fill-rule="evenodd" clip-rule="evenodd" d="M31.3838 58.1723C31.9727 57.7846 32.7661 57.9453 33.1558 58.5312L34.5893 60.6863C36.4554 63.4916 39.8304 64.9105 43.1533 64.2866C44.8415 63.9697 45.9207 66.0201 44.6971 67.2197L43.6292 68.2668C42.2902 69.5796 41.7387 71.4934 42.1753 73.3125L42.6331 75.22C42.7971 75.9034 42.3731 76.5896 41.6862 76.7527C40.9993 76.9158 40.3095 76.4941 40.1455 75.8108L39.6877 73.9033C39.0987 71.4487 39.7282 68.8774 41.3503 66.9735C37.8085 66.8951 34.4635 65.1074 32.4565 62.0902L31.023 59.9351C30.6333 59.3492 30.7948 58.56 31.3838 58.1723Z" fill="url(#paint6_linear_2557_48875)" fill-opacity="0.4"/>
</g>
</g>
</g>
<defs>
<filter id="filter0_d_2557_48875" x="0" y="0" width="186" height="188.339" filterUnits="userSpaceOnUse" color-interpolation-filters="sRGB">
<feFlood flood-opacity="0" result="BackgroundImageFix"/>
<feColorMatrix in="SourceAlpha" type="matrix" values="0 0 0 0 0 0 0 0 0 0 0 0 0 0 0 0 0 0 127 0" result="hardAlpha"/>
<feOffset dy="2.33878"/>
<feComposite in2="hardAlpha" operator="out"/>
<feColorMatrix type="matrix" values="0 0 0 0 0.529412 0 0 0 0 0.529412 0 0 0 0 0.529412 0 0 0 1 0"/>
<feBlend mode="normal" in2="BackgroundImageFix" result="effect1_dropShadow_2557_48875"/>
<feBlend mode="normal" in="SourceGraphic" in2="effect1_dropShadow_2557_48875" result="shape"/>
</filter>
<filter id="filter1_i_2557_48875" x="59.3665" y="50.709" width="18.5885" height="36.892" filterUnits="userSpaceOnUse" color-interpolation-filters="sRGB">
<feFlood flood-opacity="0" result="BackgroundImageFix"/>
<feBlend mode="normal" in="SourceGraphic" in2="BackgroundImageFix" result="shape"/>
<feColorMatrix in="SourceAlpha" type="matrix" values="0 0 0 0 0 0 0 0 0 0 0 0 0 0 0 0 0 0 127 0" result="hardAlpha"/>
<feOffset dx="-11.8273" dy="4.43522"/>
<feGaussianBlur stdDeviation="2.21761"/>
<feComposite in2="hardAlpha" operator="arithmetic" k2="-1" k3="1"/>
<feColorMatrix type="matrix" values="0 0 0 0 1 0 0 0 0 1 0 0 0 0 1 0 0 0 0.25 0"/>
<feBlend mode="normal" in2="shape" result="effect1_innerShadow_2557_48875"/>
</filter>
<filter id="filter2_i_2557_48875" x="62.0117" y="49.8196" width="13.8105" height="33.5346" filterUnits="userSpaceOnUse" color-interpolation-filters="sRGB">
<feFlood flood-opacity="0" result="BackgroundImageFix"/>
<feBlend mode="normal" in="SourceGraphic" in2="BackgroundImageFix" result="shape"/>
<feColorMatrix in="SourceAlpha" type="matrix" values="0 0 0 0 0 0 0 0 0 0 0 0 0 0 0 0 0 0 127 0" result="hardAlpha"/>
<feOffset dy="2.95681"/>
<feGaussianBlur stdDeviation="0.739203"/>
<feComposite in2="hardAlpha" operator="arithmetic" k2="-1" k3="1"/>
<feColorMatrix type="matrix" values="0 0 0 0 1 0 0 0 0 1 0 0 0 0 1 0 0 0 0.25 0"/>
<feBlend mode="normal" in2="shape" result="effect1_innerShadow_2557_48875"/>
</filter>
<filter id="filter3_i_2557_48875" x="48.3252" y="115.58" width="53.8379" height="54.4631" filterUnits="userSpaceOnUse" color-interpolation-filters="sRGB">
<feFlood flood-opacity="0" result="BackgroundImageFix"/>
<feBlend mode="normal" in="SourceGraphic" in2="BackgroundImageFix" result="shape"/>
<feColorMatrix in="SourceAlpha" type="matrix" values="0 0 0 0 0 0 0 0 0 0 0 0 0 0 0 0 0 0 127 0" result="hardAlpha"/>
<feOffset dx="-9" dy="4"/>
<feGaussianBlur stdDeviation="2"/>
<feComposite in2="hardAlpha" operator="arithmetic" k2="-1" k3="1"/>
<feColorMatrix type="matrix" values="0 0 0 0 1 0 0 0 0 1 0 0 0 0 1 0 0 0 0.25 0"/>
<feBlend mode="normal" in2="shape" result="effect1_innerShadow_2557_48875"/>
</filter>
<filter id="filter4_i_2557_48875" x="-45.1641" y="30.0691" width="132.422" height="275.118" filterUnits="userSpaceOnUse" color-interpolation-filters="sRGB">
<feFlood flood-opacity="0" result="BackgroundImageFix"/>
<feBlend mode="normal" in="SourceGraphic" in2="BackgroundImageFix" result="shape"/>
<feColorMatrix in="SourceAlpha" type="matrix" values="0 0 0 0 0 0 0 0 0 0 0 0 0 0 0 0 0 0 127 0" result="hardAlpha"/>
<feOffset dx="-9" dy="4"/>
<feGaussianBlur stdDeviation="2"/>
<feComposite in2="hardAlpha" operator="arithmetic" k2="-1" k3="1"/>
<feColorMatrix type="matrix" values="0 0 0 0 1 0 0 0 0 1 0 0 0 0 1 0 0 0 0.25 0"/>
<feBlend mode="normal" in2="shape" result="effect1_innerShadow_2557_48875"/>
</filter>
<filter id="filter5_i_2557_48875" x="48.2861" y="27.375" width="11.9883" height="26.3028" filterUnits="userSpaceOnUse" color-interpolation-filters="sRGB">
<feFlood flood-opacity="0" result="BackgroundImageFix"/>
<feBlend mode="normal" in="SourceGraphic" in2="BackgroundImageFix" result="shape"/>
<feColorMatrix in="SourceAlpha" type="matrix" values="0 0 0 0 0 0 0 0 0 0 0 0 0 0 0 0 0 0 127 0" result="hardAlpha"/>
<feOffset dy="5.91363"/>
<feGaussianBlur stdDeviation="2.95681"/>
<feComposite in2="hardAlpha" operator="arithmetic" k2="-1" k3="1"/>
<feColorMatrix type="matrix" values="0 0 0 0 0.983333 0 0 0 0 0.483472 0 0 0 0 0.843372 0 0 0 0.25 0"/>
<feBlend mode="normal" in2="shape" result="effect1_innerShadow_2557_48875"/>
</filter>
<filter id="filter6_i_2557_48875" x="-41.8223" y="29.4854" width="107.94" height="272.207" filterUnits="userSpaceOnUse" color-interpolation-filters="sRGB">
<feFlood flood-opacity="0" result="BackgroundImageFix"/>
<feBlend mode="normal" in="SourceGraphic" in2="BackgroundImageFix" result="shape"/>
<feColorMatrix in="SourceAlpha" type="matrix" values="0 0 0 0 0 0 0 0 0 0 0 0 0 0 0 0 0 0 127 0" result="hardAlpha"/>
<feOffset dx="8" dy="4"/>
<feGaussianBlur stdDeviation="2"/>
<feComposite in2="hardAlpha" operator="arithmetic" k2="-1" k3="1"/>
<feColorMatrix type="matrix" values="0 0 0 0 1 0 0 0 0 1 0 0 0 0 1 0 0 0 0.25 0"/>
<feBlend mode="normal" in2="shape" result="effect1_innerShadow_2557_48875"/>
</filter>
<filter id="filter7_f_2557_48875" x="-18.5806" y="75.5488" width="60.5968" height="228.866" filterUnits="userSpaceOnUse" color-interpolation-filters="sRGB">
<feFlood flood-opacity="0" result="BackgroundImageFix"/>
<feBlend mode="normal" in="SourceGraphic" in2="BackgroundImageFix" result="shape"/>
<feGaussianBlur stdDeviation="2.95681" result="effect1_foregroundBlur_2557_48875"/>
</filter>
<filter id="filter8_i_2557_48875" x="-11.6465" y="39.7249" width="16.04" height="22.4756" filterUnits="userSpaceOnUse" color-interpolation-filters="sRGB">
<feFlood flood-opacity="0" result="BackgroundImageFix"/>
<feBlend mode="normal" in="SourceGraphic" in2="BackgroundImageFix" result="shape"/>
<feColorMatrix in="SourceAlpha" type="matrix" values="0 0 0 0 0 0 0 0 0 0 0 0 0 0 0 0 0 0 127 0" result="hardAlpha"/>
<feOffset dy="5.91363"/>
<feGaussianBlur stdDeviation="2.95681"/>
<feComposite in2="hardAlpha" operator="arithmetic" k2="-1" k3="1"/>
<feColorMatrix type="matrix" values="0 0 0 0 0.983333 0 0 0 0 0.483472 0 0 0 0 0.843372 0 0 0 0.25 0"/>
<feBlend mode="normal" in2="shape" result="effect1_innerShadow_2557_48875"/>
</filter>
<filter id="filter9_i_2557_48875" x="-9.6377" y="170.449" width="31.0713" height="39.3145" filterUnits="userSpaceOnUse" color-interpolation-filters="sRGB">
<feFlood flood-opacity="0" result="BackgroundImageFix"/>
<feBlend mode="normal" in="SourceGraphic" in2="BackgroundImageFix" result="shape"/>
<feColorMatrix in="SourceAlpha" type="matrix" values="0 0 0 0 0 0 0 0 0 0 0 0 0 0 0 0 0 0 127 0" result="hardAlpha"/>
<feOffset dx="8" dy="4"/>
<feGaussianBlur stdDeviation="2"/>
<feComposite in2="hardAlpha" operator="arithmetic" k2="-1" k3="1"/>
<feColorMatrix type="matrix" values="0 0 0 0 1 0 0 0 0 1 0 0 0 0 1 0 0 0 0.25 0"/>
<feBlend mode="normal" in2="shape" result="effect1_innerShadow_2557_48875"/>
</filter>
<filter id="filter10_i_2557_48875" x="-4.81836" y="11.9077" width="45.5283" height="36.4519" filterUnits="userSpaceOnUse" color-interpolation-filters="sRGB">
<feFlood flood-opacity="0" result="BackgroundImageFix"/>
<feBlend mode="normal" in="SourceGraphic" in2="BackgroundImageFix" result="shape"/>
<feColorMatrix in="SourceAlpha" type="matrix" values="0 0 0 0 0 0 0 0 0 0 0 0 0 0 0 0 0 0 127 0" result="hardAlpha"/>
<feOffset dx="8" dy="4"/>
<feGaussianBlur stdDeviation="2"/>
<feComposite in2="hardAlpha" operator="arithmetic" k2="-1" k3="1"/>
<feColorMatrix type="matrix" values="0 0 0 0 1 0 0 0 0 1 0 0 0 0 1 0 0 0 0.25 0"/>
<feBlend mode="normal" in2="shape" result="effect1_innerShadow_2557_48875"/>
</filter>
<filter id="filter11_f_2557_48875" x="1.62446" y="72.6547" width="24.6144" height="25.0565" filterUnits="userSpaceOnUse" color-interpolation-filters="sRGB">
<feFlood flood-opacity="0" result="BackgroundImageFix"/>
<feBlend mode="normal" in="SourceGraphic" in2="BackgroundImageFix" result="shape"/>
<feGaussianBlur stdDeviation="2.95681" result="effect1_foregroundBlur_2557_48875"/>
</filter>
<filter id="filter12_i_2557_48875" x="-45.0273" y="117.597" width="53.9863" height="54.959" filterUnits="userSpaceOnUse" color-interpolation-filters="sRGB">
<feFlood flood-opacity="0" result="BackgroundImageFix"/>
<feBlend mode="normal" in="SourceGraphic" in2="BackgroundImageFix" result="shape"/>
<feColorMatrix in="SourceAlpha" type="matrix" values="0 0 0 0 0 0 0 0 0 0 0 0 0 0 0 0 0 0 127 0" result="hardAlpha"/>
<feOffset dx="8" dy="4"/>
<feGaussianBlur stdDeviation="2"/>
<feComposite in2="hardAlpha" operator="arithmetic" k2="-1" k3="1"/>
<feColorMatrix type="matrix" values="0 0 0 0 1 0 0 0 0 1 0 0 0 0 1 0 0 0 0.25 0"/>
<feBlend mode="normal" in2="shape" result="effect1_innerShadow_2557_48875"/>
</filter>
<filter id="filter13_i_2557_48875" x="51.2695" y="53.8882" width="15.3447" height="10.1308" filterUnits="userSpaceOnUse" color-interpolation-filters="sRGB">
<feFlood flood-opacity="0" result="BackgroundImageFix"/>
<feBlend mode="normal" in="SourceGraphic" in2="BackgroundImageFix" result="shape"/>
<feColorMatrix in="SourceAlpha" type="matrix" values="0 0 0 0 0 0 0 0 0 0 0 0 0 0 0 0 0 0 127 0" result="hardAlpha"/>
<feOffset dy="2.95681"/>
<feGaussianBlur stdDeviation="0.739203"/>
<feComposite in2="hardAlpha" operator="arithmetic" k2="-1" k3="1"/>
<feColorMatrix type="matrix" values="0 0 0 0 1 0 0 0 0 1 0 0 0 0 1 0 0 0 0.25 0"/>
<feBlend mode="normal" in2="shape" result="effect1_innerShadow_2557_48875"/>
</filter>
<filter id="filter14_di_2557_48875" x="-19.0038" y="65.3389" width="33.7986" height="19.6037" filterUnits="userSpaceOnUse" color-interpolation-filters="sRGB">
<feFlood flood-opacity="0" result="BackgroundImageFix"/>
<feColorMatrix in="SourceAlpha" type="matrix" values="0 0 0 0 0 0 0 0 0 0 0 0 0 0 0 0 0 0 127 0" result="hardAlpha"/>
<feOffset dy="5.91363"/>
<feGaussianBlur stdDeviation="0.739203"/>
<feComposite in2="hardAlpha" operator="out"/>
<feColorMatrix type="matrix" values="0 0 0 0 0 0 0 0 0 0 0 0 0 0 0 0 0 0 0.05 0"/>
<feBlend mode="normal" in2="BackgroundImageFix" result="effect1_dropShadow_2557_48875"/>
<feBlend mode="normal" in="SourceGraphic" in2="effect1_dropShadow_2557_48875" result="shape"/>
<feColorMatrix in="SourceAlpha" type="matrix" values="0 0 0 0 0 0 0 0 0 0 0 0 0 0 0 0 0 0 127 0" result="hardAlpha"/>
<feOffset dy="2.95681"/>
<feGaussianBlur stdDeviation="0.739203"/>
<feComposite in2="hardAlpha" operator="arithmetic" k2="-1" k3="1"/>
<feColorMatrix type="matrix" values="0 0 0 0 1 0 0 0 0 1 0 0 0 0 1 0 0 0 0.25 0"/>
<feBlend mode="normal" in2="shape" result="effect2_innerShadow_2557_48875"/>
</filter>
<filter id="filter15_di_2557_48875" x="1.3367" y="48.7131" width="53.0803" height="53.2579" filterUnits="userSpaceOnUse" color-interpolation-filters="sRGB">
<feFlood flood-opacity="0" result="BackgroundImageFix"/>
<feColorMatrix in="SourceAlpha" type="matrix" values="0 0 0 0 0 0 0 0 0 0 0 0 0 0 0 0 0 0 127 0" result="hardAlpha"/>
<feOffset dx="-7.39203" dy="8.87044"/>
<feGaussianBlur stdDeviation="1.47841"/>
<feComposite in2="hardAlpha" operator="out"/>
<feColorMatrix type="matrix" values="0 0 0 0 0 0 0 0 0 0 0 0 0 0 0 0 0 0 0.05 0"/>
<feBlend mode="normal" in2="BackgroundImageFix" result="effect1_dropShadow_2557_48875"/>
<feBlend mode="normal" in="SourceGraphic" in2="effect1_dropShadow_2557_48875" result="shape"/>
<feColorMatrix in="SourceAlpha" type="matrix" values="0 0 0 0 0 0 0 0 0 0 0 0 0 0 0 0 0 0 127 0" result="hardAlpha"/>
<feOffset dx="-11.8273" dy="4.43522"/>
<feGaussianBlur stdDeviation="2.21761"/>
<feComposite in2="hardAlpha" operator="arithmetic" k2="-1" k3="1"/>
<feColorMatrix type="matrix" values="0 0 0 0 1 0 0 0 0 1 0 0 0 0 1 0 0 0 0.25 0"/>
<feBlend mode="normal" in2="shape" result="effect2_innerShadow_2557_48875"/>
</filter>
<filter id="filter16_i_2557_48875" x="11.6855" y="48.7131" width="42.7314" height="42.9091" filterUnits="userSpaceOnUse" color-interpolation-filters="sRGB">
<feFlood flood-opacity="0" result="BackgroundImageFix"/>
<feBlend mode="normal" in="SourceGraphic" in2="BackgroundImageFix" result="shape"/>
<feColorMatrix in="SourceAlpha" type="matrix" values="0 0 0 0 0 0 0 0 0 0 0 0 0 0 0 0 0 0 127 0" result="hardAlpha"/>
<feOffset dy="2.95681"/>
<feGaussianBlur stdDeviation="0.739203"/>
<feComposite in2="hardAlpha" operator="arithmetic" k2="-1" k3="1"/>
<feColorMatrix type="matrix" values="0 0 0 0 1 0 0 0 0 1 0 0 0 0 1 0 0 0 0.25 0"/>
<feBlend mode="normal" in2="shape" result="effect1_innerShadow_2557_48875"/>
</filter>
<linearGradient id="paint0_linear_2557_48875" x1="69.5631" y1="50.1372" x2="72.8796" y2="83.557" gradientUnits="userSpaceOnUse">
<stop stop-color="#802E72"/>
<stop offset="1" stop-color="#4A1B52" stop-opacity="0.52"/>
</linearGradient>
<linearGradient id="paint1_linear_2557_48875" x1="68.9171" y1="39.6406" x2="68.9171" y2="80.6037" gradientUnits="userSpaceOnUse">
<stop stop-color="#C56869"/>
<stop offset="1" stop-color="#EB2427"/>
</linearGradient>
<linearGradient id="paint2_linear_2557_48875" x1="58.942" y1="52.7934" x2="58.942" y2="61.2685" gradientUnits="userSpaceOnUse">
<stop stop-color="#CC696A"/>
<stop offset="1" stop-color="#EB2427"/>
</linearGradient>
<linearGradient id="paint3_linear_2557_48875" x1="-16.6639" y1="75.8936" x2="12.8772" y2="66.8736" gradientUnits="userSpaceOnUse">
<stop stop-color="#E96466"/>
<stop offset="1" stop-color="#E15759"/>
</linearGradient>
<linearGradient id="paint4_linear_2557_48875" x1="30.8835" y1="50.4647" x2="36.9911" y2="93.4642" gradientUnits="userSpaceOnUse">
<stop stop-color="#DDBAE2" stop-opacity="0.52"/>
<stop offset="0.802083" stop-color="#802E72"/>
</linearGradient>
<linearGradient id="paint5_linear_2557_48875" x1="30.3112" y1="44.51" x2="37.2618" y2="96.4606" gradientUnits="userSpaceOnUse">
<stop stop-color="#E88183"/>
<stop offset="1" stop-color="#EB2427"/>
</linearGradient>
<linearGradient id="paint6_linear_2557_48875" x1="38.317" y1="59.2331" x2="38.317" y2="75.5154" gradientUnits="userSpaceOnUse">
<stop stop-color="white"/>
<stop offset="1" stop-color="white" stop-opacity="0"/>
</linearGradient>
<clipPath id="clip0_2557_48875">
<rect width="186" height="186" fill="white"/>
</clipPath>
<clipPath id="clip1_2557_48875">
<rect width="198.107" height="322.293" fill="white" transform="translate(-57.4219 -2.87134)"/>
</clipPath>
<clipPath id="clip2_2557_48875">
<rect width="198.107" height="322.293" fill="white" transform="translate(-57.4219 11.9128)"/>
</clipPath>
</defs>
</svg>
